<svg width="1508" height="486" viewBox="0 0 1508 486" fill="none" xmlns="http://www.w3.org/2000/svg">
<g clip-path="url(#clip0_7_5156)">
<rect width="1508" height="486" rx="24" fill="#EBF1FD"/>
<path d="M193 263H83C80.7909 263 79 261.209 79 259V210C79 207.791 80.7909 206 83 206H193C195.209 206 197 207.791 197 210V259C197 261.209 195.209 263 193 263Z" fill="#F9FAFB" stroke="#15AABF" stroke-width="2"/>
<path d="M116 247H96C94.9 247 94 246.1 94 245V225C94 223.9 94.9 223 96 223H116C117.1 223 118 223.9 118 225V245C118 246.1 117.1 247 116 247Z" fill="#F9FAFB"/>
<path fill-rule="evenodd" clip-rule="evenodd" d="M100.375 227.501V228.776H99.5C99.225 228.776 99 229.001 99 229.276V242.501C99 242.776 99.225 243.001 99.5 243.001H112.5C112.775 243.001 113 242.776 113 242.501V229.276C113 229.001 112.775 228.776 112.5 228.776H111.625V227.501C111.625 227.226 111.4 227.001 111.125 227.001H100.875C100.6 227.001 100.375 227.226 100.375 227.501ZM110.55 231.401H101.45C101.35 231.401 101.25 231.326 101.25 231.201V230.601C101.25 230.501 101.325 230.401 101.45 230.401H110.55C110.65 230.401 110.75 230.476 110.75 230.601V231.201C110.75 231.326 110.675 231.401 110.55 231.401ZM107.5 241.001H104.5V237.501C104.5 237.226 104.725 237.001 105 237.001H107C107.275 237.001 107.5 237.226 107.5 237.501V241.001ZM101.45 233.501H110.55C110.675 233.501 110.75 233.401 110.75 233.301V232.701C110.75 232.576 110.65 232.501 110.55 232.501H101.45C101.325 232.501 101.25 232.601 101.25 232.701V233.301C101.25 233.426 101.35 233.501 101.45 233.501ZM110.55 235.876H101.45C101.35 235.876 101.25 235.801 101.25 235.676V235.076C101.25 234.976 101.325 234.876 101.45 234.876H110.55C110.65 234.876 110.75 234.951 110.75 235.076V235.676C110.75 235.776 110.675 235.876 110.55 235.876Z" fill="#15AABF"/>
<path d="M113.5 243H98.5C98.225 243 98 242.775 98 242.5V241.5C98 241.225 98.225 241 98.5 241H113.5C113.775 241 114 241.225 114 241.5V242.5C114 242.775 113.775 243 113.5 243Z" fill="#0C8599"/>
<path d="M130.583 239.144C129.927 239.144 129.331 238.988 128.795 238.676C128.259 238.364 127.831 237.908 127.511 237.308C127.199 236.7 127.043 235.964 127.043 235.1C127.043 234.244 127.203 233.512 127.523 232.904C127.851 232.288 128.287 231.82 128.831 231.5C129.375 231.172 129.975 231.008 130.631 231.008C131.127 231.008 131.567 231.108 131.951 231.308C132.335 231.508 132.651 231.74 132.899 232.004L132.155 232.904C131.955 232.696 131.731 232.532 131.483 232.412C131.243 232.284 130.971 232.22 130.667 232.22C130.243 232.22 129.863 232.336 129.527 232.568C129.199 232.792 128.939 233.116 128.747 233.54C128.563 233.964 128.471 234.472 128.471 235.064C128.471 235.96 128.667 236.664 129.059 237.176C129.451 237.68 129.975 237.932 130.631 237.932C130.983 237.932 131.295 237.86 131.567 237.716C131.839 237.564 132.087 237.368 132.311 237.128L133.055 238.004C132.735 238.372 132.367 238.656 131.951 238.856C131.543 239.048 131.087 239.144 130.583 239.144ZM136.657 239.144C136.169 239.144 135.713 239.024 135.289 238.784C134.865 238.536 134.521 238.184 134.257 237.728C133.993 237.264 133.861 236.708 133.861 236.06C133.861 235.404 133.993 234.848 134.257 234.392C134.521 233.928 134.865 233.576 135.289 233.336C135.713 233.088 136.169 232.964 136.657 232.964C137.153 232.964 137.613 233.088 138.037 233.336C138.461 233.576 138.805 233.928 139.069 234.392C139.333 234.848 139.465 235.404 139.465 236.06C139.465 236.708 139.333 237.264 139.069 237.728C138.805 238.184 138.461 238.536 138.037 238.784C137.613 239.024 137.153 239.144 136.657 239.144ZM136.657 238.016C137.089 238.016 137.429 237.836 137.677 237.476C137.925 237.116 138.049 236.644 138.049 236.06C138.049 235.468 137.925 234.992 137.677 234.632C137.429 234.272 137.089 234.092 136.657 234.092C136.225 234.092 135.885 234.272 135.637 234.632C135.397 234.992 135.277 235.468 135.277 236.06C135.277 236.644 135.397 237.116 135.637 237.476C135.885 237.836 136.225 238.016 136.657 238.016ZM140.831 239V233.108H141.971L142.067 233.912H142.115C142.363 233.648 142.631 233.424 142.919 233.24C143.215 233.056 143.547 232.964 143.915 232.964C144.347 232.964 144.691 233.06 144.947 233.252C145.211 233.436 145.411 233.692 145.547 234.02C145.827 233.716 146.119 233.464 146.423 233.264C146.735 233.064 147.075 232.964 147.443 232.964C148.067 232.964 148.527 233.168 148.823 233.576C149.119 233.984 149.267 234.56 149.267 235.304V239H147.875V235.484C147.875 234.996 147.799 234.652 147.647 234.452C147.503 234.252 147.279 234.152 146.975 234.152C146.607 234.152 146.195 234.396 145.739 234.884V239H144.359V235.484C144.359 234.996 144.283 234.652 144.131 234.452C143.987 234.252 143.759 234.152 143.447 234.152C143.079 234.152 142.667 234.396 142.211 234.884V239H140.831ZM150.944 241.328V233.108H152.084L152.18 233.732H152.228C152.476 233.524 152.752 233.344 153.056 233.192C153.368 233.04 153.684 232.964 154.004 232.964C154.74 232.964 155.308 233.236 155.708 233.78C156.116 234.324 156.32 235.052 156.32 235.964C156.32 236.636 156.2 237.212 155.96 237.692C155.72 238.164 155.408 238.524 155.024 238.772C154.648 239.02 154.24 239.144 153.8 239.144C153.544 239.144 153.288 239.088 153.032 238.976C152.776 238.856 152.528 238.696 152.288 238.496L152.324 239.48V241.328H150.944ZM153.512 238.004C153.904 238.004 154.232 237.832 154.496 237.488C154.76 237.144 154.892 236.64 154.892 235.976C154.892 235.384 154.792 234.924 154.592 234.596C154.392 234.268 154.068 234.104 153.62 234.104C153.204 234.104 152.772 234.324 152.324 234.764V237.512C152.54 237.688 152.748 237.816 152.948 237.896C153.148 237.968 153.336 238.004 153.512 238.004ZM159.005 239.144C158.493 239.144 158.073 238.984 157.745 238.664C157.425 238.344 157.265 237.928 157.265 237.416C157.265 236.784 157.541 236.296 158.093 235.952C158.645 235.6 159.525 235.36 160.733 235.232C160.725 234.92 160.641 234.652 160.481 234.428C160.329 234.196 160.053 234.08 159.653 234.08C159.365 234.08 159.081 234.136 158.801 234.248C158.529 234.36 158.261 234.496 157.997 234.656L157.493 233.732C157.821 233.524 158.189 233.344 158.597 233.192C159.013 233.04 159.453 232.964 159.917 232.964C160.653 232.964 161.201 233.184 161.561 233.624C161.929 234.056 162.113 234.684 162.113 235.508V239H160.973L160.877 238.352H160.829C160.565 238.576 160.281 238.764 159.977 238.916C159.681 239.068 159.357 239.144 159.005 239.144ZM159.449 238.064C159.689 238.064 159.905 238.008 160.097 237.896C160.297 237.776 160.509 237.616 160.733 237.416V236.096C159.933 236.2 159.377 236.356 159.065 236.564C158.753 236.764 158.597 237.012 158.597 237.308C158.597 237.572 158.677 237.764 158.837 237.884C158.997 238.004 159.201 238.064 159.449 238.064ZM163.765 239V233.108H164.905L165.001 233.9H165.049C165.313 233.644 165.601 233.424 165.913 233.24C166.225 233.056 166.581 232.964 166.981 232.964C167.613 232.964 168.073 233.168 168.361 233.576C168.649 233.984 168.793 234.56 168.793 235.304V239H167.413V235.484C167.413 234.996 167.341 234.652 167.197 234.452C167.053 234.252 166.817 234.152 166.489 234.152C166.233 234.152 166.005 234.216 165.805 234.344C165.613 234.464 165.393 234.644 165.145 234.884V239H163.765ZM170.876 241.424C170.716 241.424 170.576 241.412 170.456 241.388C170.336 241.364 170.22 241.336 170.108 241.304L170.36 240.224C170.416 240.24 170.48 240.256 170.552 240.272C170.632 240.296 170.708 240.308 170.78 240.308C171.092 240.308 171.34 240.212 171.524 240.02C171.716 239.836 171.86 239.596 171.956 239.3L172.064 238.928L169.748 233.108H171.152L172.172 236C172.26 236.256 172.344 236.528 172.424 236.816C172.512 237.096 172.6 237.376 172.688 237.656H172.736C172.808 237.384 172.88 237.108 172.952 236.828C173.032 236.54 173.108 236.264 173.18 236L174.068 233.108H175.4L173.264 239.264C173.016 239.928 172.716 240.452 172.364 240.836C172.012 241.228 171.516 241.424 170.876 241.424Z" fill="#181E25"/>
<path d="M78.5966 144.748V143.091H87.3004V144.748H83.9286V154H81.9684V144.748H78.5966ZM91.2755 154.16C90.4765 154.16 89.784 153.984 89.1981 153.632C88.6121 153.281 88.1576 152.789 87.8344 152.157C87.5148 151.525 87.355 150.786 87.355 149.941C87.355 149.096 87.5148 148.355 87.8344 147.72C88.1576 147.084 88.6121 146.591 89.1981 146.239C89.784 145.887 90.4765 145.712 91.2755 145.712C92.0745 145.712 92.767 145.887 93.3529 146.239C93.9388 146.591 94.3916 147.084 94.7112 147.72C95.0344 148.355 95.1959 149.096 95.1959 149.941C95.1959 150.786 95.0344 151.525 94.7112 152.157C94.3916 152.789 93.9388 153.281 93.3529 153.632C92.767 153.984 92.0745 154.16 91.2755 154.16ZM91.2861 152.615C91.7194 152.615 92.0816 152.496 92.3728 152.258C92.664 152.017 92.8806 151.694 93.0226 151.289C93.1682 150.884 93.241 150.433 93.241 149.936C93.241 149.435 93.1682 148.982 93.0226 148.577C92.8806 148.169 92.664 147.844 92.3728 147.603C92.0816 147.361 91.7194 147.24 91.2861 147.24C90.8422 147.24 90.4729 147.361 90.1782 147.603C89.887 147.844 89.6686 148.169 89.523 148.577C89.3809 148.982 89.3099 149.435 89.3099 149.936C89.3099 150.433 89.3809 150.884 89.523 151.289C89.6686 151.694 89.887 152.017 90.1782 152.258C90.4729 152.496 90.8422 152.615 91.2861 152.615ZM96.8326 157.068V145.818H98.7289V147.171H98.8407C98.9402 146.972 99.0804 146.761 99.2615 146.537C99.4426 146.31 99.6877 146.116 99.9966 145.957C100.306 145.793 100.7 145.712 101.179 145.712C101.811 145.712 102.381 145.873 102.889 146.196C103.4 146.516 103.805 146.99 104.104 147.619C104.405 148.244 104.556 149.011 104.556 149.92C104.556 150.818 104.409 151.582 104.114 152.21C103.819 152.839 103.418 153.318 102.91 153.648C102.403 153.979 101.827 154.144 101.184 154.144C100.716 154.144 100.327 154.066 100.018 153.909C99.709 153.753 99.4604 153.565 99.2722 153.345C99.0875 153.121 98.9437 152.91 98.8407 152.711H98.7608V157.068H96.8326ZM98.7235 149.909C98.7235 150.438 98.7981 150.902 98.9473 151.299C99.1 151.697 99.3184 152.008 99.6025 152.232C99.8901 152.452 100.238 152.562 100.646 152.562C101.073 152.562 101.43 152.448 101.717 152.221C102.005 151.99 102.221 151.676 102.367 151.278C102.516 150.877 102.591 150.42 102.591 149.909C102.591 149.401 102.518 148.95 102.372 148.556C102.227 148.162 102.01 147.853 101.722 147.629C101.435 147.406 101.076 147.294 100.646 147.294C100.235 147.294 99.8848 147.402 99.5971 147.619C99.3095 147.835 99.0911 148.139 98.9419 148.529C98.7963 148.92 98.7235 149.38 98.7235 149.909ZM111.167 148.663V150.25H106.256V148.663H111.167ZM113.28 154V143.091H115.256V152.343H120.061V154H113.28ZM125.313 154.16C124.493 154.16 123.784 153.989 123.188 153.648C122.595 153.304 122.138 152.817 121.819 152.189C121.499 151.557 121.339 150.813 121.339 149.957C121.339 149.115 121.499 148.377 121.819 147.741C122.142 147.102 122.593 146.605 123.172 146.25C123.751 145.891 124.431 145.712 125.212 145.712C125.716 145.712 126.192 145.793 126.639 145.957C127.09 146.116 127.488 146.365 127.833 146.702C128.181 147.04 128.454 147.469 128.653 147.991C128.852 148.51 128.951 149.128 128.951 149.845V150.436H122.245V149.137H127.103C127.099 148.767 127.019 148.439 126.863 148.151C126.707 147.86 126.489 147.631 126.208 147.464C125.931 147.297 125.608 147.214 125.239 147.214C124.844 147.214 124.498 147.31 124.2 147.501C123.902 147.69 123.669 147.938 123.502 148.247C123.339 148.553 123.255 148.888 123.252 149.254V150.388C123.252 150.864 123.339 151.273 123.513 151.614C123.687 151.951 123.93 152.21 124.242 152.391C124.555 152.569 124.921 152.658 125.34 152.658C125.62 152.658 125.874 152.619 126.101 152.54C126.329 152.459 126.526 152.34 126.693 152.184C126.86 152.027 126.986 151.834 127.071 151.603L128.871 151.805C128.758 152.281 128.541 152.697 128.222 153.052C127.905 153.403 127.501 153.677 127.007 153.872C126.513 154.064 125.949 154.16 125.313 154.16ZM137.656 145.818L134.743 154H132.612L129.698 145.818H131.754L133.635 151.896H133.72L135.606 145.818H137.656ZM142.335 154.16C141.514 154.16 140.806 153.989 140.209 153.648C139.616 153.304 139.16 152.817 138.84 152.189C138.521 151.557 138.361 150.813 138.361 149.957C138.361 149.115 138.521 148.377 138.84 147.741C139.163 147.102 139.614 146.605 140.193 146.25C140.772 145.891 141.452 145.712 142.233 145.712C142.738 145.712 143.214 145.793 143.661 145.957C144.112 146.116 144.51 146.365 144.854 146.702C145.202 147.04 145.476 147.469 145.674 147.991C145.873 148.51 145.973 149.128 145.973 149.845V150.436H139.266V149.137H144.124C144.121 148.767 144.041 148.439 143.885 148.151C143.728 147.86 143.51 147.631 143.229 147.464C142.953 147.297 142.629 147.214 142.26 147.214C141.866 147.214 141.52 147.31 141.221 147.501C140.923 147.69 140.69 147.938 140.524 148.247C140.36 148.553 140.277 148.888 140.273 149.254V150.388C140.273 150.864 140.36 151.273 140.534 151.614C140.708 151.951 140.951 152.21 141.264 152.391C141.576 152.569 141.942 152.658 142.361 152.658C142.642 152.658 142.896 152.619 143.123 152.54C143.35 152.459 143.547 152.34 143.714 152.184C143.881 152.027 144.007 151.834 144.092 151.603L145.893 151.805C145.779 152.281 145.563 152.697 145.243 153.052C144.927 153.403 144.522 153.677 144.028 153.872C143.535 154.064 142.97 154.16 142.335 154.16ZM149.532 143.091V154H147.604V143.091H149.532ZM155.321 154V143.091H159.412C160.25 143.091 160.953 143.247 161.521 143.56C162.093 143.872 162.525 144.302 162.816 144.849C163.111 145.392 163.258 146.01 163.258 146.702C163.258 147.402 163.111 148.023 162.816 148.567C162.521 149.11 162.086 149.538 161.511 149.85C160.935 150.159 160.227 150.314 159.385 150.314H156.674V148.689H159.119C159.609 148.689 160.01 148.604 160.323 148.434C160.635 148.263 160.866 148.029 161.015 147.73C161.168 147.432 161.244 147.089 161.244 146.702C161.244 146.315 161.168 145.974 161.015 145.68C160.866 145.385 160.634 145.156 160.318 144.993C160.005 144.826 159.602 144.742 159.108 144.742H157.297V154H155.321ZM167.097 154.165C166.579 154.165 166.112 154.073 165.696 153.888C165.284 153.7 164.958 153.423 164.716 153.057C164.478 152.691 164.359 152.24 164.359 151.704C164.359 151.243 164.444 150.861 164.615 150.559C164.785 150.257 165.018 150.016 165.313 149.835C165.607 149.653 165.939 149.517 166.309 149.424C166.682 149.328 167.067 149.259 167.465 149.217C167.944 149.167 168.333 149.123 168.631 149.083C168.93 149.041 169.146 148.977 169.281 148.892C169.42 148.803 169.489 148.666 169.489 148.482V148.45C169.489 148.048 169.37 147.738 169.132 147.517C168.894 147.297 168.551 147.187 168.104 147.187C167.632 147.187 167.257 147.29 166.98 147.496C166.706 147.702 166.522 147.945 166.426 148.226L164.626 147.97C164.768 147.473 165.002 147.058 165.329 146.724C165.655 146.386 166.055 146.134 166.527 145.967C166.999 145.797 167.521 145.712 168.093 145.712C168.487 145.712 168.88 145.758 169.27 145.85C169.661 145.942 170.018 146.095 170.341 146.308C170.664 146.518 170.923 146.804 171.119 147.166C171.318 147.528 171.417 147.981 171.417 148.524V154H169.563V152.876H169.499C169.382 153.103 169.217 153.316 169.004 153.515C168.795 153.711 168.53 153.869 168.21 153.989C167.894 154.107 167.523 154.165 167.097 154.165ZM167.598 152.748C167.985 152.748 168.32 152.672 168.605 152.519C168.889 152.363 169.107 152.157 169.26 151.901C169.416 151.646 169.494 151.367 169.494 151.065V150.101C169.434 150.151 169.331 150.197 169.185 150.239C169.043 150.282 168.883 150.319 168.706 150.351C168.528 150.383 168.352 150.412 168.178 150.436C168.004 150.461 167.854 150.483 167.726 150.5C167.438 150.539 167.181 150.603 166.953 150.692C166.726 150.781 166.547 150.905 166.415 151.065C166.284 151.221 166.218 151.424 166.218 151.672C166.218 152.027 166.348 152.295 166.607 152.477C166.866 152.658 167.197 152.748 167.598 152.748ZM173.356 154V145.818H175.226V147.182H175.311C175.46 146.71 175.716 146.346 176.078 146.09C176.444 145.831 176.861 145.701 177.33 145.701C177.436 145.701 177.555 145.706 177.687 145.717C177.822 145.724 177.933 145.737 178.022 145.754V147.528C177.941 147.5 177.811 147.475 177.633 147.453C177.459 147.429 177.291 147.416 177.127 147.416C176.776 147.416 176.46 147.493 176.179 147.645C175.902 147.794 175.684 148.002 175.524 148.268C175.364 148.535 175.284 148.842 175.284 149.19V154H173.356ZM182.589 154.16C181.768 154.16 181.06 153.989 180.463 153.648C179.87 153.304 179.414 152.817 179.094 152.189C178.775 151.557 178.615 150.813 178.615 149.957C178.615 149.115 178.775 148.377 179.094 147.741C179.417 147.102 179.868 146.605 180.447 146.25C181.026 145.891 181.706 145.712 182.487 145.712C182.992 145.712 183.467 145.793 183.915 145.957C184.366 146.116 184.764 146.365 185.108 146.702C185.456 147.04 185.729 147.469 185.928 147.991C186.127 148.51 186.227 149.128 186.227 149.845V150.436H179.52V149.137H184.378C184.375 148.767 184.295 148.439 184.139 148.151C183.982 147.86 183.764 147.631 183.483 147.464C183.206 147.297 182.883 147.214 182.514 147.214C182.12 147.214 181.774 147.31 181.475 147.501C181.177 147.69 180.944 147.938 180.777 148.247C180.614 148.553 180.531 148.888 180.527 149.254V150.388C180.527 150.864 180.614 151.273 180.788 151.614C180.962 151.951 181.205 152.21 181.518 152.391C181.83 152.569 182.196 152.658 182.615 152.658C182.896 152.658 183.15 152.619 183.377 152.54C183.604 152.459 183.801 152.34 183.968 152.184C184.135 152.027 184.261 151.834 184.346 151.603L186.147 151.805C186.033 152.281 185.816 152.697 185.497 153.052C185.181 153.403 184.776 153.677 184.282 153.872C183.789 154.064 183.224 154.16 182.589 154.16ZM189.786 149.206V154H187.858V145.818H189.701V147.208H189.797C189.985 146.75 190.285 146.386 190.697 146.116C191.113 145.847 191.626 145.712 192.237 145.712C192.801 145.712 193.293 145.832 193.712 146.074C194.135 146.315 194.461 146.665 194.692 147.123C194.926 147.581 195.042 148.137 195.038 148.79V154H193.11V149.089C193.11 148.542 192.968 148.114 192.684 147.805C192.403 147.496 192.015 147.342 191.517 147.342C191.18 147.342 190.88 147.416 190.617 147.565C190.358 147.711 190.154 147.922 190.005 148.199C189.859 148.476 189.786 148.812 189.786 149.206ZM201.084 145.818V147.31H196.381V145.818H201.084ZM197.542 143.858H199.47V151.539C199.47 151.798 199.509 151.997 199.587 152.136C199.669 152.271 199.776 152.363 199.907 152.413C200.038 152.462 200.184 152.487 200.344 152.487C200.464 152.487 200.575 152.478 200.674 152.461C200.777 152.443 200.855 152.427 200.908 152.413L201.233 153.92C201.13 153.956 200.983 153.995 200.791 154.037C200.603 154.08 200.372 154.105 200.099 154.112C199.616 154.126 199.181 154.053 198.794 153.893C198.407 153.73 198.099 153.478 197.872 153.137C197.648 152.796 197.538 152.37 197.542 151.859V143.858Z" fill="black"/>
<path d="M78.5966 313.748V312.091H87.3004V313.748H83.9286V323H81.9684V313.748H78.5966ZM90.1342 323.165C89.6158 323.165 89.1488 323.073 88.7333 322.888C88.3214 322.7 87.9947 322.423 87.7532 322.057C87.5153 321.691 87.3963 321.24 87.3963 320.704C87.3963 320.243 87.4815 319.861 87.652 319.559C87.8224 319.257 88.055 319.016 88.3498 318.835C88.6445 318.653 88.9766 318.517 89.3459 318.424C89.7188 318.328 90.104 318.259 90.5018 318.217C90.9812 318.167 91.37 318.123 91.6683 318.083C91.9666 318.041 92.1832 317.977 92.3182 317.892C92.4567 317.803 92.5259 317.666 92.5259 317.482V317.45C92.5259 317.048 92.407 316.738 92.169 316.517C91.9311 316.297 91.5884 316.187 91.141 316.187C90.6687 316.187 90.294 316.29 90.017 316.496C89.7436 316.702 89.5589 316.945 89.4631 317.226L87.6626 316.97C87.8047 316.473 88.0391 316.058 88.3658 315.724C88.6925 315.386 89.092 315.134 89.5643 314.967C90.0366 314.797 90.5586 314.712 91.1303 314.712C91.5245 314.712 91.9169 314.758 92.3075 314.85C92.6982 314.942 93.055 315.095 93.3782 315.308C93.7013 315.518 93.9606 315.804 94.1559 316.166C94.3548 316.528 94.4542 316.981 94.4542 317.524V323H92.6005V321.876H92.5366C92.4194 322.103 92.2543 322.316 92.0412 322.515C91.8317 322.711 91.5671 322.869 91.2475 322.989C90.9315 323.107 90.5604 323.165 90.1342 323.165ZM90.6349 321.748C91.022 321.748 91.3576 321.672 91.6417 321.519C91.9258 321.363 92.1442 321.157 92.2969 320.901C92.4531 320.646 92.5312 320.367 92.5312 320.065V319.101C92.4709 319.151 92.3679 319.197 92.2223 319.239C92.0803 319.282 91.9205 319.319 91.7429 319.351C91.5653 319.383 91.3896 319.412 91.2156 319.436C91.0415 319.461 90.8906 319.483 90.7628 319.5C90.4751 319.539 90.2177 319.603 89.9904 319.692C89.7631 319.781 89.5838 319.905 89.4524 320.065C89.321 320.221 89.2553 320.424 89.2553 320.672C89.2553 321.027 89.3849 321.295 89.6442 321.477C89.9034 321.658 90.2337 321.748 90.6349 321.748ZM99.9513 326.239C99.2589 326.239 98.6641 326.145 98.1669 325.956C97.6697 325.772 97.2702 325.523 96.9684 325.211C96.6665 324.898 96.457 324.552 96.3398 324.172L98.0763 323.751C98.1545 323.911 98.2681 324.069 98.4173 324.225C98.5664 324.385 98.767 324.516 99.0192 324.619C99.2749 324.726 99.5962 324.779 99.9833 324.779C100.53 324.779 100.983 324.646 101.342 324.38C101.7 324.117 101.88 323.684 101.88 323.08V321.53H101.784C101.684 321.729 101.539 321.933 101.347 322.142C101.159 322.352 100.908 322.528 100.596 322.67C100.287 322.812 99.8981 322.883 99.4293 322.883C98.8008 322.883 98.2308 322.735 97.7195 322.441C97.2116 322.142 96.8068 321.699 96.505 321.109C96.2067 320.516 96.0575 319.774 96.0575 318.882C96.0575 317.984 96.2067 317.226 96.505 316.608C96.8068 315.987 97.2134 315.516 97.7248 315.196C98.2362 314.873 98.8061 314.712 99.4347 314.712C99.9141 314.712 100.308 314.793 100.617 314.957C100.93 315.116 101.178 315.31 101.363 315.537C101.548 315.761 101.688 315.972 101.784 316.171H101.89V314.818H103.792V323.133C103.792 323.833 103.625 324.412 103.291 324.87C102.957 325.328 102.501 325.67 101.922 325.898C101.343 326.125 100.686 326.239 99.9513 326.239ZM99.9673 321.37C100.376 321.37 100.724 321.271 101.011 321.072C101.299 320.873 101.517 320.587 101.667 320.214C101.816 319.841 101.89 319.394 101.89 318.872C101.89 318.357 101.816 317.906 101.667 317.519C101.521 317.132 101.304 316.832 101.017 316.619C100.733 316.402 100.383 316.294 99.9673 316.294C99.5376 316.294 99.179 316.406 98.8913 316.629C98.6037 316.853 98.3871 317.16 98.2415 317.551C98.0959 317.938 98.0231 318.378 98.0231 318.872C98.0231 319.373 98.0959 319.811 98.2415 320.188C98.3906 320.56 98.609 320.852 98.8967 321.061C99.1879 321.267 99.5447 321.37 99.9673 321.37ZM113.058 323.16C112.259 323.16 111.566 322.984 110.98 322.632C110.394 322.281 109.94 321.789 109.617 321.157C109.297 320.525 109.137 319.786 109.137 318.941C109.137 318.096 109.297 317.355 109.617 316.72C109.94 316.084 110.394 315.591 110.98 315.239C111.566 314.887 112.259 314.712 113.058 314.712C113.857 314.712 114.549 314.887 115.135 315.239C115.721 315.591 116.174 316.084 116.493 316.72C116.817 317.355 116.978 318.096 116.978 318.941C116.978 319.786 116.817 320.525 116.493 321.157C116.174 321.789 115.721 322.281 115.135 322.632C114.549 322.984 113.857 323.16 113.058 323.16ZM113.068 321.615C113.502 321.615 113.864 321.496 114.155 321.258C114.446 321.017 114.663 320.694 114.805 320.289C114.95 319.884 115.023 319.433 115.023 318.936C115.023 318.435 114.95 317.982 114.805 317.577C114.663 317.169 114.446 316.844 114.155 316.603C113.864 316.361 113.502 316.24 113.068 316.24C112.624 316.24 112.255 316.361 111.96 316.603C111.669 316.844 111.451 317.169 111.305 317.577C111.163 317.982 111.092 318.435 111.092 318.936C111.092 319.433 111.163 319.884 111.305 320.289C111.451 320.694 111.669 321.017 111.96 321.258C112.255 321.496 112.624 321.615 113.068 321.615ZM120.543 318.206V323H118.615V314.818H120.458V316.208H120.554C120.742 315.75 121.042 315.386 121.454 315.116C121.869 314.847 122.383 314.712 122.993 314.712C123.558 314.712 124.05 314.832 124.469 315.074C124.891 315.315 125.218 315.665 125.449 316.123C125.683 316.581 125.799 317.137 125.795 317.79V323H123.867V318.089C123.867 317.542 123.725 317.114 123.441 316.805C123.16 316.496 122.771 316.342 122.274 316.342C121.937 316.342 121.637 316.416 121.374 316.565C121.115 316.711 120.911 316.922 120.761 317.199C120.616 317.476 120.543 317.812 120.543 318.206ZM131.561 323V312.091H135.737C136.526 312.091 137.181 312.215 137.703 312.464C138.229 312.709 138.621 313.044 138.88 313.471C139.143 313.897 139.274 314.38 139.274 314.919C139.274 315.363 139.189 315.743 139.019 316.059C138.848 316.372 138.619 316.626 138.332 316.821C138.044 317.016 137.723 317.157 137.367 317.242V317.348C137.755 317.37 138.126 317.489 138.481 317.705C138.839 317.918 139.132 318.22 139.36 318.611C139.587 319.001 139.701 319.474 139.701 320.028C139.701 320.592 139.564 321.1 139.29 321.551C139.017 321.999 138.605 322.352 138.055 322.611C137.504 322.87 136.812 323 135.977 323H131.561ZM133.538 321.349H135.663C136.38 321.349 136.897 321.212 137.213 320.939C137.533 320.662 137.692 320.306 137.692 319.873C137.692 319.55 137.612 319.259 137.453 319C137.293 318.737 137.066 318.531 136.771 318.382C136.476 318.229 136.125 318.153 135.716 318.153H133.538V321.349ZM133.538 316.73H135.492C135.833 316.73 136.141 316.668 136.414 316.544C136.687 316.416 136.902 316.237 137.059 316.006C137.218 315.772 137.298 315.495 137.298 315.175C137.298 314.752 137.149 314.404 136.851 314.131C136.556 313.858 136.117 313.721 135.535 313.721H133.538V316.73ZM143.263 312.091V323H141.335V312.091H143.263ZM150.46 319.559V314.818H152.389V323H150.519V321.546H150.434C150.249 322.004 149.946 322.379 149.523 322.67C149.104 322.961 148.587 323.107 147.973 323.107C147.437 323.107 146.963 322.988 146.551 322.75C146.142 322.508 145.823 322.158 145.592 321.7C145.361 321.239 145.246 320.681 145.246 320.028V314.818H147.174V319.729C147.174 320.248 147.316 320.66 147.6 320.965C147.884 321.271 148.257 321.423 148.719 321.423C149.003 321.423 149.278 321.354 149.544 321.216C149.811 321.077 150.029 320.871 150.199 320.598C150.373 320.321 150.46 319.974 150.46 319.559ZM157.994 323.16C157.173 323.16 156.465 322.989 155.868 322.648C155.275 322.304 154.819 321.817 154.499 321.189C154.18 320.557 154.02 319.813 154.02 318.957C154.02 318.115 154.18 317.377 154.499 316.741C154.823 316.102 155.274 315.605 155.852 315.25C156.431 314.891 157.111 314.712 157.893 314.712C158.397 314.712 158.873 314.793 159.32 314.957C159.771 315.116 160.169 315.365 160.513 315.702C160.861 316.04 161.135 316.469 161.334 316.991C161.532 317.51 161.632 318.128 161.632 318.845V319.436H154.926V318.137H159.784C159.78 317.767 159.7 317.439 159.544 317.151C159.388 316.86 159.169 316.631 158.889 316.464C158.612 316.297 158.289 316.214 157.919 316.214C157.525 316.214 157.179 316.31 156.881 316.501C156.582 316.69 156.35 316.938 156.183 317.247C156.019 317.553 155.936 317.888 155.932 318.254V319.388C155.932 319.864 156.019 320.273 156.193 320.614C156.367 320.951 156.611 321.21 156.923 321.391C157.236 321.569 157.601 321.658 158.02 321.658C158.301 321.658 158.555 321.619 158.782 321.54C159.009 321.459 159.206 321.34 159.373 321.184C159.54 321.027 159.666 320.834 159.752 320.603L161.552 320.805C161.438 321.281 161.222 321.697 160.902 322.052C160.586 322.403 160.181 322.677 159.688 322.872C159.194 323.064 158.629 323.16 157.994 323.16ZM163.263 326.068V314.818H165.16V316.171H165.271C165.371 315.972 165.511 315.761 165.692 315.537C165.873 315.31 166.118 315.116 166.427 314.957C166.736 314.793 167.13 314.712 167.61 314.712C168.242 314.712 168.812 314.873 169.32 315.196C169.831 315.516 170.236 315.99 170.534 316.619C170.836 317.244 170.987 318.011 170.987 318.92C170.987 319.818 170.84 320.582 170.545 321.21C170.25 321.839 169.849 322.318 169.341 322.648C168.833 322.979 168.258 323.144 167.615 323.144C167.146 323.144 166.758 323.066 166.449 322.909C166.14 322.753 165.891 322.565 165.703 322.345C165.518 322.121 165.374 321.91 165.271 321.711H165.191V326.068H163.263ZM165.154 318.909C165.154 319.438 165.229 319.902 165.378 320.299C165.531 320.697 165.749 321.008 166.033 321.232C166.321 321.452 166.669 321.562 167.077 321.562C167.503 321.562 167.86 321.448 168.148 321.221C168.435 320.99 168.652 320.676 168.798 320.278C168.947 319.877 169.021 319.42 169.021 318.909C169.021 318.401 168.949 317.95 168.803 317.556C168.657 317.162 168.441 316.853 168.153 316.629C167.866 316.406 167.507 316.294 167.077 316.294C166.665 316.294 166.315 316.402 166.028 316.619C165.74 316.835 165.522 317.139 165.373 317.529C165.227 317.92 165.154 318.38 165.154 318.909ZM172.638 323V314.818H174.508V316.182H174.593C174.742 315.71 174.998 315.346 175.36 315.09C175.726 314.831 176.143 314.701 176.612 314.701C176.718 314.701 176.837 314.706 176.969 314.717C177.104 314.724 177.216 314.737 177.304 314.754V316.528C177.223 316.5 177.093 316.475 176.916 316.453C176.742 316.429 176.573 316.416 176.41 316.416C176.058 316.416 175.742 316.493 175.461 316.645C175.184 316.794 174.966 317.002 174.806 317.268C174.646 317.535 174.566 317.842 174.566 318.19V323H172.638ZM178.585 323V314.818H180.514V323H178.585ZM179.555 313.657C179.25 313.657 178.987 313.556 178.767 313.353C178.546 313.147 178.436 312.901 178.436 312.613C178.436 312.322 178.546 312.075 178.767 311.873C178.987 311.667 179.25 311.564 179.555 311.564C179.864 311.564 180.127 311.667 180.343 311.873C180.563 312.075 180.674 312.322 180.674 312.613C180.674 312.901 180.563 313.147 180.343 313.353C180.127 313.556 179.864 313.657 179.555 313.657ZM184.425 318.206V323H182.497V314.818H184.34V316.208H184.436C184.624 315.75 184.924 315.386 185.336 315.116C185.751 314.847 186.264 314.712 186.875 314.712C187.44 314.712 187.932 314.832 188.351 315.074C188.773 315.315 189.1 315.665 189.331 316.123C189.565 316.581 189.681 317.137 189.677 317.79V323H187.749V318.089C187.749 317.542 187.607 317.114 187.323 316.805C187.042 316.496 186.653 316.342 186.156 316.342C185.819 316.342 185.519 316.416 185.256 316.565C184.997 316.711 184.792 316.922 184.643 317.199C184.498 317.476 184.425 317.812 184.425 318.206ZM195.723 314.818V316.31H191.019V314.818H195.723ZM192.181 312.858H194.109V320.539C194.109 320.798 194.148 320.997 194.226 321.136C194.308 321.271 194.414 321.363 194.546 321.413C194.677 321.462 194.823 321.487 194.982 321.487C195.103 321.487 195.213 321.478 195.313 321.461C195.416 321.443 195.494 321.427 195.547 321.413L195.872 322.92C195.769 322.956 195.622 322.995 195.43 323.037C195.242 323.08 195.011 323.105 194.737 323.112C194.254 323.126 193.819 323.053 193.432 322.893C193.045 322.73 192.738 322.478 192.511 322.137C192.287 321.796 192.177 321.37 192.181 320.859V312.858Z" fill="black"/>
<path d="M79.4347 125V110.455H84.8892C86.0066 110.455 86.9441 110.649 87.7017 111.037C88.464 111.425 89.0393 111.97 89.4276 112.67C89.8205 113.366 90.017 114.179 90.017 115.107C90.017 116.039 89.8182 116.849 89.4205 117.536C89.0275 118.217 88.4474 118.745 87.6804 119.119C86.9134 119.489 85.9711 119.673 84.8537 119.673H80.9688V117.486H84.4986C85.152 117.486 85.687 117.396 86.1037 117.216C86.5204 117.031 86.8281 116.764 87.027 116.413C87.2306 116.058 87.3324 115.623 87.3324 115.107C87.3324 114.59 87.2306 114.15 87.027 113.786C86.8234 113.416 86.5133 113.137 86.0966 112.947C85.6799 112.753 85.1425 112.656 84.4844 112.656H82.0696V125H79.4347ZM86.9489 118.409L90.5497 125H87.6094L84.0724 118.409H86.9489ZM96.9311 125.213C95.8658 125.213 94.9425 124.979 94.1612 124.51C93.38 124.041 92.7739 123.385 92.343 122.543C91.9169 121.7 91.7038 120.715 91.7038 119.588C91.7038 118.461 91.9169 117.474 92.343 116.626C92.7739 115.779 93.38 115.121 94.1612 114.652C94.9425 114.183 95.8658 113.949 96.9311 113.949C97.9964 113.949 98.9197 114.183 99.701 114.652C100.482 115.121 101.086 115.779 101.512 116.626C101.943 117.474 102.158 118.461 102.158 119.588C102.158 120.715 101.943 121.7 101.512 122.543C101.086 123.385 100.482 124.041 99.701 124.51C98.9197 124.979 97.9964 125.213 96.9311 125.213ZM96.9453 123.153C97.523 123.153 98.0059 122.995 98.3942 122.678C98.7824 122.356 99.0713 121.925 99.2607 121.385C99.4548 120.845 99.5518 120.244 99.5518 119.581C99.5518 118.913 99.4548 118.31 99.2607 117.77C99.0713 117.225 98.7824 116.792 98.3942 116.47C98.0059 116.148 97.523 115.987 96.9453 115.987C96.3535 115.987 95.861 116.148 95.468 116.47C95.0798 116.792 94.7886 117.225 94.5945 117.77C94.4051 118.31 94.3104 118.913 94.3104 119.581C94.3104 120.244 94.4051 120.845 94.5945 121.385C94.7886 121.925 95.0798 122.356 95.468 122.678C95.861 122.995 96.3535 123.153 96.9453 123.153ZM109.099 125.213C108.034 125.213 107.11 124.979 106.329 124.51C105.548 124.041 104.942 123.385 104.511 122.543C104.085 121.7 103.872 120.715 103.872 119.588C103.872 118.461 104.085 117.474 104.511 116.626C104.942 115.779 105.548 115.121 106.329 114.652C107.11 114.183 108.034 113.949 109.099 113.949C110.164 113.949 111.088 114.183 111.869 114.652C112.65 115.121 113.254 115.779 113.68 116.626C114.111 117.474 114.326 118.461 114.326 119.588C114.326 120.715 114.111 121.7 113.68 122.543C113.254 123.385 112.65 124.041 111.869 124.51C111.088 124.979 110.164 125.213 109.099 125.213ZM109.113 123.153C109.691 123.153 110.174 122.995 110.562 122.678C110.95 122.356 111.239 121.925 111.429 121.385C111.623 120.845 111.72 120.244 111.72 119.581C111.72 118.913 111.623 118.31 111.429 117.77C111.239 117.225 110.95 116.792 110.562 116.47C110.174 116.148 109.691 115.987 109.113 115.987C108.521 115.987 108.029 116.148 107.636 116.47C107.248 116.792 106.957 117.225 106.762 117.77C106.573 118.31 106.478 118.913 106.478 119.581C106.478 120.244 106.573 120.845 106.762 121.385C106.957 121.925 107.248 122.356 107.636 122.678C108.029 122.995 108.521 123.153 109.113 123.153ZM121.956 114.091V116.08H115.685V114.091H121.956ZM117.233 111.477H119.804V121.719C119.804 122.064 119.856 122.33 119.96 122.514C120.069 122.694 120.211 122.817 120.386 122.884C120.562 122.95 120.756 122.983 120.969 122.983C121.13 122.983 121.277 122.971 121.409 122.947C121.546 122.924 121.651 122.902 121.722 122.884L122.155 124.893C122.018 124.941 121.821 124.993 121.565 125.05C121.314 125.107 121.007 125.14 120.642 125.149C119.998 125.168 119.418 125.071 118.902 124.858C118.386 124.64 117.976 124.304 117.673 123.849C117.375 123.395 117.228 122.827 117.233 122.145V111.477Z" fill="#0024AC"/>
<path d="M347.388 110.455V125H345.044L338.19 115.092H338.07V125H335.435V110.455H337.793L344.639 120.369H344.767V110.455H347.388ZM353.284 125.22C352.593 125.22 351.971 125.097 351.417 124.851C350.867 124.6 350.432 124.231 350.11 123.743C349.792 123.255 349.634 122.654 349.634 121.939C349.634 121.323 349.748 120.814 349.975 120.412C350.202 120.009 350.512 119.688 350.905 119.446C351.298 119.205 351.741 119.022 352.233 118.899C352.73 118.771 353.244 118.679 353.775 118.622C354.414 118.556 354.932 118.497 355.33 118.445C355.728 118.388 356.016 118.303 356.196 118.189C356.381 118.071 356.473 117.888 356.473 117.642V117.599C356.473 117.064 356.315 116.65 355.998 116.357C355.68 116.063 355.223 115.916 354.627 115.916C353.997 115.916 353.498 116.054 353.128 116.328C352.764 116.603 352.517 116.927 352.39 117.301L349.989 116.96C350.178 116.297 350.491 115.743 350.926 115.298C351.362 114.848 351.895 114.512 352.525 114.29C353.154 114.062 353.85 113.949 354.613 113.949C355.138 113.949 355.661 114.01 356.182 114.134C356.703 114.257 357.179 114.46 357.61 114.744C358.041 115.024 358.386 115.405 358.647 115.888C358.912 116.371 359.044 116.974 359.044 117.699V125H356.573V123.501H356.488C356.331 123.804 356.111 124.089 355.827 124.354C355.548 124.614 355.195 124.825 354.769 124.986C354.347 125.142 353.853 125.22 353.284 125.22ZM353.952 123.331C354.468 123.331 354.916 123.229 355.294 123.026C355.673 122.817 355.964 122.543 356.168 122.202C356.376 121.861 356.48 121.489 356.48 121.087V119.801C356.4 119.867 356.263 119.929 356.069 119.986C355.879 120.043 355.666 120.092 355.429 120.135C355.193 120.178 354.958 120.215 354.726 120.249C354.494 120.282 354.293 120.31 354.123 120.334C353.739 120.386 353.396 120.471 353.093 120.589C352.79 120.708 352.551 120.874 352.375 121.087C352.2 121.295 352.113 121.565 352.113 121.896C352.113 122.37 352.285 122.727 352.631 122.969C352.977 123.21 353.417 123.331 353.952 123.331ZM370.983 114.091L367.098 125H364.257L360.373 114.091H363.114L365.621 122.195H365.735L368.249 114.091H370.983ZM372.762 125V114.091H375.333V125H372.762ZM374.055 112.543C373.648 112.543 373.297 112.408 373.004 112.138C372.71 111.863 372.564 111.534 372.564 111.151C372.564 110.762 372.71 110.433 373.004 110.163C373.297 109.889 373.648 109.751 374.055 109.751C374.467 109.751 374.817 109.889 375.106 110.163C375.4 110.433 375.547 110.762 375.547 111.151C375.547 111.534 375.4 111.863 375.106 112.138C374.817 112.408 374.467 112.543 374.055 112.543ZM382.722 129.318C381.798 129.318 381.005 129.193 380.342 128.942C379.679 128.696 379.147 128.364 378.744 127.947C378.342 127.531 378.062 127.069 377.906 126.562L380.222 126.001C380.326 126.214 380.477 126.425 380.676 126.634C380.875 126.847 381.143 127.022 381.479 127.159C381.82 127.301 382.248 127.372 382.764 127.372C383.493 127.372 384.097 127.195 384.575 126.839C385.054 126.489 385.293 125.911 385.293 125.107V123.04H385.165C385.032 123.305 384.838 123.577 384.582 123.857C384.331 124.136 383.998 124.37 383.581 124.56C383.169 124.749 382.651 124.844 382.026 124.844C381.188 124.844 380.428 124.647 379.746 124.254C379.069 123.857 378.529 123.265 378.126 122.479C377.729 121.688 377.53 120.698 377.53 119.51C377.53 118.312 377.729 117.301 378.126 116.477C378.529 115.649 379.071 115.021 379.753 114.595C380.435 114.164 381.195 113.949 382.033 113.949C382.672 113.949 383.197 114.058 383.609 114.276C384.026 114.489 384.357 114.747 384.604 115.05C384.85 115.348 385.037 115.63 385.165 115.895H385.307V114.091H387.842V125.178C387.842 126.11 387.62 126.882 387.175 127.493C386.73 128.104 386.121 128.561 385.349 128.864C384.578 129.167 383.702 129.318 382.722 129.318ZM382.743 122.827C383.287 122.827 383.751 122.694 384.135 122.429C384.518 122.164 384.81 121.783 385.009 121.286C385.207 120.788 385.307 120.192 385.307 119.496C385.307 118.809 385.207 118.208 385.009 117.692C384.814 117.176 384.526 116.776 384.142 116.491C383.763 116.203 383.297 116.058 382.743 116.058C382.17 116.058 381.692 116.207 381.308 116.506C380.925 116.804 380.636 117.214 380.442 117.734C380.248 118.25 380.151 118.838 380.151 119.496C380.151 120.163 380.248 120.748 380.442 121.25C380.641 121.747 380.932 122.135 381.315 122.415C381.704 122.689 382.179 122.827 382.743 122.827ZM393.616 125.22C392.925 125.22 392.303 125.097 391.749 124.851C391.199 124.6 390.764 124.231 390.442 123.743C390.125 123.255 389.966 122.654 389.966 121.939C389.966 121.323 390.08 120.814 390.307 120.412C390.534 120.009 390.844 119.688 391.237 119.446C391.63 119.205 392.073 119.022 392.565 118.899C393.063 118.771 393.576 118.679 394.107 118.622C394.746 118.556 395.264 118.497 395.662 118.445C396.06 118.388 396.348 118.303 396.528 118.189C396.713 118.071 396.805 117.888 396.805 117.642V117.599C396.805 117.064 396.647 116.65 396.33 116.357C396.012 116.063 395.555 115.916 394.959 115.916C394.329 115.916 393.83 116.054 393.46 116.328C393.096 116.603 392.849 116.927 392.722 117.301L390.321 116.96C390.51 116.297 390.823 115.743 391.259 115.298C391.694 114.848 392.227 114.512 392.857 114.29C393.486 114.062 394.182 113.949 394.945 113.949C395.47 113.949 395.993 114.01 396.514 114.134C397.035 114.257 397.511 114.46 397.942 114.744C398.373 115.024 398.718 115.405 398.979 115.888C399.244 116.371 399.376 116.974 399.376 117.699V125H396.905V123.501H396.82C396.663 123.804 396.443 124.089 396.159 124.354C395.88 124.614 395.527 124.825 395.101 124.986C394.679 125.142 394.185 125.22 393.616 125.22ZM394.284 123.331C394.8 123.331 395.248 123.229 395.626 123.026C396.005 122.817 396.296 122.543 396.5 122.202C396.708 121.861 396.812 121.489 396.812 121.087V119.801C396.732 119.867 396.595 119.929 396.401 119.986C396.211 120.043 395.998 120.092 395.761 120.135C395.525 120.178 395.29 120.215 395.058 120.249C394.826 120.282 394.625 120.31 394.455 120.334C394.071 120.386 393.728 120.471 393.425 120.589C393.122 120.708 392.883 120.874 392.707 121.087C392.532 121.295 392.445 121.565 392.445 121.896C392.445 122.37 392.617 122.727 392.963 122.969C393.309 123.21 393.749 123.331 394.284 123.331ZM407.409 114.091V116.08H401.138V114.091H407.409ZM402.686 111.477H405.257V121.719C405.257 122.064 405.309 122.33 405.413 122.514C405.522 122.694 405.664 122.817 405.839 122.884C406.015 122.95 406.209 122.983 406.422 122.983C406.583 122.983 406.73 122.971 406.862 122.947C407 122.924 407.104 122.902 407.175 122.884L407.608 124.893C407.471 124.941 407.274 124.993 407.018 125.05C406.768 125.107 406.46 125.14 406.095 125.149C405.451 125.168 404.871 125.071 404.355 124.858C403.839 124.64 403.429 124.304 403.126 123.849C402.828 123.395 402.681 122.827 402.686 122.145V111.477ZM409.559 125V114.091H412.13V125H409.559ZM410.852 112.543C410.445 112.543 410.094 112.408 409.801 112.138C409.507 111.863 409.36 111.534 409.36 111.151C409.36 110.762 409.507 110.433 409.801 110.163C410.094 109.889 410.445 109.751 410.852 109.751C411.264 109.751 411.614 109.889 411.903 110.163C412.197 110.433 412.343 110.762 412.343 111.151C412.343 111.534 412.197 111.863 411.903 112.138C411.614 112.408 411.264 112.543 410.852 112.543ZM419.533 125.213C418.467 125.213 417.544 124.979 416.763 124.51C415.982 124.041 415.375 123.385 414.945 122.543C414.518 121.7 414.305 120.715 414.305 119.588C414.305 118.461 414.518 117.474 414.945 116.626C415.375 115.779 415.982 115.121 416.763 114.652C417.544 114.183 418.467 113.949 419.533 113.949C420.598 113.949 421.521 114.183 422.303 114.652C423.084 115.121 423.688 115.779 424.114 116.626C424.545 117.474 424.76 118.461 424.76 119.588C424.76 120.715 424.545 121.7 424.114 122.543C423.688 123.385 423.084 124.041 422.303 124.51C421.521 124.979 420.598 125.213 419.533 125.213ZM419.547 123.153C420.125 123.153 420.607 122.995 420.996 122.678C421.384 122.356 421.673 121.925 421.862 121.385C422.056 120.845 422.153 120.244 422.153 119.581C422.153 118.913 422.056 118.31 421.862 117.77C421.673 117.225 421.384 116.792 420.996 116.47C420.607 116.148 420.125 115.987 419.547 115.987C418.955 115.987 418.463 116.148 418.07 116.47C417.681 116.792 417.39 117.225 417.196 117.77C417.007 118.31 416.912 118.913 416.912 119.581C416.912 120.244 417.007 120.845 417.196 121.385C417.39 121.925 417.681 122.356 418.07 122.678C418.463 122.995 418.955 123.153 419.547 123.153ZM429.513 118.608V125H426.942V114.091H429.4V115.945H429.527C429.778 115.334 430.178 114.848 430.728 114.489C431.282 114.129 431.966 113.949 432.78 113.949C433.533 113.949 434.189 114.11 434.748 114.432C435.311 114.754 435.747 115.22 436.054 115.831C436.367 116.442 436.521 117.183 436.516 118.054V125H433.945V118.452C433.945 117.723 433.756 117.152 433.377 116.74C433.003 116.328 432.484 116.122 431.821 116.122C431.372 116.122 430.971 116.222 430.621 116.42C430.275 116.615 430.003 116.896 429.804 117.266C429.61 117.635 429.513 118.082 429.513 118.608Z" fill="#0024AC"/>
<g filter="url(#filter0_d_7_5156)">
<rect width="1225" height="64" transform="translate(334 203)" fill="white"/>
<path fill-rule="evenodd" clip-rule="evenodd" d="M561.212 228.126L555.391 231.765C555.148 231.917 555 232.183 555 232.47V241.989C555 242.448 555.372 242.821 555.832 242.821H559.99V239.494C559.99 238.576 560.735 237.831 561.653 237.831C562.572 237.831 563.317 238.576 563.317 239.494V242.821H567.475C567.934 242.821 568.307 242.448 568.307 241.989V232.47C568.307 232.183 568.159 231.917 567.916 231.765L562.094 228.126C561.824 227.958 561.482 227.958 561.212 228.126Z" fill="#5D50E6"/>
<path fill-rule="evenodd" clip-rule="evenodd" d="M560.212 228.126L554.391 231.765C554.148 231.917 554 232.183 554 232.47V241.989C554 242.448 554.372 242.821 554.832 242.821H558.99V239.494C558.99 238.576 559.735 237.831 560.653 237.831C561.572 237.831 562.317 238.576 562.317 239.494V242.821H566.475C566.934 242.821 567.307 242.448 567.307 241.989V232.47C567.307 232.183 567.159 231.917 566.916 231.765L561.094 228.126C560.824 227.958 560.482 227.958 560.212 228.126Z" fill="#796DF3"/>
<path d="M582.255 240V229.091H584.231V233.709H589.286V229.091H591.268V240H589.286V235.366H584.231V240H582.255ZM596.901 240.16C596.102 240.16 595.409 239.984 594.824 239.632C594.238 239.281 593.783 238.789 593.46 238.157C593.14 237.525 592.981 236.786 592.981 235.941C592.981 235.096 593.14 234.355 593.46 233.72C593.783 233.084 594.238 232.591 594.824 232.239C595.409 231.887 596.102 231.712 596.901 231.712C597.7 231.712 598.392 231.887 598.978 232.239C599.564 232.591 600.017 233.084 600.337 233.72C600.66 234.355 600.821 235.096 600.821 235.941C600.821 236.786 600.66 237.525 600.337 238.157C600.017 238.789 599.564 239.281 598.978 239.632C598.392 239.984 597.7 240.16 596.901 240.16ZM596.912 238.615C597.345 238.615 597.707 238.496 597.998 238.258C598.289 238.017 598.506 237.694 598.648 237.289C598.794 236.884 598.867 236.433 598.867 235.936C598.867 235.435 598.794 234.982 598.648 234.577C598.506 234.169 598.289 233.844 597.998 233.603C597.707 233.361 597.345 233.24 596.912 233.24C596.468 233.24 596.098 233.361 595.804 233.603C595.512 233.844 595.294 234.169 595.148 234.577C595.006 234.982 594.935 235.435 594.935 235.936C594.935 236.433 595.006 236.884 595.148 237.289C595.294 237.694 595.512 238.017 595.804 238.258C596.098 238.496 596.468 238.615 596.912 238.615ZM602.458 240V231.818H604.301V233.208H604.397C604.567 232.74 604.85 232.374 605.244 232.111C605.638 231.845 606.109 231.712 606.655 231.712C607.209 231.712 607.676 231.847 608.056 232.116C608.44 232.383 608.71 232.747 608.866 233.208H608.951C609.132 232.754 609.438 232.392 609.867 232.122C610.301 231.848 610.814 231.712 611.407 231.712C612.16 231.712 612.774 231.95 613.25 232.425C613.726 232.901 613.964 233.596 613.964 234.508V240H612.03V234.806C612.03 234.299 611.895 233.928 611.625 233.693C611.355 233.455 611.025 233.336 610.635 233.336C610.169 233.336 609.805 233.482 609.543 233.773C609.283 234.061 609.154 234.435 609.154 234.897V240H607.263V234.727C607.263 234.304 607.135 233.967 606.879 233.714C606.627 233.462 606.297 233.336 605.888 233.336C605.611 233.336 605.359 233.407 605.132 233.549C604.905 233.688 604.724 233.885 604.589 234.141C604.454 234.393 604.386 234.687 604.386 235.025V240H602.458ZM619.542 240.16C618.722 240.16 618.013 239.989 617.417 239.648C616.824 239.304 616.367 238.817 616.048 238.189C615.728 237.557 615.568 236.813 615.568 235.957C615.568 235.115 615.728 234.377 616.048 233.741C616.371 233.102 616.822 232.605 617.401 232.25C617.98 231.891 618.66 231.712 619.441 231.712C619.945 231.712 620.421 231.793 620.868 231.957C621.319 232.116 621.717 232.365 622.062 232.702C622.41 233.04 622.683 233.469 622.882 233.991C623.081 234.51 623.18 235.128 623.18 235.845V236.436H616.474V235.137H621.332C621.328 234.767 621.248 234.439 621.092 234.151C620.936 233.86 620.718 233.631 620.437 233.464C620.16 233.297 619.837 233.214 619.468 233.214C619.073 233.214 618.727 233.31 618.429 233.501C618.131 233.69 617.898 233.938 617.731 234.247C617.568 234.553 617.484 234.888 617.481 235.254V236.388C617.481 236.864 617.568 237.273 617.742 237.614C617.916 237.951 618.159 238.21 618.471 238.391C618.784 238.569 619.15 238.658 619.569 238.658C619.849 238.658 620.103 238.619 620.33 238.54C620.558 238.459 620.755 238.34 620.922 238.184C621.089 238.027 621.215 237.834 621.3 237.603L623.1 237.805C622.987 238.281 622.77 238.697 622.451 239.052C622.134 239.403 621.73 239.677 621.236 239.872C620.742 240.064 620.178 240.16 619.542 240.16Z" fill="#394756"/>
<path fill-rule="evenodd" clip-rule="evenodd" d="M670.375 227.501V228.776H669.5C669.225 228.776 669 229.001 669 229.276V242.501C669 242.776 669.225 243.001 669.5 243.001H682.5C682.775 243.001 683 242.776 683 242.501V229.276C683 229.001 682.775 228.776 682.5 228.776H681.625V227.501C681.625 227.226 681.4 227.001 681.125 227.001H670.875C670.6 227.001 670.375 227.226 670.375 227.501ZM680.55 231.401H671.45C671.35 231.401 671.25 231.326 671.25 231.201V230.601C671.25 230.501 671.325 230.401 671.45 230.401H680.55C680.65 230.401 680.75 230.476 680.75 230.601V231.201C680.75 231.326 680.675 231.401 680.55 231.401ZM677.5 241.001H674.5V237.501C674.5 237.226 674.725 237.001 675 237.001H677C677.275 237.001 677.5 237.226 677.5 237.501V241.001ZM671.45 233.501H680.55C680.675 233.501 680.75 233.401 680.75 233.301V232.701C680.75 232.576 680.65 232.501 680.55 232.501H671.45C671.325 232.501 671.25 232.601 671.25 232.701V233.301C671.25 233.426 671.35 233.501 671.45 233.501ZM680.55 235.876H671.45C671.35 235.876 671.25 235.801 671.25 235.676V235.076C671.25 234.976 671.325 234.876 671.45 234.876H680.55C680.65 234.876 680.75 234.951 680.75 235.076V235.676C680.75 235.776 680.675 235.876 680.55 235.876Z" fill="#796DF3"/>
<path d="M683.5 243H668.5C668.225 243 668 242.775 668 242.5V241.5C668 241.225 668.225 241 668.5 241H683.5C683.775 241 684 241.225 684 241.5V242.5C684 242.775 683.775 243 683.5 243Z" fill="#382CDD"/>
<path d="M706.464 232.772H704.472C704.415 232.445 704.31 232.156 704.158 231.903C704.005 231.648 703.815 231.431 703.588 231.254C703.36 231.076 703.101 230.943 702.81 230.854C702.522 230.762 702.212 230.716 701.878 230.716C701.285 230.716 700.759 230.865 700.301 231.163C699.843 231.458 699.484 231.891 699.225 232.463C698.966 233.031 698.836 233.725 698.836 234.545C698.836 235.38 698.966 236.083 699.225 236.655C699.488 237.223 699.846 237.653 700.301 237.944C700.759 238.232 701.283 238.375 701.872 238.375C702.199 238.375 702.504 238.333 702.789 238.248C703.076 238.159 703.334 238.029 703.561 237.859C703.792 237.688 703.985 237.479 704.142 237.23C704.301 236.982 704.411 236.697 704.472 236.378L706.464 236.388C706.389 236.907 706.228 237.393 705.979 237.848C705.734 238.303 705.413 238.704 705.015 239.052C704.617 239.396 704.152 239.666 703.62 239.862C703.087 240.053 702.496 240.149 701.846 240.149C700.887 240.149 700.031 239.927 699.278 239.483C698.525 239.039 697.932 238.398 697.499 237.56C697.066 236.722 696.849 235.717 696.849 234.545C696.849 233.37 697.068 232.365 697.504 231.531C697.941 230.692 698.536 230.051 699.289 229.608C700.042 229.164 700.894 228.942 701.846 228.942C702.453 228.942 703.018 229.027 703.54 229.197C704.062 229.368 704.527 229.618 704.935 229.949C705.344 230.275 705.679 230.676 705.942 231.152C706.208 231.625 706.382 232.164 706.464 232.772ZM711.757 240.16C710.958 240.16 710.266 239.984 709.68 239.632C709.094 239.281 708.64 238.789 708.316 238.157C707.997 237.525 707.837 236.786 707.837 235.941C707.837 235.096 707.997 234.355 708.316 233.72C708.64 233.084 709.094 232.591 709.68 232.239C710.266 231.887 710.958 231.712 711.757 231.712C712.556 231.712 713.249 231.887 713.835 232.239C714.421 232.591 714.874 233.084 715.193 233.72C715.516 234.355 715.678 235.096 715.678 235.941C715.678 236.786 715.516 237.525 715.193 238.157C714.874 238.789 714.421 239.281 713.835 239.632C713.249 239.984 712.556 240.16 711.757 240.16ZM711.768 238.615C712.201 238.615 712.564 238.496 712.855 238.258C713.146 238.017 713.363 237.694 713.505 237.289C713.65 236.884 713.723 236.433 713.723 235.936C713.723 235.435 713.65 234.982 713.505 234.577C713.363 234.169 713.146 233.844 712.855 233.603C712.564 233.361 712.201 233.24 711.768 233.24C711.324 233.24 710.955 233.361 710.66 233.603C710.369 233.844 710.151 234.169 710.005 234.577C709.863 234.982 709.792 235.435 709.792 235.936C709.792 236.433 709.863 236.884 710.005 237.289C710.151 237.694 710.369 238.017 710.66 238.258C710.955 238.496 711.324 238.615 711.768 238.615ZM717.314 240V231.818H719.158V233.208H719.253C719.424 232.74 719.706 232.374 720.1 232.111C720.495 231.845 720.965 231.712 721.512 231.712C722.066 231.712 722.533 231.847 722.913 232.116C723.296 232.383 723.566 232.747 723.723 233.208H723.808C723.989 232.754 724.294 232.392 724.724 232.122C725.157 231.848 725.67 231.712 726.263 231.712C727.016 231.712 727.631 231.95 728.106 232.425C728.582 232.901 728.82 233.596 728.82 234.508V240H726.887V234.806C726.887 234.299 726.752 233.928 726.482 233.693C726.212 233.455 725.882 233.336 725.491 233.336C725.026 233.336 724.662 233.482 724.399 233.773C724.14 234.061 724.01 234.435 724.01 234.897V240H722.119V234.727C722.119 234.304 721.991 233.967 721.736 233.714C721.484 233.462 721.153 233.336 720.745 233.336C720.468 233.336 720.216 233.407 719.989 233.549C719.761 233.688 719.58 233.885 719.445 234.141C719.31 234.393 719.243 234.687 719.243 235.025V240H717.314ZM730.776 243.068V231.818H732.673V233.171H732.785C732.884 232.972 733.024 232.761 733.205 232.537C733.386 232.31 733.632 232.116 733.94 231.957C734.249 231.793 734.644 231.712 735.123 231.712C735.755 231.712 736.325 231.873 736.833 232.196C737.344 232.516 737.749 232.99 738.047 233.619C738.349 234.244 738.5 235.011 738.5 235.92C738.5 236.818 738.353 237.582 738.058 238.21C737.763 238.839 737.362 239.318 736.854 239.648C736.346 239.979 735.771 240.144 735.128 240.144C734.66 240.144 734.271 240.066 733.962 239.909C733.653 239.753 733.404 239.565 733.216 239.345C733.031 239.121 732.888 238.91 732.785 238.711H732.705V243.068H730.776ZM732.667 235.909C732.667 236.438 732.742 236.902 732.891 237.299C733.044 237.697 733.262 238.008 733.546 238.232C733.834 238.452 734.182 238.562 734.59 238.562C735.016 238.562 735.373 238.448 735.661 238.221C735.949 237.99 736.165 237.676 736.311 237.278C736.46 236.877 736.535 236.42 736.535 235.909C736.535 235.401 736.462 234.95 736.316 234.556C736.171 234.162 735.954 233.853 735.666 233.629C735.379 233.406 735.02 233.294 734.59 233.294C734.178 233.294 733.829 233.402 733.541 233.619C733.253 233.835 733.035 234.139 732.886 234.529C732.74 234.92 732.667 235.38 732.667 235.909ZM742.506 240.165C741.987 240.165 741.52 240.073 741.105 239.888C740.693 239.7 740.366 239.423 740.125 239.057C739.887 238.691 739.768 238.24 739.768 237.704C739.768 237.243 739.853 236.861 740.024 236.559C740.194 236.257 740.427 236.016 740.721 235.835C741.016 235.653 741.348 235.517 741.717 235.424C742.09 235.328 742.476 235.259 742.873 235.217C743.353 235.167 743.742 235.123 744.04 235.083C744.338 235.041 744.555 234.977 744.69 234.892C744.828 234.803 744.898 234.666 744.898 234.482V234.45C744.898 234.048 744.779 233.738 744.541 233.517C744.303 233.297 743.96 233.187 743.513 233.187C743.04 233.187 742.666 233.29 742.389 233.496C742.115 233.702 741.931 233.945 741.835 234.226L740.034 233.97C740.176 233.473 740.411 233.058 740.737 232.724C741.064 232.386 741.464 232.134 741.936 231.967C742.408 231.797 742.93 231.712 743.502 231.712C743.896 231.712 744.288 231.758 744.679 231.85C745.07 231.942 745.427 232.095 745.75 232.308C746.073 232.518 746.332 232.804 746.527 233.166C746.726 233.528 746.826 233.981 746.826 234.524V240H744.972V238.876H744.908C744.791 239.103 744.626 239.316 744.413 239.515C744.203 239.711 743.939 239.869 743.619 239.989C743.303 240.107 742.932 240.165 742.506 240.165ZM743.007 238.748C743.394 238.748 743.729 238.672 744.013 238.519C744.297 238.363 744.516 238.157 744.668 237.901C744.825 237.646 744.903 237.367 744.903 237.065V236.101C744.842 236.151 744.739 236.197 744.594 236.239C744.452 236.282 744.292 236.319 744.114 236.351C743.937 236.383 743.761 236.412 743.587 236.436C743.413 236.461 743.262 236.483 743.134 236.5C742.847 236.539 742.589 236.603 742.362 236.692C742.135 236.781 741.955 236.905 741.824 237.065C741.693 237.221 741.627 237.424 741.627 237.672C741.627 238.027 741.757 238.295 742.016 238.477C742.275 238.658 742.605 238.748 743.007 238.748ZM750.693 235.206V240H748.765V231.818H750.608V233.208H750.704C750.892 232.75 751.192 232.386 751.604 232.116C752.019 231.847 752.532 231.712 753.143 231.712C753.708 231.712 754.2 231.832 754.619 232.074C755.041 232.315 755.368 232.665 755.599 233.123C755.833 233.581 755.949 234.137 755.945 234.79V240H754.017V235.089C754.017 234.542 753.875 234.114 753.591 233.805C753.31 233.496 752.921 233.342 752.424 233.342C752.087 233.342 751.787 233.416 751.524 233.565C751.265 233.711 751.061 233.922 750.911 234.199C750.766 234.476 750.693 234.812 750.693 235.206ZM757.905 240V231.818H759.834V240H757.905ZM758.875 230.657C758.569 230.657 758.307 230.556 758.086 230.353C757.866 230.147 757.756 229.901 757.756 229.613C757.756 229.322 757.866 229.075 758.086 228.873C758.307 228.667 758.569 228.564 758.875 228.564C759.184 228.564 759.447 228.667 759.663 228.873C759.883 229.075 759.993 229.322 759.993 229.613C759.993 229.901 759.883 230.147 759.663 230.353C759.447 230.556 759.184 230.657 758.875 230.657ZM765.439 240.16C764.618 240.16 763.91 239.989 763.313 239.648C762.72 239.304 762.264 238.817 761.944 238.189C761.625 237.557 761.465 236.813 761.465 235.957C761.465 235.115 761.625 234.377 761.944 233.741C762.267 233.102 762.718 232.605 763.297 232.25C763.876 231.891 764.556 231.712 765.337 231.712C765.842 231.712 766.318 231.793 766.765 231.957C767.216 232.116 767.614 232.365 767.958 232.702C768.306 233.04 768.58 233.469 768.778 233.991C768.977 234.51 769.077 235.128 769.077 235.845V236.436H762.37V235.137H767.228C767.225 234.767 767.145 234.439 766.989 234.151C766.832 233.86 766.614 233.631 766.333 233.464C766.057 233.297 765.733 233.214 765.364 233.214C764.97 233.214 764.624 233.31 764.325 233.501C764.027 233.69 763.794 233.938 763.628 234.247C763.464 234.553 763.381 234.888 763.377 235.254V236.388C763.377 236.864 763.464 237.273 763.638 237.614C763.812 237.951 764.055 238.21 764.368 238.391C764.68 238.569 765.046 238.658 765.465 238.658C765.746 238.658 766 238.619 766.227 238.54C766.454 238.459 766.651 238.34 766.818 238.184C766.985 238.027 767.111 237.834 767.196 237.603L768.997 237.805C768.883 238.281 768.667 238.697 768.347 239.052C768.031 239.403 767.626 239.677 767.133 239.872C766.639 240.064 766.074 240.16 765.439 240.16ZM777.175 233.981L775.417 234.173C775.367 233.995 775.28 233.828 775.156 233.672C775.035 233.516 774.872 233.39 774.666 233.294C774.46 233.198 774.208 233.15 773.909 233.15C773.508 233.15 773.171 233.237 772.897 233.411C772.627 233.585 772.494 233.81 772.498 234.087C772.494 234.325 772.581 234.519 772.759 234.668C772.94 234.817 773.238 234.94 773.654 235.036L775.049 235.334C775.823 235.501 776.399 235.765 776.775 236.127C777.155 236.49 777.347 236.964 777.35 237.55C777.347 238.065 777.196 238.519 776.898 238.913C776.603 239.304 776.193 239.609 775.667 239.83C775.142 240.05 774.538 240.16 773.856 240.16C772.855 240.16 772.049 239.95 771.438 239.531C770.827 239.109 770.463 238.521 770.346 237.768L772.226 237.587C772.311 237.956 772.492 238.235 772.769 238.423C773.046 238.612 773.407 238.706 773.851 238.706C774.309 238.706 774.676 238.612 774.953 238.423C775.234 238.235 775.374 238.002 775.374 237.725C775.374 237.491 775.284 237.298 775.103 237.145C774.925 236.992 774.648 236.875 774.272 236.793L772.876 236.5C772.091 236.337 771.511 236.062 771.134 235.675C770.758 235.284 770.571 234.79 770.575 234.194C770.571 233.69 770.708 233.253 770.985 232.884C771.266 232.511 771.654 232.223 772.152 232.021C772.652 231.815 773.229 231.712 773.883 231.712C774.842 231.712 775.596 231.916 776.147 232.324C776.701 232.733 777.043 233.285 777.175 233.981Z" fill="#382CDD"/>
<rect x="656" y="265" width="130" height="2" fill="#382CDD"/>
<path d="M393.501 243.863V225.447H397.439V240.638H404.971V243.863H393.501Z" fill="#1D1E22"/>
<path d="M418.904 243.863H408.209V225.447H418.904V228.647H412.147V232.69H418.434V235.889H412.147V240.638H418.904V243.863Z" fill="#1D1E22"/>
<path d="M433.383 225.447H437.358L431.046 243.863H426.753L420.453 225.447H424.429L427.921 236.406C428.116 237.052 428.315 237.808 428.518 238.673C428.73 239.53 428.861 240.126 428.912 240.462C429.005 239.689 429.323 238.337 429.865 236.406L433.383 225.447Z" fill="#1D1E22"/>
<path d="M450.402 243.863H439.708V225.447H450.402V228.647H443.645V232.69H449.932V235.889H443.645V240.638H450.402V243.863Z" fill="#1D1E22"/>
<path d="M458.226 233.622H459.496C460.741 233.622 461.66 233.416 462.252 233.005C462.845 232.593 463.141 231.947 463.141 231.065C463.141 230.192 462.837 229.57 462.227 229.201C461.626 228.831 460.69 228.647 459.42 228.647H458.226V233.622ZM458.226 236.796V243.863H454.289V225.447H459.699C462.223 225.447 464.09 225.905 465.301 226.82C466.511 227.727 467.117 229.108 467.117 230.964C467.117 232.047 466.816 233.013 466.215 233.861C465.614 234.701 464.763 235.36 463.662 235.839C466.456 239.979 468.277 242.653 469.124 243.863H464.754L460.322 236.796H458.226Z" fill="#1D1E22"/>
<path d="M482.155 243.863H471.461V225.447H482.155V228.647H475.398V232.69H481.685V235.889H475.398V240.638H482.155V243.863Z" fill="#1D1E22"/>
<path d="M493.09 233.521H500.457V243.069C499.263 243.455 498.137 243.724 497.079 243.875C496.029 244.035 494.953 244.115 493.853 244.115C491.05 244.115 488.908 243.3 487.426 241.671C485.952 240.033 485.216 237.686 485.216 234.63C485.216 231.657 486.071 229.339 487.781 227.677C489.5 226.014 491.88 225.183 494.919 225.183C496.825 225.183 498.662 225.56 500.432 226.316L499.123 229.44C497.769 228.768 496.359 228.432 494.894 228.432C493.192 228.432 491.829 228.999 490.804 230.133C489.78 231.267 489.267 232.791 489.267 234.705C489.267 236.704 489.678 238.232 490.499 239.29C491.329 240.34 492.532 240.865 494.107 240.865C494.928 240.865 495.762 240.781 496.609 240.613V236.771H493.09V233.521Z" fill="#1D1E22"/>
<path d="M515.584 243.863H504.89V225.447H515.584V228.647H508.827V232.69H515.114V235.889H508.827V240.638H515.584V243.863Z" fill="#1D1E22"/>
<path d="M375.232 236.444L371.33 232.897L381.735 223.546L375.232 236.444Z" fill="#2FD9D9"/>
<path d="M370.03 245.473L374.582 237.734L359.3 223.546L370.03 245.473Z" fill="#3D2EDF"/>
<path d="M371.005 243.861L359.3 223.546L370.03 245.473L371.005 243.861Z" fill="#161B8B"/>
</g>
<rect x="74" y="338" width="101" height="43" rx="21.5" fill="#3541CF"/>
<path d="M89.9908 365V356.818H91.919V365H89.9908ZM90.9602 355.657C90.6548 355.657 90.392 355.556 90.1719 355.353C89.9517 355.147 89.8416 354.901 89.8416 354.613C89.8416 354.322 89.9517 354.075 90.1719 353.873C90.392 353.667 90.6548 353.564 90.9602 353.564C91.2692 353.564 91.532 353.667 91.7486 353.873C91.9688 354.075 92.0788 354.322 92.0788 354.613C92.0788 354.901 91.9688 355.147 91.7486 355.353C91.532 355.556 91.2692 355.657 90.9602 355.657ZM100.369 358.981L98.6107 359.173C98.561 358.995 98.474 358.828 98.3497 358.672C98.229 358.516 98.0656 358.39 97.8596 358.294C97.6537 358.198 97.4015 358.15 97.1032 358.15C96.702 358.15 96.3646 358.237 96.0912 358.411C95.8213 358.585 95.6881 358.81 95.6917 359.087C95.6881 359.325 95.7751 359.519 95.9527 359.668C96.1338 359.817 96.4321 359.94 96.8476 360.036L98.2432 360.334C99.0173 360.501 99.5926 360.765 99.969 361.127C100.349 361.49 100.541 361.964 100.544 362.55C100.541 363.065 100.39 363.519 100.092 363.913C99.7968 364.304 99.3866 364.609 98.8611 364.83C98.3355 365.05 97.7318 365.16 97.05 365.16C96.0486 365.16 95.2425 364.95 94.6317 364.531C94.0209 364.109 93.6569 363.521 93.5397 362.768L95.42 362.587C95.5052 362.956 95.6863 363.235 95.9633 363.423C96.2403 363.612 96.6008 363.706 97.0447 363.706C97.5028 363.706 97.8703 363.612 98.1473 363.423C98.4278 363.235 98.5681 363.002 98.5681 362.725C98.5681 362.491 98.4775 362.298 98.2964 362.145C98.1189 361.992 97.8419 361.875 97.4655 361.793L96.0699 361.5C95.2851 361.337 94.7045 361.062 94.328 360.675C93.9516 360.284 93.7652 359.79 93.7687 359.194C93.7652 358.69 93.9019 358.253 94.1789 357.884C94.4594 357.511 94.8483 357.223 95.3454 357.021C95.8461 356.815 96.4232 356.712 97.0766 356.712C98.0354 356.712 98.79 356.916 99.3405 357.324C99.8944 357.733 100.237 358.285 100.369 358.981ZM103.322 365.117C102.999 365.117 102.722 365.004 102.491 364.776C102.26 364.549 102.147 364.272 102.15 363.945C102.147 363.626 102.26 363.352 102.491 363.125C102.722 362.898 102.999 362.784 103.322 362.784C103.635 362.784 103.906 362.898 104.137 363.125C104.372 363.352 104.491 363.626 104.494 363.945C104.491 364.162 104.434 364.359 104.324 364.537C104.217 364.714 104.075 364.856 103.897 364.963C103.723 365.066 103.532 365.117 103.322 365.117ZM103.322 359.279C102.999 359.279 102.722 359.165 102.491 358.938C102.26 358.707 102.147 358.43 102.15 358.107C102.147 357.788 102.26 357.514 102.491 357.287C102.722 357.056 102.999 356.941 103.322 356.941C103.635 356.941 103.906 357.056 104.137 357.287C104.372 357.514 104.491 357.788 104.494 358.107C104.491 358.32 104.434 358.516 104.324 358.693C104.217 358.871 104.075 359.013 103.897 359.119C103.723 359.226 103.532 359.279 103.322 359.279ZM106.485 365V356.818H108.355V358.182H108.44C108.589 357.71 108.845 357.346 109.207 357.09C109.573 356.831 109.99 356.701 110.459 356.701C110.565 356.701 110.684 356.706 110.816 356.717C110.95 356.724 111.062 356.737 111.151 356.754V358.528C111.069 358.5 110.94 358.475 110.762 358.453C110.588 358.429 110.42 358.416 110.256 358.416C109.905 358.416 109.589 358.493 109.308 358.645C109.031 358.794 108.813 359.002 108.653 359.268C108.493 359.535 108.413 359.842 108.413 360.19V365H106.485ZM115.664 365.16C114.865 365.16 114.173 364.984 113.587 364.632C113.001 364.281 112.546 363.789 112.223 363.157C111.903 362.525 111.744 361.786 111.744 360.941C111.744 360.096 111.903 359.355 112.223 358.72C112.546 358.084 113.001 357.591 113.587 357.239C114.173 356.887 114.865 356.712 115.664 356.712C116.463 356.712 117.156 356.887 117.742 357.239C118.328 357.591 118.78 358.084 119.1 358.72C119.423 359.355 119.585 360.096 119.585 360.941C119.585 361.786 119.423 362.525 119.1 363.157C118.78 363.789 118.328 364.281 117.742 364.632C117.156 364.984 116.463 365.16 115.664 365.16ZM115.675 363.615C116.108 363.615 116.47 363.496 116.761 363.258C117.053 363.017 117.269 362.694 117.411 362.289C117.557 361.884 117.63 361.433 117.63 360.936C117.63 360.435 117.557 359.982 117.411 359.577C117.269 359.169 117.053 358.844 116.761 358.603C116.47 358.361 116.108 358.24 115.675 358.24C115.231 358.24 114.862 358.361 114.567 358.603C114.276 358.844 114.057 359.169 113.912 359.577C113.77 359.982 113.699 360.435 113.699 360.936C113.699 361.433 113.77 361.884 113.912 362.289C114.057 362.694 114.276 363.017 114.567 363.258C114.862 363.496 115.231 363.615 115.675 363.615ZM124.79 365.16C123.991 365.16 123.299 364.984 122.713 364.632C122.127 364.281 121.672 363.789 121.349 363.157C121.029 362.525 120.87 361.786 120.87 360.941C120.87 360.096 121.029 359.355 121.349 358.72C121.672 358.084 122.127 357.591 122.713 357.239C123.299 356.887 123.991 356.712 124.79 356.712C125.589 356.712 126.282 356.887 126.868 357.239C127.453 357.591 127.906 358.084 128.226 358.72C128.549 359.355 128.711 360.096 128.711 360.941C128.711 361.786 128.549 362.525 128.226 363.157C127.906 363.789 127.453 364.281 126.868 364.632C126.282 364.984 125.589 365.16 124.79 365.16ZM124.801 363.615C125.234 363.615 125.596 363.496 125.887 363.258C126.179 363.017 126.395 362.694 126.537 362.289C126.683 361.884 126.756 361.433 126.756 360.936C126.756 360.435 126.683 359.982 126.537 359.577C126.395 359.169 126.179 358.844 125.887 358.603C125.596 358.361 125.234 358.24 124.801 358.24C124.357 358.24 123.988 358.361 123.693 358.603C123.402 358.844 123.183 359.169 123.038 359.577C122.896 359.982 122.825 360.435 122.825 360.936C122.825 361.433 122.896 361.884 123.038 362.289C123.183 362.694 123.402 363.017 123.693 363.258C123.988 363.496 124.357 363.615 124.801 363.615ZM134.433 356.818V358.31H129.729V356.818H134.433ZM130.891 354.858H132.819V362.539C132.819 362.798 132.858 362.997 132.936 363.136C133.018 363.271 133.124 363.363 133.256 363.413C133.387 363.462 133.533 363.487 133.692 363.487C133.813 363.487 133.923 363.478 134.023 363.461C134.126 363.443 134.204 363.427 134.257 363.413L134.582 364.92C134.479 364.956 134.332 364.995 134.14 365.037C133.952 365.08 133.721 365.105 133.447 365.112C132.964 365.126 132.529 365.053 132.142 364.893C131.755 364.73 131.448 364.478 131.221 364.137C130.997 363.796 130.887 363.37 130.891 362.859V354.858Z" fill="white"/>
<path fill-rule="evenodd" clip-rule="evenodd" d="M155.03 354.97C155.323 355.263 155.323 355.737 155.03 356.03L146.03 365.03C145.737 365.323 145.263 365.323 144.97 365.03C144.677 364.737 144.677 364.263 144.97 363.97L153.97 354.97C154.263 354.677 154.737 354.677 155.03 354.97Z" fill="white"/>
<path fill-rule="evenodd" clip-rule="evenodd" d="M144.97 354.97C145.263 354.677 145.737 354.677 146.03 354.97L155.03 363.97C155.323 364.263 155.323 364.737 155.03 365.03C154.737 365.323 154.263 365.323 153.97 365.03L144.97 356.03C144.677 355.737 144.677 355.263 144.97 354.97Z" fill="white"/>
</g>
<defs>
<filter id="filter0_d_7_5156" x="324" y="195" width="1444" height="84" filterUnits="userSpaceOnUse" color-interpolation-filters="sRGB">
<feFlood flood-opacity="0" result="BackgroundImageFix"/>
<feColorMatrix in="SourceAlpha" type="matrix" values="0 0 0 0 0 0 0 0 0 0 0 0 0 0 0 0 0 0 127 0" result="hardAlpha"/>
<feOffset dy="2"/>
<feGaussianBlur stdDeviation="5"/>
<feColorMatrix type="matrix" values="0 0 0 0 0 0 0 0 0 0 0 0 0 0 0 0 0 0 0.05 0"/>
<feBlend mode="normal" in2="BackgroundImageFix" result="effect1_dropShadow_7_5156"/>
<feBlend mode="normal" in="SourceGraphic" in2="effect1_dropShadow_7_5156" result="shape"/>
</filter>
<clipPath id="clip0_7_5156">
<rect width="1508" height="486" rx="24" fill="white"/>
</clipPath>
</defs>
</svg>
