<svg width="615" height="377" viewBox="0 0 615 377" fill="none" xmlns="http://www.w3.org/2000/svg">
<rect width="615" height="377" rx="24" fill="#EBF1FD"/>
<path d="M223 142H113C110.791 142 109 140.209 109 138V89C109 86.7909 110.791 85 113 85H223C225.209 85 227 86.7909 227 89V138C227 140.209 225.209 142 223 142Z" fill="#F9FAFB" stroke="#15AABF" stroke-width="2"/>
<path d="M151 126H131C129.9 126 129 125.1 129 124V104C129 102.9 129.9 102 131 102H151C152.1 102 153 102.9 153 104V124C153 125.1 152.1 126 151 126Z" fill="#F9FAFB"/>
<path d="M141 106C137.675 106 135 108.75 135 112.125C135 117.275 141 122 141 122C141 122 147 117.275 147 112.125C147 108.75 144.325 106 141 106ZM141 114.55C139.675 114.55 138.6 113.45 138.6 112.1C138.6 110.75 139.675 109.65 141 109.65C142.325 109.65 143.4 110.75 143.4 112.1C143.4 113.45 142.325 114.55 141 114.55Z" fill="#15AABF"/>
<path fill-rule="evenodd" clip-rule="evenodd" d="M139.448 106.206C137.543 107.235 136.25 109.279 136.25 111.625C136.25 116.024 140.628 120.113 141.904 121.212C141.36 121.716 141 122 141 122C141 122 135 117.275 135 112.125C135 109.295 136.881 106.905 139.448 106.206Z" fill="#0C8599"/>
<path d="M158.082 118V110.152H159.474V116.824H162.738V118H158.082ZM166.245 118.144C165.757 118.144 165.301 118.024 164.877 117.784C164.453 117.536 164.109 117.184 163.845 116.728C163.581 116.264 163.449 115.708 163.449 115.06C163.449 114.404 163.581 113.848 163.845 113.392C164.109 112.928 164.453 112.576 164.877 112.336C165.301 112.088 165.757 111.964 166.245 111.964C166.741 111.964 167.201 112.088 167.625 112.336C168.049 112.576 168.393 112.928 168.657 113.392C168.921 113.848 169.053 114.404 169.053 115.06C169.053 115.708 168.921 116.264 168.657 116.728C168.393 117.184 168.049 117.536 167.625 117.784C167.201 118.024 166.741 118.144 166.245 118.144ZM166.245 117.016C166.677 117.016 167.017 116.836 167.265 116.476C167.513 116.116 167.637 115.644 167.637 115.06C167.637 114.468 167.513 113.992 167.265 113.632C167.017 113.272 166.677 113.092 166.245 113.092C165.813 113.092 165.473 113.272 165.225 113.632C164.985 113.992 164.865 114.468 164.865 115.06C164.865 115.644 164.985 116.116 165.225 116.476C165.473 116.836 165.813 117.016 166.245 117.016ZM172.879 118.144C172.343 118.144 171.859 118.024 171.427 117.784C171.003 117.536 170.663 117.184 170.407 116.728C170.159 116.264 170.035 115.708 170.035 115.06C170.035 114.404 170.171 113.848 170.443 113.392C170.715 112.928 171.075 112.576 171.523 112.336C171.979 112.088 172.467 111.964 172.987 111.964C173.363 111.964 173.691 112.028 173.971 112.156C174.251 112.284 174.499 112.44 174.715 112.624L174.043 113.524C173.891 113.388 173.735 113.284 173.575 113.212C173.415 113.132 173.243 113.092 173.059 113.092C172.587 113.092 172.199 113.272 171.895 113.632C171.599 113.992 171.451 114.468 171.451 115.06C171.451 115.644 171.595 116.116 171.883 116.476C172.179 116.836 172.559 117.016 173.023 117.016C173.255 117.016 173.471 116.968 173.671 116.872C173.879 116.768 174.067 116.648 174.235 116.512L174.799 117.424C174.527 117.664 174.223 117.844 173.887 117.964C173.551 118.084 173.215 118.144 172.879 118.144ZM177.273 118.144C176.761 118.144 176.341 117.984 176.013 117.664C175.693 117.344 175.533 116.928 175.533 116.416C175.533 115.784 175.809 115.296 176.361 114.952C176.913 114.6 177.793 114.36 179.001 114.232C178.993 113.92 178.909 113.652 178.749 113.428C178.597 113.196 178.321 113.08 177.921 113.08C177.633 113.08 177.349 113.136 177.069 113.248C176.797 113.36 176.529 113.496 176.265 113.656L175.761 112.732C176.089 112.524 176.457 112.344 176.865 112.192C177.281 112.04 177.721 111.964 178.185 111.964C178.921 111.964 179.469 112.184 179.829 112.624C180.197 113.056 180.381 113.684 180.381 114.508V118H179.241L179.145 117.352H179.097C178.833 117.576 178.549 117.764 178.245 117.916C177.949 118.068 177.625 118.144 177.273 118.144ZM177.717 117.064C177.957 117.064 178.173 117.008 178.365 116.896C178.565 116.776 178.777 116.616 179.001 116.416V115.096C178.201 115.2 177.645 115.356 177.333 115.564C177.021 115.764 176.865 116.012 176.865 116.308C176.865 116.572 176.945 116.764 177.105 116.884C177.265 117.004 177.469 117.064 177.717 117.064ZM183.921 118.144C183.241 118.144 182.757 117.948 182.469 117.556C182.189 117.156 182.049 116.64 182.049 116.008V113.2H181.209V112.168L182.121 112.108L182.289 110.5H183.441V112.108H184.941V113.2H183.441V116.008C183.441 116.696 183.717 117.04 184.269 117.04C184.373 117.04 184.481 117.028 184.593 117.004C184.705 116.972 184.801 116.94 184.881 116.908L185.121 117.928C184.961 117.984 184.777 118.032 184.569 118.072C184.369 118.12 184.153 118.144 183.921 118.144ZM186.181 118V112.108H187.561V118H186.181ZM186.877 111.076C186.629 111.076 186.429 111.004 186.277 110.86C186.125 110.716 186.049 110.524 186.049 110.284C186.049 110.052 186.125 109.864 186.277 109.72C186.429 109.576 186.629 109.504 186.877 109.504C187.125 109.504 187.325 109.576 187.477 109.72C187.629 109.864 187.705 110.052 187.705 110.284C187.705 110.524 187.629 110.716 187.477 110.86C187.325 111.004 187.125 111.076 186.877 111.076ZM191.733 118.144C191.245 118.144 190.789 118.024 190.365 117.784C189.941 117.536 189.597 117.184 189.333 116.728C189.069 116.264 188.937 115.708 188.937 115.06C188.937 114.404 189.069 113.848 189.333 113.392C189.597 112.928 189.941 112.576 190.365 112.336C190.789 112.088 191.245 111.964 191.733 111.964C192.229 111.964 192.689 112.088 193.113 112.336C193.537 112.576 193.881 112.928 194.145 113.392C194.409 113.848 194.541 114.404 194.541 115.06C194.541 115.708 194.409 116.264 194.145 116.728C193.881 117.184 193.537 117.536 193.113 117.784C192.689 118.024 192.229 118.144 191.733 118.144ZM191.733 117.016C192.165 117.016 192.505 116.836 192.753 116.476C193.001 116.116 193.125 115.644 193.125 115.06C193.125 114.468 193.001 113.992 192.753 113.632C192.505 113.272 192.165 113.092 191.733 113.092C191.301 113.092 190.961 113.272 190.713 113.632C190.473 113.992 190.353 114.468 190.353 115.06C190.353 115.644 190.473 116.116 190.713 116.476C190.961 116.836 191.301 117.016 191.733 117.016ZM195.907 118V112.108H197.047L197.143 112.9H197.191C197.455 112.644 197.743 112.424 198.055 112.24C198.367 112.056 198.723 111.964 199.123 111.964C199.755 111.964 200.215 112.168 200.503 112.576C200.791 112.984 200.935 113.56 200.935 114.304V118H199.555V114.484C199.555 113.996 199.483 113.652 199.339 113.452C199.195 113.252 198.959 113.152 198.631 113.152C198.375 113.152 198.147 113.216 197.947 113.344C197.755 113.464 197.535 113.644 197.287 113.884V118H195.907ZM204.266 118.144C203.866 118.144 203.466 118.068 203.066 117.916C202.666 117.756 202.322 117.56 202.034 117.328L202.682 116.44C202.946 116.64 203.21 116.8 203.474 116.92C203.738 117.04 204.018 117.1 204.314 117.1C204.634 117.1 204.87 117.032 205.022 116.896C205.174 116.76 205.25 116.592 205.25 116.392C205.25 116.224 205.186 116.088 205.058 115.984C204.938 115.872 204.782 115.776 204.59 115.696C204.398 115.608 204.198 115.524 203.99 115.444C203.734 115.348 203.478 115.232 203.222 115.096C202.974 114.952 202.77 114.772 202.61 114.556C202.45 114.332 202.37 114.056 202.37 113.728C202.37 113.208 202.562 112.784 202.946 112.456C203.33 112.128 203.85 111.964 204.506 111.964C204.922 111.964 205.294 112.036 205.622 112.18C205.95 112.324 206.234 112.488 206.474 112.672L205.838 113.512C205.63 113.36 205.418 113.24 205.202 113.152C204.994 113.056 204.774 113.008 204.542 113.008C204.246 113.008 204.026 113.072 203.882 113.2C203.738 113.32 203.666 113.472 203.666 113.656C203.666 113.888 203.786 114.064 204.026 114.184C204.266 114.304 204.546 114.42 204.866 114.532C205.138 114.628 205.402 114.748 205.658 114.892C205.914 115.028 206.126 115.208 206.294 115.432C206.47 115.656 206.558 115.952 206.558 116.32C206.558 116.824 206.362 117.256 205.97 117.616C205.578 117.968 205.01 118.144 204.266 118.144Z" fill="#181E25"/>
<path d="M453 142H343C340.791 142 339 140.209 339 138V89C339 86.7909 340.791 85 343 85H453C455.209 85 457 86.7909 457 89V138C457 140.209 455.209 142 453 142Z" fill="#F9FAFB" stroke="#15AABF" stroke-width="2"/>
<g clip-path="url(#clip0_49_12583)">
<path d="M392.5 126H372.5C371.4 126 370.5 125.1 370.5 124V104C370.5 102.9 371.4 102 372.5 102H392.5C393.6 102 394.5 102.9 394.5 104V124C394.5 125.1 393.6 126 392.5 126Z" fill="#F9FAFB"/>
<path d="M376.051 114.976C375.893 114.818 375.803 114.604 375.8 114.38L375.723 108.091C375.717 107.609 376.109 107.217 376.591 107.223L382.88 107.3C383.104 107.303 383.318 107.393 383.476 107.551L390.789 114.864C390.956 115.032 390.956 115.303 390.789 115.47L383.97 122.289C383.803 122.456 383.532 122.456 383.364 122.289L376.051 114.976Z" fill="#0C8599"/>
<path d="M380.796 110.44C381.309 110.953 381.309 111.784 380.796 112.297C380.284 112.809 379.452 112.809 378.94 112.297C378.427 111.784 378.427 110.953 378.94 110.44C379.452 109.927 380.284 109.927 380.796 110.44Z" fill="#F9FAFB"/>
</g>
<path d="M402.841 118.144C402.185 118.144 401.589 117.988 401.053 117.676C400.517 117.364 400.089 116.908 399.769 116.308C399.457 115.7 399.301 114.964 399.301 114.1C399.301 113.244 399.461 112.512 399.781 111.904C400.109 111.288 400.545 110.82 401.089 110.5C401.633 110.172 402.233 110.008 402.889 110.008C403.385 110.008 403.825 110.108 404.209 110.308C404.593 110.508 404.909 110.74 405.157 111.004L404.413 111.904C404.213 111.696 403.989 111.532 403.741 111.412C403.501 111.284 403.229 111.22 402.925 111.22C402.501 111.22 402.121 111.336 401.785 111.568C401.457 111.792 401.197 112.116 401.005 112.54C400.821 112.964 400.729 113.472 400.729 114.064C400.729 114.96 400.925 115.664 401.317 116.176C401.709 116.68 402.233 116.932 402.889 116.932C403.241 116.932 403.553 116.86 403.825 116.716C404.097 116.564 404.345 116.368 404.569 116.128L405.313 117.004C404.993 117.372 404.625 117.656 404.209 117.856C403.801 118.048 403.345 118.144 402.841 118.144ZM408.915 118.144C408.427 118.144 407.971 118.024 407.547 117.784C407.123 117.536 406.779 117.184 406.515 116.728C406.251 116.264 406.119 115.708 406.119 115.06C406.119 114.404 406.251 113.848 406.515 113.392C406.779 112.928 407.123 112.576 407.547 112.336C407.971 112.088 408.427 111.964 408.915 111.964C409.411 111.964 409.871 112.088 410.295 112.336C410.719 112.576 411.063 112.928 411.327 113.392C411.591 113.848 411.723 114.404 411.723 115.06C411.723 115.708 411.591 116.264 411.327 116.728C411.063 117.184 410.719 117.536 410.295 117.784C409.871 118.024 409.411 118.144 408.915 118.144ZM408.915 117.016C409.347 117.016 409.687 116.836 409.935 116.476C410.183 116.116 410.307 115.644 410.307 115.06C410.307 114.468 410.183 113.992 409.935 113.632C409.687 113.272 409.347 113.092 408.915 113.092C408.483 113.092 408.143 113.272 407.895 113.632C407.655 113.992 407.535 114.468 407.535 115.06C407.535 115.644 407.655 116.116 407.895 116.476C408.143 116.836 408.483 117.016 408.915 117.016ZM413.991 118L412.431 112.108H413.823L414.531 115.168C414.595 115.448 414.647 115.728 414.687 116.008C414.735 116.288 414.787 116.572 414.843 116.86H414.891C414.947 116.572 415.003 116.288 415.059 116.008C415.123 115.72 415.191 115.44 415.263 115.168L416.031 112.108H417.291L418.071 115.168C418.143 115.448 418.211 115.728 418.275 116.008C418.339 116.288 418.403 116.572 418.467 116.86H418.515C418.571 116.572 418.623 116.288 418.671 116.008C418.719 115.728 418.771 115.448 418.827 115.168L419.535 112.108H420.831L419.331 118H417.687L417.003 115.252C416.939 114.972 416.879 114.696 416.823 114.424C416.767 114.144 416.707 113.848 416.643 113.536H416.595C416.539 113.848 416.483 114.144 416.427 114.424C416.371 114.704 416.311 114.984 416.247 115.264L415.575 118H413.991ZM423.639 118.144C423.239 118.144 422.839 118.068 422.439 117.916C422.039 117.756 421.695 117.56 421.407 117.328L422.055 116.44C422.319 116.64 422.583 116.8 422.847 116.92C423.111 117.04 423.391 117.1 423.687 117.1C424.007 117.1 424.243 117.032 424.395 116.896C424.547 116.76 424.623 116.592 424.623 116.392C424.623 116.224 424.559 116.088 424.431 115.984C424.311 115.872 424.155 115.776 423.963 115.696C423.771 115.608 423.571 115.524 423.363 115.444C423.107 115.348 422.851 115.232 422.595 115.096C422.347 114.952 422.143 114.772 421.983 114.556C421.823 114.332 421.743 114.056 421.743 113.728C421.743 113.208 421.935 112.784 422.319 112.456C422.703 112.128 423.223 111.964 423.879 111.964C424.295 111.964 424.667 112.036 424.995 112.18C425.323 112.324 425.607 112.488 425.847 112.672L425.211 113.512C425.003 113.36 424.791 113.24 424.575 113.152C424.367 113.056 424.147 113.008 423.915 113.008C423.619 113.008 423.399 113.072 423.255 113.2C423.111 113.32 423.039 113.472 423.039 113.656C423.039 113.888 423.159 114.064 423.399 114.184C423.639 114.304 423.919 114.42 424.239 114.532C424.511 114.628 424.775 114.748 425.031 114.892C425.287 115.028 425.499 115.208 425.667 115.432C425.843 115.656 425.931 115.952 425.931 116.32C425.931 116.824 425.735 117.256 425.343 117.616C424.951 117.968 424.383 118.144 423.639 118.144Z" fill="#181E25"/>
<path d="M453 233H343C340.791 233 339 231.209 339 229V180C339 177.791 340.791 176 343 176H453C455.209 176 457 177.791 457 180V229C457 231.209 455.209 233 453 233Z" fill="#F9FAFB" stroke="#15AABF" stroke-width="2"/>
<path d="M384 217H364C362.9 217 362 216.1 362 215V195C362 193.9 362.9 193 364 193H384C385.1 193 386 193.9 386 195V215C386 216.1 385.1 217 384 217Z" fill="#F9FAFB"/>
<rect x="368" y="206" width="12" height="7" rx="1" fill="#0C8599"/>
<path d="M367.047 202.037C366.75 202.037 366.452 201.927 366.253 201.596C365.856 201.156 365.955 200.385 366.352 200.055C370.822 195.982 377.178 195.982 381.648 200.055C382.045 200.495 382.144 201.156 381.747 201.596C381.35 202.037 380.754 202.147 380.357 201.706C376.682 198.294 371.318 198.294 367.643 201.706C367.544 202.037 367.246 202.037 367.047 202.037Z" fill="#15AABF"/>
<path d="M377.123 204.385C376.944 204.385 376.766 204.275 376.587 204.165C375.069 202.844 372.925 202.844 371.407 204.165C370.96 204.495 370.424 204.385 370.156 203.945C369.888 203.394 369.978 202.734 370.335 202.404C372.479 200.532 375.426 200.532 377.57 202.404C378.016 202.734 378.106 203.394 377.748 203.945C377.57 204.22 377.391 204.385 377.123 204.385Z" fill="#15AABF"/>
<path d="M392.801 209V202.328H390.533V201.152H396.461V202.328H394.193V209H392.801ZM397.12 209V203.108H398.26L398.356 204.152H398.404C398.612 203.768 398.864 203.476 399.16 203.276C399.456 203.068 399.76 202.964 400.072 202.964C400.352 202.964 400.576 203.004 400.744 203.084L400.504 204.284C400.4 204.252 400.304 204.228 400.216 204.212C400.128 204.196 400.02 204.188 399.892 204.188C399.66 204.188 399.416 204.28 399.16 204.464C398.904 204.64 398.684 204.952 398.5 205.4V209H397.12ZM402.708 209.144C402.196 209.144 401.776 208.984 401.448 208.664C401.128 208.344 400.968 207.928 400.968 207.416C400.968 206.784 401.244 206.296 401.796 205.952C402.348 205.6 403.228 205.36 404.436 205.232C404.428 204.92 404.344 204.652 404.184 204.428C404.032 204.196 403.756 204.08 403.356 204.08C403.068 204.08 402.784 204.136 402.504 204.248C402.232 204.36 401.964 204.496 401.7 204.656L401.196 203.732C401.524 203.524 401.892 203.344 402.3 203.192C402.716 203.04 403.156 202.964 403.62 202.964C404.356 202.964 404.904 203.184 405.264 203.624C405.632 204.056 405.816 204.684 405.816 205.508V209H404.676L404.58 208.352H404.532C404.268 208.576 403.984 208.764 403.68 208.916C403.384 209.068 403.06 209.144 402.708 209.144ZM403.152 208.064C403.392 208.064 403.608 208.008 403.8 207.896C404 207.776 404.212 207.616 404.436 207.416V206.096C403.636 206.2 403.08 206.356 402.768 206.564C402.456 206.764 402.3 207.012 402.3 207.308C402.3 207.572 402.38 207.764 402.54 207.884C402.7 208.004 402.904 208.064 403.152 208.064ZM409.928 209.144C409.392 209.144 408.908 209.024 408.476 208.784C408.052 208.536 407.712 208.184 407.456 207.728C407.208 207.264 407.084 206.708 407.084 206.06C407.084 205.404 407.22 204.848 407.492 204.392C407.764 203.928 408.124 203.576 408.572 203.336C409.028 203.088 409.516 202.964 410.036 202.964C410.412 202.964 410.74 203.028 411.02 203.156C411.3 203.284 411.548 203.44 411.764 203.624L411.092 204.524C410.94 204.388 410.784 204.284 410.624 204.212C410.464 204.132 410.292 204.092 410.108 204.092C409.636 204.092 409.248 204.272 408.944 204.632C408.648 204.992 408.5 205.468 408.5 206.06C408.5 206.644 408.644 207.116 408.932 207.476C409.228 207.836 409.608 208.016 410.072 208.016C410.304 208.016 410.52 207.968 410.72 207.872C410.928 207.768 411.116 207.648 411.284 207.512L411.848 208.424C411.576 208.664 411.272 208.844 410.936 208.964C410.6 209.084 410.264 209.144 409.928 209.144ZM413.011 209V200.528H414.367V205.82H414.403L416.587 203.108H418.099L416.083 205.508L418.303 209H416.803L415.291 206.444L414.367 207.5V209H413.011ZM421.519 209.144C420.975 209.144 420.483 209.024 420.043 208.784C419.603 208.536 419.255 208.184 418.999 207.728C418.743 207.264 418.615 206.708 418.615 206.06C418.615 205.42 418.743 204.868 418.999 204.404C419.263 203.94 419.603 203.584 420.019 203.336C420.435 203.088 420.871 202.964 421.327 202.964C421.863 202.964 422.311 203.084 422.671 203.324C423.031 203.556 423.303 203.884 423.487 204.308C423.671 204.724 423.763 205.208 423.763 205.76C423.763 206.048 423.743 206.272 423.703 206.432H419.959C420.023 206.952 420.211 207.356 420.523 207.644C420.835 207.932 421.227 208.076 421.699 208.076C421.955 208.076 422.191 208.04 422.407 207.968C422.631 207.888 422.851 207.78 423.067 207.644L423.535 208.508C423.255 208.692 422.943 208.844 422.599 208.964C422.255 209.084 421.895 209.144 421.519 209.144ZM419.947 205.496H422.563C422.563 205.04 422.463 204.684 422.263 204.428C422.063 204.164 421.763 204.032 421.363 204.032C421.019 204.032 420.711 204.16 420.439 204.416C420.175 204.664 420.011 205.024 419.947 205.496ZM425.081 209V203.108H426.221L426.317 204.152H426.365C426.573 203.768 426.825 203.476 427.121 203.276C427.417 203.068 427.721 202.964 428.033 202.964C428.313 202.964 428.537 203.004 428.705 203.084L428.465 204.284C428.361 204.252 428.265 204.228 428.177 204.212C428.089 204.196 427.981 204.188 427.853 204.188C427.621 204.188 427.377 204.28 427.121 204.464C426.865 204.64 426.645 204.952 426.461 205.4V209H425.081ZM431.131 209.144C430.731 209.144 430.331 209.068 429.931 208.916C429.531 208.756 429.187 208.56 428.899 208.328L429.547 207.44C429.811 207.64 430.075 207.8 430.339 207.92C430.603 208.04 430.883 208.1 431.179 208.1C431.499 208.1 431.735 208.032 431.887 207.896C432.039 207.76 432.115 207.592 432.115 207.392C432.115 207.224 432.051 207.088 431.923 206.984C431.803 206.872 431.647 206.776 431.455 206.696C431.263 206.608 431.063 206.524 430.855 206.444C430.599 206.348 430.343 206.232 430.087 206.096C429.839 205.952 429.635 205.772 429.475 205.556C429.315 205.332 429.235 205.056 429.235 204.728C429.235 204.208 429.427 203.784 429.811 203.456C430.195 203.128 430.715 202.964 431.371 202.964C431.787 202.964 432.159 203.036 432.487 203.18C432.815 203.324 433.099 203.488 433.339 203.672L432.703 204.512C432.495 204.36 432.283 204.24 432.067 204.152C431.859 204.056 431.639 204.008 431.407 204.008C431.111 204.008 430.891 204.072 430.747 204.2C430.603 204.32 430.531 204.472 430.531 204.656C430.531 204.888 430.651 205.064 430.891 205.184C431.131 205.304 431.411 205.42 431.731 205.532C432.003 205.628 432.267 205.748 432.523 205.892C432.779 206.028 432.991 206.208 433.159 206.432C433.335 206.656 433.423 206.952 433.423 207.32C433.423 207.824 433.227 208.256 432.835 208.616C432.443 208.968 431.875 209.144 431.131 209.144Z" fill="#181E25"/>
<path d="M453 324H343C340.791 324 339 322.209 339 320V271C339 268.791 340.791 267 343 267H453C455.209 267 457 268.791 457 271V320C457 322.209 455.209 324 453 324Z" fill="#F9FAFB" stroke="#15AABF" stroke-width="2"/>
<g clip-path="url(#clip1_49_12583)">
<path d="M390.5 308H370.5C369.4 308 368.5 307.1 368.5 306V286C368.5 284.9 369.4 284 370.5 284H390.5C391.6 284 392.5 284.9 392.5 286V306C392.5 307.1 391.6 308 390.5 308Z" fill="#F9FAFB"/>
<path d="M387.25 289.25L373.75 289.25L373.75 302.75L387.25 302.75L387.25 289.25Z" fill="#F9FAFB" stroke="#4DB5A3" stroke-width="0.75"/>
<path d="M387.25 305C388.493 305 389.5 303.993 389.5 302.75C389.5 301.507 388.493 300.5 387.25 300.5C386.007 300.5 385 301.507 385 302.75C385 303.993 386.007 305 387.25 305Z" fill="#0C8599"/>
<path d="M373.75 291.5C374.993 291.5 376 290.493 376 289.25C376 288.007 374.993 287 373.75 287C372.507 287 371.5 288.007 371.5 289.25C371.5 290.493 372.507 291.5 373.75 291.5Z" fill="#0C8599"/>
<path d="M387.25 291.5C388.493 291.5 389.5 290.493 389.5 289.25C389.5 288.007 388.493 287 387.25 287C386.007 287 385 288.007 385 289.25C385 290.493 386.007 291.5 387.25 291.5Z" fill="#0C8599"/>
<path d="M373.75 305C374.993 305 376 303.993 376 302.75C376 301.507 374.993 300.5 373.75 300.5C372.507 300.5 371.5 301.507 371.5 302.75C371.5 303.993 372.507 305 373.75 305Z" fill="#0C8599"/>
</g>
<path d="M397.064 300V299.16L400.856 293.328H397.412V292.152H402.584V292.992L398.78 298.824H402.608V300H397.064ZM406.153 300.144C405.665 300.144 405.209 300.024 404.785 299.784C404.361 299.536 404.017 299.184 403.753 298.728C403.489 298.264 403.357 297.708 403.357 297.06C403.357 296.404 403.489 295.848 403.753 295.392C404.017 294.928 404.361 294.576 404.785 294.336C405.209 294.088 405.665 293.964 406.153 293.964C406.649 293.964 407.109 294.088 407.533 294.336C407.957 294.576 408.301 294.928 408.565 295.392C408.829 295.848 408.961 296.404 408.961 297.06C408.961 297.708 408.829 298.264 408.565 298.728C408.301 299.184 407.957 299.536 407.533 299.784C407.109 300.024 406.649 300.144 406.153 300.144ZM406.153 299.016C406.585 299.016 406.925 298.836 407.173 298.476C407.421 298.116 407.545 297.644 407.545 297.06C407.545 296.468 407.421 295.992 407.173 295.632C406.925 295.272 406.585 295.092 406.153 295.092C405.721 295.092 405.381 295.272 405.133 295.632C404.893 295.992 404.773 296.468 404.773 297.06C404.773 297.644 404.893 298.116 405.133 298.476C405.381 298.836 405.721 299.016 406.153 299.016ZM410.327 300V294.108H411.467L411.563 294.9H411.611C411.875 294.644 412.163 294.424 412.475 294.24C412.787 294.056 413.143 293.964 413.543 293.964C414.175 293.964 414.635 294.168 414.923 294.576C415.211 294.984 415.355 295.56 415.355 296.304V300H413.975V296.484C413.975 295.996 413.903 295.652 413.759 295.452C413.615 295.252 413.379 295.152 413.051 295.152C412.795 295.152 412.567 295.216 412.367 295.344C412.175 295.464 411.955 295.644 411.707 295.884V300H410.327ZM419.562 300.144C419.018 300.144 418.526 300.024 418.086 299.784C417.646 299.536 417.298 299.184 417.042 298.728C416.786 298.264 416.658 297.708 416.658 297.06C416.658 296.42 416.786 295.868 417.042 295.404C417.306 294.94 417.646 294.584 418.062 294.336C418.478 294.088 418.914 293.964 419.37 293.964C419.906 293.964 420.354 294.084 420.714 294.324C421.074 294.556 421.346 294.884 421.53 295.308C421.714 295.724 421.806 296.208 421.806 296.76C421.806 297.048 421.786 297.272 421.746 297.432H418.002C418.066 297.952 418.254 298.356 418.566 298.644C418.878 298.932 419.27 299.076 419.742 299.076C419.998 299.076 420.234 299.04 420.45 298.968C420.674 298.888 420.894 298.78 421.11 298.644L421.578 299.508C421.298 299.692 420.986 299.844 420.642 299.964C420.298 300.084 419.938 300.144 419.562 300.144ZM417.99 296.496H420.606C420.606 296.04 420.506 295.684 420.306 295.428C420.106 295.164 419.806 295.032 419.406 295.032C419.062 295.032 418.754 295.16 418.482 295.416C418.218 295.664 418.054 296.024 417.99 296.496ZM424.768 300.144C424.368 300.144 423.968 300.068 423.568 299.916C423.168 299.756 422.824 299.56 422.536 299.328L423.184 298.44C423.448 298.64 423.712 298.8 423.976 298.92C424.24 299.04 424.52 299.1 424.816 299.1C425.136 299.1 425.372 299.032 425.524 298.896C425.676 298.76 425.752 298.592 425.752 298.392C425.752 298.224 425.688 298.088 425.56 297.984C425.44 297.872 425.284 297.776 425.092 297.696C424.9 297.608 424.7 297.524 424.492 297.444C424.236 297.348 423.98 297.232 423.724 297.096C423.476 296.952 423.272 296.772 423.112 296.556C422.952 296.332 422.872 296.056 422.872 295.728C422.872 295.208 423.064 294.784 423.448 294.456C423.832 294.128 424.352 293.964 425.008 293.964C425.424 293.964 425.796 294.036 426.124 294.18C426.452 294.324 426.736 294.488 426.976 294.672L426.34 295.512C426.132 295.36 425.92 295.24 425.704 295.152C425.496 295.056 425.276 295.008 425.044 295.008C424.748 295.008 424.528 295.072 424.384 295.2C424.24 295.32 424.168 295.472 424.168 295.656C424.168 295.888 424.288 296.064 424.528 296.184C424.768 296.304 425.048 296.42 425.368 296.532C425.64 296.628 425.904 296.748 426.16 296.892C426.416 297.028 426.628 297.208 426.796 297.432C426.972 297.656 427.06 297.952 427.06 298.32C427.06 298.824 426.864 299.256 426.472 299.616C426.08 299.968 425.512 300.144 424.768 300.144Z" fill="#181E25"/>
<path d="M304.707 115.207C305.098 114.817 305.098 114.183 304.707 113.793L298.343 107.429C297.953 107.038 297.319 107.038 296.929 107.429C296.538 107.819 296.538 108.453 296.929 108.843L302.586 114.5L296.929 120.157C296.538 120.547 296.538 121.181 296.929 121.571C297.319 121.962 297.953 121.962 298.343 121.571L304.707 115.207ZM228 115.5H304V113.5H228V115.5Z" fill="#15AABF"/>
<path d="M305.207 204.707C305.598 204.317 305.598 203.683 305.207 203.293L298.843 196.929C298.453 196.538 297.819 196.538 297.429 196.929C297.038 197.319 297.038 197.953 297.429 198.343L303.086 204L297.429 209.657C297.038 210.047 297.038 210.681 297.429 211.071C297.819 211.462 298.453 211.462 298.843 211.071L305.207 204.707ZM256.5 205L304.5 205L304.5 203L256.5 203L256.5 205Z" fill="#15AABF"/>
<path d="M305.207 294.207C305.598 293.817 305.598 293.183 305.207 292.793L298.843 286.429C298.453 286.038 297.819 286.038 297.429 286.429C297.038 286.819 297.038 287.453 297.429 287.843L303.086 293.5L297.429 299.157C297.038 299.547 297.038 300.181 297.429 300.571C297.819 300.962 298.453 300.962 298.843 300.571L305.207 294.207ZM256.5 294.5L304.5 294.5L304.5 292.5L256.5 292.5L256.5 294.5Z" fill="#15AABF"/>
<path d="M257 115L257 294" stroke="#15AABF" stroke-width="2"/>
<defs>
<clipPath id="clip0_49_12583">
<rect width="24" height="24" fill="white" transform="translate(370.5 102)"/>
</clipPath>
<clipPath id="clip1_49_12583">
<rect width="24" height="24" fill="white" transform="translate(368.5 284)"/>
</clipPath>
</defs>
</svg>
