<svg width="492" height="130" viewBox="0 0 492 130" fill="none" xmlns="http://www.w3.org/2000/svg">
<rect width="492" height="130" rx="24" fill="#EBF1FD"/>
<path d="M107.926 87.0625V91H106.92V84.4545H107.892V85.4773H107.977C108.131 85.1449 108.364 84.8778 108.676 84.6761C108.989 84.4716 109.392 84.3693 109.886 84.3693C110.33 84.3693 110.717 84.4602 111.05 84.642C111.382 84.821 111.641 85.0938 111.825 85.4602C112.01 85.8239 112.102 86.2841 112.102 86.8409V91H111.097V86.9091C111.097 86.3949 110.963 85.9943 110.696 85.7074C110.429 85.4176 110.063 85.2727 109.597 85.2727C109.276 85.2727 108.989 85.3423 108.736 85.4815C108.486 85.6207 108.288 85.8239 108.143 86.0909C107.999 86.358 107.926 86.6818 107.926 87.0625ZM116.599 91.1364C116.008 91.1364 115.49 90.9957 115.044 90.7145C114.6 90.4332 114.254 90.0398 114.004 89.5341C113.757 89.0284 113.633 88.4375 113.633 87.7614C113.633 87.0795 113.757 86.4844 114.004 85.9759C114.254 85.4673 114.6 85.0724 115.044 84.7912C115.49 84.5099 116.008 84.3693 116.599 84.3693C117.19 84.3693 117.707 84.5099 118.15 84.7912C118.596 85.0724 118.943 85.4673 119.19 85.9759C119.44 86.4844 119.565 87.0795 119.565 87.7614C119.565 88.4375 119.44 89.0284 119.19 89.5341C118.943 90.0398 118.596 90.4332 118.15 90.7145C117.707 90.9957 117.19 91.1364 116.599 91.1364ZM116.599 90.233C117.048 90.233 117.417 90.1179 117.707 89.8878C117.997 89.6577 118.211 89.3551 118.35 88.9801C118.49 88.6051 118.559 88.1989 118.559 87.7614C118.559 87.3239 118.49 86.9162 118.35 86.5384C118.211 86.1605 117.997 85.8551 117.707 85.6222C117.417 85.3892 117.048 85.2727 116.599 85.2727C116.15 85.2727 115.781 85.3892 115.491 85.6222C115.201 85.8551 114.987 86.1605 114.848 86.5384C114.708 86.9162 114.639 87.3239 114.639 87.7614C114.639 88.1989 114.708 88.6051 114.848 88.9801C114.987 89.3551 115.201 89.6577 115.491 89.8878C115.781 90.1179 116.15 90.233 116.599 90.233ZM121.1 91V84.4545H122.072V85.4432H122.14C122.259 85.1193 122.475 84.8565 122.788 84.6548C123.1 84.4531 123.452 84.3523 123.844 84.3523C123.918 84.3523 124.011 84.3537 124.121 84.3565C124.232 84.3594 124.316 84.3636 124.373 84.3693V85.392C124.339 85.3835 124.261 85.3707 124.138 85.3537C124.019 85.3338 123.893 85.3239 123.759 85.3239C123.441 85.3239 123.157 85.3906 122.907 85.5241C122.66 85.6548 122.464 85.8366 122.319 86.0696C122.177 86.2997 122.106 86.5625 122.106 86.858V91H121.1ZM125.565 91V84.4545H126.537V85.4773H126.622C126.758 85.1278 126.978 84.8565 127.282 84.6634C127.586 84.4673 127.951 84.3693 128.377 84.3693C128.809 84.3693 129.169 84.4673 129.456 84.6634C129.745 84.8565 129.971 85.1278 130.133 85.4773H130.201C130.369 85.1392 130.62 84.8707 130.956 84.6719C131.291 84.4702 131.693 84.3693 132.162 84.3693C132.747 84.3693 133.225 84.5526 133.598 84.919C133.97 85.2827 134.156 85.8494 134.156 86.6193V91H133.15V86.6193C133.15 86.1364 133.018 85.7912 132.754 85.5838C132.49 85.3764 132.179 85.2727 131.821 85.2727C131.36 85.2727 131.004 85.4119 130.751 85.6903C130.498 85.9659 130.372 86.3153 130.372 86.7386V91H129.349V86.517C129.349 86.1449 129.228 85.8452 128.987 85.6179C128.745 85.3878 128.434 85.2727 128.054 85.2727C127.792 85.2727 127.548 85.3423 127.321 85.4815C127.096 85.6207 126.914 85.8139 126.775 86.0611C126.639 86.3054 126.571 86.5881 126.571 86.9091V91H125.565ZM137.921 91.1534C137.506 91.1534 137.13 91.0753 136.792 90.919C136.453 90.7599 136.185 90.5312 135.986 90.233C135.787 89.9318 135.688 89.5682 135.688 89.142C135.688 88.767 135.762 88.4631 135.909 88.2301C136.057 87.9943 136.255 87.8097 136.502 87.6761C136.749 87.5426 137.022 87.4432 137.32 87.3778C137.621 87.3097 137.924 87.2557 138.228 87.2159C138.625 87.1648 138.948 87.1264 139.195 87.1009C139.445 87.0724 139.627 87.0256 139.74 86.9602C139.857 86.8949 139.915 86.7812 139.915 86.6193V86.5852C139.915 86.1648 139.8 85.8381 139.57 85.6051C139.343 85.3722 138.998 85.2557 138.534 85.2557C138.054 85.2557 137.678 85.3608 137.405 85.571C137.132 85.7812 136.941 86.0057 136.83 86.2443L135.875 85.9034C136.046 85.5057 136.273 85.196 136.557 84.9744C136.844 84.75 137.157 84.5937 137.495 84.5057C137.836 84.4148 138.171 84.3693 138.5 84.3693C138.711 84.3693 138.952 84.3949 139.225 84.446C139.5 84.4943 139.766 84.5952 140.022 84.7486C140.28 84.902 140.495 85.1335 140.665 85.4432C140.836 85.7528 140.921 86.1676 140.921 86.6875V91H139.915V90.1136H139.864C139.796 90.2557 139.682 90.4077 139.523 90.5696C139.364 90.7315 139.152 90.8693 138.888 90.983C138.624 91.0966 138.301 91.1534 137.921 91.1534ZM138.074 90.25C138.472 90.25 138.807 90.1719 139.08 90.0156C139.355 89.8594 139.563 89.6577 139.702 89.4105C139.844 89.1634 139.915 88.9034 139.915 88.6307V87.7102C139.873 87.7614 139.779 87.8082 139.634 87.8509C139.492 87.8906 139.327 87.9261 139.14 87.9574C138.955 87.9858 138.775 88.0114 138.598 88.0341C138.425 88.054 138.284 88.071 138.176 88.0852C137.915 88.1193 137.671 88.1747 137.444 88.2514C137.219 88.3253 137.037 88.4375 136.898 88.5881C136.762 88.7358 136.694 88.9375 136.694 89.1932C136.694 89.5426 136.823 89.8068 137.081 89.9858C137.343 90.1619 137.674 90.25 138.074 90.25ZM143.762 82.2727V91H142.756V82.2727H143.762Z" fill="black"/>
<path d="M213.95 92V85.4545H214.921V86.4432H214.99C215.109 86.1193 215.325 85.8565 215.637 85.6548C215.95 85.4531 216.302 85.3523 216.694 85.3523C216.768 85.3523 216.86 85.3537 216.971 85.3565C217.082 85.3594 217.166 85.3636 217.222 85.3693V86.392C217.188 86.3835 217.11 86.3707 216.988 86.3537C216.869 86.3338 216.742 86.3239 216.609 86.3239C216.291 86.3239 216.007 86.3906 215.757 86.5241C215.509 86.6548 215.313 86.8366 215.169 87.0696C215.026 87.2997 214.955 87.5625 214.955 87.858V92H213.95ZM220.874 92.1364C220.284 92.1364 219.765 91.9957 219.319 91.7145C218.876 91.4332 218.529 91.0398 218.279 90.5341C218.032 90.0284 217.909 89.4375 217.909 88.7614C217.909 88.0795 218.032 87.4844 218.279 86.9759C218.529 86.4673 218.876 86.0724 219.319 85.7912C219.765 85.5099 220.284 85.3693 220.874 85.3693C221.465 85.3693 221.982 85.5099 222.426 85.7912C222.872 86.0724 223.218 86.4673 223.465 86.9759C223.715 87.4844 223.84 88.0795 223.84 88.7614C223.84 89.4375 223.715 90.0284 223.465 90.5341C223.218 91.0398 222.872 91.4332 222.426 91.7145C221.982 91.9957 221.465 92.1364 220.874 92.1364ZM220.874 91.233C221.323 91.233 221.693 91.1179 221.982 90.8878C222.272 90.6577 222.487 90.3551 222.626 89.9801C222.765 89.6051 222.835 89.1989 222.835 88.7614C222.835 88.3239 222.765 87.9162 222.626 87.5384C222.487 87.1605 222.272 86.8551 221.982 86.6222C221.693 86.3892 221.323 86.2727 220.874 86.2727C220.426 86.2727 220.056 86.3892 219.767 86.6222C219.477 86.8551 219.262 87.1605 219.123 87.5384C218.984 87.9162 218.914 88.3239 218.914 88.7614C218.914 89.1989 218.984 89.6051 219.123 89.9801C219.262 90.3551 219.477 90.6577 219.767 90.8878C220.056 91.1179 220.426 91.233 220.874 91.233ZM226.381 83.2727V92H225.376V83.2727H226.381ZM229.229 83.2727V92H228.223V83.2727H229.229ZM233.73 92.1364C233.139 92.1364 232.621 91.9957 232.175 91.7145C231.731 91.4332 231.385 91.0398 231.135 90.5341C230.888 90.0284 230.764 89.4375 230.764 88.7614C230.764 88.0795 230.888 87.4844 231.135 86.9759C231.385 86.4673 231.731 86.0724 232.175 85.7912C232.621 85.5099 233.139 85.3693 233.73 85.3693C234.321 85.3693 234.838 85.5099 235.281 85.7912C235.727 86.0724 236.074 86.4673 236.321 86.9759C236.571 87.4844 236.696 88.0795 236.696 88.7614C236.696 89.4375 236.571 90.0284 236.321 90.5341C236.074 91.0398 235.727 91.4332 235.281 91.7145C234.838 91.9957 234.321 92.1364 233.73 92.1364ZM233.73 91.233C234.179 91.233 234.548 91.1179 234.838 90.8878C235.128 90.6577 235.342 90.3551 235.481 89.9801C235.621 89.6051 235.69 89.1989 235.69 88.7614C235.69 88.3239 235.621 87.9162 235.481 87.5384C235.342 87.1605 235.128 86.8551 234.838 86.6222C234.548 86.3892 234.179 86.2727 233.73 86.2727C233.281 86.2727 232.912 86.3892 232.622 86.6222C232.332 86.8551 232.118 87.1605 231.979 87.5384C231.839 87.9162 231.77 88.3239 231.77 88.7614C231.77 89.1989 231.839 89.6051 231.979 89.9801C232.118 90.3551 232.332 90.6577 232.622 90.8878C232.912 91.1179 233.281 91.233 233.73 91.233ZM243.349 85.4545L240.928 92H239.906L237.485 85.4545H238.576L240.383 90.6705H240.451L242.258 85.4545H243.349ZM247.186 92.1364C246.556 92.1364 246.012 91.9972 245.554 91.7188C245.1 91.4375 244.749 91.0455 244.502 90.5426C244.257 90.0369 244.135 89.4489 244.135 88.7784C244.135 88.108 244.257 87.517 244.502 87.0057C244.749 86.4915 245.093 86.0909 245.533 85.804C245.976 85.5142 246.493 85.3693 247.084 85.3693C247.425 85.3693 247.762 85.4261 248.094 85.5398C248.426 85.6534 248.729 85.8381 249.002 86.0938C249.274 86.3466 249.492 86.6818 249.654 87.0994C249.816 87.517 249.896 88.0312 249.896 88.642V89.0682H244.851V88.1989H248.874C248.874 87.8295 248.8 87.5 248.652 87.2102C248.507 86.9205 248.3 86.6918 248.03 86.5241C247.763 86.3565 247.448 86.2727 247.084 86.2727C246.683 86.2727 246.337 86.3722 246.044 86.571C245.754 86.767 245.531 87.0227 245.375 87.3381C245.219 87.6534 245.141 87.9915 245.141 88.3523V88.9318C245.141 89.4261 245.226 89.8452 245.396 90.1889C245.57 90.5298 245.81 90.7898 246.117 90.9688C246.423 91.1449 246.78 91.233 247.186 91.233C247.45 91.233 247.689 91.196 247.902 91.1222C248.118 91.0455 248.304 90.9318 248.46 90.7812C248.617 90.6278 248.737 90.4375 248.823 90.2102L249.794 90.483C249.692 90.8125 249.52 91.1023 249.279 91.3523C249.037 91.5994 248.739 91.7926 248.384 91.9318C248.029 92.0682 247.629 92.1364 247.186 92.1364ZM251.426 92V85.4545H252.398V86.4432H252.466C252.585 86.1193 252.801 85.8565 253.114 85.6548C253.426 85.4531 253.779 85.3523 254.171 85.3523C254.244 85.3523 254.337 85.3537 254.448 85.3565C254.558 85.3594 254.642 85.3636 254.699 85.3693V86.392C254.665 86.3835 254.587 86.3707 254.465 86.3537C254.345 86.3338 254.219 86.3239 254.085 86.3239C253.767 86.3239 253.483 86.3906 253.233 86.5241C252.986 86.6548 252.79 86.8366 252.645 87.0696C252.503 87.2997 252.432 87.5625 252.432 87.858V92H251.426Z" fill="black"/>
<path d="M328.299 86.9205L327.396 87.1761C327.339 87.0256 327.255 86.8793 327.144 86.7372C327.036 86.5923 326.888 86.473 326.701 86.3793C326.513 86.2855 326.273 86.2386 325.981 86.2386C325.58 86.2386 325.246 86.331 324.979 86.5156C324.715 86.6974 324.583 86.929 324.583 87.2102C324.583 87.4602 324.674 87.6577 324.856 87.8026C325.038 87.9474 325.322 88.0682 325.708 88.1648L326.68 88.4034C327.265 88.5455 327.701 88.7628 327.988 89.0554C328.275 89.3452 328.418 89.7187 328.418 90.1761C328.418 90.5511 328.31 90.8864 328.094 91.1818C327.881 91.4773 327.583 91.7102 327.2 91.8807C326.816 92.0511 326.37 92.1364 325.862 92.1364C325.194 92.1364 324.641 91.9915 324.204 91.7017C323.766 91.4119 323.489 90.9886 323.373 90.4318L324.327 90.1932C324.418 90.5455 324.59 90.8097 324.843 90.9858C325.099 91.1619 325.433 91.25 325.844 91.25C326.313 91.25 326.685 91.1506 326.961 90.9517C327.239 90.75 327.379 90.5085 327.379 90.2273C327.379 90 327.299 89.8097 327.14 89.6562C326.981 89.5 326.737 89.3835 326.407 89.3068L325.316 89.0511C324.717 88.9091 324.276 88.6889 323.995 88.3906C323.717 88.0895 323.577 87.7131 323.577 87.2614C323.577 86.892 323.681 86.5653 323.888 86.2812C324.099 85.9972 324.384 85.7741 324.745 85.6122C325.109 85.4503 325.521 85.3693 325.981 85.3693C326.629 85.3693 327.137 85.5114 327.506 85.7955C327.879 86.0795 328.143 86.4545 328.299 86.9205ZM332.676 92.1364C332.046 92.1364 331.502 91.9972 331.044 91.7188C330.59 91.4375 330.239 91.0455 329.992 90.5426C329.748 90.0369 329.625 89.4489 329.625 88.7784C329.625 88.108 329.748 87.517 329.992 87.0057C330.239 86.4915 330.583 86.0909 331.023 85.804C331.466 85.5142 331.983 85.3693 332.574 85.3693C332.915 85.3693 333.252 85.4261 333.584 85.5398C333.917 85.6534 334.219 85.8381 334.492 86.0938C334.765 86.3466 334.982 86.6818 335.144 87.0994C335.306 87.517 335.387 88.0312 335.387 88.642V89.0682H330.341V88.1989H334.364C334.364 87.8295 334.29 87.5 334.142 87.2102C333.998 86.9205 333.79 86.6918 333.52 86.5241C333.253 86.3565 332.938 86.2727 332.574 86.2727C332.174 86.2727 331.827 86.3722 331.534 86.571C331.245 86.767 331.022 87.0227 330.865 87.3381C330.709 87.6534 330.631 87.9915 330.631 88.3523V88.9318C330.631 89.4261 330.716 89.8452 330.887 90.1889C331.06 90.5298 331.3 90.7898 331.607 90.9688C331.914 91.1449 332.27 91.233 332.676 91.233C332.941 91.233 333.179 91.196 333.392 91.1222C333.608 91.0455 333.794 90.9318 333.951 90.7812C334.107 90.6278 334.228 90.4375 334.313 90.2102L335.284 90.483C335.182 90.8125 335.01 91.1023 334.769 91.3523C334.527 91.5994 334.229 91.7926 333.874 91.9318C333.519 92.0682 333.12 92.1364 332.676 92.1364ZM337.922 83.2727V92H336.917V83.2727H337.922ZM342.509 92.1364C341.878 92.1364 341.334 91.9972 340.876 91.7188C340.422 91.4375 340.071 91.0455 339.824 90.5426C339.58 90.0369 339.457 89.4489 339.457 88.7784C339.457 88.108 339.58 87.517 339.824 87.0057C340.071 86.4915 340.415 86.0909 340.855 85.804C341.298 85.5142 341.815 85.3693 342.406 85.3693C342.747 85.3693 343.084 85.4261 343.416 85.5398C343.749 85.6534 344.051 85.8381 344.324 86.0938C344.597 86.3466 344.814 86.6818 344.976 87.0994C345.138 87.517 345.219 88.0312 345.219 88.642V89.0682H340.173V88.1989H344.196C344.196 87.8295 344.122 87.5 343.974 87.2102C343.83 86.9205 343.622 86.6918 343.352 86.5241C343.085 86.3565 342.77 86.2727 342.406 86.2727C342.006 86.2727 341.659 86.3722 341.366 86.571C341.077 86.767 340.854 87.0227 340.697 87.3381C340.541 87.6534 340.463 87.9915 340.463 88.3523V88.9318C340.463 89.4261 340.548 89.8452 340.719 90.1889C340.892 90.5298 341.132 90.7898 341.439 90.9688C341.746 91.1449 342.102 91.233 342.509 91.233C342.773 91.233 343.011 91.196 343.224 91.1222C343.44 91.0455 343.626 90.9318 343.783 90.7812C343.939 90.6278 344.06 90.4375 344.145 90.2102L345.116 90.483C345.014 90.8125 344.842 91.1023 344.601 91.3523C344.359 91.5994 344.061 91.7926 343.706 91.9318C343.351 92.0682 342.952 92.1364 342.509 92.1364ZM349.408 92.1364C348.794 92.1364 348.266 91.9915 347.822 91.7017C347.379 91.4119 347.038 91.0128 346.8 90.5043C346.561 89.9957 346.442 89.4148 346.442 88.7614C346.442 88.0966 346.564 87.5099 346.808 87.0014C347.055 86.4901 347.399 86.0909 347.839 85.804C348.283 85.5142 348.8 85.3693 349.391 85.3693C349.851 85.3693 350.266 85.4545 350.635 85.625C351.004 85.7955 351.307 86.0341 351.543 86.3409C351.778 86.6477 351.925 87.0057 351.982 87.4148H350.976C350.899 87.1165 350.729 86.8523 350.464 86.6222C350.203 86.3892 349.851 86.2727 349.408 86.2727C349.016 86.2727 348.672 86.375 348.376 86.5795C348.084 86.7812 347.855 87.0668 347.69 87.4361C347.528 87.8026 347.447 88.233 347.447 88.7273C347.447 89.233 347.527 89.6733 347.686 90.0483C347.848 90.4233 348.075 90.7145 348.368 90.9219C348.663 91.1293 349.01 91.233 349.408 91.233C349.669 91.233 349.906 91.1875 350.119 91.0966C350.332 91.0057 350.513 90.875 350.661 90.7045C350.808 90.5341 350.913 90.3295 350.976 90.0909H351.982C351.925 90.4773 351.784 90.8253 351.56 91.1349C351.338 91.4418 351.044 91.6861 350.678 91.8679C350.314 92.0469 349.891 92.1364 349.408 92.1364ZM356.298 85.4545V86.3068H352.906V85.4545H356.298ZM353.895 83.8864H354.901V90.125C354.901 90.4091 354.942 90.6222 355.024 90.7642C355.109 90.9034 355.217 90.9972 355.348 91.0455C355.482 91.0909 355.622 91.1136 355.77 91.1136C355.881 91.1136 355.972 91.108 356.043 91.0966C356.114 91.0824 356.17 91.071 356.213 91.0625L356.418 91.9659C356.349 91.9915 356.254 92.017 356.132 92.0426C356.01 92.071 355.855 92.0852 355.668 92.0852C355.384 92.0852 355.105 92.0241 354.832 91.902C354.563 91.7798 354.338 91.5938 354.159 91.3438C353.983 91.0938 353.895 90.7784 353.895 90.3977V83.8864ZM360.485 92.1364C359.854 92.1364 359.31 91.9972 358.853 91.7188C358.398 91.4375 358.048 91.0455 357.8 90.5426C357.556 90.0369 357.434 89.4489 357.434 88.7784C357.434 88.108 357.556 87.517 357.8 87.0057C358.048 86.4915 358.391 86.0909 358.832 85.804C359.275 85.5142 359.792 85.3693 360.383 85.3693C360.724 85.3693 361.06 85.4261 361.393 85.5398C361.725 85.6534 362.028 85.8381 362.3 86.0938C362.573 86.3466 362.79 86.6818 362.952 87.0994C363.114 87.517 363.195 88.0312 363.195 88.642V89.0682H358.15V88.1989H362.173C362.173 87.8295 362.099 87.5 361.951 87.2102C361.806 86.9205 361.599 86.6918 361.329 86.5241C361.062 86.3565 360.746 86.2727 360.383 86.2727C359.982 86.2727 359.636 86.3722 359.343 86.571C359.053 86.767 358.83 87.0227 358.674 87.3381C358.518 87.6534 358.44 87.9915 358.44 88.3523V88.9318C358.44 89.4261 358.525 89.8452 358.695 90.1889C358.869 90.5298 359.109 90.7898 359.415 90.9688C359.722 91.1449 360.079 91.233 360.485 91.233C360.749 91.233 360.988 91.196 361.201 91.1222C361.417 91.0455 361.603 90.9318 361.759 90.7812C361.915 90.6278 362.036 90.4375 362.121 90.2102L363.093 90.483C362.991 90.8125 362.819 91.1023 362.577 91.3523C362.336 91.5994 362.038 91.7926 361.683 91.9318C361.327 92.0682 360.928 92.1364 360.485 92.1364ZM367.197 92.1364C366.651 92.1364 366.17 91.9986 365.752 91.723C365.335 91.4446 365.008 91.0526 364.772 90.5469C364.536 90.0384 364.418 89.4375 364.418 88.7443C364.418 88.0568 364.536 87.4602 364.772 86.9545C365.008 86.4489 365.336 86.0582 365.756 85.7827C366.177 85.5071 366.663 85.3693 367.214 85.3693C367.64 85.3693 367.977 85.4403 368.224 85.5824C368.474 85.7216 368.664 85.8807 368.795 86.0597C368.928 86.2358 369.032 86.3807 369.106 86.4943H369.191V83.2727H370.197V92H369.225V90.9943H369.106C369.032 91.1136 368.927 91.2642 368.79 91.446C368.654 91.625 368.46 91.7855 368.207 91.9276C367.954 92.0668 367.617 92.1364 367.197 92.1364ZM367.333 91.233C367.737 91.233 368.077 91.1278 368.356 90.9176C368.634 90.7045 368.846 90.4105 368.991 90.0355C369.136 89.6577 369.208 89.2216 369.208 88.7273C369.208 88.2386 369.137 87.8111 368.995 87.4446C368.853 87.0753 368.643 86.7884 368.364 86.5838C368.086 86.3764 367.742 86.2727 367.333 86.2727C366.907 86.2727 366.552 86.3821 366.268 86.6009C365.987 86.8168 365.775 87.1108 365.633 87.483C365.494 87.8523 365.424 88.267 365.424 88.7273C365.424 89.1932 365.495 89.6165 365.637 89.9972C365.782 90.375 365.995 90.6761 366.276 90.9006C366.56 91.1222 366.913 91.233 367.333 91.233Z" fill="black"/>
<g filter="url(#filter0_d_3717_3972)">
<path d="M242.904 69.8932C242.624 69.5332 242.274 68.8032 241.664 67.8932C241.314 67.3932 240.454 66.4432 240.194 65.9532C240.006 65.6554 239.952 65.2929 240.044 64.9532C240.201 64.3074 240.813 63.879 241.474 63.9532C241.984 64.0558 242.454 64.3062 242.824 64.6732C243.082 64.9164 243.319 65.1806 243.534 65.4632C243.694 65.6632 243.734 65.7432 243.914 65.9732C244.094 66.2032 244.214 66.4332 244.124 66.0932C244.054 65.5932 243.934 64.7532 243.764 64.0032C243.634 63.4332 243.604 63.3432 243.484 62.9132C243.364 62.4832 243.294 62.1232 243.164 61.6332C243.045 61.1518 242.951 60.6644 242.884 60.1732C242.758 59.5449 242.849 58.8924 243.144 58.3232C243.493 57.9946 244.006 57.9078 244.444 58.1032C244.884 58.4285 245.213 58.8829 245.384 59.4032C245.646 60.0436 245.821 60.7163 245.904 61.4032C246.064 62.4032 246.374 63.8632 246.384 64.1632C246.384 63.7932 246.314 63.0132 246.384 62.6632C246.453 62.2983 246.707 61.9955 247.054 61.8632C247.351 61.7718 247.667 61.7513 247.974 61.8032C248.284 61.868 248.558 62.0464 248.744 62.3032C248.975 62.8866 249.104 63.5058 249.124 64.1332C249.15 63.5838 249.244 63.0397 249.404 62.5132C249.571 62.2778 249.815 62.108 250.094 62.0332C250.424 61.9728 250.763 61.9728 251.094 62.0332C251.365 62.1238 251.602 62.2947 251.774 62.5232C251.985 63.0536 252.114 63.6136 252.154 64.1832C252.154 64.3232 252.224 63.7932 252.444 63.4432C252.558 63.1038 252.845 62.8512 253.196 62.7805C253.547 62.7098 253.909 62.8318 254.146 63.1005C254.383 63.3692 254.458 63.7438 254.344 64.0832C254.344 64.7332 254.344 64.7032 254.344 65.1432C254.344 65.5832 254.344 65.9732 254.344 66.3432C254.307 66.9284 254.227 67.51 254.104 68.0832C253.93 68.5903 253.687 69.0714 253.384 69.5132C252.898 70.0532 252.497 70.6634 252.194 71.3232C252.118 71.651 252.085 71.987 252.094 72.3232C252.093 72.6338 252.133 72.9432 252.214 73.2432C251.805 73.2864 251.393 73.2864 250.984 73.2432C250.594 73.1832 250.114 72.4032 249.984 72.1632C249.919 72.0343 249.788 71.9529 249.644 71.9529C249.5 71.9529 249.368 72.0343 249.304 72.1632C249.084 72.5432 248.594 73.2332 248.254 73.2732C247.584 73.3532 246.204 73.2732 245.114 73.2732C245.114 73.2732 245.294 72.2732 244.884 71.9132C244.474 71.5532 244.054 71.1332 243.744 70.8532L242.904 69.8932Z" fill="white"/>
<path fill-rule="evenodd" clip-rule="evenodd" d="M242.904 69.8932C242.624 69.5332 242.274 68.8032 241.664 67.8932C241.314 67.3932 240.454 66.4432 240.194 65.9532C240.006 65.6554 239.952 65.2929 240.044 64.9532C240.201 64.3074 240.813 63.879 241.474 63.9532C241.984 64.0558 242.454 64.3062 242.824 64.6732C243.082 64.9164 243.319 65.1806 243.534 65.4632C243.694 65.6632 243.734 65.7432 243.914 65.9732C244.094 66.2032 244.214 66.4332 244.124 66.0932C244.054 65.5932 243.934 64.7532 243.764 64.0032C243.634 63.4332 243.604 63.3432 243.484 62.9132C243.364 62.4832 243.294 62.1232 243.164 61.6332C243.045 61.1518 242.951 60.6644 242.884 60.1732C242.758 59.5449 242.849 58.8924 243.144 58.3232C243.493 57.9946 244.006 57.9078 244.444 58.1032C244.884 58.4285 245.213 58.8829 245.384 59.4032C245.646 60.0436 245.821 60.7163 245.904 61.4032C246.064 62.4032 246.374 63.8632 246.384 64.1632C246.384 63.7932 246.314 63.0132 246.384 62.6632C246.453 62.2983 246.707 61.9955 247.054 61.8632C247.351 61.7718 247.667 61.7513 247.974 61.8032C248.284 61.868 248.558 62.0464 248.744 62.3032C248.975 62.8866 249.104 63.5058 249.124 64.1332C249.15 63.5838 249.244 63.0397 249.404 62.5132C249.571 62.2778 249.815 62.108 250.094 62.0332C250.424 61.9728 250.763 61.9728 251.094 62.0332C251.365 62.1238 251.602 62.2947 251.774 62.5232C251.985 63.0536 252.114 63.6136 252.154 64.1832C252.154 64.3232 252.224 63.7932 252.444 63.4432C252.558 63.1038 252.845 62.8512 253.196 62.7805C253.547 62.7098 253.909 62.8318 254.146 63.1005C254.383 63.3692 254.458 63.7438 254.344 64.0832C254.344 64.7332 254.344 64.7032 254.344 65.1432C254.344 65.5832 254.344 65.9732 254.344 66.3432C254.307 66.9284 254.227 67.51 254.104 68.0832C253.93 68.5903 253.687 69.0714 253.384 69.5132C252.898 70.0532 252.497 70.6634 252.194 71.3232C252.118 71.651 252.085 71.987 252.094 72.3232C252.093 72.6338 252.133 72.9432 252.214 73.2432C251.805 73.2864 251.393 73.2864 250.984 73.2432C250.594 73.1832 250.114 72.4032 249.984 72.1632C249.919 72.0343 249.788 71.9529 249.644 71.9529C249.5 71.9529 249.368 72.0343 249.304 72.1632C249.084 72.5432 248.594 73.2332 248.254 73.2732C247.584 73.3532 246.204 73.2732 245.114 73.2732C245.114 73.2732 245.294 72.2732 244.884 71.9132C244.474 71.5532 244.054 71.1332 243.744 70.8532L242.904 69.8932Z" stroke="black" stroke-width="0.75" stroke-linecap="round" stroke-linejoin="round"/>
<path d="M251.384 70.4391V66.9873C251.384 66.7807 251.216 66.6132 251.009 66.6132C250.802 66.6132 250.634 66.7807 250.634 66.9873V70.4391C250.634 70.6457 250.802 70.8132 251.009 70.8132C251.216 70.8132 251.384 70.6457 251.384 70.4391Z" fill="black"/>
<path d="M249.404 70.4378L249.384 66.9843C249.382 66.7782 249.214 66.612 249.007 66.6132C248.799 66.6144 248.632 66.7825 248.634 66.9886L248.654 70.4421C248.655 70.6483 248.824 70.8144 249.031 70.8132C249.238 70.812 249.405 70.644 249.404 70.4378Z" fill="black"/>
<path d="M246.634 66.9922L246.654 70.4386C246.655 70.6467 246.824 70.8144 247.031 70.8132C247.238 70.812 247.405 70.6423 247.404 70.4342L247.384 66.9878C247.382 66.7797 247.214 66.612 247.006 66.6132C246.799 66.6144 246.632 66.7841 246.634 66.9922Z" fill="black"/>
</g>
<circle cx="125" cy="55" r="7" fill="#4A525A"/>
<g filter="url(#filter1_d_3717_3972)">
<circle cx="234" cy="55" r="10" stroke="#8CABF4" stroke-width="2"/>
<circle cx="234" cy="55" r="7" fill="#5E87EE"/>
</g>
<g filter="url(#filter2_d_3717_3972)">
<circle cx="347" cy="56" r="11" stroke="#0039CF" stroke-width="2"/>
<circle cx="347" cy="56" r="8" fill="#0039CF"/>
</g>
<defs>
<filter id="filter0_d_3717_3972" x="238.825" y="57.625" width="16.7461" height="17.8588" filterUnits="userSpaceOnUse" color-interpolation-filters="sRGB">
<feFlood flood-opacity="0" result="BackgroundImageFix"/>
<feColorMatrix in="SourceAlpha" type="matrix" values="0 0 0 0 0 0 0 0 0 0 0 0 0 0 0 0 0 0 127 0" result="hardAlpha"/>
<feOffset dy="1"/>
<feGaussianBlur stdDeviation="0.4"/>
<feColorMatrix type="matrix" values="0 0 0 0 0 0 0 0 0 0 0 0 0 0 0 0 0 0 0.5 0"/>
<feBlend mode="normal" in2="BackgroundImageFix" result="effect1_dropShadow_3717_3972"/>
<feBlend mode="normal" in="SourceGraphic" in2="effect1_dropShadow_3717_3972" result="shape"/>
</filter>
<filter id="filter1_d_3717_3972" x="219" y="41" width="30" height="30" filterUnits="userSpaceOnUse" color-interpolation-filters="sRGB">
<feFlood flood-opacity="0" result="BackgroundImageFix"/>
<feColorMatrix in="SourceAlpha" type="matrix" values="0 0 0 0 0 0 0 0 0 0 0 0 0 0 0 0 0 0 127 0" result="hardAlpha"/>
<feOffset dy="1"/>
<feGaussianBlur stdDeviation="1.5"/>
<feColorMatrix type="matrix" values="0 0 0 0 0.16 0 0 0 0 0.197333 0 0 0 0 0.24 0 0 0 0.16 0"/>
<feBlend mode="normal" in2="BackgroundImageFix" result="effect1_dropShadow_3717_3972"/>
<feBlend mode="normal" in="SourceGraphic" in2="effect1_dropShadow_3717_3972" result="shape"/>
</filter>
<filter id="filter2_d_3717_3972" x="332" y="41" width="30" height="31" filterUnits="userSpaceOnUse" color-interpolation-filters="sRGB">
<feFlood flood-opacity="0" result="BackgroundImageFix"/>
<feColorMatrix in="SourceAlpha" type="matrix" values="0 0 0 0 0 0 0 0 0 0 0 0 0 0 0 0 0 0 127 0" result="hardAlpha"/>
<feOffset dy="1"/>
<feGaussianBlur stdDeviation="1.5"/>
<feColorMatrix type="matrix" values="0 0 0 0 0.16 0 0 0 0 0.197333 0 0 0 0 0.24 0 0 0 0.16 0"/>
<feBlend mode="normal" in2="BackgroundImageFix" result="effect1_dropShadow_3717_3972"/>
<feBlend mode="normal" in="SourceGraphic" in2="effect1_dropShadow_3717_3972" result="shape"/>
</filter>
</defs>
</svg>
