<svg width="492" height="130" viewBox="0 0 492 130" fill="none" xmlns="http://www.w3.org/2000/svg">
<rect width="492" height="130" rx="24" fill="#EBF1FD"/>
<circle cx="62" cy="53" r="11" fill="white" stroke="#181E25" stroke-width="2"/>
<path d="M63.0182 49.0683L65.4417 51.4919C66.776 52.8262 66.776 54.9895 65.4417 56.3238L65.3239 56.4416C63.9896 57.7759 61.8263 57.7759 60.492 56.4416L58.0684 54.0181C57.6225 53.5721 57.3685 52.9695 57.3608 52.3389L57.3417 50.7878C57.3251 49.43 58.4301 48.325 59.7879 48.3417L61.339 48.3607C61.9696 48.3684 62.5722 48.6224 63.0182 49.0683Z" fill="#181E25" stroke="#181E25" stroke-width="1.16667"/>
<path d="M60.4689 50.4371C60.7538 50.722 60.7538 51.1839 60.4689 51.4688C60.184 51.7537 59.7221 51.7537 59.4372 51.4688C59.1523 51.1839 59.1523 50.722 59.4372 50.4371C59.7221 50.1522 60.184 50.1522 60.4689 50.4371Z" fill="white" stroke="white" stroke-width="0.583333"/>
<g filter="url(#filter0_d_3717_2449)">
<circle cx="171" cy="53" r="16" fill="white"/>
<circle cx="171" cy="53" r="15" stroke="#3868E5" stroke-width="2"/>
</g>
<path d="M172.062 47.6983L176.233 51.8691C177.502 53.1383 177.502 55.1961 176.233 56.4653L174.465 58.2331C173.196 59.5023 171.138 59.5023 169.869 58.2331L165.698 54.0622C165.283 53.647 165.047 53.086 165.04 52.4989L165 49.2773C164.984 48.0132 166.013 46.9844 167.277 46.9999L170.499 47.0394C171.086 47.0466 171.647 47.2831 172.062 47.6983Z" fill="#3868E5" stroke="#3868E5" stroke-width="1.5"/>
<path d="M169.031 49.7048C169.398 50.071 169.398 50.6649 169.031 51.0312C168.665 51.3975 168.071 51.3975 167.705 51.0312C167.339 50.6649 167.339 50.071 167.705 49.7048C168.071 49.3385 168.665 49.3385 169.031 49.7048Z" fill="white" stroke="white" stroke-width="0.75"/>
<g filter="url(#filter1_d_3717_2449)">
<circle cx="284" cy="53" r="16" fill="#194EDC"/>
<circle cx="284" cy="53" r="15" stroke="#194EDC" stroke-width="2"/>
</g>
<path d="M275 44H293V62H275V44Z" fill="#194EDC"/>
<path d="M285.062 47.6983L289.233 51.8691C290.502 53.1383 290.502 55.1961 289.233 56.4653L287.465 58.2331C286.196 59.5023 284.138 59.5023 282.869 58.2331L278.698 54.0622C278.283 53.647 278.047 53.086 278.04 52.4989L278 49.2773C277.984 48.0132 279.013 46.9844 280.277 46.9999L283.499 47.0394C284.086 47.0466 284.647 47.2831 285.062 47.6983Z" fill="white" stroke="white" stroke-width="1.5"/>
<path d="M282.031 49.7048C282.398 50.071 282.398 50.6649 282.031 51.0312C281.665 51.3975 281.071 51.3975 280.705 51.0312C280.339 50.6649 280.339 50.071 280.705 49.7048C281.071 49.3385 281.665 49.3385 282.031 49.7048Z" fill="#194EDC" stroke="#194EDC" stroke-width="0.75"/>
<path d="M275 44V43H274V44H275ZM293 44H294V43H293V44ZM293 62V63H294V62H293ZM275 62H274V63H275V62ZM275 45H293V43H275V45ZM292 44V62H294V44H292ZM293 61H275V63H293V61ZM276 62V44H274V62H276Z" fill="#194EDC"/>
<g filter="url(#filter2_d_3717_2449)">
<circle cx="397" cy="53" r="16" fill="#5E87EE"/>
<circle cx="397" cy="53" r="15" stroke="#5E87EE" stroke-width="2"/>
</g>
<path d="M388 44H406V62H388V44Z" fill="#5E87EE"/>
<path d="M398.062 47.6983L402.233 51.8691C403.502 53.1383 403.502 55.1961 402.233 56.4653L400.465 58.2331C399.196 59.5023 397.138 59.5023 395.869 58.2331L391.698 54.0622C391.283 53.647 391.047 53.086 391.04 52.4989L391 49.2773C390.984 48.0132 392.013 46.9844 393.277 46.9999L396.499 47.0394C397.086 47.0466 397.647 47.2831 398.062 47.6983Z" fill="white" stroke="white" stroke-width="1.5"/>
<path d="M395.031 49.7048C395.398 50.071 395.398 50.6649 395.031 51.0312C394.665 51.3975 394.071 51.3975 393.705 51.0312C393.339 50.6649 393.339 50.071 393.705 49.7048C394.071 49.3385 394.665 49.3385 395.031 49.7048Z" fill="#5E87EE" stroke="#5E87EE" stroke-width="0.75"/>
<path d="M388 44V43H387V44H388ZM406 44H407V43H406V44ZM406 62V63H407V62H406ZM388 62H387V63H388V62ZM388 45H406V43H388V45ZM405 44V62H407V44H405ZM406 61H388V63H406V61ZM389 62V44H387V62H389Z" fill="#5E87EE"/>
<path d="M44.9261 87.0625V91H43.9205V84.4545H44.892V85.4773H44.9773C45.1307 85.1449 45.3636 84.8778 45.6761 84.6761C45.9886 84.4716 46.392 84.3693 46.8864 84.3693C47.3295 84.3693 47.7173 84.4602 48.0497 84.642C48.3821 84.821 48.6406 85.0938 48.8253 85.4602C49.0099 85.8239 49.1023 86.2841 49.1023 86.8409V91H48.0966V86.9091C48.0966 86.3949 47.9631 85.9943 47.696 85.7074C47.429 85.4176 47.0625 85.2727 46.5966 85.2727C46.2756 85.2727 45.9886 85.3423 45.7358 85.4815C45.4858 85.6207 45.2884 85.8239 45.1435 86.0909C44.9986 86.358 44.9261 86.6818 44.9261 87.0625ZM53.5991 91.1364C53.0082 91.1364 52.4897 90.9957 52.0437 90.7145C51.6005 90.4332 51.2539 90.0398 51.0039 89.5341C50.7567 89.0284 50.6332 88.4375 50.6332 87.7614C50.6332 87.0795 50.7567 86.4844 51.0039 85.9759C51.2539 85.4673 51.6005 85.0724 52.0437 84.7912C52.4897 84.5099 53.0082 84.3693 53.5991 84.3693C54.19 84.3693 54.707 84.5099 55.1502 84.7912C55.5962 85.0724 55.9428 85.4673 56.19 85.9759C56.44 86.4844 56.565 87.0795 56.565 87.7614C56.565 88.4375 56.44 89.0284 56.19 89.5341C55.9428 90.0398 55.5962 90.4332 55.1502 90.7145C54.707 90.9957 54.19 91.1364 53.5991 91.1364ZM53.5991 90.233C54.0479 90.233 54.4173 90.1179 54.707 89.8878C54.9968 89.6577 55.2113 89.3551 55.3505 88.9801C55.4897 88.6051 55.5593 88.1989 55.5593 87.7614C55.5593 87.3239 55.4897 86.9162 55.3505 86.5384C55.2113 86.1605 54.9968 85.8551 54.707 85.6222C54.4173 85.3892 54.0479 85.2727 53.5991 85.2727C53.1502 85.2727 52.7809 85.3892 52.4911 85.6222C52.2013 85.8551 51.9869 86.1605 51.8477 86.5384C51.7085 86.9162 51.6388 87.3239 51.6388 87.7614C51.6388 88.1989 51.7085 88.6051 51.8477 88.9801C51.9869 89.3551 52.2013 89.6577 52.4911 89.8878C52.7809 90.1179 53.1502 90.233 53.5991 90.233ZM58.1001 91V84.4545H59.0717V85.4432H59.1399C59.2592 85.1193 59.4751 84.8565 59.7876 84.6548C60.1001 84.4531 60.4524 84.3523 60.8445 84.3523C60.9183 84.3523 61.0107 84.3537 61.1214 84.3565C61.2322 84.3594 61.3161 84.3636 61.3729 84.3693V85.392C61.3388 85.3835 61.2607 85.3707 61.1385 85.3537C61.0192 85.3338 60.8928 85.3239 60.7592 85.3239C60.4411 85.3239 60.157 85.3906 59.907 85.5241C59.6598 85.6548 59.4638 85.8366 59.3189 86.0696C59.1768 86.2997 59.1058 86.5625 59.1058 86.858V91H58.1001ZM62.565 91V84.4545H63.5366V85.4773H63.6218C63.7582 85.1278 63.9783 84.8565 64.2823 84.6634C64.5863 84.4673 64.9513 84.3693 65.3775 84.3693C65.8093 84.3693 66.1687 84.4673 66.4556 84.6634C66.7454 84.8565 66.9712 85.1278 67.1332 85.4773H67.2013C67.369 85.1392 67.6204 84.8707 67.9556 84.6719C68.2908 84.4702 68.6928 84.3693 69.1616 84.3693C69.7468 84.3693 70.2255 84.5526 70.5977 84.919C70.9698 85.2827 71.1559 85.8494 71.1559 86.6193V91H70.1502V86.6193C70.1502 86.1364 70.0181 85.7912 69.7539 85.5838C69.4897 85.3764 69.1786 85.2727 68.8207 85.2727C68.3604 85.2727 68.0039 85.4119 67.7511 85.6903C67.4982 85.9659 67.3718 86.3153 67.3718 86.7386V91H66.3491V86.517C66.3491 86.1449 66.2283 85.8452 65.9869 85.6179C65.7454 85.3878 65.4343 85.2727 65.0536 85.2727C64.7923 85.2727 64.5479 85.3423 64.3207 85.4815C64.0962 85.6207 63.9144 85.8139 63.7752 86.0611C63.6388 86.3054 63.5707 86.5881 63.5707 86.9091V91H62.565ZM74.9208 91.1534C74.506 91.1534 74.1296 91.0753 73.7915 90.919C73.4535 90.7599 73.185 90.5312 72.9862 90.233C72.7873 89.9318 72.6879 89.5682 72.6879 89.142C72.6879 88.767 72.7617 88.4631 72.9094 88.2301C73.0572 87.9943 73.2546 87.8097 73.5018 87.6761C73.7489 87.5426 74.0217 87.4432 74.32 87.3778C74.6211 87.3097 74.9237 87.2557 75.2276 87.2159C75.6254 87.1648 75.9478 87.1264 76.195 87.1009C76.445 87.0724 76.6268 87.0256 76.7404 86.9602C76.8569 86.8949 76.9151 86.7812 76.9151 86.6193V86.5852C76.9151 86.1648 76.8001 85.8381 76.57 85.6051C76.3427 85.3722 75.9975 85.2557 75.5344 85.2557C75.0543 85.2557 74.6779 85.3608 74.4052 85.571C74.1325 85.7812 73.9407 86.0057 73.8299 86.2443L72.8754 85.9034C73.0458 85.5057 73.2731 85.196 73.5572 84.9744C73.8441 84.75 74.1566 84.5937 74.4947 84.5057C74.8356 84.4148 75.1708 84.3693 75.5004 84.3693C75.7106 84.3693 75.9521 84.3949 76.2248 84.446C76.5004 84.4943 76.766 84.5952 77.0217 84.7486C77.2802 84.902 77.4947 85.1335 77.6651 85.4432C77.8356 85.7528 77.9208 86.1676 77.9208 86.6875V91H76.9151V90.1136H76.864C76.7958 90.2557 76.6822 90.4077 76.5231 90.5696C76.364 90.7315 76.1523 90.8693 75.8881 90.983C75.6239 91.0966 75.3015 91.1534 74.9208 91.1534ZM75.0742 90.25C75.4719 90.25 75.8072 90.1719 76.0799 90.0156C76.3555 89.8594 76.5629 89.6577 76.7021 89.4105C76.8441 89.1634 76.9151 88.9034 76.9151 88.6307V87.7102C76.8725 87.7614 76.7788 87.8082 76.6339 87.8509C76.4918 87.8906 76.3271 87.9261 76.1396 87.9574C75.9549 87.9858 75.7745 88.0114 75.5984 88.0341C75.4251 88.054 75.2844 88.071 75.1765 88.0852C74.9151 88.1193 74.6708 88.1747 74.4435 88.2514C74.2191 88.3253 74.0373 88.4375 73.8981 88.5881C73.7617 88.7358 73.6935 88.9375 73.6935 89.1932C73.6935 89.5426 73.8228 89.8068 74.0813 89.9858C74.3427 90.1619 74.6737 90.25 75.0742 90.25ZM80.7621 82.2727V91H79.7564V82.2727H80.7621Z" fill="black"/>
<path d="M150.95 92V85.4545H151.921V86.4432H151.99C152.109 86.1193 152.325 85.8565 152.637 85.6548C152.95 85.4531 153.302 85.3523 153.694 85.3523C153.768 85.3523 153.86 85.3537 153.971 85.3565C154.082 85.3594 154.166 85.3636 154.222 85.3693V86.392C154.188 86.3835 154.11 86.3707 153.988 86.3537C153.869 86.3338 153.742 86.3239 153.609 86.3239C153.291 86.3239 153.007 86.3906 152.757 86.5241C152.509 86.6548 152.313 86.8366 152.169 87.0696C152.026 87.2997 151.955 87.5625 151.955 87.858V92H150.95ZM157.874 92.1364C157.284 92.1364 156.765 91.9957 156.319 91.7145C155.876 91.4332 155.529 91.0398 155.279 90.5341C155.032 90.0284 154.909 89.4375 154.909 88.7614C154.909 88.0795 155.032 87.4844 155.279 86.9759C155.529 86.4673 155.876 86.0724 156.319 85.7912C156.765 85.5099 157.284 85.3693 157.874 85.3693C158.465 85.3693 158.982 85.5099 159.426 85.7912C159.872 86.0724 160.218 86.4673 160.465 86.9759C160.715 87.4844 160.84 88.0795 160.84 88.7614C160.84 89.4375 160.715 90.0284 160.465 90.5341C160.218 91.0398 159.872 91.4332 159.426 91.7145C158.982 91.9957 158.465 92.1364 157.874 92.1364ZM157.874 91.233C158.323 91.233 158.693 91.1179 158.982 90.8878C159.272 90.6577 159.487 90.3551 159.626 89.9801C159.765 89.6051 159.835 89.1989 159.835 88.7614C159.835 88.3239 159.765 87.9162 159.626 87.5384C159.487 87.1605 159.272 86.8551 158.982 86.6222C158.693 86.3892 158.323 86.2727 157.874 86.2727C157.426 86.2727 157.056 86.3892 156.767 86.6222C156.477 86.8551 156.262 87.1605 156.123 87.5384C155.984 87.9162 155.914 88.3239 155.914 88.7614C155.914 89.1989 155.984 89.6051 156.123 89.9801C156.262 90.3551 156.477 90.6577 156.767 90.8878C157.056 91.1179 157.426 91.233 157.874 91.233ZM163.381 83.2727V92H162.376V83.2727H163.381ZM166.229 83.2727V92H165.223V83.2727H166.229ZM170.73 92.1364C170.139 92.1364 169.621 91.9957 169.175 91.7145C168.731 91.4332 168.385 91.0398 168.135 90.5341C167.888 90.0284 167.764 89.4375 167.764 88.7614C167.764 88.0795 167.888 87.4844 168.135 86.9759C168.385 86.4673 168.731 86.0724 169.175 85.7912C169.621 85.5099 170.139 85.3693 170.73 85.3693C171.321 85.3693 171.838 85.5099 172.281 85.7912C172.727 86.0724 173.074 86.4673 173.321 86.9759C173.571 87.4844 173.696 88.0795 173.696 88.7614C173.696 89.4375 173.571 90.0284 173.321 90.5341C173.074 91.0398 172.727 91.4332 172.281 91.7145C171.838 91.9957 171.321 92.1364 170.73 92.1364ZM170.73 91.233C171.179 91.233 171.548 91.1179 171.838 90.8878C172.128 90.6577 172.342 90.3551 172.481 89.9801C172.621 89.6051 172.69 89.1989 172.69 88.7614C172.69 88.3239 172.621 87.9162 172.481 87.5384C172.342 87.1605 172.128 86.8551 171.838 86.6222C171.548 86.3892 171.179 86.2727 170.73 86.2727C170.281 86.2727 169.912 86.3892 169.622 86.6222C169.332 86.8551 169.118 87.1605 168.979 87.5384C168.839 87.9162 168.77 88.3239 168.77 88.7614C168.77 89.1989 168.839 89.6051 168.979 89.9801C169.118 90.3551 169.332 90.6577 169.622 90.8878C169.912 91.1179 170.281 91.233 170.73 91.233ZM180.349 85.4545L177.928 92H176.906L174.485 85.4545H175.576L177.383 90.6705H177.451L179.258 85.4545H180.349ZM184.186 92.1364C183.556 92.1364 183.012 91.9972 182.554 91.7188C182.1 91.4375 181.749 91.0455 181.502 90.5426C181.257 90.0369 181.135 89.4489 181.135 88.7784C181.135 88.108 181.257 87.517 181.502 87.0057C181.749 86.4915 182.093 86.0909 182.533 85.804C182.976 85.5142 183.493 85.3693 184.084 85.3693C184.425 85.3693 184.762 85.4261 185.094 85.5398C185.426 85.6534 185.729 85.8381 186.002 86.0938C186.274 86.3466 186.492 86.6818 186.654 87.0994C186.816 87.517 186.896 88.0312 186.896 88.642V89.0682H181.851V88.1989H185.874C185.874 87.8295 185.8 87.5 185.652 87.2102C185.507 86.9205 185.3 86.6918 185.03 86.5241C184.763 86.3565 184.448 86.2727 184.084 86.2727C183.683 86.2727 183.337 86.3722 183.044 86.571C182.754 86.767 182.531 87.0227 182.375 87.3381C182.219 87.6534 182.141 87.9915 182.141 88.3523V88.9318C182.141 89.4261 182.226 89.8452 182.396 90.1889C182.57 90.5298 182.81 90.7898 183.117 90.9688C183.423 91.1449 183.78 91.233 184.186 91.233C184.45 91.233 184.689 91.196 184.902 91.1222C185.118 91.0455 185.304 90.9318 185.46 90.7812C185.617 90.6278 185.737 90.4375 185.823 90.2102L186.794 90.483C186.692 90.8125 186.52 91.1023 186.279 91.3523C186.037 91.5994 185.739 91.7926 185.384 91.9318C185.029 92.0682 184.629 92.1364 184.186 92.1364ZM188.426 92V85.4545H189.398V86.4432H189.466C189.585 86.1193 189.801 85.8565 190.114 85.6548C190.426 85.4531 190.779 85.3523 191.171 85.3523C191.244 85.3523 191.337 85.3537 191.448 85.3565C191.558 85.3594 191.642 85.3636 191.699 85.3693V86.392C191.665 86.3835 191.587 86.3707 191.465 86.3537C191.345 86.3338 191.219 86.3239 191.085 86.3239C190.767 86.3239 190.483 86.3906 190.233 86.5241C189.986 86.6548 189.79 86.8366 189.645 87.0696C189.503 87.2997 189.432 87.5625 189.432 87.858V92H188.426Z" fill="black"/>
<path d="M265.299 86.9205L264.396 87.1761C264.339 87.0256 264.255 86.8793 264.144 86.7372C264.036 86.5923 263.888 86.473 263.701 86.3793C263.513 86.2855 263.273 86.2386 262.981 86.2386C262.58 86.2386 262.246 86.331 261.979 86.5156C261.715 86.6974 261.583 86.929 261.583 87.2102C261.583 87.4602 261.674 87.6577 261.856 87.8026C262.038 87.9474 262.322 88.0682 262.708 88.1648L263.68 88.4034C264.265 88.5455 264.701 88.7628 264.988 89.0554C265.275 89.3452 265.418 89.7187 265.418 90.1761C265.418 90.5511 265.31 90.8864 265.094 91.1818C264.881 91.4773 264.583 91.7102 264.2 91.8807C263.816 92.0511 263.37 92.1364 262.862 92.1364C262.194 92.1364 261.641 91.9915 261.204 91.7017C260.766 91.4119 260.489 90.9886 260.373 90.4318L261.327 90.1932C261.418 90.5455 261.59 90.8097 261.843 90.9858C262.099 91.1619 262.433 91.25 262.844 91.25C263.313 91.25 263.685 91.1506 263.961 90.9517C264.239 90.75 264.379 90.5085 264.379 90.2273C264.379 90 264.299 89.8097 264.14 89.6562C263.981 89.5 263.737 89.3835 263.407 89.3068L262.316 89.0511C261.717 88.9091 261.276 88.6889 260.995 88.3906C260.717 88.0895 260.577 87.7131 260.577 87.2614C260.577 86.892 260.681 86.5653 260.888 86.2812C261.099 85.9972 261.384 85.7741 261.745 85.6122C262.109 85.4503 262.521 85.3693 262.981 85.3693C263.629 85.3693 264.137 85.5114 264.506 85.7955C264.879 86.0795 265.143 86.4545 265.299 86.9205ZM269.676 92.1364C269.046 92.1364 268.502 91.9972 268.044 91.7188C267.59 91.4375 267.239 91.0455 266.992 90.5426C266.748 90.0369 266.625 89.4489 266.625 88.7784C266.625 88.108 266.748 87.517 266.992 87.0057C267.239 86.4915 267.583 86.0909 268.023 85.804C268.466 85.5142 268.983 85.3693 269.574 85.3693C269.915 85.3693 270.252 85.4261 270.584 85.5398C270.917 85.6534 271.219 85.8381 271.492 86.0938C271.765 86.3466 271.982 86.6818 272.144 87.0994C272.306 87.517 272.387 88.0312 272.387 88.642V89.0682H267.341V88.1989H271.364C271.364 87.8295 271.29 87.5 271.142 87.2102C270.998 86.9205 270.79 86.6918 270.52 86.5241C270.253 86.3565 269.938 86.2727 269.574 86.2727C269.174 86.2727 268.827 86.3722 268.534 86.571C268.245 86.767 268.022 87.0227 267.865 87.3381C267.709 87.6534 267.631 87.9915 267.631 88.3523V88.9318C267.631 89.4261 267.716 89.8452 267.887 90.1889C268.06 90.5298 268.3 90.7898 268.607 90.9688C268.914 91.1449 269.27 91.233 269.676 91.233C269.941 91.233 270.179 91.196 270.392 91.1222C270.608 91.0455 270.794 90.9318 270.951 90.7812C271.107 90.6278 271.228 90.4375 271.313 90.2102L272.284 90.483C272.182 90.8125 272.01 91.1023 271.769 91.3523C271.527 91.5994 271.229 91.7926 270.874 91.9318C270.519 92.0682 270.12 92.1364 269.676 92.1364ZM274.922 83.2727V92H273.917V83.2727H274.922ZM279.509 92.1364C278.878 92.1364 278.334 91.9972 277.876 91.7188C277.422 91.4375 277.071 91.0455 276.824 90.5426C276.58 90.0369 276.457 89.4489 276.457 88.7784C276.457 88.108 276.58 87.517 276.824 87.0057C277.071 86.4915 277.415 86.0909 277.855 85.804C278.298 85.5142 278.815 85.3693 279.406 85.3693C279.747 85.3693 280.084 85.4261 280.416 85.5398C280.749 85.6534 281.051 85.8381 281.324 86.0938C281.597 86.3466 281.814 86.6818 281.976 87.0994C282.138 87.517 282.219 88.0312 282.219 88.642V89.0682H277.173V88.1989H281.196C281.196 87.8295 281.122 87.5 280.974 87.2102C280.83 86.9205 280.622 86.6918 280.352 86.5241C280.085 86.3565 279.77 86.2727 279.406 86.2727C279.006 86.2727 278.659 86.3722 278.366 86.571C278.077 86.767 277.854 87.0227 277.697 87.3381C277.541 87.6534 277.463 87.9915 277.463 88.3523V88.9318C277.463 89.4261 277.548 89.8452 277.719 90.1889C277.892 90.5298 278.132 90.7898 278.439 90.9688C278.746 91.1449 279.102 91.233 279.509 91.233C279.773 91.233 280.011 91.196 280.224 91.1222C280.44 91.0455 280.626 90.9318 280.783 90.7812C280.939 90.6278 281.06 90.4375 281.145 90.2102L282.116 90.483C282.014 90.8125 281.842 91.1023 281.601 91.3523C281.359 91.5994 281.061 91.7926 280.706 91.9318C280.351 92.0682 279.952 92.1364 279.509 92.1364ZM286.408 92.1364C285.794 92.1364 285.266 91.9915 284.822 91.7017C284.379 91.4119 284.038 91.0128 283.8 90.5043C283.561 89.9957 283.442 89.4148 283.442 88.7614C283.442 88.0966 283.564 87.5099 283.808 87.0014C284.055 86.4901 284.399 86.0909 284.839 85.804C285.283 85.5142 285.8 85.3693 286.391 85.3693C286.851 85.3693 287.266 85.4545 287.635 85.625C288.004 85.7955 288.307 86.0341 288.543 86.3409C288.778 86.6477 288.925 87.0057 288.982 87.4148H287.976C287.899 87.1165 287.729 86.8523 287.464 86.6222C287.203 86.3892 286.851 86.2727 286.408 86.2727C286.016 86.2727 285.672 86.375 285.376 86.5795C285.084 86.7812 284.855 87.0668 284.69 87.4361C284.528 87.8026 284.447 88.233 284.447 88.7273C284.447 89.233 284.527 89.6733 284.686 90.0483C284.848 90.4233 285.075 90.7145 285.368 90.9219C285.663 91.1293 286.01 91.233 286.408 91.233C286.669 91.233 286.906 91.1875 287.119 91.0966C287.332 91.0057 287.513 90.875 287.661 90.7045C287.808 90.5341 287.913 90.3295 287.976 90.0909H288.982C288.925 90.4773 288.784 90.8253 288.56 91.1349C288.338 91.4418 288.044 91.6861 287.678 91.8679C287.314 92.0469 286.891 92.1364 286.408 92.1364ZM293.298 85.4545V86.3068H289.906V85.4545H293.298ZM290.895 83.8864H291.901V90.125C291.901 90.4091 291.942 90.6222 292.024 90.7642C292.109 90.9034 292.217 90.9972 292.348 91.0455C292.482 91.0909 292.622 91.1136 292.77 91.1136C292.881 91.1136 292.972 91.108 293.043 91.0966C293.114 91.0824 293.17 91.071 293.213 91.0625L293.418 91.9659C293.349 91.9915 293.254 92.017 293.132 92.0426C293.01 92.071 292.855 92.0852 292.668 92.0852C292.384 92.0852 292.105 92.0241 291.832 91.902C291.563 91.7798 291.338 91.5938 291.159 91.3438C290.983 91.0938 290.895 90.7784 290.895 90.3977V83.8864ZM297.485 92.1364C296.854 92.1364 296.31 91.9972 295.853 91.7188C295.398 91.4375 295.048 91.0455 294.8 90.5426C294.556 90.0369 294.434 89.4489 294.434 88.7784C294.434 88.108 294.556 87.517 294.8 87.0057C295.048 86.4915 295.391 86.0909 295.832 85.804C296.275 85.5142 296.792 85.3693 297.383 85.3693C297.724 85.3693 298.06 85.4261 298.393 85.5398C298.725 85.6534 299.028 85.8381 299.3 86.0938C299.573 86.3466 299.79 86.6818 299.952 87.0994C300.114 87.517 300.195 88.0312 300.195 88.642V89.0682H295.15V88.1989H299.173C299.173 87.8295 299.099 87.5 298.951 87.2102C298.806 86.9205 298.599 86.6918 298.329 86.5241C298.062 86.3565 297.746 86.2727 297.383 86.2727C296.982 86.2727 296.636 86.3722 296.343 86.571C296.053 86.767 295.83 87.0227 295.674 87.3381C295.518 87.6534 295.44 87.9915 295.44 88.3523V88.9318C295.44 89.4261 295.525 89.8452 295.695 90.1889C295.869 90.5298 296.109 90.7898 296.415 90.9688C296.722 91.1449 297.079 91.233 297.485 91.233C297.749 91.233 297.988 91.196 298.201 91.1222C298.417 91.0455 298.603 90.9318 298.759 90.7812C298.915 90.6278 299.036 90.4375 299.121 90.2102L300.093 90.483C299.991 90.8125 299.819 91.1023 299.577 91.3523C299.336 91.5994 299.038 91.7926 298.683 91.9318C298.327 92.0682 297.928 92.1364 297.485 92.1364ZM304.197 92.1364C303.651 92.1364 303.17 91.9986 302.752 91.723C302.335 91.4446 302.008 91.0526 301.772 90.5469C301.536 90.0384 301.418 89.4375 301.418 88.7443C301.418 88.0568 301.536 87.4602 301.772 86.9545C302.008 86.4489 302.336 86.0582 302.756 85.7827C303.177 85.5071 303.663 85.3693 304.214 85.3693C304.64 85.3693 304.977 85.4403 305.224 85.5824C305.474 85.7216 305.664 85.8807 305.795 86.0597C305.928 86.2358 306.032 86.3807 306.106 86.4943H306.191V83.2727H307.197V92H306.225V90.9943H306.106C306.032 91.1136 305.927 91.2642 305.79 91.446C305.654 91.625 305.46 91.7855 305.207 91.9276C304.954 92.0668 304.617 92.1364 304.197 92.1364ZM304.333 91.233C304.737 91.233 305.077 91.1278 305.356 90.9176C305.634 90.7045 305.846 90.4105 305.991 90.0355C306.136 89.6577 306.208 89.2216 306.208 88.7273C306.208 88.2386 306.137 87.8111 305.995 87.4446C305.853 87.0753 305.643 86.7884 305.364 86.5838C305.086 86.3764 304.742 86.2727 304.333 86.2727C303.907 86.2727 303.552 86.3821 303.268 86.6009C302.987 86.8168 302.775 87.1108 302.633 87.483C302.494 87.8523 302.424 88.267 302.424 88.7273C302.424 89.1932 302.495 89.6165 302.637 89.9972C302.782 90.375 302.995 90.6761 303.276 90.9006C303.56 91.1222 303.913 91.233 304.333 91.233Z" fill="black"/>
<path d="M350.672 92V85.4545H351.644V86.4432H351.712C351.831 86.1193 352.047 85.8565 352.36 85.6548C352.672 85.4531 353.025 85.3523 353.417 85.3523C353.491 85.3523 353.583 85.3537 353.694 85.3565C353.805 85.3594 353.888 85.3636 353.945 85.3693V86.392C353.911 86.3835 353.833 86.3707 353.711 86.3537C353.591 86.3338 353.465 86.3239 353.331 86.3239C353.013 86.3239 352.729 86.3906 352.479 86.5241C352.232 86.6548 352.036 86.8366 351.891 87.0696C351.749 87.2997 351.678 87.5625 351.678 87.858V92H350.672ZM357.597 92.1364C357.006 92.1364 356.488 91.9957 356.042 91.7145C355.599 91.4332 355.252 91.0398 355.002 90.5341C354.755 90.0284 354.631 89.4375 354.631 88.7614C354.631 88.0795 354.755 87.4844 355.002 86.9759C355.252 86.4673 355.599 86.0724 356.042 85.7912C356.488 85.5099 357.006 85.3693 357.597 85.3693C358.188 85.3693 358.705 85.5099 359.148 85.7912C359.594 86.0724 359.941 86.4673 360.188 86.9759C360.438 87.4844 360.563 88.0795 360.563 88.7614C360.563 89.4375 360.438 90.0284 360.188 90.5341C359.941 91.0398 359.594 91.4332 359.148 91.7145C358.705 91.9957 358.188 92.1364 357.597 92.1364ZM357.597 91.233C358.046 91.233 358.415 91.1179 358.705 90.8878C358.995 90.6577 359.209 90.3551 359.349 89.9801C359.488 89.6051 359.557 89.1989 359.557 88.7614C359.557 88.3239 359.488 87.9162 359.349 87.5384C359.209 87.1605 358.995 86.8551 358.705 86.6222C358.415 86.3892 358.046 86.2727 357.597 86.2727C357.148 86.2727 356.779 86.3892 356.489 86.6222C356.199 86.8551 355.985 87.1605 355.846 87.5384C355.706 87.9162 355.637 88.3239 355.637 88.7614C355.637 89.1989 355.706 89.6051 355.846 89.9801C355.985 90.3551 356.199 90.6577 356.489 90.8878C356.779 91.1179 357.148 91.233 357.597 91.233ZM363.104 83.2727V92H362.098V83.2727H363.104ZM365.952 83.2727V92H364.946V83.2727H365.952ZM370.453 92.1364C369.862 92.1364 369.343 91.9957 368.897 91.7145C368.454 91.4332 368.107 91.0398 367.857 90.5341C367.61 90.0284 367.487 89.4375 367.487 88.7614C367.487 88.0795 367.61 87.4844 367.857 86.9759C368.107 86.4673 368.454 86.0724 368.897 85.7912C369.343 85.5099 369.862 85.3693 370.453 85.3693C371.044 85.3693 371.561 85.5099 372.004 85.7912C372.45 86.0724 372.796 86.4673 373.044 86.9759C373.294 87.4844 373.419 88.0795 373.419 88.7614C373.419 89.4375 373.294 90.0284 373.044 90.5341C372.796 91.0398 372.45 91.4332 372.004 91.7145C371.561 91.9957 371.044 92.1364 370.453 92.1364ZM370.453 91.233C370.901 91.233 371.271 91.1179 371.561 90.8878C371.85 90.6577 372.065 90.3551 372.204 89.9801C372.343 89.6051 372.413 89.1989 372.413 88.7614C372.413 88.3239 372.343 87.9162 372.204 87.5384C372.065 87.1605 371.85 86.8551 371.561 86.6222C371.271 86.3892 370.901 86.2727 370.453 86.2727C370.004 86.2727 369.634 86.3892 369.345 86.6222C369.055 86.8551 368.84 87.1605 368.701 87.5384C368.562 87.9162 368.492 88.3239 368.492 88.7614C368.492 89.1989 368.562 89.6051 368.701 89.9801C368.84 90.3551 369.055 90.6577 369.345 90.8878C369.634 91.1179 370.004 91.233 370.453 91.233ZM380.072 85.4545L377.651 92H376.628L374.208 85.4545H375.299L377.106 90.6705H377.174L378.981 85.4545H380.072ZM383.909 92.1364C383.278 92.1364 382.734 91.9972 382.277 91.7188C381.822 91.4375 381.471 91.0455 381.224 90.5426C380.98 90.0369 380.858 89.4489 380.858 88.7784C380.858 88.108 380.98 87.517 381.224 87.0057C381.471 86.4915 381.815 86.0909 382.256 85.804C382.699 85.5142 383.216 85.3693 383.807 85.3693C384.148 85.3693 384.484 85.4261 384.817 85.5398C385.149 85.6534 385.452 85.8381 385.724 86.0938C385.997 86.3466 386.214 86.6818 386.376 87.0994C386.538 87.517 386.619 88.0312 386.619 88.642V89.0682H381.574V88.1989H385.596C385.596 87.8295 385.523 87.5 385.375 87.2102C385.23 86.9205 385.023 86.6918 384.753 86.5241C384.486 86.3565 384.17 86.2727 383.807 86.2727C383.406 86.2727 383.059 86.3722 382.767 86.571C382.477 86.767 382.254 87.0227 382.098 87.3381C381.942 87.6534 381.863 87.9915 381.863 88.3523V88.9318C381.863 89.4261 381.949 89.8452 382.119 90.1889C382.292 90.5298 382.532 90.7898 382.839 90.9688C383.146 91.1449 383.503 91.233 383.909 91.233C384.173 91.233 384.412 91.196 384.625 91.1222C384.841 91.0455 385.027 90.9318 385.183 90.7812C385.339 90.6278 385.46 90.4375 385.545 90.2102L386.517 90.483C386.415 90.8125 386.243 91.1023 386.001 91.3523C385.76 91.5994 385.461 91.7926 385.106 91.9318C384.751 92.0682 384.352 92.1364 383.909 92.1364ZM388.149 92V85.4545H389.121V86.4432H389.189C389.308 86.1193 389.524 85.8565 389.836 85.6548C390.149 85.4531 390.501 85.3523 390.893 85.3523C390.967 85.3523 391.059 85.3537 391.17 85.3565C391.281 85.3594 391.365 85.3636 391.422 85.3693V86.392C391.388 86.3835 391.309 86.3707 391.187 86.3537C391.068 86.3338 390.942 86.3239 390.808 86.3239C390.49 86.3239 390.206 86.3906 389.956 86.5241C389.709 86.6548 389.513 86.8366 389.368 87.0696C389.226 87.2997 389.155 87.5625 389.155 87.858V92H388.149ZM395.883 87.7898V88.7273H392.065V87.7898H395.883ZM402.289 86.9205L401.386 87.1761C401.329 87.0256 401.245 86.8793 401.134 86.7372C401.026 86.5923 400.879 86.473 400.691 86.3793C400.504 86.2855 400.264 86.2386 399.971 86.2386C399.57 86.2386 399.237 86.331 398.97 86.5156C398.705 86.6974 398.573 86.929 398.573 87.2102C398.573 87.4602 398.664 87.6577 398.846 87.8026C399.028 87.9474 399.312 88.0682 399.698 88.1648L400.67 88.4034C401.255 88.5455 401.691 88.7628 401.978 89.0554C402.265 89.3452 402.409 89.7187 402.409 90.1761C402.409 90.5511 402.301 90.8864 402.085 91.1818C401.872 91.4773 401.573 91.7102 401.19 91.8807C400.806 92.0511 400.36 92.1364 399.852 92.1364C399.184 92.1364 398.632 91.9915 398.194 91.7017C397.757 91.4119 397.48 90.9886 397.363 90.4318L398.318 90.1932C398.409 90.5455 398.58 90.8097 398.833 90.9858C399.089 91.1619 399.423 91.25 399.835 91.25C400.303 91.25 400.676 91.1506 400.951 90.9517C401.23 90.75 401.369 90.5085 401.369 90.2273C401.369 90 401.289 89.8097 401.13 89.6562C400.971 89.5 400.727 89.3835 400.397 89.3068L399.306 89.0511C398.707 88.9091 398.267 88.6889 397.985 88.3906C397.707 88.0895 397.568 87.7131 397.568 87.2614C397.568 86.892 397.671 86.5653 397.879 86.2812C398.089 85.9972 398.374 85.7741 398.735 85.6122C399.099 85.4503 399.511 85.3693 399.971 85.3693C400.619 85.3693 401.127 85.5114 401.497 85.7955C401.869 86.0795 402.133 86.4545 402.289 86.9205ZM406.667 92.1364C406.036 92.1364 405.492 91.9972 405.035 91.7188C404.58 91.4375 404.229 91.0455 403.982 90.5426C403.738 90.0369 403.616 89.4489 403.616 88.7784C403.616 88.108 403.738 87.517 403.982 87.0057C404.229 86.4915 404.573 86.0909 405.013 85.804C405.456 85.5142 405.974 85.3693 406.564 85.3693C406.905 85.3693 407.242 85.4261 407.574 85.5398C407.907 85.6534 408.209 85.8381 408.482 86.0938C408.755 86.3466 408.972 86.6818 409.134 87.0994C409.296 87.517 409.377 88.0312 409.377 88.642V89.0682H404.331V88.1989H408.354C408.354 87.8295 408.28 87.5 408.133 87.2102C407.988 86.9205 407.78 86.6918 407.51 86.5241C407.243 86.3565 406.928 86.2727 406.564 86.2727C406.164 86.2727 405.817 86.3722 405.525 86.571C405.235 86.767 405.012 87.0227 404.856 87.3381C404.699 87.6534 404.621 87.9915 404.621 88.3523V88.9318C404.621 89.4261 404.706 89.8452 404.877 90.1889C405.05 90.5298 405.29 90.7898 405.597 90.9688C405.904 91.1449 406.26 91.233 406.667 91.233C406.931 91.233 407.17 91.196 407.383 91.1222C407.599 91.0455 407.785 90.9318 407.941 90.7812C408.097 90.6278 408.218 90.4375 408.303 90.2102L409.275 90.483C409.172 90.8125 409.001 91.1023 408.759 91.3523C408.518 91.5994 408.219 91.7926 407.864 91.9318C407.509 92.0682 407.11 92.1364 406.667 92.1364ZM411.912 83.2727V92H410.907V83.2727H411.912ZM416.499 92.1364C415.868 92.1364 415.324 91.9972 414.867 91.7188C414.412 91.4375 414.061 91.0455 413.814 90.5426C413.57 90.0369 413.448 89.4489 413.448 88.7784C413.448 88.108 413.57 87.517 413.814 87.0057C414.061 86.4915 414.405 86.0909 414.845 85.804C415.289 85.5142 415.806 85.3693 416.396 85.3693C416.737 85.3693 417.074 85.4261 417.406 85.5398C417.739 85.6534 418.041 85.8381 418.314 86.0938C418.587 86.3466 418.804 86.6818 418.966 87.0994C419.128 87.517 419.209 88.0312 419.209 88.642V89.0682H414.164V88.1989H418.186C418.186 87.8295 418.112 87.5 417.965 87.2102C417.82 86.9205 417.612 86.6918 417.343 86.5241C417.075 86.3565 416.76 86.2727 416.396 86.2727C415.996 86.2727 415.649 86.3722 415.357 86.571C415.067 86.767 414.844 87.0227 414.688 87.3381C414.531 87.6534 414.453 87.9915 414.453 88.3523V88.9318C414.453 89.4261 414.539 89.8452 414.709 90.1889C414.882 90.5298 415.122 90.7898 415.429 90.9688C415.736 91.1449 416.093 91.233 416.499 91.233C416.763 91.233 417.002 91.196 417.215 91.1222C417.431 91.0455 417.617 90.9318 417.773 90.7812C417.929 90.6278 418.05 90.4375 418.135 90.2102L419.107 90.483C419.004 90.8125 418.833 91.1023 418.591 91.3523C418.35 91.5994 418.051 91.7926 417.696 91.9318C417.341 92.0682 416.942 92.1364 416.499 92.1364ZM423.398 92.1364C422.784 92.1364 422.256 91.9915 421.813 91.7017C421.369 91.4119 421.029 91.0128 420.79 90.5043C420.551 89.9957 420.432 89.4148 420.432 88.7614C420.432 88.0966 420.554 87.5099 420.798 87.0014C421.046 86.4901 421.389 86.0909 421.83 85.804C422.273 85.5142 422.79 85.3693 423.381 85.3693C423.841 85.3693 424.256 85.4545 424.625 85.625C424.994 85.7955 425.297 86.0341 425.533 86.3409C425.769 86.6477 425.915 87.0057 425.972 87.4148H424.966C424.889 87.1165 424.719 86.8523 424.455 86.6222C424.193 86.3892 423.841 86.2727 423.398 86.2727C423.006 86.2727 422.662 86.375 422.367 86.5795C422.074 86.7812 421.845 87.0668 421.681 87.4361C421.519 87.8026 421.438 88.233 421.438 88.7273C421.438 89.233 421.517 89.6733 421.676 90.0483C421.838 90.4233 422.066 90.7145 422.358 90.9219C422.654 91.1293 423 91.233 423.398 91.233C423.659 91.233 423.896 91.1875 424.11 91.0966C424.323 91.0057 424.503 90.875 424.651 90.7045C424.798 90.5341 424.904 90.3295 424.966 90.0909H425.972C425.915 90.4773 425.774 90.8253 425.55 91.1349C425.328 91.4418 425.034 91.6861 424.668 91.8679C424.304 92.0469 423.881 92.1364 423.398 92.1364ZM430.289 85.4545V86.3068H426.896V85.4545H430.289ZM427.885 83.8864H428.891V90.125C428.891 90.4091 428.932 90.6222 429.014 90.7642C429.1 90.9034 429.208 90.9972 429.338 91.0455C429.472 91.0909 429.612 91.1136 429.76 91.1136C429.871 91.1136 429.962 91.108 430.033 91.0966C430.104 91.0824 430.161 91.071 430.203 91.0625L430.408 91.9659C430.34 91.9915 430.244 92.017 430.122 92.0426C430 92.071 429.845 92.0852 429.658 92.0852C429.374 92.0852 429.095 92.0241 428.823 91.902C428.553 91.7798 428.328 91.5938 428.149 91.3438C427.973 91.0938 427.885 90.7784 427.885 90.3977V83.8864ZM434.475 92.1364C433.845 92.1364 433.301 91.9972 432.843 91.7188C432.389 91.4375 432.038 91.0455 431.791 90.5426C431.546 90.0369 431.424 89.4489 431.424 88.7784C431.424 88.108 431.546 87.517 431.791 87.0057C432.038 86.4915 432.382 86.0909 432.822 85.804C433.265 85.5142 433.782 85.3693 434.373 85.3693C434.714 85.3693 435.051 85.4261 435.383 85.5398C435.715 85.6534 436.018 85.8381 436.291 86.0938C436.563 86.3466 436.781 86.6818 436.943 87.0994C437.105 87.517 437.186 88.0312 437.186 88.642V89.0682H432.14V88.1989H436.163C436.163 87.8295 436.089 87.5 435.941 87.2102C435.796 86.9205 435.589 86.6918 435.319 86.5241C435.052 86.3565 434.737 86.2727 434.373 86.2727C433.972 86.2727 433.626 86.3722 433.333 86.571C433.044 86.767 432.82 87.0227 432.664 87.3381C432.508 87.6534 432.43 87.9915 432.43 88.3523V88.9318C432.43 89.4261 432.515 89.8452 432.686 90.1889C432.859 90.5298 433.099 90.7898 433.406 90.9688C433.713 91.1449 434.069 91.233 434.475 91.233C434.74 91.233 434.978 91.196 435.191 91.1222C435.407 91.0455 435.593 90.9318 435.749 90.7812C435.906 90.6278 436.026 90.4375 436.112 90.2102L437.083 90.483C436.981 90.8125 436.809 91.1023 436.568 91.3523C436.326 91.5994 436.028 91.7926 435.673 91.9318C435.318 92.0682 434.919 92.1364 434.475 92.1364ZM441.187 92.1364C440.642 92.1364 440.16 91.9986 439.742 91.723C439.325 91.4446 438.998 91.0526 438.762 90.5469C438.526 90.0384 438.409 89.4375 438.409 88.7443C438.409 88.0568 438.526 87.4602 438.762 86.9545C438.998 86.4489 439.326 86.0582 439.747 85.7827C440.167 85.5071 440.653 85.3693 441.204 85.3693C441.63 85.3693 441.967 85.4403 442.214 85.5824C442.464 85.7216 442.654 85.8807 442.785 86.0597C442.919 86.2358 443.022 86.3807 443.096 86.4943H443.181V83.2727H444.187V92H443.215V90.9943H443.096C443.022 91.1136 442.917 91.2642 442.781 91.446C442.644 91.625 442.45 91.7855 442.197 91.9276C441.944 92.0668 441.607 92.1364 441.187 92.1364ZM441.323 91.233C441.727 91.233 442.068 91.1278 442.346 90.9176C442.624 90.7045 442.836 90.4105 442.981 90.0355C443.126 89.6577 443.198 89.2216 443.198 88.7273C443.198 88.2386 443.127 87.8111 442.985 87.4446C442.843 87.0753 442.633 86.7884 442.355 86.5838C442.076 86.3764 441.732 86.2727 441.323 86.2727C440.897 86.2727 440.542 86.3821 440.258 86.6009C439.977 86.8168 439.765 87.1108 439.623 87.483C439.484 87.8523 439.414 88.267 439.414 88.7273C439.414 89.1932 439.485 89.6165 439.627 89.9972C439.772 90.375 439.985 90.6761 440.267 90.9006C440.551 91.1222 440.903 91.233 441.323 91.233Z" fill="black"/>
<g filter="url(#filter3_d_3717_2449)">
<path d="M179.904 69.8932C179.624 69.5332 179.274 68.8032 178.664 67.8932C178.314 67.3932 177.454 66.4432 177.194 65.9532C177.006 65.6554 176.952 65.2929 177.044 64.9532C177.201 64.3074 177.813 63.879 178.474 63.9532C178.984 64.0558 179.454 64.3062 179.824 64.6732C180.082 64.9164 180.319 65.1806 180.534 65.4632C180.694 65.6632 180.734 65.7432 180.914 65.9732C181.094 66.2032 181.214 66.4332 181.124 66.0932C181.054 65.5932 180.934 64.7532 180.764 64.0032C180.634 63.4332 180.604 63.3432 180.484 62.9132C180.364 62.4832 180.294 62.1232 180.164 61.6332C180.045 61.1518 179.951 60.6644 179.884 60.1732C179.758 59.5449 179.849 58.8924 180.144 58.3232C180.493 57.9946 181.006 57.9078 181.444 58.1032C181.884 58.4285 182.213 58.8829 182.384 59.4032C182.646 60.0436 182.821 60.7163 182.904 61.4032C183.064 62.4032 183.374 63.8632 183.384 64.1632C183.384 63.7932 183.314 63.0132 183.384 62.6632C183.453 62.2983 183.707 61.9955 184.054 61.8632C184.351 61.7718 184.667 61.7513 184.974 61.8032C185.284 61.868 185.558 62.0464 185.744 62.3032C185.975 62.8866 186.104 63.5058 186.124 64.1332C186.15 63.5838 186.244 63.0397 186.404 62.5132C186.571 62.2778 186.815 62.108 187.094 62.0332C187.424 61.9728 187.763 61.9728 188.094 62.0332C188.365 62.1238 188.602 62.2947 188.774 62.5232C188.985 63.0536 189.114 63.6136 189.154 64.1832C189.154 64.3232 189.224 63.7932 189.444 63.4432C189.558 63.1038 189.845 62.8512 190.196 62.7805C190.547 62.7098 190.909 62.8318 191.146 63.1005C191.383 63.3692 191.458 63.7438 191.344 64.0832C191.344 64.7332 191.344 64.7032 191.344 65.1432C191.344 65.5832 191.344 65.9732 191.344 66.3432C191.307 66.9284 191.227 67.51 191.104 68.0832C190.93 68.5903 190.687 69.0714 190.384 69.5132C189.898 70.0532 189.497 70.6634 189.194 71.3232C189.118 71.651 189.085 71.987 189.094 72.3232C189.093 72.6338 189.133 72.9432 189.214 73.2432C188.805 73.2864 188.393 73.2864 187.984 73.2432C187.594 73.1832 187.114 72.4032 186.984 72.1632C186.919 72.0343 186.788 71.9529 186.644 71.9529C186.5 71.9529 186.368 72.0343 186.304 72.1632C186.084 72.5432 185.594 73.2332 185.254 73.2732C184.584 73.3532 183.204 73.2732 182.114 73.2732C182.114 73.2732 182.294 72.2732 181.884 71.9132C181.474 71.5532 181.054 71.1332 180.744 70.8532L179.904 69.8932Z" fill="white"/>
<path fill-rule="evenodd" clip-rule="evenodd" d="M179.904 69.8932C179.624 69.5332 179.274 68.8032 178.664 67.8932C178.314 67.3932 177.454 66.4432 177.194 65.9532C177.006 65.6554 176.952 65.2929 177.044 64.9532C177.201 64.3074 177.813 63.879 178.474 63.9532C178.984 64.0558 179.454 64.3062 179.824 64.6732C180.082 64.9164 180.319 65.1806 180.534 65.4632C180.694 65.6632 180.734 65.7432 180.914 65.9732C181.094 66.2032 181.214 66.4332 181.124 66.0932C181.054 65.5932 180.934 64.7532 180.764 64.0032C180.634 63.4332 180.604 63.3432 180.484 62.9132C180.364 62.4832 180.294 62.1232 180.164 61.6332C180.045 61.1518 179.951 60.6644 179.884 60.1732C179.758 59.5449 179.849 58.8924 180.144 58.3232C180.493 57.9946 181.006 57.9078 181.444 58.1032C181.884 58.4285 182.213 58.8829 182.384 59.4032C182.646 60.0436 182.821 60.7163 182.904 61.4032C183.064 62.4032 183.374 63.8632 183.384 64.1632C183.384 63.7932 183.314 63.0132 183.384 62.6632C183.453 62.2983 183.707 61.9955 184.054 61.8632C184.351 61.7718 184.667 61.7513 184.974 61.8032C185.284 61.868 185.558 62.0464 185.744 62.3032C185.975 62.8866 186.104 63.5058 186.124 64.1332C186.15 63.5838 186.244 63.0397 186.404 62.5132C186.571 62.2778 186.815 62.108 187.094 62.0332C187.424 61.9728 187.763 61.9728 188.094 62.0332C188.365 62.1238 188.602 62.2947 188.774 62.5232C188.985 63.0536 189.114 63.6136 189.154 64.1832C189.154 64.3232 189.224 63.7932 189.444 63.4432C189.558 63.1038 189.845 62.8512 190.196 62.7805C190.547 62.7098 190.909 62.8318 191.146 63.1005C191.383 63.3692 191.458 63.7438 191.344 64.0832C191.344 64.7332 191.344 64.7032 191.344 65.1432C191.344 65.5832 191.344 65.9732 191.344 66.3432C191.307 66.9284 191.227 67.51 191.104 68.0832C190.93 68.5903 190.687 69.0714 190.384 69.5132C189.898 70.0532 189.497 70.6634 189.194 71.3232C189.118 71.651 189.085 71.987 189.094 72.3232C189.093 72.6338 189.133 72.9432 189.214 73.2432C188.805 73.2864 188.393 73.2864 187.984 73.2432C187.594 73.1832 187.114 72.4032 186.984 72.1632C186.919 72.0343 186.788 71.9529 186.644 71.9529C186.5 71.9529 186.368 72.0343 186.304 72.1632C186.084 72.5432 185.594 73.2332 185.254 73.2732C184.584 73.3532 183.204 73.2732 182.114 73.2732C182.114 73.2732 182.294 72.2732 181.884 71.9132C181.474 71.5532 181.054 71.1332 180.744 70.8532L179.904 69.8932Z" stroke="black" stroke-width="0.75" stroke-linecap="round" stroke-linejoin="round"/>
<path d="M188.384 70.4391V66.9873C188.384 66.7807 188.216 66.6132 188.009 66.6132C187.802 66.6132 187.634 66.7807 187.634 66.9873V70.4391C187.634 70.6457 187.802 70.8132 188.009 70.8132C188.216 70.8132 188.384 70.6457 188.384 70.4391Z" fill="black"/>
<path d="M186.404 70.4378L186.384 66.9843C186.382 66.7782 186.214 66.612 186.007 66.6132C185.799 66.6144 185.632 66.7825 185.634 66.9886L185.654 70.4421C185.655 70.6483 185.824 70.8144 186.031 70.8132C186.238 70.812 186.405 70.644 186.404 70.4378Z" fill="black"/>
<path d="M183.634 66.9922L183.654 70.4386C183.655 70.6467 183.824 70.8144 184.031 70.8132C184.238 70.812 184.405 70.6423 184.404 70.4342L184.384 66.9878C184.382 66.7797 184.214 66.612 184.006 66.6132C183.799 66.6144 183.632 66.7841 183.634 66.9922Z" fill="black"/>
</g>
<g filter="url(#filter4_d_3717_2449)">
<path d="M405.904 69.8932C405.624 69.5332 405.274 68.8032 404.664 67.8932C404.314 67.3932 403.454 66.4432 403.194 65.9532C403.006 65.6554 402.952 65.2929 403.044 64.9532C403.201 64.3074 403.813 63.879 404.474 63.9532C404.984 64.0558 405.454 64.3062 405.824 64.6732C406.082 64.9164 406.319 65.1806 406.534 65.4632C406.694 65.6632 406.734 65.7432 406.914 65.9732C407.094 66.2032 407.214 66.4332 407.124 66.0932C407.054 65.5932 406.934 64.7532 406.764 64.0032C406.634 63.4332 406.604 63.3432 406.484 62.9132C406.364 62.4832 406.294 62.1232 406.164 61.6332C406.045 61.1518 405.951 60.6644 405.884 60.1732C405.758 59.5449 405.849 58.8924 406.144 58.3232C406.493 57.9946 407.006 57.9078 407.444 58.1032C407.884 58.4285 408.213 58.8829 408.384 59.4032C408.646 60.0436 408.821 60.7163 408.904 61.4032C409.064 62.4032 409.374 63.8632 409.384 64.1632C409.384 63.7932 409.314 63.0132 409.384 62.6632C409.453 62.2983 409.707 61.9955 410.054 61.8632C410.351 61.7718 410.667 61.7513 410.974 61.8032C411.284 61.868 411.558 62.0464 411.744 62.3032C411.975 62.8866 412.104 63.5058 412.124 64.1332C412.15 63.5838 412.244 63.0397 412.404 62.5132C412.571 62.2778 412.815 62.108 413.094 62.0332C413.424 61.9728 413.763 61.9728 414.094 62.0332C414.365 62.1238 414.602 62.2947 414.774 62.5232C414.985 63.0536 415.114 63.6136 415.154 64.1832C415.154 64.3232 415.224 63.7932 415.444 63.4432C415.558 63.1038 415.845 62.8512 416.196 62.7805C416.547 62.7098 416.909 62.8318 417.146 63.1005C417.383 63.3692 417.458 63.7438 417.344 64.0832C417.344 64.7332 417.344 64.7032 417.344 65.1432C417.344 65.5832 417.344 65.9732 417.344 66.3432C417.307 66.9284 417.227 67.51 417.104 68.0832C416.93 68.5903 416.687 69.0714 416.384 69.5132C415.898 70.0532 415.497 70.6634 415.194 71.3232C415.118 71.651 415.085 71.987 415.094 72.3232C415.093 72.6338 415.133 72.9432 415.214 73.2432C414.805 73.2864 414.393 73.2864 413.984 73.2432C413.594 73.1832 413.114 72.4032 412.984 72.1632C412.919 72.0343 412.788 71.9529 412.644 71.9529C412.5 71.9529 412.368 72.0343 412.304 72.1632C412.084 72.5432 411.594 73.2332 411.254 73.2732C410.584 73.3532 409.204 73.2732 408.114 73.2732C408.114 73.2732 408.294 72.2732 407.884 71.9132C407.474 71.5532 407.054 71.1332 406.744 70.8532L405.904 69.8932Z" fill="white"/>
<path fill-rule="evenodd" clip-rule="evenodd" d="M405.904 69.8932C405.624 69.5332 405.274 68.8032 404.664 67.8932C404.314 67.3932 403.454 66.4432 403.194 65.9532C403.006 65.6554 402.952 65.2929 403.044 64.9532C403.201 64.3074 403.813 63.879 404.474 63.9532C404.984 64.0558 405.454 64.3062 405.824 64.6732C406.082 64.9164 406.319 65.1806 406.534 65.4632C406.694 65.6632 406.734 65.7432 406.914 65.9732C407.094 66.2032 407.214 66.4332 407.124 66.0932C407.054 65.5932 406.934 64.7532 406.764 64.0032C406.634 63.4332 406.604 63.3432 406.484 62.9132C406.364 62.4832 406.294 62.1232 406.164 61.6332C406.045 61.1518 405.951 60.6644 405.884 60.1732C405.758 59.5449 405.849 58.8924 406.144 58.3232C406.493 57.9946 407.006 57.9078 407.444 58.1032C407.884 58.4285 408.213 58.8829 408.384 59.4032C408.646 60.0436 408.821 60.7163 408.904 61.4032C409.064 62.4032 409.374 63.8632 409.384 64.1632C409.384 63.7932 409.314 63.0132 409.384 62.6632C409.453 62.2983 409.707 61.9955 410.054 61.8632C410.351 61.7718 410.667 61.7513 410.974 61.8032C411.284 61.868 411.558 62.0464 411.744 62.3032C411.975 62.8866 412.104 63.5058 412.124 64.1332C412.15 63.5838 412.244 63.0397 412.404 62.5132C412.571 62.2778 412.815 62.108 413.094 62.0332C413.424 61.9728 413.763 61.9728 414.094 62.0332C414.365 62.1238 414.602 62.2947 414.774 62.5232C414.985 63.0536 415.114 63.6136 415.154 64.1832C415.154 64.3232 415.224 63.7932 415.444 63.4432C415.558 63.1038 415.845 62.8512 416.196 62.7805C416.547 62.7098 416.909 62.8318 417.146 63.1005C417.383 63.3692 417.458 63.7438 417.344 64.0832C417.344 64.7332 417.344 64.7032 417.344 65.1432C417.344 65.5832 417.344 65.9732 417.344 66.3432C417.307 66.9284 417.227 67.51 417.104 68.0832C416.93 68.5903 416.687 69.0714 416.384 69.5132C415.898 70.0532 415.497 70.6634 415.194 71.3232C415.118 71.651 415.085 71.987 415.094 72.3232C415.093 72.6338 415.133 72.9432 415.214 73.2432C414.805 73.2864 414.393 73.2864 413.984 73.2432C413.594 73.1832 413.114 72.4032 412.984 72.1632C412.919 72.0343 412.788 71.9529 412.644 71.9529C412.5 71.9529 412.368 72.0343 412.304 72.1632C412.084 72.5432 411.594 73.2332 411.254 73.2732C410.584 73.3532 409.204 73.2732 408.114 73.2732C408.114 73.2732 408.294 72.2732 407.884 71.9132C407.474 71.5532 407.054 71.1332 406.744 70.8532L405.904 69.8932Z" stroke="black" stroke-width="0.75" stroke-linecap="round" stroke-linejoin="round"/>
<path d="M414.384 70.4391V66.9873C414.384 66.7807 414.216 66.6132 414.009 66.6132C413.802 66.6132 413.634 66.7807 413.634 66.9873V70.4391C413.634 70.6457 413.802 70.8132 414.009 70.8132C414.216 70.8132 414.384 70.6457 414.384 70.4391Z" fill="black"/>
<path d="M412.404 70.4378L412.384 66.9843C412.382 66.7782 412.214 66.612 412.007 66.6132C411.799 66.6144 411.632 66.7825 411.634 66.9886L411.654 70.4421C411.655 70.6483 411.824 70.8144 412.031 70.8132C412.238 70.812 412.405 70.644 412.404 70.4378Z" fill="black"/>
<path d="M409.634 66.9922L409.654 70.4386C409.655 70.6467 409.824 70.8144 410.031 70.8132C410.238 70.812 410.405 70.6423 410.404 70.4342L410.384 66.9878C410.382 66.7797 410.214 66.612 410.006 66.6132C409.799 66.6144 409.632 66.7841 409.634 66.9922Z" fill="black"/>
</g>
<defs>
<filter id="filter0_d_3717_2449" x="151" y="35" width="40" height="40" filterUnits="userSpaceOnUse" color-interpolation-filters="sRGB">
<feFlood flood-opacity="0" result="BackgroundImageFix"/>
<feColorMatrix in="SourceAlpha" type="matrix" values="0 0 0 0 0 0 0 0 0 0 0 0 0 0 0 0 0 0 127 0" result="hardAlpha"/>
<feOffset dy="2"/>
<feGaussianBlur stdDeviation="2"/>
<feColorMatrix type="matrix" values="0 0 0 0 0 0 0 0 0 0 0 0 0 0 0 0 0 0 0.25 0"/>
<feBlend mode="normal" in2="BackgroundImageFix" result="effect1_dropShadow_3717_2449"/>
<feBlend mode="normal" in="SourceGraphic" in2="effect1_dropShadow_3717_2449" result="shape"/>
</filter>
<filter id="filter1_d_3717_2449" x="264" y="35" width="40" height="40" filterUnits="userSpaceOnUse" color-interpolation-filters="sRGB">
<feFlood flood-opacity="0" result="BackgroundImageFix"/>
<feColorMatrix in="SourceAlpha" type="matrix" values="0 0 0 0 0 0 0 0 0 0 0 0 0 0 0 0 0 0 127 0" result="hardAlpha"/>
<feOffset dy="2"/>
<feGaussianBlur stdDeviation="2"/>
<feColorMatrix type="matrix" values="0 0 0 0 0 0 0 0 0 0 0 0 0 0 0 0 0 0 0.25 0"/>
<feBlend mode="normal" in2="BackgroundImageFix" result="effect1_dropShadow_3717_2449"/>
<feBlend mode="normal" in="SourceGraphic" in2="effect1_dropShadow_3717_2449" result="shape"/>
</filter>
<filter id="filter2_d_3717_2449" x="377" y="35" width="40" height="40" filterUnits="userSpaceOnUse" color-interpolation-filters="sRGB">
<feFlood flood-opacity="0" result="BackgroundImageFix"/>
<feColorMatrix in="SourceAlpha" type="matrix" values="0 0 0 0 0 0 0 0 0 0 0 0 0 0 0 0 0 0 127 0" result="hardAlpha"/>
<feOffset dy="2"/>
<feGaussianBlur stdDeviation="2"/>
<feColorMatrix type="matrix" values="0 0 0 0 0 0 0 0 0 0 0 0 0 0 0 0 0 0 0.25 0"/>
<feBlend mode="normal" in2="BackgroundImageFix" result="effect1_dropShadow_3717_2449"/>
<feBlend mode="normal" in="SourceGraphic" in2="effect1_dropShadow_3717_2449" result="shape"/>
</filter>
<filter id="filter3_d_3717_2449" x="175.825" y="57.625" width="16.7461" height="17.8588" filterUnits="userSpaceOnUse" color-interpolation-filters="sRGB">
<feFlood flood-opacity="0" result="BackgroundImageFix"/>
<feColorMatrix in="SourceAlpha" type="matrix" values="0 0 0 0 0 0 0 0 0 0 0 0 0 0 0 0 0 0 127 0" result="hardAlpha"/>
<feOffset dy="1"/>
<feGaussianBlur stdDeviation="0.4"/>
<feColorMatrix type="matrix" values="0 0 0 0 0 0 0 0 0 0 0 0 0 0 0 0 0 0 0.5 0"/>
<feBlend mode="normal" in2="BackgroundImageFix" result="effect1_dropShadow_3717_2449"/>
<feBlend mode="normal" in="SourceGraphic" in2="effect1_dropShadow_3717_2449" result="shape"/>
</filter>
<filter id="filter4_d_3717_2449" x="401.825" y="57.625" width="16.7461" height="17.8588" filterUnits="userSpaceOnUse" color-interpolation-filters="sRGB">
<feFlood flood-opacity="0" result="BackgroundImageFix"/>
<feColorMatrix in="SourceAlpha" type="matrix" values="0 0 0 0 0 0 0 0 0 0 0 0 0 0 0 0 0 0 127 0" result="hardAlpha"/>
<feOffset dy="1"/>
<feGaussianBlur stdDeviation="0.4"/>
<feColorMatrix type="matrix" values="0 0 0 0 0 0 0 0 0 0 0 0 0 0 0 0 0 0 0.5 0"/>
<feBlend mode="normal" in2="BackgroundImageFix" result="effect1_dropShadow_3717_2449"/>
<feBlend mode="normal" in="SourceGraphic" in2="effect1_dropShadow_3717_2449" result="shape"/>
</filter>
</defs>
</svg>
