<svg width="1122" height="318" viewBox="0 0 1122 318" fill="none" xmlns="http://www.w3.org/2000/svg">
<g clip-path="url(#clip0_2_1806)">
<rect width="1122" height="318" rx="24" fill="#EBF1FD"/>
<path d="M481.568 63.392V61.3636H491.125V63.392H487.562V73H485.131V63.392H481.568ZM495.331 73.1705C494.448 73.1705 493.685 72.983 493.041 72.608C492.401 72.2292 491.907 71.7027 491.558 71.0284C491.21 70.3504 491.036 69.5644 491.036 68.6705C491.036 67.7689 491.21 66.9811 491.558 66.3068C491.907 65.6288 492.401 65.1023 493.041 64.7273C493.685 64.3485 494.448 64.1591 495.331 64.1591C496.214 64.1591 496.975 64.3485 497.615 64.7273C498.259 65.1023 498.755 65.6288 499.104 66.3068C499.452 66.9811 499.626 67.7689 499.626 68.6705C499.626 69.5644 499.452 70.3504 499.104 71.0284C498.755 71.7027 498.259 72.2292 497.615 72.608C496.975 72.983 496.214 73.1705 495.331 73.1705ZM495.342 71.2955C495.744 71.2955 496.079 71.1818 496.348 70.9545C496.617 70.7235 496.82 70.4091 496.956 70.0114C497.096 69.6136 497.166 69.161 497.166 68.6534C497.166 68.1458 497.096 67.6932 496.956 67.2955C496.82 66.8977 496.617 66.5833 496.348 66.3523C496.079 66.1212 495.744 66.0057 495.342 66.0057C494.937 66.0057 494.596 66.1212 494.32 66.3523C494.047 66.5833 493.84 66.8977 493.7 67.2955C493.564 67.6932 493.496 68.1458 493.496 68.6534C493.496 69.161 493.564 69.6136 493.7 70.0114C493.84 70.4091 494.047 70.7235 494.32 70.9545C494.596 71.1818 494.937 71.2955 495.342 71.2955ZM501.2 76.2727V64.2727H503.587V65.7386H503.695C503.801 65.5038 503.954 65.2652 504.155 65.0227C504.359 64.7765 504.625 64.572 504.95 64.4091C505.28 64.2424 505.689 64.1591 506.178 64.1591C506.814 64.1591 507.401 64.3258 507.939 64.6591C508.477 64.9886 508.907 65.4867 509.229 66.1534C509.551 66.8163 509.712 67.6477 509.712 68.6477C509.712 69.6212 509.554 70.4432 509.24 71.1136C508.929 71.7803 508.505 72.286 507.967 72.6307C507.433 72.9716 506.835 73.142 506.172 73.142C505.702 73.142 505.303 73.0644 504.973 72.9091C504.647 72.7538 504.38 72.5587 504.172 72.3239C503.964 72.0852 503.804 71.8447 503.695 71.6023H503.621V76.2727H501.2ZM503.57 68.6364C503.57 69.1553 503.642 69.608 503.786 69.9943C503.929 70.3807 504.138 70.6818 504.411 70.8977C504.683 71.1098 505.015 71.2159 505.405 71.2159C505.799 71.2159 506.132 71.108 506.405 70.892C506.678 70.6723 506.884 70.3693 507.024 69.983C507.168 69.5928 507.24 69.1439 507.24 68.6364C507.24 68.1326 507.17 67.6894 507.03 67.3068C506.89 66.9242 506.683 66.625 506.411 66.4091C506.138 66.1932 505.803 66.0852 505.405 66.0852C505.011 66.0852 504.678 66.1894 504.405 66.3977C504.136 66.6061 503.929 66.9015 503.786 67.2841C503.642 67.6667 503.57 68.1174 503.57 68.6364ZM524.807 61.3636V73H522.682L517.619 65.6761H517.534V73H515.074V61.3636H517.233L522.256 68.6818H522.358V61.3636H524.807ZM529.283 73.1648C528.726 73.1648 528.23 73.0682 527.794 72.875C527.358 72.678 527.014 72.3883 526.76 72.0057C526.51 71.6193 526.385 71.1383 526.385 70.5625C526.385 70.0777 526.474 69.6705 526.652 69.3409C526.83 69.0114 527.072 68.7462 527.379 68.5455C527.686 68.3447 528.035 68.1932 528.425 68.0909C528.819 67.9886 529.232 67.9167 529.663 67.875C530.171 67.822 530.58 67.7727 530.891 67.7273C531.201 67.678 531.427 67.6061 531.567 67.5114C531.707 67.4167 531.777 67.2765 531.777 67.0909V67.0568C531.777 66.697 531.663 66.4186 531.436 66.2216C531.213 66.0246 530.894 65.9261 530.482 65.9261C530.046 65.9261 529.699 66.0227 529.442 66.2159C529.184 66.4053 529.014 66.6439 528.93 66.9318L526.692 66.75C526.805 66.2197 527.029 65.7614 527.362 65.375C527.696 64.9848 528.125 64.6856 528.652 64.4773C529.182 64.2652 529.796 64.1591 530.493 64.1591C530.978 64.1591 531.442 64.2159 531.885 64.3295C532.332 64.4432 532.728 64.6193 533.072 64.858C533.421 65.0966 533.696 65.4034 533.896 65.7784C534.097 66.1496 534.197 66.5947 534.197 67.1136V73H531.902V71.7898H531.834C531.694 72.0625 531.506 72.303 531.271 72.5114C531.036 72.7159 530.754 72.8769 530.425 72.9943C530.095 73.108 529.714 73.1648 529.283 73.1648ZM529.976 71.4943C530.332 71.4943 530.646 71.4242 530.919 71.2841C531.192 71.1402 531.406 70.947 531.561 70.7045C531.716 70.4621 531.794 70.1875 531.794 69.8807V68.9545C531.718 69.0038 531.614 69.0492 531.482 69.0909C531.353 69.1288 531.207 69.1648 531.044 69.1989C530.881 69.2292 530.718 69.2576 530.555 69.2841C530.393 69.3068 530.245 69.3277 530.112 69.3466C529.828 69.3883 529.58 69.4545 529.368 69.5455C529.156 69.6364 528.991 69.7595 528.874 69.9148C528.756 70.0663 528.697 70.2557 528.697 70.483C528.697 70.8125 528.817 71.0644 529.055 71.2386C529.298 71.4091 529.605 71.4943 529.976 71.4943ZM543.899 64.2727L540.848 73H538.121L535.07 64.2727H537.626L539.439 70.517H539.53L541.337 64.2727H543.899ZM545.138 73V64.2727H547.558V73H545.138ZM546.354 63.1477C545.994 63.1477 545.685 63.0284 545.428 62.7898C545.174 62.5473 545.047 62.2576 545.047 61.9205C545.047 61.5871 545.174 61.3011 545.428 61.0625C545.685 60.8201 545.994 60.6989 546.354 60.6989C546.714 60.6989 547.02 60.8201 547.274 61.0625C547.532 61.3011 547.661 61.5871 547.661 61.9205C547.661 62.2576 547.532 62.5473 547.274 62.7898C547.02 63.0284 546.714 63.1477 546.354 63.1477ZM553.429 76.4545C552.645 76.4545 551.973 76.3466 551.412 76.1307C550.855 75.9186 550.412 75.6288 550.082 75.2614C549.753 74.8939 549.539 74.4811 549.44 74.0227L551.679 73.7216C551.747 73.8958 551.855 74.0587 552.003 74.2102C552.151 74.3617 552.346 74.483 552.588 74.5739C552.834 74.6686 553.134 74.7159 553.486 74.7159C554.012 74.7159 554.446 74.5871 554.787 74.3295C555.132 74.0758 555.304 73.6496 555.304 73.0511V71.4545H555.202C555.096 71.697 554.937 71.9261 554.724 72.142C554.512 72.358 554.24 72.5341 553.906 72.6705C553.573 72.8068 553.175 72.875 552.713 72.875C552.058 72.875 551.461 72.7235 550.923 72.4205C550.389 72.1136 549.963 71.6458 549.645 71.017C549.33 70.3845 549.173 69.5852 549.173 68.6193C549.173 67.6307 549.334 66.8049 549.656 66.142C549.978 65.4792 550.406 64.983 550.94 64.6534C551.478 64.3239 552.067 64.1591 552.707 64.1591C553.196 64.1591 553.605 64.2424 553.935 64.4091C554.264 64.572 554.529 64.7765 554.73 65.0227C554.935 65.2652 555.092 65.5038 555.202 65.7386H555.293V64.2727H557.696V73.0852C557.696 73.8277 557.514 74.4489 557.151 74.9489C556.787 75.4489 556.283 75.8239 555.639 76.0739C554.999 76.3277 554.262 76.4545 553.429 76.4545ZM553.48 71.0568C553.87 71.0568 554.2 70.9602 554.469 70.767C554.741 70.5701 554.95 70.2898 555.094 69.9261C555.241 69.5587 555.315 69.1193 555.315 68.608C555.315 68.0966 555.243 67.6534 555.099 67.2784C554.955 66.8996 554.747 66.6061 554.474 66.3977C554.202 66.1894 553.87 66.0852 553.48 66.0852C553.082 66.0852 552.747 66.1932 552.474 66.4091C552.202 66.6212 551.995 66.9167 551.855 67.2955C551.715 67.6742 551.645 68.1117 551.645 68.608C551.645 69.1117 551.715 69.5473 551.855 69.9148C551.999 70.2784 552.205 70.5606 552.474 70.7614C552.747 70.9583 553.082 71.0568 553.48 71.0568ZM562.111 73.1648C561.554 73.1648 561.058 73.0682 560.622 72.875C560.187 72.678 559.842 72.3883 559.588 72.0057C559.338 71.6193 559.213 71.1383 559.213 70.5625C559.213 70.0777 559.302 69.6705 559.48 69.3409C559.658 69.0114 559.901 68.7462 560.207 68.5455C560.514 68.3447 560.863 68.1932 561.253 68.0909C561.647 67.9886 562.06 67.9167 562.491 67.875C562.999 67.822 563.408 67.7727 563.719 67.7273C564.029 67.678 564.255 67.6061 564.395 67.5114C564.535 67.4167 564.605 67.2765 564.605 67.0909V67.0568C564.605 66.697 564.491 66.4186 564.264 66.2216C564.041 66.0246 563.723 65.9261 563.31 65.9261C562.874 65.9261 562.527 66.0227 562.27 66.2159C562.012 66.4053 561.842 66.6439 561.759 66.9318L559.52 66.75C559.634 66.2197 559.857 65.7614 560.19 65.375C560.524 64.9848 560.954 64.6856 561.48 64.4773C562.01 64.2652 562.624 64.1591 563.321 64.1591C563.806 64.1591 564.27 64.2159 564.713 64.3295C565.16 64.4432 565.556 64.6193 565.901 64.858C566.249 65.0966 566.524 65.4034 566.724 65.7784C566.925 66.1496 567.026 66.5947 567.026 67.1136V73H564.73V71.7898H564.662C564.522 72.0625 564.334 72.303 564.099 72.5114C563.865 72.7159 563.582 72.8769 563.253 72.9943C562.923 73.108 562.543 73.1648 562.111 73.1648ZM562.804 71.4943C563.16 71.4943 563.474 71.4242 563.747 71.2841C564.02 71.1402 564.234 70.947 564.389 70.7045C564.545 70.4621 564.622 70.1875 564.622 69.8807V68.9545C564.546 69.0038 564.442 69.0492 564.31 69.0909C564.181 69.1288 564.035 69.1648 563.872 69.1989C563.709 69.2292 563.546 69.2576 563.384 69.2841C563.221 69.3068 563.073 69.3277 562.94 69.3466C562.656 69.3883 562.408 69.4545 562.196 69.5455C561.984 69.6364 561.819 69.7595 561.702 69.9148C561.584 70.0663 561.526 70.2557 561.526 70.483C561.526 70.8125 561.645 71.0644 561.884 71.2386C562.126 71.4091 562.433 71.4943 562.804 71.4943ZM573.545 64.2727V66.0909H568.29V64.2727H573.545ZM569.483 62.1818H571.903V70.3182C571.903 70.5417 571.938 70.7159 572.006 70.8409C572.074 70.9621 572.169 71.0473 572.29 71.0966C572.415 71.1458 572.559 71.1705 572.722 71.1705C572.835 71.1705 572.949 71.161 573.062 71.142C573.176 71.1193 573.263 71.1023 573.324 71.0909L573.705 72.892C573.583 72.9299 573.413 72.9735 573.193 73.0227C572.973 73.0758 572.706 73.108 572.392 73.1193C571.809 73.142 571.297 73.0644 570.858 72.8864C570.422 72.7083 570.083 72.4318 569.841 72.0568C569.598 71.6818 569.479 71.2083 569.483 70.6364V62.1818ZM575.122 73V64.2727H577.543V73H575.122ZM576.338 63.1477C575.978 63.1477 575.67 63.0284 575.412 62.7898C575.158 62.5473 575.031 62.2576 575.031 61.9205C575.031 61.5871 575.158 61.3011 575.412 61.0625C575.67 60.8201 575.978 60.6989 576.338 60.6989C576.698 60.6989 577.005 60.8201 577.259 61.0625C577.516 61.3011 577.645 61.5871 577.645 61.9205C577.645 62.2576 577.516 62.5473 577.259 62.7898C577.005 63.0284 576.698 63.1477 576.338 63.1477ZM583.425 73.1705C582.542 73.1705 581.779 72.983 581.135 72.608C580.495 72.2292 580 71.7027 579.652 71.0284C579.304 70.3504 579.129 69.5644 579.129 68.6705C579.129 67.7689 579.304 66.9811 579.652 66.3068C580 65.6288 580.495 65.1023 581.135 64.7273C581.779 64.3485 582.542 64.1591 583.425 64.1591C584.307 64.1591 585.069 64.3485 585.709 64.7273C586.353 65.1023 586.849 65.6288 587.197 66.3068C587.546 66.9811 587.72 67.7689 587.72 68.6705C587.72 69.5644 587.546 70.3504 587.197 71.0284C586.849 71.7027 586.353 72.2292 585.709 72.608C585.069 72.983 584.307 73.1705 583.425 73.1705ZM583.436 71.2955C583.838 71.2955 584.173 71.1818 584.442 70.9545C584.711 70.7235 584.913 70.4091 585.05 70.0114C585.19 69.6136 585.26 69.161 585.26 68.6534C585.26 68.1458 585.19 67.6932 585.05 67.2955C584.913 66.8977 584.711 66.5833 584.442 66.3523C584.173 66.1212 583.838 66.0057 583.436 66.0057C583.031 66.0057 582.69 66.1212 582.413 66.3523C582.141 66.5833 581.934 66.8977 581.794 67.2955C581.658 67.6932 581.589 68.1458 581.589 68.6534C581.589 69.161 581.658 69.6136 581.794 70.0114C581.934 70.4091 582.141 70.7235 582.413 70.9545C582.69 71.1818 583.031 71.2955 583.436 71.2955ZM591.714 67.9545V73H589.294V64.2727H591.601V65.8125H591.703C591.896 65.3049 592.22 64.9034 592.675 64.608C593.129 64.3087 593.68 64.1591 594.328 64.1591C594.934 64.1591 595.463 64.2917 595.913 64.5568C596.364 64.822 596.714 65.2008 596.964 65.6932C597.214 66.1818 597.339 66.7652 597.339 67.4432V73H594.919V67.875C594.923 67.3409 594.786 66.9242 594.51 66.625C594.233 66.322 593.853 66.1705 593.368 66.1705C593.042 66.1705 592.754 66.2405 592.504 66.3807C592.258 66.5208 592.065 66.7254 591.925 66.9943C591.788 67.2595 591.718 67.5795 591.714 67.9545ZM602.996 73V61.3636H605.456V70.9716H610.445V73H602.996ZM615.972 73.1705C615.089 73.1705 614.326 72.983 613.682 72.608C613.042 72.2292 612.547 71.7027 612.199 71.0284C611.85 70.3504 611.676 69.5644 611.676 68.6705C611.676 67.7689 611.85 66.9811 612.199 66.3068C612.547 65.6288 613.042 65.1023 613.682 64.7273C614.326 64.3485 615.089 64.1591 615.972 64.1591C616.854 64.1591 617.616 64.3485 618.256 64.7273C618.9 65.1023 619.396 65.6288 619.744 66.3068C620.093 66.9811 620.267 67.7689 620.267 68.6705C620.267 69.5644 620.093 70.3504 619.744 71.0284C619.396 71.7027 618.9 72.2292 618.256 72.608C617.616 72.983 616.854 73.1705 615.972 73.1705ZM615.983 71.2955C616.384 71.2955 616.72 71.1818 616.989 70.9545C617.258 70.7235 617.46 70.4091 617.597 70.0114C617.737 69.6136 617.807 69.161 617.807 68.6534C617.807 68.1458 617.737 67.6932 617.597 67.2955C617.46 66.8977 617.258 66.5833 616.989 66.3523C616.72 66.1212 616.384 66.0057 615.983 66.0057C615.578 66.0057 615.237 66.1212 614.96 66.3523C614.688 66.5833 614.481 66.8977 614.341 67.2955C614.205 67.6932 614.136 68.1458 614.136 68.6534C614.136 69.161 614.205 69.6136 614.341 70.0114C614.481 70.4091 614.688 70.7235 614.96 70.9545C615.237 71.1818 615.578 71.2955 615.983 71.2955ZM625.773 76.4545C624.989 76.4545 624.316 76.3466 623.756 76.1307C623.199 75.9186 622.756 75.6288 622.426 75.2614C622.097 74.8939 621.883 74.4811 621.784 74.0227L624.023 73.7216C624.091 73.8958 624.199 74.0587 624.347 74.2102C624.494 74.3617 624.689 74.483 624.932 74.5739C625.178 74.6686 625.477 74.7159 625.83 74.7159C626.356 74.7159 626.79 74.5871 627.131 74.3295C627.475 74.0758 627.648 73.6496 627.648 73.0511V71.4545H627.545C627.439 71.697 627.28 71.9261 627.068 72.142C626.856 72.358 626.583 72.5341 626.25 72.6705C625.917 72.8068 625.519 72.875 625.057 72.875C624.402 72.875 623.805 72.7235 623.267 72.4205C622.733 72.1136 622.307 71.6458 621.989 71.017C621.674 70.3845 621.517 69.5852 621.517 68.6193C621.517 67.6307 621.678 66.8049 622 66.142C622.322 65.4792 622.75 64.983 623.284 64.6534C623.822 64.3239 624.411 64.1591 625.051 64.1591C625.54 64.1591 625.949 64.2424 626.278 64.4091C626.608 64.572 626.873 64.7765 627.074 65.0227C627.278 65.2652 627.436 65.5038 627.545 65.7386H627.636V64.2727H630.04V73.0852C630.04 73.8277 629.858 74.4489 629.494 74.9489C629.131 75.4489 628.627 75.8239 627.983 76.0739C627.343 76.3277 626.606 76.4545 625.773 76.4545ZM625.824 71.0568C626.214 71.0568 626.544 70.9602 626.812 70.767C627.085 70.5701 627.294 70.2898 627.438 69.9261C627.585 69.5587 627.659 69.1193 627.659 68.608C627.659 68.0966 627.587 67.6534 627.443 67.2784C627.299 66.8996 627.091 66.6061 626.818 66.3977C626.545 66.1894 626.214 66.0852 625.824 66.0852C625.426 66.0852 625.091 66.1932 624.818 66.4091C624.545 66.6212 624.339 66.9167 624.199 67.2955C624.059 67.6742 623.989 68.1117 623.989 68.608C623.989 69.1117 624.059 69.5473 624.199 69.9148C624.343 70.2784 624.549 70.5606 624.818 70.7614C625.091 70.9583 625.426 71.0568 625.824 71.0568ZM635.909 73.1705C635.027 73.1705 634.263 72.983 633.619 72.608C632.979 72.2292 632.485 71.7027 632.136 71.0284C631.788 70.3504 631.614 69.5644 631.614 68.6705C631.614 67.7689 631.788 66.9811 632.136 66.3068C632.485 65.6288 632.979 65.1023 633.619 64.7273C634.263 64.3485 635.027 64.1591 635.909 64.1591C636.792 64.1591 637.553 64.3485 638.193 64.7273C638.837 65.1023 639.333 65.6288 639.682 66.3068C640.03 66.9811 640.205 67.7689 640.205 68.6705C640.205 69.5644 640.03 70.3504 639.682 71.0284C639.333 71.7027 638.837 72.2292 638.193 72.608C637.553 72.983 636.792 73.1705 635.909 73.1705ZM635.92 71.2955C636.322 71.2955 636.657 71.1818 636.926 70.9545C637.195 70.7235 637.398 70.4091 637.534 70.0114C637.674 69.6136 637.744 69.161 637.744 68.6534C637.744 68.1458 637.674 67.6932 637.534 67.2955C637.398 66.8977 637.195 66.5833 636.926 66.3523C636.657 66.1212 636.322 66.0057 635.92 66.0057C635.515 66.0057 635.174 66.1212 634.898 66.3523C634.625 66.5833 634.419 66.8977 634.278 67.2955C634.142 67.6932 634.074 68.1458 634.074 68.6534C634.074 69.161 634.142 69.6136 634.278 70.0114C634.419 70.4091 634.625 70.7235 634.898 70.9545C635.174 71.1818 635.515 71.2955 635.92 71.2955Z" fill="black"/>
<path d="M166.4 241.909V243.202H162.323V241.909H166.4ZM163.33 240.21H165.001V246.867C165.001 247.092 165.035 247.264 165.102 247.384C165.173 247.501 165.265 247.581 165.379 247.624C165.493 247.667 165.619 247.689 165.758 247.689C165.862 247.689 165.958 247.681 166.044 247.666C166.133 247.65 166.201 247.637 166.247 247.624L166.529 248.931C166.44 248.962 166.312 248.995 166.146 249.032C165.982 249.069 165.782 249.091 165.545 249.097C165.127 249.109 164.75 249.046 164.414 248.908C164.079 248.766 163.813 248.548 163.616 248.252C163.422 247.957 163.326 247.587 163.33 247.144V240.21ZM168.836 251.659C168.608 251.659 168.397 251.641 168.203 251.604C168.013 251.57 167.86 251.53 167.746 251.484L168.134 250.182C168.377 250.253 168.594 250.286 168.785 250.283C168.976 250.28 169.144 250.22 169.288 250.103C169.436 249.989 169.561 249.799 169.662 249.531L169.805 249.148L167.234 241.909H169.007L170.641 247.264H170.715L172.354 241.909H174.131L171.292 249.859C171.159 250.234 170.984 250.556 170.766 250.824C170.547 251.094 170.279 251.301 169.962 251.442C169.648 251.587 169.273 251.659 168.836 251.659ZM175.287 251.659V241.909H176.931V243.082H177.028C177.114 242.909 177.236 242.726 177.392 242.532C177.549 242.335 177.762 242.168 178.03 242.029C178.297 241.888 178.639 241.817 179.054 241.817C179.602 241.817 180.096 241.957 180.536 242.237C180.979 242.514 181.33 242.925 181.589 243.469C181.85 244.011 181.981 244.676 181.981 245.464C181.981 246.242 181.854 246.904 181.598 247.449C181.343 247.994 180.995 248.409 180.555 248.695C180.115 248.982 179.616 249.125 179.059 249.125C178.653 249.125 178.316 249.057 178.048 248.922C177.78 248.786 177.565 248.623 177.402 248.432C177.242 248.238 177.117 248.055 177.028 247.883H176.959V251.659H175.287ZM176.926 245.455C176.926 245.913 176.991 246.315 177.12 246.659C177.252 247.004 177.442 247.273 177.688 247.467C177.937 247.658 178.239 247.754 178.593 247.754C178.962 247.754 179.271 247.655 179.521 247.458C179.77 247.258 179.958 246.986 180.084 246.641C180.213 246.293 180.278 245.898 180.278 245.455C180.278 245.014 180.215 244.624 180.089 244.282C179.962 243.94 179.775 243.673 179.525 243.479C179.276 243.285 178.965 243.188 178.593 243.188C178.236 243.188 177.933 243.282 177.683 243.469C177.434 243.657 177.245 243.92 177.116 244.259C176.989 244.597 176.926 244.996 176.926 245.455ZM186.552 249.138C185.841 249.138 185.227 248.991 184.71 248.695C184.196 248.397 183.8 247.975 183.523 247.43C183.246 246.883 183.108 246.238 183.108 245.496C183.108 244.767 183.246 244.127 183.523 243.576C183.803 243.022 184.194 242.591 184.696 242.283C185.197 241.972 185.787 241.817 186.464 241.817C186.901 241.817 187.313 241.888 187.701 242.029C188.092 242.168 188.437 242.383 188.735 242.675C189.037 242.968 189.274 243.34 189.446 243.793C189.618 244.242 189.705 244.777 189.705 245.399V245.912H183.892V244.785H188.103C188.1 244.465 188.03 244.18 187.895 243.931C187.76 243.679 187.57 243.48 187.327 243.336C187.087 243.191 186.807 243.119 186.487 243.119C186.145 243.119 185.845 243.202 185.587 243.368C185.328 243.531 185.127 243.746 184.982 244.014C184.84 244.279 184.768 244.57 184.765 244.887V245.87C184.765 246.282 184.84 246.636 184.991 246.932C185.142 247.224 185.353 247.449 185.624 247.606C185.895 247.76 186.211 247.837 186.575 247.837C186.818 247.837 187.038 247.803 187.235 247.735C187.432 247.664 187.603 247.561 187.747 247.426C187.892 247.29 188.001 247.123 188.075 246.923L189.635 247.098C189.537 247.51 189.349 247.871 189.072 248.178C188.798 248.483 188.447 248.72 188.02 248.889C187.592 249.055 187.102 249.138 186.552 249.138ZM192.148 249.102C191.868 249.102 191.628 249.003 191.428 248.806C191.228 248.609 191.129 248.369 191.132 248.086C191.129 247.809 191.228 247.572 191.428 247.375C191.628 247.178 191.868 247.08 192.148 247.08C192.419 247.08 192.654 247.178 192.854 247.375C193.057 247.572 193.16 247.809 193.164 248.086C193.16 248.274 193.111 248.444 193.016 248.598C192.923 248.752 192.8 248.875 192.646 248.968C192.496 249.057 192.329 249.102 192.148 249.102ZM192.148 244.042C191.868 244.042 191.628 243.943 191.428 243.746C191.228 243.546 191.129 243.306 191.132 243.026C191.129 242.749 191.228 242.512 191.428 242.315C191.628 242.115 191.868 242.015 192.148 242.015C192.419 242.015 192.654 242.115 192.854 242.315C193.057 242.512 193.16 242.749 193.164 243.026C193.16 243.211 193.111 243.38 193.016 243.534C192.923 243.688 192.8 243.811 192.646 243.903C192.496 243.996 192.329 244.042 192.148 244.042ZM198.187 249V239.545H199.859V243.082H199.928C200.014 242.909 200.136 242.726 200.293 242.532C200.449 242.335 200.662 242.168 200.93 242.029C201.197 241.888 201.539 241.817 201.954 241.817C202.502 241.817 202.996 241.957 203.436 242.237C203.88 242.514 204.23 242.925 204.489 243.469C204.751 244.011 204.881 244.676 204.881 245.464C204.881 246.242 204.754 246.904 204.498 247.449C204.243 247.994 203.895 248.409 203.455 248.695C203.015 248.982 202.516 249.125 201.959 249.125C201.553 249.125 201.216 249.057 200.948 248.922C200.68 248.786 200.465 248.623 200.302 248.432C200.142 248.238 200.017 248.055 199.928 247.883H199.831V249H198.187ZM199.826 245.455C199.826 245.913 199.891 246.315 200.02 246.659C200.152 247.004 200.342 247.273 200.588 247.467C200.837 247.658 201.139 247.754 201.493 247.754C201.862 247.754 202.171 247.655 202.421 247.458C202.67 247.258 202.858 246.986 202.984 246.641C203.113 246.293 203.178 245.898 203.178 245.455C203.178 245.014 203.115 244.624 202.989 244.282C202.862 243.94 202.675 243.673 202.425 243.479C202.176 243.285 201.865 243.188 201.493 243.188C201.136 243.188 200.833 243.282 200.583 243.469C200.334 243.657 200.145 243.92 200.016 244.259C199.889 244.597 199.826 244.996 199.826 245.455ZM210.822 246.018V241.909H212.493V249H210.872V247.74H210.798C210.638 248.137 210.375 248.461 210.009 248.714C209.646 248.966 209.198 249.092 208.666 249.092C208.201 249.092 207.79 248.989 207.433 248.783C207.079 248.574 206.802 248.271 206.602 247.874C206.402 247.473 206.302 246.99 206.302 246.424V241.909H207.973V246.165C207.973 246.615 208.096 246.972 208.343 247.237C208.589 247.501 208.912 247.634 209.312 247.634C209.558 247.634 209.797 247.574 210.028 247.453C210.258 247.333 210.448 247.155 210.595 246.918C210.746 246.678 210.822 246.378 210.822 246.018ZM217.752 241.909V243.202H213.676V241.909H217.752ZM214.682 240.21H216.353V246.867C216.353 247.092 216.387 247.264 216.455 247.384C216.526 247.501 216.618 247.581 216.732 247.624C216.846 247.667 216.972 247.689 217.11 247.689C217.215 247.689 217.31 247.681 217.397 247.666C217.486 247.65 217.554 247.637 217.6 247.624L217.881 248.931C217.792 248.962 217.664 248.995 217.498 249.032C217.335 249.069 217.135 249.091 216.898 249.097C216.479 249.109 216.102 249.046 215.767 248.908C215.431 248.766 215.165 248.548 214.968 248.252C214.774 247.957 214.679 247.587 214.682 247.144V240.21ZM222.691 241.909V243.202H218.614V241.909H222.691ZM219.621 240.21H221.292V246.867C221.292 247.092 221.326 247.264 221.393 247.384C221.464 247.501 221.556 247.581 221.67 247.624C221.784 247.667 221.91 247.689 222.049 247.689C222.153 247.689 222.249 247.681 222.335 247.666C222.424 247.65 222.492 247.637 222.538 247.624L222.82 248.931C222.731 248.962 222.603 248.995 222.437 249.032C222.273 249.069 222.073 249.091 221.836 249.097C221.418 249.109 221.041 249.046 220.705 248.908C220.37 248.766 220.104 248.548 219.907 248.252C219.713 247.957 219.617 247.587 219.621 247.144V240.21ZM227.105 249.138C226.413 249.138 225.812 248.986 225.305 248.681C224.797 248.377 224.403 247.951 224.123 247.403C223.846 246.855 223.707 246.215 223.707 245.482C223.707 244.75 223.846 244.108 224.123 243.557C224.403 243.006 224.797 242.578 225.305 242.274C225.812 241.969 226.413 241.817 227.105 241.817C227.797 241.817 228.398 241.969 228.905 242.274C229.413 242.578 229.806 243.006 230.083 243.557C230.363 244.108 230.503 244.75 230.503 245.482C230.503 246.215 230.363 246.855 230.083 247.403C229.806 247.951 229.413 248.377 228.905 248.681C228.398 248.986 227.797 249.138 227.105 249.138ZM227.114 247.8C227.49 247.8 227.804 247.697 228.056 247.49C228.308 247.281 228.496 247.001 228.619 246.65C228.745 246.299 228.809 245.908 228.809 245.478C228.809 245.044 228.745 244.651 228.619 244.3C228.496 243.946 228.308 243.665 228.056 243.456C227.804 243.246 227.49 243.142 227.114 243.142C226.73 243.142 226.409 243.246 226.154 243.456C225.902 243.665 225.712 243.946 225.586 244.3C225.463 244.651 225.402 245.044 225.402 245.478C225.402 245.908 225.463 246.299 225.586 246.65C225.712 247.001 225.902 247.281 226.154 247.49C226.409 247.697 226.73 247.8 227.114 247.8ZM233.592 244.845V249H231.921V241.909H233.518V243.114H233.602C233.765 242.717 234.025 242.402 234.382 242.168C234.742 241.934 235.187 241.817 235.716 241.817C236.205 241.817 236.632 241.921 236.995 242.131C237.361 242.34 237.644 242.643 237.844 243.04C238.047 243.437 238.147 243.919 238.144 244.485V249H236.473V244.744C236.473 244.27 236.35 243.899 236.104 243.631C235.861 243.363 235.524 243.229 235.093 243.229C234.8 243.229 234.54 243.294 234.312 243.423C234.088 243.549 233.911 243.733 233.782 243.973C233.655 244.213 233.592 244.504 233.592 244.845Z" fill="black"/>
<path d="M169.192 261.909L166.667 269H164.821L162.295 261.909H164.077L165.707 267.176H165.781L167.415 261.909H169.192ZM172.186 269.143C171.737 269.143 171.332 269.063 170.972 268.903C170.615 268.74 170.332 268.5 170.123 268.183C169.916 267.866 169.813 267.475 169.813 267.01C169.813 266.61 169.887 266.279 170.035 266.018C170.183 265.756 170.384 265.547 170.64 265.39C170.895 265.233 171.183 265.114 171.503 265.034C171.826 264.951 172.16 264.891 172.505 264.854C172.92 264.811 173.257 264.773 173.516 264.739C173.774 264.702 173.962 264.647 174.079 264.573C174.199 264.496 174.259 264.377 174.259 264.217V264.19C174.259 263.842 174.156 263.573 173.95 263.382C173.744 263.191 173.447 263.096 173.059 263.096C172.649 263.096 172.325 263.185 172.085 263.363C171.848 263.542 171.688 263.753 171.605 263.996L170.044 263.774C170.167 263.343 170.37 262.983 170.654 262.694C170.937 262.402 171.283 262.183 171.692 262.038C172.102 261.891 172.554 261.817 173.05 261.817C173.391 261.817 173.731 261.857 174.07 261.937C174.408 262.017 174.718 262.149 174.998 262.334C175.278 262.515 175.502 262.763 175.672 263.077C175.844 263.391 175.93 263.783 175.93 264.254V269H174.324V268.026H174.268C174.167 268.223 174.024 268.408 173.839 268.58C173.657 268.749 173.428 268.886 173.151 268.991C172.877 269.092 172.556 269.143 172.186 269.143ZM172.62 267.915C172.956 267.915 173.247 267.849 173.493 267.717C173.739 267.581 173.928 267.403 174.061 267.181C174.196 266.96 174.264 266.718 174.264 266.456V265.621C174.211 265.664 174.122 265.704 173.996 265.741C173.873 265.778 173.734 265.81 173.58 265.838C173.427 265.865 173.274 265.89 173.123 265.912C172.973 265.933 172.842 265.952 172.731 265.967C172.482 266.001 172.259 266.056 172.062 266.133C171.865 266.21 171.709 266.318 171.595 266.456C171.481 266.592 171.425 266.767 171.425 266.983C171.425 267.29 171.537 267.523 171.762 267.68C171.986 267.837 172.272 267.915 172.62 267.915ZM177.611 269V261.909H179.231V263.091H179.305C179.434 262.682 179.656 262.366 179.97 262.145C180.287 261.92 180.648 261.808 181.055 261.808C181.147 261.808 181.25 261.812 181.364 261.821C181.481 261.828 181.578 261.838 181.655 261.854V263.391C181.584 263.366 181.472 263.345 181.318 263.326C181.167 263.305 181.021 263.294 180.879 263.294C180.574 263.294 180.3 263.36 180.057 263.493C179.817 263.622 179.628 263.802 179.49 264.033C179.351 264.263 179.282 264.53 179.282 264.831V269H177.611ZM182.765 269V261.909H184.436V269H182.765ZM183.605 260.903C183.34 260.903 183.113 260.815 182.922 260.64C182.731 260.461 182.636 260.247 182.636 259.998C182.636 259.746 182.731 259.532 182.922 259.356C183.113 259.178 183.34 259.088 183.605 259.088C183.873 259.088 184.101 259.178 184.288 259.356C184.479 259.532 184.575 259.746 184.575 259.998C184.575 260.247 184.479 260.461 184.288 260.64C184.101 260.815 183.873 260.903 183.605 260.903ZM188.195 269.143C187.746 269.143 187.341 269.063 186.981 268.903C186.624 268.74 186.341 268.5 186.131 268.183C185.925 267.866 185.822 267.475 185.822 267.01C185.822 266.61 185.896 266.279 186.044 266.018C186.191 265.756 186.393 265.547 186.649 265.39C186.904 265.233 187.192 265.114 187.512 265.034C187.835 264.951 188.169 264.891 188.514 264.854C188.929 264.811 189.266 264.773 189.525 264.739C189.783 264.702 189.971 264.647 190.088 264.573C190.208 264.496 190.268 264.377 190.268 264.217V264.19C190.268 263.842 190.165 263.573 189.959 263.382C189.752 263.191 189.455 263.096 189.068 263.096C188.658 263.096 188.334 263.185 188.093 263.363C187.857 263.542 187.696 263.753 187.613 263.996L186.053 263.774C186.176 263.343 186.379 262.983 186.662 262.694C186.946 262.402 187.292 262.183 187.701 262.038C188.11 261.891 188.563 261.817 189.058 261.817C189.4 261.817 189.74 261.857 190.079 261.937C190.417 262.017 190.726 262.149 191.006 262.334C191.287 262.515 191.511 262.763 191.68 263.077C191.853 263.391 191.939 263.783 191.939 264.254V269H190.332V268.026H190.277C190.176 268.223 190.032 268.408 189.848 268.58C189.666 268.749 189.437 268.886 189.16 268.991C188.886 269.092 188.564 269.143 188.195 269.143ZM188.629 267.915C188.964 267.915 189.255 267.849 189.502 267.717C189.748 267.581 189.937 267.403 190.069 267.181C190.205 266.96 190.272 266.718 190.272 266.456V265.621C190.22 265.664 190.131 265.704 190.005 265.741C189.882 265.778 189.743 265.81 189.589 265.838C189.435 265.865 189.283 265.89 189.132 265.912C188.981 265.933 188.851 265.952 188.74 265.967C188.491 266.001 188.267 266.056 188.07 266.133C187.873 266.21 187.718 266.318 187.604 266.456C187.49 266.592 187.433 266.767 187.433 266.983C187.433 267.29 187.546 267.523 187.77 267.68C187.995 267.837 188.281 267.915 188.629 267.915ZM195.291 264.845V269H193.619V261.909H195.217V263.114H195.3C195.463 262.717 195.723 262.402 196.08 262.168C196.44 261.934 196.885 261.817 197.414 261.817C197.903 261.817 198.33 261.921 198.693 262.131C199.059 262.34 199.342 262.643 199.542 263.04C199.745 263.437 199.845 263.919 199.842 264.485V269H198.171V264.744C198.171 264.27 198.048 263.899 197.802 263.631C197.559 263.363 197.222 263.229 196.791 263.229C196.499 263.229 196.238 263.294 196.011 263.423C195.786 263.549 195.609 263.733 195.48 263.973C195.354 264.213 195.291 264.504 195.291 264.845ZM205.082 261.909V263.202H201.006V261.909H205.082ZM202.012 260.21H203.683V266.867C203.683 267.092 203.717 267.264 203.785 267.384C203.856 267.501 203.948 267.581 204.062 267.624C204.176 267.667 204.302 267.689 204.44 267.689C204.545 267.689 204.64 267.681 204.727 267.666C204.816 267.65 204.884 267.637 204.93 267.624L205.211 268.931C205.122 268.962 204.994 268.995 204.828 269.032C204.665 269.069 204.465 269.091 204.228 269.097C203.81 269.109 203.432 269.046 203.097 268.908C202.762 268.766 202.495 268.548 202.298 268.252C202.104 267.957 202.009 267.587 202.012 267.144V260.21ZM207.509 269.102C207.229 269.102 206.989 269.003 206.789 268.806C206.589 268.609 206.491 268.369 206.494 268.086C206.491 267.809 206.589 267.572 206.789 267.375C206.989 267.178 207.229 267.08 207.509 267.08C207.78 267.08 208.016 267.178 208.216 267.375C208.419 267.572 208.522 267.809 208.525 268.086C208.522 268.274 208.473 268.444 208.377 268.598C208.285 268.752 208.162 268.875 208.008 268.968C207.857 269.057 207.691 269.102 207.509 269.102ZM207.509 264.042C207.229 264.042 206.989 263.943 206.789 263.746C206.589 263.546 206.491 263.306 206.494 263.026C206.491 262.749 206.589 262.512 206.789 262.315C206.989 262.115 207.229 262.015 207.509 262.015C207.78 262.015 208.016 262.115 208.216 262.315C208.419 262.512 208.522 262.749 208.525 263.026C208.522 263.211 208.473 263.38 208.377 263.534C208.285 263.688 208.162 263.811 208.008 263.903C207.857 263.996 207.691 264.042 207.509 264.042ZM215.146 264.845V269H213.475V261.909H215.072V263.114H215.155C215.318 262.717 215.578 262.402 215.935 262.168C216.296 261.934 216.74 261.817 217.27 261.817C217.759 261.817 218.185 261.921 218.548 262.131C218.915 262.34 219.198 262.643 219.398 263.04C219.601 263.437 219.701 263.919 219.698 264.485V269H218.027V264.744C218.027 264.27 217.904 263.899 217.657 263.631C217.414 263.363 217.077 263.229 216.646 263.229C216.354 263.229 216.094 263.294 215.866 263.423C215.642 263.549 215.465 263.733 215.335 263.973C215.209 264.213 215.146 264.504 215.146 264.845ZM223.437 269.143C222.988 269.143 222.583 269.063 222.223 268.903C221.866 268.74 221.583 268.5 221.374 268.183C221.167 267.866 221.064 267.475 221.064 267.01C221.064 266.61 221.138 266.279 221.286 266.018C221.434 265.756 221.635 265.547 221.891 265.39C222.146 265.233 222.434 265.114 222.754 265.034C223.077 264.951 223.411 264.891 223.756 264.854C224.171 264.811 224.508 264.773 224.767 264.739C225.025 264.702 225.213 264.647 225.33 264.573C225.45 264.496 225.51 264.377 225.51 264.217V264.19C225.51 263.842 225.407 263.573 225.201 263.382C224.995 263.191 224.698 263.096 224.31 263.096C223.9 263.096 223.576 263.185 223.336 263.363C223.099 263.542 222.939 263.753 222.856 263.996L221.295 263.774C221.418 263.343 221.621 262.983 221.905 262.694C222.188 262.402 222.534 262.183 222.943 262.038C223.353 261.891 223.805 261.817 224.301 261.817C224.642 261.817 224.982 261.857 225.321 261.937C225.659 262.017 225.969 262.149 226.249 262.334C226.529 262.515 226.753 262.763 226.923 263.077C227.095 263.391 227.181 263.783 227.181 264.254V269H225.575V268.026H225.519C225.418 268.223 225.275 268.408 225.09 268.58C224.908 268.749 224.679 268.886 224.402 268.991C224.128 269.092 223.807 269.143 223.437 269.143ZM223.871 267.915C224.207 267.915 224.497 267.849 224.744 267.717C224.99 267.581 225.179 267.403 225.312 267.181C225.447 266.96 225.515 266.718 225.515 266.456V265.621C225.462 265.664 225.373 265.704 225.247 265.741C225.124 265.778 224.985 265.81 224.831 265.838C224.678 265.865 224.525 265.89 224.374 265.912C224.224 265.933 224.093 265.952 223.982 265.967C223.733 266.001 223.51 266.056 223.313 266.133C223.116 266.21 222.96 266.318 222.846 266.456C222.732 266.592 222.676 266.767 222.676 266.983C222.676 267.29 222.788 267.523 223.013 267.68C223.237 267.837 223.523 267.915 223.871 267.915ZM234.941 261.909L232.416 269H230.57L228.044 261.909H229.826L231.456 267.176H231.53L233.164 261.909H234.941ZM236.172 269V259.545H237.884V267.564H242.049V269H236.172ZM246.554 269.138C245.862 269.138 245.262 268.986 244.754 268.681C244.246 268.377 243.852 267.951 243.572 267.403C243.295 266.855 243.157 266.215 243.157 265.482C243.157 264.75 243.295 264.108 243.572 263.557C243.852 263.006 244.246 262.578 244.754 262.274C245.262 261.969 245.862 261.817 246.554 261.817C247.247 261.817 247.847 261.969 248.355 262.274C248.862 262.578 249.255 263.006 249.532 263.557C249.812 264.108 249.952 264.75 249.952 265.482C249.952 266.215 249.812 266.855 249.532 267.403C249.255 267.951 248.862 268.377 248.355 268.681C247.847 268.986 247.247 269.138 246.554 269.138ZM246.563 267.8C246.939 267.8 247.253 267.697 247.505 267.49C247.758 267.281 247.945 267.001 248.068 266.65C248.195 266.299 248.258 265.908 248.258 265.478C248.258 265.044 248.195 264.651 248.068 264.3C247.945 263.946 247.758 263.665 247.505 263.456C247.253 263.246 246.939 263.142 246.563 263.142C246.179 263.142 245.859 263.246 245.603 263.456C245.351 263.665 245.162 263.946 245.035 264.3C244.912 264.651 244.851 265.044 244.851 265.478C244.851 265.908 244.912 266.299 245.035 266.65C245.162 267.001 245.351 267.281 245.603 267.49C245.859 267.697 246.179 267.8 246.563 267.8ZM254.454 271.807C253.854 271.807 253.339 271.725 252.908 271.562C252.477 271.402 252.131 271.187 251.869 270.916C251.607 270.645 251.426 270.345 251.324 270.016L252.829 269.651C252.897 269.789 252.995 269.926 253.125 270.062C253.254 270.2 253.428 270.314 253.646 270.403C253.868 270.496 254.146 270.542 254.482 270.542C254.956 270.542 255.348 270.426 255.659 270.196C255.97 269.968 256.125 269.592 256.125 269.069V267.726H256.042C255.956 267.898 255.83 268.075 255.664 268.257C255.501 268.438 255.284 268.591 255.013 268.714C254.745 268.837 254.408 268.898 254.002 268.898C253.457 268.898 252.963 268.771 252.52 268.515C252.08 268.257 251.729 267.872 251.467 267.361C251.209 266.847 251.08 266.204 251.08 265.431C251.08 264.653 251.209 263.996 251.467 263.46C251.729 262.922 252.081 262.514 252.525 262.237C252.968 261.957 253.462 261.817 254.006 261.817C254.422 261.817 254.763 261.888 255.031 262.029C255.302 262.168 255.518 262.335 255.678 262.532C255.838 262.726 255.959 262.909 256.042 263.082H256.135V261.909H257.783V269.115C257.783 269.722 257.638 270.223 257.349 270.62C257.059 271.017 256.664 271.314 256.162 271.511C255.661 271.708 255.091 271.807 254.454 271.807ZM254.468 267.587C254.822 267.587 255.124 267.501 255.373 267.329C255.622 267.156 255.811 266.909 255.941 266.586C256.07 266.262 256.135 265.875 256.135 265.422C256.135 264.976 256.07 264.585 255.941 264.25C255.815 263.914 255.627 263.654 255.377 263.469C255.131 263.282 254.828 263.188 254.468 263.188C254.096 263.188 253.785 263.285 253.536 263.479C253.286 263.673 253.098 263.939 252.972 264.277C252.846 264.613 252.783 264.994 252.783 265.422C252.783 265.856 252.846 266.236 252.972 266.562C253.102 266.886 253.291 267.138 253.54 267.32C253.792 267.498 254.102 267.587 254.468 267.587ZM262.588 269.138C261.896 269.138 261.296 268.986 260.788 268.681C260.28 268.377 259.886 267.951 259.606 267.403C259.329 266.855 259.191 266.215 259.191 265.482C259.191 264.75 259.329 264.108 259.606 263.557C259.886 263.006 260.28 262.578 260.788 262.274C261.296 261.969 261.896 261.817 262.588 261.817C263.281 261.817 263.881 261.969 264.389 262.274C264.897 262.578 265.289 263.006 265.566 263.557C265.846 264.108 265.986 264.75 265.986 265.482C265.986 266.215 265.846 266.855 265.566 267.403C265.289 267.951 264.897 268.377 264.389 268.681C263.881 268.986 263.281 269.138 262.588 269.138ZM262.598 267.8C262.973 267.8 263.287 267.697 263.539 267.49C263.792 267.281 263.98 267.001 264.103 266.65C264.229 266.299 264.292 265.908 264.292 265.478C264.292 265.044 264.229 264.651 264.103 264.3C263.98 263.946 263.792 263.665 263.539 263.456C263.287 263.246 262.973 263.142 262.598 263.142C262.213 263.142 261.893 263.246 261.637 263.456C261.385 263.665 261.196 263.946 261.07 264.3C260.946 264.651 260.885 265.044 260.885 265.478C260.885 265.908 260.946 266.299 261.07 266.65C261.196 267.001 261.385 267.281 261.637 267.49C261.893 267.697 262.213 267.8 262.598 267.8Z" fill="black"/>
<g filter="url(#filter0_d_2_1806)">
<rect width="902" height="64" transform="translate(110 130)" fill="white"/>
<path fill-rule="evenodd" clip-rule="evenodd" d="M337.212 155.126L331.391 158.765C331.148 158.917 331 159.183 331 159.47V168.989C331 169.448 331.372 169.821 331.832 169.821H335.99V166.494C335.99 165.576 336.735 164.831 337.653 164.831C338.572 164.831 339.317 165.576 339.317 166.494V169.821H343.475C343.934 169.821 344.307 169.448 344.307 168.989V159.47C344.307 159.183 344.159 158.917 343.916 158.765L338.094 155.126C337.824 154.958 337.482 154.958 337.212 155.126Z" fill="#5D50E6"/>
<path fill-rule="evenodd" clip-rule="evenodd" d="M336.212 155.126L330.391 158.765C330.148 158.917 330 159.183 330 159.47V168.989C330 169.448 330.372 169.821 330.832 169.821H334.99V166.494C334.99 165.576 335.735 164.831 336.653 164.831C337.572 164.831 338.317 165.576 338.317 166.494V169.821H342.475C342.934 169.821 343.307 169.448 343.307 168.989V159.47C343.307 159.183 343.159 158.917 342.916 158.765L337.094 155.126C336.824 154.958 336.482 154.958 336.212 155.126Z" fill="#796DF3"/>
<path d="M358.255 167V156.091H360.231V160.709H365.286V156.091H367.268V167H365.286V162.366H360.231V167H358.255ZM372.901 167.16C372.102 167.16 371.409 166.984 370.824 166.632C370.238 166.281 369.783 165.789 369.46 165.157C369.14 164.525 368.981 163.786 368.981 162.941C368.981 162.096 369.14 161.355 369.46 160.72C369.783 160.084 370.238 159.591 370.824 159.239C371.409 158.887 372.102 158.712 372.901 158.712C373.7 158.712 374.392 158.887 374.978 159.239C375.564 159.591 376.017 160.084 376.337 160.72C376.66 161.355 376.821 162.096 376.821 162.941C376.821 163.786 376.66 164.525 376.337 165.157C376.017 165.789 375.564 166.281 374.978 166.632C374.392 166.984 373.7 167.16 372.901 167.16ZM372.912 165.615C373.345 165.615 373.707 165.496 373.998 165.258C374.289 165.017 374.506 164.694 374.648 164.289C374.794 163.884 374.867 163.433 374.867 162.936C374.867 162.435 374.794 161.982 374.648 161.577C374.506 161.169 374.289 160.844 373.998 160.603C373.707 160.361 373.345 160.24 372.912 160.24C372.468 160.24 372.098 160.361 371.804 160.603C371.512 160.844 371.294 161.169 371.148 161.577C371.006 161.982 370.935 162.435 370.935 162.936C370.935 163.433 371.006 163.884 371.148 164.289C371.294 164.694 371.512 165.017 371.804 165.258C372.098 165.496 372.468 165.615 372.912 165.615ZM378.458 167V158.818H380.301V160.208H380.397C380.567 159.74 380.85 159.374 381.244 159.111C381.638 158.845 382.109 158.712 382.655 158.712C383.209 158.712 383.676 158.847 384.056 159.116C384.44 159.383 384.71 159.747 384.866 160.208H384.951C385.132 159.754 385.438 159.392 385.867 159.122C386.301 158.848 386.814 158.712 387.407 158.712C388.16 158.712 388.774 158.95 389.25 159.425C389.726 159.901 389.964 160.596 389.964 161.508V167H388.03V161.806C388.03 161.299 387.895 160.928 387.625 160.693C387.355 160.455 387.025 160.336 386.635 160.336C386.169 160.336 385.805 160.482 385.543 160.773C385.283 161.061 385.154 161.435 385.154 161.897V167H383.263V161.727C383.263 161.304 383.135 160.967 382.879 160.714C382.627 160.462 382.297 160.336 381.888 160.336C381.611 160.336 381.359 160.407 381.132 160.549C380.905 160.688 380.724 160.885 380.589 161.141C380.454 161.393 380.386 161.687 380.386 162.025V167H378.458ZM395.542 167.16C394.722 167.16 394.013 166.989 393.417 166.648C392.824 166.304 392.367 165.817 392.048 165.189C391.728 164.557 391.568 163.813 391.568 162.957C391.568 162.115 391.728 161.377 392.048 160.741C392.371 160.102 392.822 159.605 393.401 159.25C393.98 158.891 394.66 158.712 395.441 158.712C395.945 158.712 396.421 158.793 396.868 158.957C397.319 159.116 397.717 159.365 398.062 159.702C398.41 160.04 398.683 160.469 398.882 160.991C399.081 161.51 399.18 162.128 399.18 162.845V163.436H392.474V162.137H397.332C397.328 161.767 397.248 161.439 397.092 161.151C396.936 160.86 396.718 160.631 396.437 160.464C396.16 160.297 395.837 160.214 395.468 160.214C395.073 160.214 394.727 160.31 394.429 160.501C394.131 160.69 393.898 160.938 393.731 161.247C393.568 161.553 393.484 161.888 393.481 162.254V163.388C393.481 163.864 393.568 164.273 393.742 164.614C393.916 164.951 394.159 165.21 394.471 165.391C394.784 165.569 395.15 165.658 395.569 165.658C395.849 165.658 396.103 165.619 396.33 165.54C396.558 165.459 396.755 165.34 396.922 165.184C397.089 165.027 397.215 164.834 397.3 164.603L399.1 164.805C398.987 165.281 398.77 165.697 398.451 166.052C398.134 166.403 397.73 166.677 397.236 166.872C396.742 167.064 396.178 167.16 395.542 167.16Z" fill="#394756"/>
<path fill-rule="evenodd" clip-rule="evenodd" d="M460.333 160.438C459.695 160.156 458.991 160 458.25 160C455.803 160 453.759 161.702 453.17 164C453.059 164.434 453 164.89 453 165.359C453 165.468 453.003 165.576 453.009 165.684L451.64 166L447.306 165L443 166V154L447.306 153L451.64 154L455.973 153L460.333 154V160.438Z" fill="#796DF3"/>
<path d="M447.329 165L443.022 166V154L447.329 153V165Z" fill="#5D50E6"/>
<path fill-rule="evenodd" clip-rule="evenodd" d="M455.973 153L455.973 153L456 160.5L455.993 160.518C454.61 161.191 453.564 162.462 453.17 164C453.059 164.434 453 164.89 453 165.359C453 165.468 453.003 165.576 453.009 165.684L451.667 165.994V154L455.973 153Z" fill="#5D50E6"/>
<path d="M458.075 161.4C456.038 161.4 454.4 163.084 454.4 165.151C454.4 168.306 458.075 171.2 458.075 171.2C458.075 171.2 461.75 168.306 461.75 165.151C461.75 163.084 460.111 161.4 458.075 161.4ZM458.075 166.637C457.263 166.637 456.605 165.963 456.605 165.136C456.605 164.309 457.263 163.636 458.075 163.636C458.886 163.636 459.545 164.309 459.545 165.136C459.545 165.963 458.886 166.637 458.075 166.637Z" fill="#5D50E6"/>
<path d="M473.576 167V156.091H475.552V165.343H480.356V167H473.576ZM485.555 167.16C484.756 167.16 484.064 166.984 483.478 166.632C482.892 166.281 482.437 165.789 482.114 165.157C481.795 164.525 481.635 163.786 481.635 162.941C481.635 162.096 481.795 161.355 482.114 160.72C482.437 160.084 482.892 159.591 483.478 159.239C484.064 158.887 484.756 158.712 485.555 158.712C486.354 158.712 487.047 158.887 487.633 159.239C488.219 159.591 488.671 160.084 488.991 160.72C489.314 161.355 489.476 162.096 489.476 162.941C489.476 163.786 489.314 164.525 488.991 165.157C488.671 165.789 488.219 166.281 487.633 166.632C487.047 166.984 486.354 167.16 485.555 167.16ZM485.566 165.615C485.999 165.615 486.361 165.496 486.653 165.258C486.944 165.017 487.16 164.694 487.302 164.289C487.448 163.884 487.521 163.433 487.521 162.936C487.521 162.435 487.448 161.982 487.302 161.577C487.16 161.169 486.944 160.844 486.653 160.603C486.361 160.361 485.999 160.24 485.566 160.24C485.122 160.24 484.753 160.361 484.458 160.603C484.167 160.844 483.948 161.169 483.803 161.577C483.661 161.982 483.59 162.435 483.59 162.936C483.59 163.433 483.661 163.884 483.803 164.289C483.948 164.694 484.167 165.017 484.458 165.258C484.753 165.496 485.122 165.615 485.566 165.615ZM494.681 167.16C493.864 167.16 493.163 166.98 492.577 166.622C491.995 166.263 491.546 165.768 491.23 165.136C490.917 164.5 490.761 163.768 490.761 162.941C490.761 162.11 490.921 161.377 491.24 160.741C491.56 160.102 492.011 159.605 492.593 159.25C493.179 158.891 493.872 158.712 494.671 158.712C495.335 158.712 495.922 158.834 496.434 159.079C496.949 159.321 497.359 159.663 497.664 160.107C497.97 160.548 498.144 161.062 498.186 161.652H496.343C496.269 161.258 496.091 160.929 495.811 160.667C495.534 160.4 495.162 160.267 494.697 160.267C494.303 160.267 493.957 160.374 493.659 160.587C493.36 160.796 493.128 161.098 492.961 161.492C492.797 161.886 492.716 162.359 492.716 162.909C492.716 163.467 492.797 163.946 492.961 164.347C493.124 164.745 493.353 165.052 493.648 165.269C493.946 165.482 494.296 165.588 494.697 165.588C494.981 165.588 495.235 165.535 495.459 165.429C495.686 165.319 495.876 165.161 496.029 164.955C496.182 164.749 496.286 164.498 496.343 164.203H498.186C498.14 164.782 497.97 165.295 497.675 165.743C497.38 166.187 496.979 166.535 496.471 166.787C495.963 167.036 495.367 167.16 494.681 167.16ZM502.124 167.165C501.606 167.165 501.139 167.073 500.723 166.888C500.311 166.7 499.984 166.423 499.743 166.057C499.505 165.691 499.386 165.24 499.386 164.704C499.386 164.243 499.471 163.861 499.642 163.559C499.812 163.257 500.045 163.016 500.34 162.835C500.634 162.653 500.966 162.517 501.336 162.424C501.708 162.328 502.094 162.259 502.492 162.217C502.971 162.167 503.36 162.123 503.658 162.083C503.956 162.041 504.173 161.977 504.308 161.892C504.446 161.803 504.516 161.666 504.516 161.482V161.45C504.516 161.048 504.397 160.738 504.159 160.517C503.921 160.297 503.578 160.187 503.131 160.187C502.658 160.187 502.284 160.29 502.007 160.496C501.733 160.702 501.549 160.945 501.453 161.226L499.652 160.97C499.794 160.473 500.029 160.058 500.356 159.724C500.682 159.386 501.082 159.134 501.554 158.967C502.026 158.797 502.548 158.712 503.12 158.712C503.514 158.712 503.907 158.758 504.297 158.85C504.688 158.942 505.045 159.095 505.368 159.308C505.691 159.518 505.95 159.804 506.146 160.166C506.345 160.528 506.444 160.981 506.444 161.524V167H504.59V165.876H504.526C504.409 166.103 504.244 166.316 504.031 166.515C503.821 166.711 503.557 166.869 503.237 166.989C502.921 167.107 502.55 167.165 502.124 167.165ZM502.625 165.748C503.012 165.748 503.347 165.672 503.631 165.519C503.916 165.363 504.134 165.157 504.287 164.901C504.443 164.646 504.521 164.367 504.521 164.065V163.101C504.461 163.151 504.358 163.197 504.212 163.239C504.07 163.282 503.91 163.319 503.733 163.351C503.555 163.383 503.379 163.412 503.205 163.436C503.031 163.461 502.88 163.483 502.753 163.5C502.465 163.539 502.207 163.603 501.98 163.692C501.753 163.781 501.574 163.905 501.442 164.065C501.311 164.221 501.245 164.424 501.245 164.672C501.245 165.027 501.375 165.295 501.634 165.477C501.893 165.658 502.223 165.748 502.625 165.748ZM512.468 158.818V160.31H507.765V158.818H512.468ZM508.926 156.858H510.854V164.539C510.854 164.798 510.894 164.997 510.972 165.136C511.053 165.271 511.16 165.363 511.291 165.413C511.423 165.462 511.568 165.487 511.728 165.487C511.849 165.487 511.959 165.478 512.058 165.461C512.161 165.443 512.239 165.427 512.293 165.413L512.618 166.92C512.515 166.956 512.367 166.995 512.175 167.037C511.987 167.08 511.756 167.105 511.483 167.112C511 167.126 510.565 167.053 510.178 166.893C509.791 166.73 509.484 166.478 509.256 166.137C509.033 165.796 508.923 165.37 508.926 164.859V156.858ZM514.081 167V158.818H516.009V167H514.081ZM515.051 157.657C514.745 157.657 514.482 157.556 514.262 157.353C514.042 157.147 513.932 156.901 513.932 156.613C513.932 156.322 514.042 156.075 514.262 155.873C514.482 155.667 514.745 155.564 515.051 155.564C515.36 155.564 515.622 155.667 515.839 155.873C516.059 156.075 516.169 156.322 516.169 156.613C516.169 156.901 516.059 157.147 515.839 157.353C515.622 157.556 515.36 157.657 515.051 157.657ZM521.561 167.16C520.762 167.16 520.07 166.984 519.484 166.632C518.898 166.281 518.443 165.789 518.12 165.157C517.8 164.525 517.641 163.786 517.641 162.941C517.641 162.096 517.8 161.355 518.12 160.72C518.443 160.084 518.898 159.591 519.484 159.239C520.07 158.887 520.762 158.712 521.561 158.712C522.36 158.712 523.053 158.887 523.639 159.239C524.224 159.591 524.677 160.084 524.997 160.72C525.32 161.355 525.482 162.096 525.482 162.941C525.482 163.786 525.32 164.525 524.997 165.157C524.677 165.789 524.224 166.281 523.639 166.632C523.053 166.984 522.36 167.16 521.561 167.16ZM521.572 165.615C522.005 165.615 522.367 165.496 522.658 165.258C522.95 165.017 523.166 164.694 523.308 164.289C523.454 163.884 523.527 163.433 523.527 162.936C523.527 162.435 523.454 161.982 523.308 161.577C523.166 161.169 522.95 160.844 522.658 160.603C522.367 160.361 522.005 160.24 521.572 160.24C521.128 160.24 520.759 160.361 520.464 160.603C520.173 160.844 519.954 161.169 519.809 161.577C519.667 161.982 519.596 162.435 519.596 162.936C519.596 163.433 519.667 163.884 519.809 164.289C519.954 164.694 520.173 165.017 520.464 165.258C520.759 165.496 521.128 165.615 521.572 165.615ZM529.046 162.206V167H527.118V158.818H528.961V160.208H529.057C529.245 159.75 529.545 159.386 529.957 159.116C530.373 158.847 530.886 158.712 531.497 158.712C532.061 158.712 532.553 158.832 532.972 159.074C533.395 159.315 533.722 159.665 533.952 160.123C534.187 160.581 534.302 161.137 534.299 161.79V167H532.37V162.089C532.37 161.542 532.228 161.114 531.944 160.805C531.664 160.496 531.275 160.342 530.778 160.342C530.44 160.342 530.14 160.416 529.877 160.565C529.618 160.711 529.414 160.922 529.265 161.199C529.119 161.476 529.046 161.812 529.046 162.206ZM542.725 160.981L540.968 161.173C540.918 160.995 540.831 160.828 540.707 160.672C540.586 160.516 540.423 160.39 540.217 160.294C540.011 160.198 539.758 160.15 539.46 160.15C539.059 160.15 538.722 160.237 538.448 160.411C538.178 160.585 538.045 160.81 538.049 161.087C538.045 161.325 538.132 161.519 538.31 161.668C538.491 161.817 538.789 161.94 539.205 162.036L540.6 162.334C541.374 162.501 541.95 162.765 542.326 163.127C542.706 163.49 542.898 163.964 542.901 164.55C542.898 165.065 542.747 165.519 542.448 165.913C542.154 166.304 541.744 166.609 541.218 166.83C540.692 167.05 540.089 167.16 539.407 167.16C538.405 167.16 537.599 166.95 536.989 166.531C536.378 166.109 536.014 165.521 535.897 164.768L537.777 164.587C537.862 164.956 538.043 165.235 538.32 165.423C538.597 165.612 538.958 165.706 539.402 165.706C539.86 165.706 540.227 165.612 540.504 165.423C540.785 165.235 540.925 165.002 540.925 164.725C540.925 164.491 540.834 164.298 540.653 164.145C540.476 163.992 540.199 163.875 539.822 163.793L538.427 163.5C537.642 163.337 537.061 163.062 536.685 162.675C536.309 162.284 536.122 161.79 536.126 161.194C536.122 160.69 536.259 160.253 536.536 159.884C536.816 159.511 537.205 159.223 537.702 159.021C538.203 158.815 538.78 158.712 539.434 158.712C540.392 158.712 541.147 158.916 541.697 159.324C542.251 159.733 542.594 160.285 542.725 160.981Z" fill="#382CDD"/>
<rect x="432" y="192" width="120" height="2" fill="#382CDD"/>
<path d="M169.501 170.862V152.446H173.438V167.637H180.97V170.862H169.501Z" fill="#1D1E22"/>
<path d="M194.903 170.862H184.209V152.446H194.903V155.646H188.146V159.689H194.433V162.889H188.146V167.637H194.903V170.862Z" fill="#1D1E22"/>
<path d="M209.382 152.446H213.358L207.045 170.862H202.752L196.453 152.446H200.428L203.921 163.405C204.116 164.052 204.315 164.807 204.518 165.672C204.729 166.529 204.861 167.125 204.912 167.461C205.005 166.688 205.322 165.336 205.864 163.405L209.382 152.446Z" fill="#1D1E22"/>
<path d="M226.402 170.862H215.707V152.446H226.402V155.646H219.645V159.689H225.932V162.889H219.645V167.637H226.402V170.862Z" fill="#1D1E22"/>
<path d="M234.226 160.621H235.496C236.74 160.621 237.659 160.415 238.252 160.004C238.845 159.593 239.141 158.946 239.141 158.064C239.141 157.191 238.836 156.569 238.226 156.2C237.625 155.83 236.69 155.646 235.419 155.646H234.226V160.621ZM234.226 163.795V170.862H230.288V152.446H235.699C238.222 152.446 240.089 152.904 241.3 153.819C242.511 154.726 243.116 156.108 243.116 157.963C243.116 159.047 242.816 160.012 242.215 160.861C241.613 161.7 240.762 162.359 239.662 162.838C242.456 166.978 244.276 169.653 245.123 170.862H240.754L236.321 163.795H234.226Z" fill="#1D1E22"/>
<path d="M258.154 170.862H247.46V152.446H258.154V155.646H251.397V159.689H257.684V162.889H251.397V167.637H258.154V170.862Z" fill="#1D1E22"/>
<path d="M269.09 160.52H276.457V170.068C275.263 170.455 274.137 170.723 273.078 170.874C272.028 171.034 270.953 171.114 269.852 171.114C267.049 171.114 264.907 170.299 263.425 168.67C261.952 167.033 261.215 164.686 261.215 161.629C261.215 158.656 262.071 156.339 263.781 154.676C265.5 153.013 267.879 152.182 270.919 152.182C272.824 152.182 274.662 152.56 276.431 153.315L275.123 156.439C273.768 155.768 272.358 155.432 270.894 155.432C269.192 155.432 267.828 155.998 266.804 157.132C265.779 158.266 265.267 159.79 265.267 161.704C265.267 163.703 265.678 165.231 266.499 166.289C267.329 167.339 268.531 167.864 270.106 167.864C270.927 167.864 271.761 167.78 272.608 167.612V163.77H269.09V160.52Z" fill="#1D1E22"/>
<path d="M291.584 170.862H280.889V152.446H291.584V155.646H284.827V159.689H291.114V162.889H284.827V167.637H291.584V170.862Z" fill="#1D1E22"/>
<path d="M151.232 163.444L147.33 159.897L157.735 150.545L151.232 163.444Z" fill="#2FD9D9"/>
<path d="M146.029 172.473L150.582 164.734L135.3 150.545L146.029 172.473Z" fill="#3D2EDF"/>
<path d="M147.005 170.86L135.3 150.545L146.029 172.473L147.005 170.86Z" fill="#161B8B"/>
<mask id="path-19-inside-1_2_1806" fill="white">
<rect x="120" y="138" width="190" height="46" rx="2"/>
</mask>
<rect x="120" y="138" width="190" height="46" rx="2" stroke="#F2CD72" stroke-width="6" mask="url(#path-19-inside-1_2_1806)"/>
</g>
<path d="M212.939 227.061C213.525 227.646 214.475 227.646 215.061 227.061L224.607 217.515C225.192 216.929 225.192 215.979 224.607 215.393C224.021 214.808 223.071 214.808 222.485 215.393L214 223.879L205.515 215.393C204.929 214.808 203.979 214.808 203.393 215.393C202.808 215.979 202.808 216.929 203.393 217.515L212.939 227.061ZM215.5 226V184H212.5V226H215.5Z" fill="#E4BE21"/>
</g>
<defs>
<filter id="filter0_d_2_1806" x="100" y="122" width="1862" height="84" filterUnits="userSpaceOnUse" color-interpolation-filters="sRGB">
<feFlood flood-opacity="0" result="BackgroundImageFix"/>
<feColorMatrix in="SourceAlpha" type="matrix" values="0 0 0 0 0 0 0 0 0 0 0 0 0 0 0 0 0 0 127 0" result="hardAlpha"/>
<feOffset dy="2"/>
<feGaussianBlur stdDeviation="5"/>
<feColorMatrix type="matrix" values="0 0 0 0 0 0 0 0 0 0 0 0 0 0 0 0 0 0 0.05 0"/>
<feBlend mode="normal" in2="BackgroundImageFix" result="effect1_dropShadow_2_1806"/>
<feBlend mode="normal" in="SourceGraphic" in2="effect1_dropShadow_2_1806" result="shape"/>
</filter>
<clipPath id="clip0_2_1806">
<rect width="1122" height="318" rx="24" fill="white"/>
</clipPath>
</defs>
</svg>
