<svg width="1122" height="325" viewBox="0 0 1122 325" fill="none" xmlns="http://www.w3.org/2000/svg">
<rect width="1122" height="325" rx="24" fill="#EBF1FD"/>
<path d="M64.3239 63.7102C64.2784 63.2519 64.0833 62.8958 63.7386 62.642C63.3939 62.3883 62.9261 62.2614 62.3352 62.2614C61.9337 62.2614 61.5947 62.3182 61.3182 62.4318C61.0417 62.5417 60.8295 62.6951 60.6818 62.892C60.5379 63.089 60.4659 63.3125 60.4659 63.5625C60.4583 63.7708 60.5019 63.9527 60.5966 64.108C60.6951 64.2633 60.8295 64.3977 61 64.5114C61.1705 64.6212 61.3674 64.7178 61.5909 64.8011C61.8144 64.8807 62.053 64.9489 62.3068 65.0057L63.3523 65.2557C63.8598 65.3693 64.3258 65.5208 64.75 65.7102C65.1742 65.8996 65.5417 66.1326 65.8523 66.4091C66.1629 66.6856 66.4034 67.0114 66.5739 67.3864C66.7481 67.7614 66.8371 68.1913 66.8409 68.6761C66.8371 69.3883 66.6553 70.0057 66.2955 70.5284C65.9394 71.0473 65.4242 71.4508 64.75 71.7386C64.0795 72.0227 63.2708 72.1648 62.3239 72.1648C61.3845 72.1648 60.5663 72.0208 59.8693 71.733C59.1761 71.4451 58.6345 71.0189 58.2443 70.4545C57.858 69.8864 57.6553 69.1837 57.6364 68.3466H60.017C60.0436 68.7367 60.1553 69.0625 60.3523 69.3239C60.553 69.5814 60.8201 69.7765 61.1534 69.9091C61.4905 70.0379 61.8712 70.1023 62.2955 70.1023C62.7121 70.1023 63.0739 70.0417 63.3807 69.9205C63.6913 69.7992 63.9318 69.6307 64.1023 69.4148C64.2727 69.1989 64.358 68.9508 64.358 68.6705C64.358 68.4091 64.2803 68.1894 64.125 68.0114C63.9735 67.8333 63.75 67.6818 63.4545 67.5568C63.1629 67.4318 62.8049 67.3182 62.3807 67.2159L61.1136 66.8977C60.1326 66.6591 59.358 66.286 58.7898 65.7784C58.2216 65.2708 57.9394 64.5871 57.9432 63.7273C57.9394 63.0227 58.1269 62.4072 58.5057 61.8807C58.8883 61.3542 59.4129 60.9432 60.0795 60.6477C60.7462 60.3523 61.5038 60.2045 62.3523 60.2045C63.2159 60.2045 63.9697 60.3523 64.6136 60.6477C65.2614 60.9432 65.7652 61.3542 66.125 61.8807C66.4848 62.4072 66.6705 63.017 66.6818 63.7102H64.3239ZM72.3935 72.1705C71.4995 72.1705 70.7306 71.9811 70.0866 71.6023C69.4465 71.2197 68.9541 70.6894 68.6094 70.0114C68.2685 69.3333 68.098 68.553 68.098 67.6705C68.098 66.7765 68.2704 65.9924 68.6151 65.3182C68.9635 64.6402 69.4579 64.1117 70.098 63.733C70.7382 63.3504 71.4995 63.1591 72.3821 63.1591C73.1435 63.1591 73.8101 63.2973 74.3821 63.5739C74.9541 63.8504 75.4067 64.2386 75.7401 64.7386C76.0734 65.2386 76.2571 65.8258 76.2912 66.5H74.0071C73.9427 66.0644 73.7723 65.714 73.4957 65.4489C73.223 65.1799 72.8651 65.0455 72.4219 65.0455C72.0469 65.0455 71.7192 65.1477 71.4389 65.3523C71.1624 65.553 70.9465 65.8466 70.7912 66.233C70.6359 66.6193 70.5582 67.0871 70.5582 67.6364C70.5582 68.1932 70.634 68.6667 70.7855 69.0568C70.9408 69.447 71.1586 69.7443 71.4389 69.9489C71.7192 70.1534 72.0469 70.2557 72.4219 70.2557C72.6984 70.2557 72.9465 70.1989 73.1662 70.0852C73.3897 69.9716 73.5734 69.8068 73.7173 69.5909C73.8651 69.3712 73.9616 69.108 74.0071 68.8011H76.2912C76.2533 69.4678 76.0715 70.0549 75.7457 70.5625C75.4238 71.0663 74.9787 71.4602 74.4105 71.7443C73.8423 72.0284 73.17 72.1705 72.3935 72.1705ZM77.8409 72V63.2727H80.1875V64.7955H80.2784C80.4375 64.2538 80.7045 63.8447 81.0795 63.5682C81.4545 63.2879 81.8864 63.1477 82.375 63.1477C82.4962 63.1477 82.6269 63.1553 82.767 63.1705C82.9072 63.1856 83.0303 63.2064 83.1364 63.233V65.3807C83.0227 65.3466 82.8655 65.3163 82.6648 65.2898C82.464 65.2633 82.2803 65.25 82.1136 65.25C81.7576 65.25 81.4394 65.3277 81.1591 65.483C80.8826 65.6345 80.6629 65.8466 80.5 66.1193C80.3409 66.392 80.2614 66.7064 80.2614 67.0625V72H77.8409ZM87.9588 72.1705C87.0611 72.1705 86.2884 71.9886 85.6406 71.625C84.9967 71.2576 84.5005 70.7386 84.152 70.0682C83.8035 69.3939 83.6293 68.5966 83.6293 67.6761C83.6293 66.7784 83.8035 65.9905 84.152 65.3125C84.5005 64.6345 84.991 64.1061 85.6236 63.7273C86.2599 63.3485 87.0062 63.1591 87.8622 63.1591C88.438 63.1591 88.974 63.2519 89.4702 63.4375C89.9702 63.6193 90.4058 63.8939 90.777 64.2614C91.152 64.6288 91.4437 65.0909 91.652 65.6477C91.8603 66.2008 91.9645 66.8485 91.9645 67.5909V68.2557H84.5952V66.7557H89.6861C89.6861 66.4072 89.6103 66.0985 89.4588 65.8295C89.3073 65.5606 89.0971 65.3504 88.8281 65.1989C88.563 65.0436 88.2543 64.9659 87.902 64.9659C87.5346 64.9659 87.2088 65.0511 86.9247 65.2216C86.6444 65.3883 86.4247 65.6136 86.2656 65.8977C86.1065 66.178 86.0251 66.4905 86.0213 66.8352V68.2614C86.0213 68.6932 86.1009 69.0663 86.2599 69.3807C86.4228 69.6951 86.652 69.9375 86.9474 70.108C87.2429 70.2784 87.5933 70.3636 87.9986 70.3636C88.2675 70.3636 88.5137 70.3258 88.7372 70.25C88.9607 70.1742 89.152 70.0606 89.3111 69.9091C89.4702 69.7576 89.5914 69.572 89.6747 69.3523L91.9134 69.5C91.7997 70.0379 91.5668 70.5076 91.2145 70.9091C90.866 71.3068 90.4152 71.6174 89.8622 71.8409C89.313 72.0606 88.6785 72.1705 87.9588 72.1705ZM97.5213 72.1705C96.6236 72.1705 95.8509 71.9886 95.2031 71.625C94.5592 71.2576 94.063 70.7386 93.7145 70.0682C93.366 69.3939 93.1918 68.5966 93.1918 67.6761C93.1918 66.7784 93.366 65.9905 93.7145 65.3125C94.063 64.6345 94.5535 64.1061 95.1861 63.7273C95.8224 63.3485 96.5687 63.1591 97.4247 63.1591C98.0005 63.1591 98.5365 63.2519 99.0327 63.4375C99.5327 63.6193 99.9683 63.8939 100.339 64.2614C100.714 64.6288 101.006 65.0909 101.214 65.6477C101.423 66.2008 101.527 66.8485 101.527 67.5909V68.2557H94.1577V66.7557H99.2486C99.2486 66.4072 99.1728 66.0985 99.0213 65.8295C98.8698 65.5606 98.6596 65.3504 98.3906 65.1989C98.1255 65.0436 97.8168 64.9659 97.4645 64.9659C97.0971 64.9659 96.7713 65.0511 96.4872 65.2216C96.2069 65.3883 95.9872 65.6136 95.8281 65.8977C95.669 66.178 95.5876 66.4905 95.5838 66.8352V68.2614C95.5838 68.6932 95.6634 69.0663 95.8224 69.3807C95.9853 69.6951 96.2145 69.9375 96.5099 70.108C96.8054 70.2784 97.1558 70.3636 97.5611 70.3636C97.83 70.3636 98.0762 70.3258 98.2997 70.25C98.5232 70.1742 98.7145 70.0606 98.8736 69.9091C99.0327 69.7576 99.1539 69.572 99.2372 69.3523L101.476 69.5C101.362 70.0379 101.129 70.5076 100.777 70.9091C100.429 71.3068 99.9777 71.6174 99.4247 71.8409C98.8755 72.0606 98.241 72.1705 97.5213 72.1705ZM105.527 66.9545V72H103.107V63.2727H105.413V64.8125H105.516C105.709 64.3049 106.033 63.9034 106.487 63.608C106.942 63.3087 107.493 63.1591 108.141 63.1591C108.747 63.1591 109.275 63.2917 109.726 63.5568C110.177 63.822 110.527 64.2008 110.777 64.6932C111.027 65.1818 111.152 65.7652 111.152 66.4432V72H108.732V66.875C108.735 66.3409 108.599 65.9242 108.322 65.625C108.046 65.322 107.665 65.1705 107.18 65.1705C106.855 65.1705 106.567 65.2405 106.317 65.3807C106.071 65.5208 105.877 65.7254 105.737 65.9943C105.601 66.2595 105.531 66.5795 105.527 66.9545ZM116.365 62.392V60.3636H125.922V62.392H122.359V72H119.928V62.392H116.365ZM127.45 72V63.2727H129.871V72H127.45ZM128.666 62.1477C128.306 62.1477 127.998 62.0284 127.74 61.7898C127.486 61.5473 127.359 61.2576 127.359 60.9205C127.359 60.5871 127.486 60.3011 127.74 60.0625C127.998 59.8201 128.306 59.6989 128.666 59.6989C129.026 59.6989 129.333 59.8201 129.587 60.0625C129.844 60.3011 129.973 60.5871 129.973 60.9205C129.973 61.2576 129.844 61.5473 129.587 61.7898C129.333 62.0284 129.026 62.1477 128.666 62.1477ZM136.452 63.2727V65.0909H131.196V63.2727H136.452ZM132.389 61.1818H134.81V69.3182C134.81 69.5417 134.844 69.7159 134.912 69.8409C134.98 69.9621 135.075 70.0473 135.196 70.0966C135.321 70.1458 135.465 70.1705 135.628 70.1705C135.741 70.1705 135.855 70.161 135.969 70.142C136.082 70.1193 136.17 70.1023 136.23 70.0909L136.611 71.892C136.49 71.9299 136.319 71.9735 136.099 72.0227C135.88 72.0758 135.613 72.108 135.298 72.1193C134.715 72.142 134.204 72.0644 133.764 71.8864C133.329 71.7083 132.99 71.4318 132.747 71.0568C132.505 70.6818 132.385 70.2083 132.389 69.6364V61.1818ZM140.636 60.3636V72H138.216V60.3636H140.636ZM146.553 72.1705C145.655 72.1705 144.882 71.9886 144.234 71.625C143.59 71.2576 143.094 70.7386 142.746 70.0682C142.397 69.3939 142.223 68.5966 142.223 67.6761C142.223 66.7784 142.397 65.9905 142.746 65.3125C143.094 64.6345 143.585 64.1061 144.217 63.7273C144.854 63.3485 145.6 63.1591 146.456 63.1591C147.032 63.1591 147.568 63.2519 148.064 63.4375C148.564 63.6193 149 63.8939 149.371 64.2614C149.746 64.6288 150.037 65.0909 150.246 65.6477C150.454 66.2008 150.558 66.8485 150.558 67.5909V68.2557H143.189V66.7557H148.28C148.28 66.4072 148.204 66.0985 148.053 65.8295C147.901 65.5606 147.691 65.3504 147.422 65.1989C147.157 65.0436 146.848 64.9659 146.496 64.9659C146.128 64.9659 145.803 65.0511 145.518 65.2216C145.238 65.3883 145.018 65.6136 144.859 65.8977C144.7 66.178 144.619 66.4905 144.615 66.8352V68.2614C144.615 68.6932 144.695 69.0663 144.854 69.3807C145.017 69.6951 145.246 69.9375 145.541 70.108C145.837 70.2784 146.187 70.3636 146.592 70.3636C146.861 70.3636 147.107 70.3258 147.331 70.25C147.554 70.1742 147.746 70.0606 147.905 69.9091C148.064 69.7576 148.185 69.572 148.268 69.3523L150.507 69.5C150.393 70.0379 150.161 70.5076 149.808 70.9091C149.46 71.3068 149.009 71.6174 148.456 71.8409C147.907 72.0606 147.272 72.1705 146.553 72.1705ZM158.347 60.3636V72H155.886V60.3636H158.347ZM164.268 72.1705C163.375 72.1705 162.606 71.9811 161.962 71.6023C161.321 71.2197 160.829 70.6894 160.484 70.0114C160.143 69.3333 159.973 68.553 159.973 67.6705C159.973 66.7765 160.145 65.9924 160.49 65.3182C160.839 64.6402 161.333 64.1117 161.973 63.733C162.613 63.3504 163.375 63.1591 164.257 63.1591C165.018 63.1591 165.685 63.2973 166.257 63.5739C166.829 63.8504 167.282 64.2386 167.615 64.7386C167.948 65.2386 168.132 65.8258 168.166 66.5H165.882C165.818 66.0644 165.647 65.714 165.371 65.4489C165.098 65.1799 164.74 65.0455 164.297 65.0455C163.922 65.0455 163.594 65.1477 163.314 65.3523C163.037 65.553 162.821 65.8466 162.666 66.233C162.511 66.6193 162.433 67.0871 162.433 67.6364C162.433 68.1932 162.509 68.6667 162.661 69.0568C162.816 69.447 163.034 69.7443 163.314 69.9489C163.594 70.1534 163.922 70.2557 164.297 70.2557C164.573 70.2557 164.821 70.1989 165.041 70.0852C165.265 69.9716 165.448 69.8068 165.592 69.5909C165.74 69.3712 165.837 69.108 165.882 68.8011H168.166C168.128 69.4678 167.946 70.0549 167.621 70.5625C167.299 71.0663 166.854 71.4602 166.286 71.7443C165.717 72.0284 165.045 72.1705 164.268 72.1705ZM173.659 72.1705C172.777 72.1705 172.013 71.983 171.369 71.608C170.729 71.2292 170.235 70.7027 169.886 70.0284C169.538 69.3504 169.364 68.5644 169.364 67.6705C169.364 66.7689 169.538 65.9811 169.886 65.3068C170.235 64.6288 170.729 64.1023 171.369 63.7273C172.013 63.3485 172.777 63.1591 173.659 63.1591C174.542 63.1591 175.303 63.3485 175.943 63.7273C176.587 64.1023 177.083 64.6288 177.432 65.3068C177.78 65.9811 177.955 66.7689 177.955 67.6705C177.955 68.5644 177.78 69.3504 177.432 70.0284C177.083 70.7027 176.587 71.2292 175.943 71.608C175.303 71.983 174.542 72.1705 173.659 72.1705ZM173.67 70.2955C174.072 70.2955 174.407 70.1818 174.676 69.9545C174.945 69.7235 175.148 69.4091 175.284 69.0114C175.424 68.6136 175.494 68.161 175.494 67.6534C175.494 67.1458 175.424 66.6932 175.284 66.2955C175.148 65.8977 174.945 65.5833 174.676 65.3523C174.407 65.1212 174.072 65.0057 173.67 65.0057C173.265 65.0057 172.924 65.1212 172.648 65.3523C172.375 65.5833 172.169 65.8977 172.028 66.2955C171.892 66.6932 171.824 67.1458 171.824 67.6534C171.824 68.161 171.892 68.6136 172.028 69.0114C172.169 69.4091 172.375 69.7235 172.648 69.9545C172.924 70.1818 173.265 70.2955 173.67 70.2955ZM181.949 66.9545V72H179.528V63.2727H181.835V64.8125H181.938C182.131 64.3049 182.455 63.9034 182.909 63.608C183.364 63.3087 183.915 63.1591 184.562 63.1591C185.169 63.1591 185.697 63.2917 186.148 63.5568C186.598 63.822 186.949 64.2008 187.199 64.6932C187.449 65.1818 187.574 65.7652 187.574 66.4432V72H185.153V66.875C185.157 66.3409 185.021 65.9242 184.744 65.625C184.468 65.322 184.087 65.1705 183.602 65.1705C183.277 65.1705 182.989 65.2405 182.739 65.3807C182.492 65.5208 182.299 65.7254 182.159 65.9943C182.023 66.2595 181.953 66.5795 181.949 66.9545Z" fill="black"/>
<g clip-path="url(#clip0_3718_3125)">
<rect width="608" height="72" transform="translate(55 134)" fill="white"/>
<line x1="55" y1="205.5" x2="1295" y2="205.5" stroke="#E7EAEF"/>
<path d="M93 182H73C71.9 182 71 181.1 71 180V160C71 158.9 71.9 158 73 158H93C94.1 158 95 158.9 95 160V180C95 181.1 94.1 182 93 182Z" fill="#DDF6F9"/>
<path d="M76.5512 170.976C76.3931 170.818 76.303 170.604 76.3003 170.38L76.2231 164.091C76.2172 163.609 76.6091 163.217 77.0907 163.223L83.3803 163.3C83.604 163.303 83.8177 163.393 83.9759 163.551L91.2888 170.864C91.4562 171.032 91.4562 171.303 91.2888 171.47L84.4703 178.289C84.3029 178.456 84.0316 178.456 83.8642 178.289L76.5512 170.976Z" fill="#37BDBE"/>
<path d="M81.2965 166.44C81.8092 166.953 81.8092 167.784 81.2965 168.297C80.7837 168.809 79.9524 168.809 79.4397 168.297C78.9269 167.784 78.9269 166.953 79.4397 166.44C79.9524 165.927 80.7837 165.927 81.2965 166.44Z" fill="#DBEDE7"/>
<path d="M106.394 177H103.428L107.947 163.909H111.514L116.027 177H113.061L109.782 166.901H109.68L106.394 177ZM106.209 171.854H113.214V174.015H106.209V171.854ZM125.492 169.982L122.999 170.135C122.956 169.922 122.865 169.73 122.724 169.56C122.584 169.385 122.398 169.246 122.168 169.144C121.942 169.038 121.672 168.984 121.356 168.984C120.934 168.984 120.579 169.074 120.289 169.253C119.999 169.428 119.854 169.662 119.854 169.956C119.854 170.19 119.948 170.388 120.135 170.55C120.323 170.712 120.645 170.842 121.101 170.94L122.878 171.298C123.832 171.494 124.544 171.81 125.013 172.244C125.481 172.679 125.716 173.25 125.716 173.957C125.716 174.601 125.526 175.165 125.147 175.651C124.772 176.137 124.256 176.516 123.6 176.789C122.948 177.058 122.196 177.192 121.344 177.192C120.044 177.192 119.008 176.921 118.237 176.38C117.47 175.835 117.02 175.093 116.888 174.156L119.567 174.015C119.648 174.411 119.844 174.714 120.155 174.923C120.466 175.127 120.864 175.229 121.35 175.229C121.827 175.229 122.211 175.138 122.501 174.955C122.795 174.767 122.944 174.526 122.948 174.232C122.944 173.985 122.839 173.783 122.635 173.625C122.43 173.463 122.115 173.339 121.689 173.254L119.988 172.915C119.03 172.724 118.316 172.391 117.847 171.918C117.383 171.445 117.15 170.842 117.15 170.109C117.15 169.479 117.321 168.935 117.662 168.479C118.007 168.023 118.491 167.672 119.113 167.425C119.739 167.178 120.472 167.054 121.312 167.054C122.552 167.054 123.528 167.316 124.239 167.84C124.955 168.364 125.373 169.078 125.492 169.982ZM135.599 169.982L133.107 170.135C133.064 169.922 132.972 169.73 132.832 169.56C132.691 169.385 132.506 169.246 132.276 169.144C132.05 169.038 131.779 168.984 131.464 168.984C131.042 168.984 130.686 169.074 130.396 169.253C130.107 169.428 129.962 169.662 129.962 169.956C129.962 170.19 130.055 170.388 130.243 170.55C130.43 170.712 130.752 170.842 131.208 170.94L132.985 171.298C133.94 171.494 134.651 171.81 135.12 172.244C135.589 172.679 135.823 173.25 135.823 173.957C135.823 174.601 135.634 175.165 135.254 175.651C134.879 176.137 134.364 176.516 133.707 176.789C133.055 177.058 132.303 177.192 131.451 177.192C130.151 177.192 129.116 176.921 128.344 176.38C127.577 175.835 127.128 175.093 126.996 174.156L129.674 174.015C129.755 174.411 129.951 174.714 130.262 174.923C130.573 175.127 130.972 175.229 131.457 175.229C131.935 175.229 132.318 175.138 132.608 174.955C132.902 174.767 133.051 174.526 133.055 174.232C133.051 173.985 132.947 173.783 132.742 173.625C132.538 173.463 132.222 173.339 131.796 173.254L130.096 172.915C129.137 172.724 128.423 172.391 127.955 171.918C127.49 171.445 127.258 170.842 127.258 170.109C127.258 169.479 127.428 168.935 127.769 168.479C128.114 168.023 128.598 167.672 129.22 167.425C129.847 167.178 130.58 167.054 131.419 167.054C132.659 167.054 133.635 167.316 134.347 167.84C135.063 168.364 135.48 169.078 135.599 169.982ZM142.012 177.192C141.002 177.192 140.133 176.987 139.404 176.578C138.68 176.165 138.122 175.581 137.73 174.827C137.338 174.068 137.142 173.171 137.142 172.136C137.142 171.126 137.338 170.239 137.73 169.477C138.122 168.714 138.673 168.119 139.385 167.693C140.101 167.267 140.941 167.054 141.904 167.054C142.551 167.054 143.154 167.158 143.713 167.367C144.275 167.572 144.765 167.881 145.183 168.294C145.605 168.707 145.933 169.227 146.167 169.854C146.401 170.476 146.519 171.205 146.519 172.04V172.788H138.228V171.1H143.955C143.955 170.708 143.87 170.361 143.7 170.058C143.529 169.756 143.293 169.519 142.99 169.349C142.692 169.174 142.345 169.087 141.948 169.087C141.535 169.087 141.169 169.183 140.849 169.374C140.534 169.562 140.286 169.815 140.107 170.135C139.928 170.45 139.837 170.802 139.833 171.19V172.794C139.833 173.28 139.922 173.7 140.101 174.053C140.284 174.407 140.542 174.68 140.874 174.871C141.207 175.063 141.601 175.159 142.057 175.159C142.36 175.159 142.637 175.116 142.888 175.031C143.139 174.946 143.355 174.818 143.534 174.648C143.713 174.477 143.849 174.268 143.943 174.021L146.461 174.188C146.333 174.793 146.071 175.321 145.675 175.773C145.283 176.22 144.776 176.57 144.154 176.821C143.536 177.068 142.822 177.192 142.012 177.192ZM153.518 167.182V169.227H147.605V167.182H153.518ZM148.948 164.83H151.671V173.983C151.671 174.234 151.709 174.43 151.786 174.571C151.862 174.707 151.969 174.803 152.105 174.859C152.246 174.914 152.408 174.942 152.591 174.942C152.719 174.942 152.847 174.931 152.975 174.91C153.102 174.884 153.2 174.865 153.269 174.852L153.697 176.879C153.561 176.921 153.369 176.97 153.122 177.026C152.874 177.085 152.574 177.121 152.22 177.134C151.564 177.16 150.989 177.072 150.494 176.872C150.004 176.672 149.623 176.361 149.35 175.939C149.078 175.517 148.943 174.984 148.948 174.341V164.83ZM163.338 169.982L160.845 170.135C160.802 169.922 160.711 169.73 160.57 169.56C160.429 169.385 160.244 169.246 160.014 169.144C159.788 169.038 159.517 168.984 159.202 168.984C158.78 168.984 158.424 169.074 158.135 169.253C157.845 169.428 157.7 169.662 157.7 169.956C157.7 170.19 157.794 170.388 157.981 170.55C158.169 170.712 158.49 170.842 158.946 170.94L160.723 171.298C161.678 171.494 162.39 171.81 162.858 172.244C163.327 172.679 163.561 173.25 163.561 173.957C163.561 174.601 163.372 175.165 162.993 175.651C162.618 176.137 162.102 176.516 161.446 176.789C160.794 177.058 160.042 177.192 159.189 177.192C157.89 177.192 156.854 176.921 156.083 176.38C155.316 175.835 154.866 175.093 154.734 174.156L157.412 174.015C157.493 174.411 157.689 174.714 158 174.923C158.311 175.127 158.71 175.229 159.196 175.229C159.673 175.229 160.056 175.138 160.346 174.955C160.64 174.767 160.789 174.526 160.794 174.232C160.789 173.985 160.685 173.783 160.48 173.625C160.276 173.463 159.961 173.339 159.534 173.254L157.834 172.915C156.875 172.724 156.162 172.391 155.693 171.918C155.228 171.445 154.996 170.842 154.996 170.109C154.996 169.479 155.167 168.935 155.507 168.479C155.853 168.023 156.336 167.672 156.958 167.425C157.585 167.178 158.318 167.054 159.157 167.054C160.397 167.054 161.373 167.316 162.085 167.84C162.801 168.364 163.218 169.078 163.338 169.982Z" fill="#394756"/>
<path fill-rule="evenodd" clip-rule="evenodd" d="M196.778 162.222C194.435 159.879 190.636 159.879 188.293 162.222L187.586 162.929C187.195 163.319 187.195 163.953 187.586 164.343C187.976 164.734 188.609 164.734 189 164.343L189.707 163.636C191.269 162.074 193.802 162.074 195.364 163.636C196.926 165.198 196.926 167.731 195.364 169.293L193.678 170.979C192.266 172.391 189.977 172.391 188.565 170.979L188.293 170.707C187.902 170.317 187.269 170.317 186.879 170.707C186.488 171.098 186.488 171.731 186.879 172.121L187.151 172.393C189.344 174.586 192.899 174.586 195.092 172.393L196.778 170.707C199.121 168.364 199.121 164.565 196.778 162.222ZM184.322 169.021C185.734 167.609 188.023 167.609 189.435 169.021L189.707 169.293C190.098 169.683 190.731 169.683 191.121 169.293C191.512 168.902 191.512 168.269 191.121 167.879L190.849 167.607C188.656 165.414 185.101 165.414 182.908 167.607L181.222 169.293C178.879 171.636 178.879 175.435 181.222 177.778C183.565 180.121 187.364 180.121 189.707 177.778L190.414 177.071C190.805 176.681 190.805 176.047 190.414 175.657C190.024 175.266 189.391 175.266 189 175.657L188.293 176.364C186.731 177.926 184.198 177.926 182.636 176.364C181.074 174.802 181.074 172.269 182.636 170.707L184.322 169.021Z" fill="#67798E"/>
<path fill-rule="evenodd" clip-rule="evenodd" d="M229 166C230.1 166 231 165.1 231 164C231 162.9 230.1 162 229 162C227.9 162 227 162.9 227 164C227 165.1 227.9 166 229 166ZM229 168C227.9 168 227 168.9 227 170C227 171.1 227.9 172 229 172C230.1 172 231 171.1 231 170C231 168.9 230.1 168 229 168ZM227 176C227 174.9 227.9 174 229 174C230.1 174 231 174.9 231 176C231 177.1 230.1 178 229 178C227.9 178 227 177.1 227 176Z" fill="#67798E"/>
</g>
<path d="M64.4631 252.783L62.9396 252.95C62.8965 252.796 62.8211 252.651 62.7134 252.516C62.6088 252.38 62.4672 252.271 62.2887 252.188C62.1102 252.105 61.8917 252.063 61.6332 252.063C61.2854 252.063 60.993 252.139 60.756 252.289C60.5221 252.44 60.4067 252.636 60.4098 252.876C60.4067 253.082 60.4821 253.25 60.636 253.379C60.793 253.508 61.0515 253.614 61.4116 253.697L62.6211 253.956C63.292 254.101 63.7906 254.33 64.1168 254.644C64.4461 254.958 64.6123 255.369 64.6154 255.876C64.6123 256.323 64.4815 256.717 64.223 257.058C63.9676 257.397 63.6121 257.661 63.1566 257.852C62.7011 258.043 62.1779 258.138 61.587 258.138C60.7191 258.138 60.0205 257.957 59.4911 257.594C58.9618 257.228 58.6463 256.718 58.5447 256.066L60.1744 255.909C60.2482 256.229 60.4052 256.47 60.6452 256.634C60.8853 256.797 61.1977 256.878 61.5824 256.878C61.9794 256.878 62.2979 256.797 62.538 256.634C62.7811 256.47 62.9027 256.269 62.9027 256.029C62.9027 255.826 62.8242 255.658 62.6673 255.526C62.5134 255.393 62.2733 255.292 61.9471 255.221L60.7376 254.967C60.0574 254.825 59.5542 254.587 59.228 254.251C58.9018 253.913 58.7402 253.485 58.7433 252.968C58.7402 252.531 58.8587 252.152 59.0987 251.832C59.3419 251.509 59.6789 251.26 60.1097 251.085C60.5437 250.906 61.0438 250.817 61.6101 250.817C62.4411 250.817 63.0951 250.994 63.5721 251.348C64.0522 251.702 64.3492 252.18 64.4631 252.783ZM69.0865 258.138C68.3786 258.138 67.7708 257.983 67.263 257.672C66.7582 257.361 66.3689 256.932 66.095 256.384C65.8242 255.833 65.6887 255.199 65.6887 254.482C65.6887 253.762 65.8272 253.127 66.1042 252.576C66.3812 252.022 66.7721 251.591 67.2768 251.283C67.7846 250.972 68.3848 250.817 69.0772 250.817C69.6528 250.817 70.1621 250.923 70.6053 251.135C71.0516 251.345 71.407 251.642 71.6717 252.026C71.9364 252.408 72.0872 252.854 72.1241 253.365H70.5268C70.4622 253.023 70.3083 252.739 70.0652 252.511C69.8251 252.28 69.5035 252.165 69.1003 252.165C68.7587 252.165 68.4586 252.257 68.2001 252.442C67.9416 252.623 67.74 252.885 67.5953 253.227C67.4538 253.568 67.383 253.978 67.383 254.455C67.383 254.938 67.4538 255.353 67.5953 255.701C67.7369 256.046 67.9354 256.312 68.1909 256.5C68.4494 256.684 68.7525 256.777 69.1003 256.777C69.3465 256.777 69.5666 256.73 69.7605 256.638C69.9574 256.543 70.1221 256.406 70.2544 256.227C70.3868 256.049 70.4776 255.832 70.5268 255.576H72.1241C72.0841 256.078 71.9364 256.523 71.6809 256.911C71.4255 257.295 71.0777 257.597 70.6376 257.815C70.1975 258.031 69.6805 258.138 69.0865 258.138ZM73.4964 258V250.909H75.1167V252.091H75.1906C75.3199 251.682 75.5415 251.366 75.8554 251.145C76.1724 250.92 76.534 250.808 76.9403 250.808C77.0326 250.808 77.1357 250.812 77.2496 250.821C77.3665 250.828 77.4635 250.838 77.5404 250.854V252.391C77.4696 252.366 77.3573 252.345 77.2034 252.326C77.0526 252.305 76.9064 252.294 76.7648 252.294C76.4601 252.294 76.1862 252.36 75.9431 252.493C75.703 252.622 75.5138 252.802 75.3753 253.033C75.2368 253.263 75.1675 253.53 75.1675 253.831V258H73.4964ZM81.4979 258.138C80.7869 258.138 80.1729 257.991 79.6559 257.695C79.1419 257.397 78.7464 256.975 78.4695 256.43C78.1925 255.883 78.054 255.238 78.054 254.496C78.054 253.767 78.1925 253.127 78.4695 252.576C78.7495 252.022 79.1404 251.591 79.642 251.283C80.1437 250.972 80.7331 250.817 81.4102 250.817C81.8472 250.817 82.2596 250.888 82.6474 251.029C83.0382 251.168 83.3829 251.383 83.6815 251.675C83.9831 251.968 84.2201 252.34 84.3924 252.793C84.5647 253.242 84.6509 253.777 84.6509 254.399V254.912H78.8388V253.785H83.049C83.0459 253.465 82.9767 253.18 82.8413 252.931C82.7058 252.679 82.5166 252.48 82.2734 252.336C82.0334 252.191 81.7533 252.119 81.4332 252.119C81.0916 252.119 80.7915 252.202 80.533 252.368C80.2745 252.531 80.0729 252.746 79.9283 253.014C79.7867 253.279 79.7144 253.57 79.7113 253.887V254.87C79.7113 255.282 79.7867 255.636 79.9375 255.932C80.0883 256.224 80.2991 256.449 80.57 256.606C80.8408 256.76 81.1578 256.837 81.521 256.837C81.7641 256.837 81.9841 256.803 82.1811 256.735C82.3781 256.664 82.5489 256.561 82.6935 256.426C82.8382 256.29 82.9474 256.123 83.0213 255.923L84.5817 256.098C84.4832 256.51 84.2955 256.871 84.0185 257.178C83.7446 257.483 83.3937 257.72 82.9659 257.889C82.5381 258.055 82.0488 258.138 81.4979 258.138ZM89.2039 258.138C88.493 258.138 87.879 257.991 87.3619 257.695C86.848 257.397 86.4525 256.975 86.1755 256.43C85.8985 255.883 85.76 255.238 85.76 254.496C85.76 253.767 85.8985 253.127 86.1755 252.576C86.4556 252.022 86.8464 251.591 87.3481 251.283C87.8498 250.972 88.4391 250.817 89.1162 250.817C89.5532 250.817 89.9656 250.888 90.3534 251.029C90.7443 251.168 91.089 251.383 91.3875 251.675C91.6891 251.968 91.9261 252.34 92.0985 252.793C92.2708 253.242 92.357 253.777 92.357 254.399V254.912H86.5448V253.785H90.7551C90.752 253.465 90.6827 253.18 90.5473 252.931C90.4119 252.679 90.2226 252.48 89.9795 252.336C89.7394 252.191 89.4594 252.119 89.1393 252.119C88.7977 252.119 88.4976 252.202 88.2391 252.368C87.9806 252.531 87.779 252.746 87.6343 253.014C87.4927 253.279 87.4204 253.57 87.4173 253.887V254.87C87.4173 255.282 87.4927 255.636 87.6436 255.932C87.7944 256.224 88.0052 256.449 88.276 256.606C88.5468 256.76 88.8638 256.837 89.227 256.837C89.4701 256.837 89.6902 256.803 89.8872 256.735C90.0841 256.664 90.2549 256.561 90.3996 256.426C90.5442 256.29 90.6535 256.123 90.7274 255.923L92.2877 256.098C92.1892 256.51 92.0015 256.871 91.7245 257.178C91.4506 257.483 91.0998 257.72 90.672 257.889C90.2442 258.055 89.7548 258.138 89.2039 258.138ZM95.4419 253.845V258H93.7708V250.909H95.3681V252.114H95.4512C95.6143 251.717 95.8743 251.402 96.2314 251.168C96.5914 250.934 97.0362 250.817 97.5655 250.817C98.0549 250.817 98.4811 250.921 98.8443 251.131C99.2105 251.34 99.4937 251.643 99.6937 252.04C99.8968 252.437 99.9969 252.919 99.9938 253.485V258H98.3226V253.744C98.3226 253.27 98.1995 252.899 97.9533 252.631C97.7102 252.363 97.3732 252.229 96.9423 252.229C96.6499 252.229 96.3899 252.294 96.1621 252.423C95.9374 252.549 95.7605 252.733 95.6312 252.973C95.505 253.213 95.4419 253.504 95.4419 253.845ZM103.479 248.545V258H101.767V248.545H103.479ZM108.353 258.138C107.645 258.138 107.037 257.983 106.53 257.672C106.025 257.361 105.636 256.932 105.362 256.384C105.091 255.833 104.955 255.199 104.955 254.482C104.955 253.762 105.094 253.127 105.371 252.576C105.648 252.022 106.039 251.591 106.543 251.283C107.051 250.972 107.651 250.817 108.344 250.817C108.919 250.817 109.429 250.923 109.872 251.135C110.318 251.345 110.674 251.642 110.938 252.026C111.203 252.408 111.354 252.854 111.391 253.365H109.793C109.729 253.023 109.575 252.739 109.332 252.511C109.092 252.28 108.77 252.165 108.367 252.165C108.025 252.165 107.725 252.257 107.467 252.442C107.208 252.623 107.007 252.885 106.862 253.227C106.72 253.568 106.65 253.978 106.65 254.455C106.65 254.938 106.72 255.353 106.862 255.701C107.004 256.046 107.202 256.312 107.457 256.5C107.716 256.684 108.019 256.777 108.367 256.777C108.613 256.777 108.833 256.73 109.027 256.638C109.224 256.543 109.389 256.406 109.521 256.227C109.653 256.049 109.744 255.832 109.793 255.576H111.391C111.351 256.078 111.203 256.523 110.948 256.911C110.692 257.295 110.344 257.597 109.904 257.815C109.464 258.031 108.947 258.138 108.353 258.138ZM115.856 258.138C115.164 258.138 114.563 257.986 114.056 257.681C113.548 257.377 113.154 256.951 112.874 256.403C112.597 255.855 112.458 255.215 112.458 254.482C112.458 253.75 112.597 253.108 112.874 252.557C113.154 252.006 113.548 251.578 114.056 251.274C114.563 250.969 115.164 250.817 115.856 250.817C116.548 250.817 117.149 250.969 117.656 251.274C118.164 251.578 118.557 252.006 118.834 252.557C119.114 253.108 119.254 253.75 119.254 254.482C119.254 255.215 119.114 255.855 118.834 256.403C118.557 256.951 118.164 257.377 117.656 257.681C117.149 257.986 116.548 258.138 115.856 258.138ZM115.865 256.8C116.241 256.8 116.555 256.697 116.807 256.49C117.059 256.281 117.247 256.001 117.37 255.65C117.496 255.299 117.559 254.908 117.559 254.478C117.559 254.044 117.496 253.651 117.37 253.3C117.247 252.946 117.059 252.665 116.807 252.456C116.555 252.246 116.241 252.142 115.865 252.142C115.481 252.142 115.16 252.246 114.905 252.456C114.653 252.665 114.463 252.946 114.337 253.3C114.214 253.651 114.153 254.044 114.153 254.478C114.153 254.908 114.214 255.299 114.337 255.65C114.463 256.001 114.653 256.281 114.905 256.49C115.16 256.697 115.481 256.8 115.865 256.8ZM122.343 253.845V258H120.672V250.909H122.269V252.114H122.353C122.516 251.717 122.776 251.402 123.133 251.168C123.493 250.934 123.938 250.817 124.467 250.817C124.956 250.817 125.382 250.921 125.746 251.131C126.112 251.34 126.395 251.643 126.595 252.04C126.798 252.437 126.898 252.919 126.895 253.485V258H125.224V253.744C125.224 253.27 125.101 252.899 124.855 252.631C124.612 252.363 124.275 252.229 123.844 252.229C123.551 252.229 123.291 252.294 123.063 252.423C122.839 252.549 122.662 252.733 122.533 252.973C122.406 253.213 122.343 253.504 122.343 253.845Z" fill="black"/>
<mask id="path-14-inside-1_3718_3125" fill="white">
<rect x="60" y="147" width="46" height="46" rx="2"/>
</mask>
<rect x="60" y="147" width="46" height="46" rx="2" stroke="#F2CD72" stroke-width="6" mask="url(#path-14-inside-1_3718_3125)"/>
<path d="M81.9393 236.061C82.5251 236.646 83.4749 236.646 84.0607 236.061L93.6066 226.515C94.1924 225.929 94.1924 224.979 93.6066 224.393C93.0208 223.808 92.0711 223.808 91.4853 224.393L83 232.879L74.5147 224.393C73.9289 223.808 72.9792 223.808 72.3934 224.393C71.8076 224.979 71.8076 225.929 72.3934 226.515L81.9393 236.061ZM84.5 235V193H81.5V235H84.5Z" fill="#E4BE21"/>
<defs>
<clipPath id="clip0_3718_3125">
<rect width="608" height="72" fill="white" transform="translate(55 134)"/>
</clipPath>
</defs>
</svg>
