<svg width="911" height="497" viewBox="0 0 911 497" fill="none" xmlns="http://www.w3.org/2000/svg">
<rect width="911" height="497" rx="24" fill="#EBF1FD"/>
<path d="M251 224H141C138.791 224 137 222.209 137 220V171C137 168.791 138.791 167 141 167H251C253.209 167 255 168.791 255 171V220C255 222.209 253.209 224 251 224Z" fill="#F9FAFB" stroke="#15AABF" stroke-width="2"/>
<path d="M174 208H154C152.9 208 152 207.1 152 206V186C152 184.9 152.9 184 154 184H174C175.1 184 176 184.9 176 186V206C176 207.1 175.1 208 174 208Z" fill="#F9FAFB"/>
<path fill-rule="evenodd" clip-rule="evenodd" d="M158.375 188.501V189.776H157.5C157.225 189.776 157 190.001 157 190.276V203.501C157 203.776 157.225 204.001 157.5 204.001H170.5C170.775 204.001 171 203.776 171 203.501V190.276C171 190.001 170.775 189.776 170.5 189.776H169.625V188.501C169.625 188.226 169.4 188.001 169.125 188.001H158.875C158.6 188.001 158.375 188.226 158.375 188.501ZM168.55 192.401H159.45C159.35 192.401 159.25 192.326 159.25 192.201V191.601C159.25 191.501 159.325 191.401 159.45 191.401H168.55C168.65 191.401 168.75 191.476 168.75 191.601V192.201C168.75 192.326 168.675 192.401 168.55 192.401ZM165.5 202.001H162.5V198.501C162.5 198.226 162.725 198.001 163 198.001H165C165.275 198.001 165.5 198.226 165.5 198.501V202.001ZM159.45 194.501H168.55C168.675 194.501 168.75 194.401 168.75 194.301V193.701C168.75 193.576 168.65 193.501 168.55 193.501H159.45C159.325 193.501 159.25 193.601 159.25 193.701V194.301C159.25 194.426 159.35 194.501 159.45 194.501ZM168.55 196.876H159.45C159.35 196.876 159.25 196.801 159.25 196.676V196.076C159.25 195.976 159.325 195.876 159.45 195.876H168.55C168.65 195.876 168.75 195.951 168.75 196.076V196.676C168.75 196.776 168.675 196.876 168.55 196.876Z" fill="#15AABF"/>
<path d="M171.5 204H156.5C156.225 204 156 203.775 156 203.5V202.5C156 202.225 156.225 202 156.5 202H171.5C171.775 202 172 202.225 172 202.5V203.5C172 203.775 171.775 204 171.5 204Z" fill="#0C8599"/>
<path d="M188.583 200.144C187.927 200.144 187.331 199.988 186.795 199.676C186.259 199.364 185.831 198.908 185.511 198.308C185.199 197.7 185.043 196.964 185.043 196.1C185.043 195.244 185.203 194.512 185.523 193.904C185.851 193.288 186.287 192.82 186.831 192.5C187.375 192.172 187.975 192.008 188.631 192.008C189.127 192.008 189.567 192.108 189.951 192.308C190.335 192.508 190.651 192.74 190.899 193.004L190.155 193.904C189.955 193.696 189.731 193.532 189.483 193.412C189.243 193.284 188.971 193.22 188.667 193.22C188.243 193.22 187.863 193.336 187.527 193.568C187.199 193.792 186.939 194.116 186.747 194.54C186.563 194.964 186.471 195.472 186.471 196.064C186.471 196.96 186.667 197.664 187.059 198.176C187.451 198.68 187.975 198.932 188.631 198.932C188.983 198.932 189.295 198.86 189.567 198.716C189.839 198.564 190.087 198.368 190.311 198.128L191.055 199.004C190.735 199.372 190.367 199.656 189.951 199.856C189.543 200.048 189.087 200.144 188.583 200.144ZM194.657 200.144C194.169 200.144 193.713 200.024 193.289 199.784C192.865 199.536 192.521 199.184 192.257 198.728C191.993 198.264 191.861 197.708 191.861 197.06C191.861 196.404 191.993 195.848 192.257 195.392C192.521 194.928 192.865 194.576 193.289 194.336C193.713 194.088 194.169 193.964 194.657 193.964C195.153 193.964 195.613 194.088 196.037 194.336C196.461 194.576 196.805 194.928 197.069 195.392C197.333 195.848 197.465 196.404 197.465 197.06C197.465 197.708 197.333 198.264 197.069 198.728C196.805 199.184 196.461 199.536 196.037 199.784C195.613 200.024 195.153 200.144 194.657 200.144ZM194.657 199.016C195.089 199.016 195.429 198.836 195.677 198.476C195.925 198.116 196.049 197.644 196.049 197.06C196.049 196.468 195.925 195.992 195.677 195.632C195.429 195.272 195.089 195.092 194.657 195.092C194.225 195.092 193.885 195.272 193.637 195.632C193.397 195.992 193.277 196.468 193.277 197.06C193.277 197.644 193.397 198.116 193.637 198.476C193.885 198.836 194.225 199.016 194.657 199.016ZM198.831 200V194.108H199.971L200.067 194.912H200.115C200.363 194.648 200.631 194.424 200.919 194.24C201.215 194.056 201.547 193.964 201.915 193.964C202.347 193.964 202.691 194.06 202.947 194.252C203.211 194.436 203.411 194.692 203.547 195.02C203.827 194.716 204.119 194.464 204.423 194.264C204.735 194.064 205.075 193.964 205.443 193.964C206.067 193.964 206.527 194.168 206.823 194.576C207.119 194.984 207.267 195.56 207.267 196.304V200H205.875V196.484C205.875 195.996 205.799 195.652 205.647 195.452C205.503 195.252 205.279 195.152 204.975 195.152C204.607 195.152 204.195 195.396 203.739 195.884V200H202.359V196.484C202.359 195.996 202.283 195.652 202.131 195.452C201.987 195.252 201.759 195.152 201.447 195.152C201.079 195.152 200.667 195.396 200.211 195.884V200H198.831ZM208.944 202.328V194.108H210.084L210.18 194.732H210.228C210.476 194.524 210.752 194.344 211.056 194.192C211.368 194.04 211.684 193.964 212.004 193.964C212.74 193.964 213.308 194.236 213.708 194.78C214.116 195.324 214.32 196.052 214.32 196.964C214.32 197.636 214.2 198.212 213.96 198.692C213.72 199.164 213.408 199.524 213.024 199.772C212.648 200.02 212.24 200.144 211.8 200.144C211.544 200.144 211.288 200.088 211.032 199.976C210.776 199.856 210.528 199.696 210.288 199.496L210.324 200.48V202.328H208.944ZM211.512 199.004C211.904 199.004 212.232 198.832 212.496 198.488C212.76 198.144 212.892 197.64 212.892 196.976C212.892 196.384 212.792 195.924 212.592 195.596C212.392 195.268 212.068 195.104 211.62 195.104C211.204 195.104 210.772 195.324 210.324 195.764V198.512C210.54 198.688 210.748 198.816 210.948 198.896C211.148 198.968 211.336 199.004 211.512 199.004ZM217.005 200.144C216.493 200.144 216.073 199.984 215.745 199.664C215.425 199.344 215.265 198.928 215.265 198.416C215.265 197.784 215.541 197.296 216.093 196.952C216.645 196.6 217.525 196.36 218.733 196.232C218.725 195.92 218.641 195.652 218.481 195.428C218.329 195.196 218.053 195.08 217.653 195.08C217.365 195.08 217.081 195.136 216.801 195.248C216.529 195.36 216.261 195.496 215.997 195.656L215.493 194.732C215.821 194.524 216.189 194.344 216.597 194.192C217.013 194.04 217.453 193.964 217.917 193.964C218.653 193.964 219.201 194.184 219.561 194.624C219.929 195.056 220.113 195.684 220.113 196.508V200H218.973L218.877 199.352H218.829C218.565 199.576 218.281 199.764 217.977 199.916C217.681 200.068 217.357 200.144 217.005 200.144ZM217.449 199.064C217.689 199.064 217.905 199.008 218.097 198.896C218.297 198.776 218.509 198.616 218.733 198.416V197.096C217.933 197.2 217.377 197.356 217.065 197.564C216.753 197.764 216.597 198.012 216.597 198.308C216.597 198.572 216.677 198.764 216.837 198.884C216.997 199.004 217.201 199.064 217.449 199.064ZM221.765 200V194.108H222.905L223.001 194.9H223.049C223.313 194.644 223.601 194.424 223.913 194.24C224.225 194.056 224.581 193.964 224.981 193.964C225.613 193.964 226.073 194.168 226.361 194.576C226.649 194.984 226.793 195.56 226.793 196.304V200H225.413V196.484C225.413 195.996 225.341 195.652 225.197 195.452C225.053 195.252 224.817 195.152 224.489 195.152C224.233 195.152 224.005 195.216 223.805 195.344C223.613 195.464 223.393 195.644 223.145 195.884V200H221.765ZM228.876 202.424C228.716 202.424 228.576 202.412 228.456 202.388C228.336 202.364 228.22 202.336 228.108 202.304L228.36 201.224C228.416 201.24 228.48 201.256 228.552 201.272C228.632 201.296 228.708 201.308 228.78 201.308C229.092 201.308 229.34 201.212 229.524 201.02C229.716 200.836 229.86 200.596 229.956 200.3L230.064 199.928L227.748 194.108H229.152L230.172 197C230.26 197.256 230.344 197.528 230.424 197.816C230.512 198.096 230.6 198.376 230.688 198.656H230.736C230.808 198.384 230.88 198.108 230.952 197.828C231.032 197.54 231.108 197.264 231.18 197L232.068 194.108H233.4L231.264 200.264C231.016 200.928 230.716 201.452 230.364 201.836C230.012 202.228 229.516 202.424 228.876 202.424Z" fill="#181E25"/>
<path d="M470 225H360C357.791 225 356 223.209 356 221V172C356 169.791 357.791 168 360 168H470C472.209 168 474 169.791 474 172V221C474 223.209 472.209 225 470 225Z" fill="#F9FAFB" stroke="#15AABF" stroke-width="2"/>
<path d="M398 209H378C376.9 209 376 208.1 376 207V187C376 185.9 376.9 185 378 185H398C399.1 185 400 185.9 400 187V207C400 208.1 399.1 209 398 209Z" fill="#F9FAFB"/>
<path d="M388 189C384.675 189 382 191.75 382 195.125C382 200.275 388 205 388 205C388 205 394 200.275 394 195.125C394 191.75 391.325 189 388 189ZM388 197.55C386.675 197.55 385.6 196.45 385.6 195.1C385.6 193.75 386.675 192.65 388 192.65C389.325 192.65 390.4 193.75 390.4 195.1C390.4 196.45 389.325 197.55 388 197.55Z" fill="#15AABF"/>
<path fill-rule="evenodd" clip-rule="evenodd" d="M386.448 189.206C384.543 190.235 383.25 192.279 383.25 194.625C383.25 199.024 387.628 203.113 388.904 204.212C388.36 204.716 388 205 388 205C388 205 382 200.275 382 195.125C382 192.295 383.881 189.905 386.448 189.206Z" fill="#0C8599"/>
<path d="M405.082 201V193.152H406.474V199.824H409.738V201H405.082ZM413.245 201.144C412.757 201.144 412.301 201.024 411.877 200.784C411.453 200.536 411.109 200.184 410.845 199.728C410.581 199.264 410.449 198.708 410.449 198.06C410.449 197.404 410.581 196.848 410.845 196.392C411.109 195.928 411.453 195.576 411.877 195.336C412.301 195.088 412.757 194.964 413.245 194.964C413.741 194.964 414.201 195.088 414.625 195.336C415.049 195.576 415.393 195.928 415.657 196.392C415.921 196.848 416.053 197.404 416.053 198.06C416.053 198.708 415.921 199.264 415.657 199.728C415.393 200.184 415.049 200.536 414.625 200.784C414.201 201.024 413.741 201.144 413.245 201.144ZM413.245 200.016C413.677 200.016 414.017 199.836 414.265 199.476C414.513 199.116 414.637 198.644 414.637 198.06C414.637 197.468 414.513 196.992 414.265 196.632C414.017 196.272 413.677 196.092 413.245 196.092C412.813 196.092 412.473 196.272 412.225 196.632C411.985 196.992 411.865 197.468 411.865 198.06C411.865 198.644 411.985 199.116 412.225 199.476C412.473 199.836 412.813 200.016 413.245 200.016ZM419.879 201.144C419.343 201.144 418.859 201.024 418.427 200.784C418.003 200.536 417.663 200.184 417.407 199.728C417.159 199.264 417.035 198.708 417.035 198.06C417.035 197.404 417.171 196.848 417.443 196.392C417.715 195.928 418.075 195.576 418.523 195.336C418.979 195.088 419.467 194.964 419.987 194.964C420.363 194.964 420.691 195.028 420.971 195.156C421.251 195.284 421.499 195.44 421.715 195.624L421.043 196.524C420.891 196.388 420.735 196.284 420.575 196.212C420.415 196.132 420.243 196.092 420.059 196.092C419.587 196.092 419.199 196.272 418.895 196.632C418.599 196.992 418.451 197.468 418.451 198.06C418.451 198.644 418.595 199.116 418.883 199.476C419.179 199.836 419.559 200.016 420.023 200.016C420.255 200.016 420.471 199.968 420.671 199.872C420.879 199.768 421.067 199.648 421.235 199.512L421.799 200.424C421.527 200.664 421.223 200.844 420.887 200.964C420.551 201.084 420.215 201.144 419.879 201.144ZM424.273 201.144C423.761 201.144 423.341 200.984 423.013 200.664C422.693 200.344 422.533 199.928 422.533 199.416C422.533 198.784 422.809 198.296 423.361 197.952C423.913 197.6 424.793 197.36 426.001 197.232C425.993 196.92 425.909 196.652 425.749 196.428C425.597 196.196 425.321 196.08 424.921 196.08C424.633 196.08 424.349 196.136 424.069 196.248C423.797 196.36 423.529 196.496 423.265 196.656L422.761 195.732C423.089 195.524 423.457 195.344 423.865 195.192C424.281 195.04 424.721 194.964 425.185 194.964C425.921 194.964 426.469 195.184 426.829 195.624C427.197 196.056 427.381 196.684 427.381 197.508V201H426.241L426.145 200.352H426.097C425.833 200.576 425.549 200.764 425.245 200.916C424.949 201.068 424.625 201.144 424.273 201.144ZM424.717 200.064C424.957 200.064 425.173 200.008 425.365 199.896C425.565 199.776 425.777 199.616 426.001 199.416V198.096C425.201 198.2 424.645 198.356 424.333 198.564C424.021 198.764 423.865 199.012 423.865 199.308C423.865 199.572 423.945 199.764 424.105 199.884C424.265 200.004 424.469 200.064 424.717 200.064ZM430.921 201.144C430.241 201.144 429.757 200.948 429.469 200.556C429.189 200.156 429.049 199.64 429.049 199.008V196.2H428.209V195.168L429.121 195.108L429.289 193.5H430.441V195.108H431.941V196.2H430.441V199.008C430.441 199.696 430.717 200.04 431.269 200.04C431.373 200.04 431.481 200.028 431.593 200.004C431.705 199.972 431.801 199.94 431.881 199.908L432.121 200.928C431.961 200.984 431.777 201.032 431.569 201.072C431.369 201.12 431.153 201.144 430.921 201.144ZM433.181 201V195.108H434.561V201H433.181ZM433.877 194.076C433.629 194.076 433.429 194.004 433.277 193.86C433.125 193.716 433.049 193.524 433.049 193.284C433.049 193.052 433.125 192.864 433.277 192.72C433.429 192.576 433.629 192.504 433.877 192.504C434.125 192.504 434.325 192.576 434.477 192.72C434.629 192.864 434.705 193.052 434.705 193.284C434.705 193.524 434.629 193.716 434.477 193.86C434.325 194.004 434.125 194.076 433.877 194.076ZM438.733 201.144C438.245 201.144 437.789 201.024 437.365 200.784C436.941 200.536 436.597 200.184 436.333 199.728C436.069 199.264 435.937 198.708 435.937 198.06C435.937 197.404 436.069 196.848 436.333 196.392C436.597 195.928 436.941 195.576 437.365 195.336C437.789 195.088 438.245 194.964 438.733 194.964C439.229 194.964 439.689 195.088 440.113 195.336C440.537 195.576 440.881 195.928 441.145 196.392C441.409 196.848 441.541 197.404 441.541 198.06C441.541 198.708 441.409 199.264 441.145 199.728C440.881 200.184 440.537 200.536 440.113 200.784C439.689 201.024 439.229 201.144 438.733 201.144ZM438.733 200.016C439.165 200.016 439.505 199.836 439.753 199.476C440.001 199.116 440.125 198.644 440.125 198.06C440.125 197.468 440.001 196.992 439.753 196.632C439.505 196.272 439.165 196.092 438.733 196.092C438.301 196.092 437.961 196.272 437.713 196.632C437.473 196.992 437.353 197.468 437.353 198.06C437.353 198.644 437.473 199.116 437.713 199.476C437.961 199.836 438.301 200.016 438.733 200.016ZM442.907 201V195.108H444.047L444.143 195.9H444.191C444.455 195.644 444.743 195.424 445.055 195.24C445.367 195.056 445.723 194.964 446.123 194.964C446.755 194.964 447.215 195.168 447.503 195.576C447.791 195.984 447.935 196.56 447.935 197.304V201H446.555V197.484C446.555 196.996 446.483 196.652 446.339 196.452C446.195 196.252 445.959 196.152 445.631 196.152C445.375 196.152 445.147 196.216 444.947 196.344C444.755 196.464 444.535 196.644 444.287 196.884V201H442.907ZM451.266 201.144C450.866 201.144 450.466 201.068 450.066 200.916C449.666 200.756 449.322 200.56 449.034 200.328L449.682 199.44C449.946 199.64 450.21 199.8 450.474 199.92C450.738 200.04 451.018 200.1 451.314 200.1C451.634 200.1 451.87 200.032 452.022 199.896C452.174 199.76 452.25 199.592 452.25 199.392C452.25 199.224 452.186 199.088 452.058 198.984C451.938 198.872 451.782 198.776 451.59 198.696C451.398 198.608 451.198 198.524 450.99 198.444C450.734 198.348 450.478 198.232 450.222 198.096C449.974 197.952 449.77 197.772 449.61 197.556C449.45 197.332 449.37 197.056 449.37 196.728C449.37 196.208 449.562 195.784 449.946 195.456C450.33 195.128 450.85 194.964 451.506 194.964C451.922 194.964 452.294 195.036 452.622 195.18C452.95 195.324 453.234 195.488 453.474 195.672L452.838 196.512C452.63 196.36 452.418 196.24 452.202 196.152C451.994 196.056 451.774 196.008 451.542 196.008C451.246 196.008 451.026 196.072 450.882 196.2C450.738 196.32 450.666 196.472 450.666 196.656C450.666 196.888 450.786 197.064 451.026 197.184C451.266 197.304 451.546 197.42 451.866 197.532C452.138 197.628 452.402 197.748 452.658 197.892C452.914 198.028 453.126 198.208 453.294 198.432C453.47 198.656 453.558 198.952 453.558 199.32C453.558 199.824 453.362 200.256 452.97 200.616C452.578 200.968 452.01 201.144 451.266 201.144Z" fill="#181E25"/>
<path d="M470 316H360C357.791 316 356 314.209 356 312V263C356 260.791 357.791 259 360 259H470C472.209 259 474 260.791 474 263V312C474 314.209 472.209 316 470 316Z" fill="#F9FAFB" stroke="#15AABF" stroke-width="2"/>
<g clip-path="url(#clip0_44_12528)">
<path d="M409.5 300H389.5C388.4 300 387.5 299.1 387.5 298V278C387.5 276.9 388.4 276 389.5 276H409.5C410.6 276 411.5 276.9 411.5 278V298C411.5 299.1 410.6 300 409.5 300Z" fill="#F9FAFB"/>
<path d="M393.051 288.976C392.893 288.818 392.803 288.604 392.8 288.38L392.723 282.091C392.717 281.609 393.109 281.217 393.591 281.223L399.88 281.3C400.104 281.303 400.318 281.393 400.476 281.551L407.789 288.864C407.956 289.032 407.956 289.303 407.789 289.47L400.97 296.289C400.803 296.456 400.532 296.456 400.364 296.289L393.051 288.976Z" fill="#0C8599"/>
<path d="M397.796 284.44C398.309 284.952 398.309 285.784 397.796 286.297C397.284 286.809 396.452 286.809 395.94 286.297C395.427 285.784 395.427 284.952 395.94 284.44C396.452 283.927 397.284 283.927 397.796 284.44Z" fill="#F9FAFB"/>
</g>
<path d="M419.841 292.144C419.185 292.144 418.589 291.988 418.053 291.676C417.517 291.364 417.089 290.908 416.769 290.308C416.457 289.7 416.301 288.964 416.301 288.1C416.301 287.244 416.461 286.512 416.781 285.904C417.109 285.288 417.545 284.82 418.089 284.5C418.633 284.172 419.233 284.008 419.889 284.008C420.385 284.008 420.825 284.108 421.209 284.308C421.593 284.508 421.909 284.74 422.157 285.004L421.413 285.904C421.213 285.696 420.989 285.532 420.741 285.412C420.501 285.284 420.229 285.22 419.925 285.22C419.501 285.22 419.121 285.336 418.785 285.568C418.457 285.792 418.197 286.116 418.005 286.54C417.821 286.964 417.729 287.472 417.729 288.064C417.729 288.96 417.925 289.664 418.317 290.176C418.709 290.68 419.233 290.932 419.889 290.932C420.241 290.932 420.553 290.86 420.825 290.716C421.097 290.564 421.345 290.368 421.569 290.128L422.313 291.004C421.993 291.372 421.625 291.656 421.209 291.856C420.801 292.048 420.345 292.144 419.841 292.144ZM425.915 292.144C425.427 292.144 424.971 292.024 424.547 291.784C424.123 291.536 423.779 291.184 423.515 290.728C423.251 290.264 423.119 289.708 423.119 289.06C423.119 288.404 423.251 287.848 423.515 287.392C423.779 286.928 424.123 286.576 424.547 286.336C424.971 286.088 425.427 285.964 425.915 285.964C426.411 285.964 426.871 286.088 427.295 286.336C427.719 286.576 428.063 286.928 428.327 287.392C428.591 287.848 428.723 288.404 428.723 289.06C428.723 289.708 428.591 290.264 428.327 290.728C428.063 291.184 427.719 291.536 427.295 291.784C426.871 292.024 426.411 292.144 425.915 292.144ZM425.915 291.016C426.347 291.016 426.687 290.836 426.935 290.476C427.183 290.116 427.307 289.644 427.307 289.06C427.307 288.468 427.183 287.992 426.935 287.632C426.687 287.272 426.347 287.092 425.915 287.092C425.483 287.092 425.143 287.272 424.895 287.632C424.655 287.992 424.535 288.468 424.535 289.06C424.535 289.644 424.655 290.116 424.895 290.476C425.143 290.836 425.483 291.016 425.915 291.016ZM430.991 292L429.431 286.108H430.823L431.531 289.168C431.595 289.448 431.647 289.728 431.687 290.008C431.735 290.288 431.787 290.572 431.843 290.86H431.891C431.947 290.572 432.003 290.288 432.059 290.008C432.123 289.72 432.191 289.44 432.263 289.168L433.031 286.108H434.291L435.071 289.168C435.143 289.448 435.211 289.728 435.275 290.008C435.339 290.288 435.403 290.572 435.467 290.86H435.515C435.571 290.572 435.623 290.288 435.671 290.008C435.719 289.728 435.771 289.448 435.827 289.168L436.535 286.108H437.831L436.331 292H434.687L434.003 289.252C433.939 288.972 433.879 288.696 433.823 288.424C433.767 288.144 433.707 287.848 433.643 287.536H433.595C433.539 287.848 433.483 288.144 433.427 288.424C433.371 288.704 433.311 288.984 433.247 289.264L432.575 292H430.991ZM440.639 292.144C440.239 292.144 439.839 292.068 439.439 291.916C439.039 291.756 438.695 291.56 438.407 291.328L439.055 290.44C439.319 290.64 439.583 290.8 439.847 290.92C440.111 291.04 440.391 291.1 440.687 291.1C441.007 291.1 441.243 291.032 441.395 290.896C441.547 290.76 441.623 290.592 441.623 290.392C441.623 290.224 441.559 290.088 441.431 289.984C441.311 289.872 441.155 289.776 440.963 289.696C440.771 289.608 440.571 289.524 440.363 289.444C440.107 289.348 439.851 289.232 439.595 289.096C439.347 288.952 439.143 288.772 438.983 288.556C438.823 288.332 438.743 288.056 438.743 287.728C438.743 287.208 438.935 286.784 439.319 286.456C439.703 286.128 440.223 285.964 440.879 285.964C441.295 285.964 441.667 286.036 441.995 286.18C442.323 286.324 442.607 286.488 442.847 286.672L442.211 287.512C442.003 287.36 441.791 287.24 441.575 287.152C441.367 287.056 441.147 287.008 440.915 287.008C440.619 287.008 440.399 287.072 440.255 287.2C440.111 287.32 440.039 287.472 440.039 287.656C440.039 287.888 440.159 288.064 440.399 288.184C440.639 288.304 440.919 288.42 441.239 288.532C441.511 288.628 441.775 288.748 442.031 288.892C442.287 289.028 442.499 289.208 442.667 289.432C442.843 289.656 442.931 289.952 442.931 290.32C442.931 290.824 442.735 291.256 442.343 291.616C441.951 291.968 441.383 292.144 440.639 292.144Z" fill="#181E25"/>
<path d="M470 407H360C357.791 407 356 405.209 356 403V354C356 351.791 357.791 350 360 350H470C472.209 350 474 351.791 474 354V403C474 405.209 472.209 407 470 407Z" fill="#F9FAFB" stroke="#15AABF" stroke-width="2"/>
<path d="M401 391H381C379.9 391 379 390.1 379 389V369C379 367.9 379.9 367 381 367H401C402.1 367 403 367.9 403 369V389C403 390.1 402.1 391 401 391Z" fill="#F9FAFB"/>
<rect x="385" y="380" width="12" height="7" rx="1" fill="#0C8599"/>
<path d="M384.047 376.037C383.75 376.037 383.452 375.927 383.253 375.596C382.856 375.156 382.955 374.385 383.352 374.055C387.822 369.982 394.178 369.982 398.648 374.055C399.045 374.495 399.144 375.156 398.747 375.596C398.35 376.037 397.754 376.147 397.357 375.706C393.682 372.294 388.318 372.294 384.643 375.706C384.544 376.037 384.246 376.037 384.047 376.037Z" fill="#15AABF"/>
<path d="M394.123 378.385C393.944 378.385 393.766 378.275 393.587 378.165C392.069 376.844 389.925 376.844 388.407 378.165C387.96 378.495 387.424 378.385 387.156 377.945C386.888 377.394 386.978 376.734 387.335 376.404C389.479 374.532 392.426 374.532 394.57 376.404C395.016 376.734 395.106 377.394 394.748 377.945C394.57 378.22 394.391 378.385 394.123 378.385Z" fill="#15AABF"/>
<path d="M409.801 383V376.328H407.533V375.152H413.461V376.328H411.193V383H409.801ZM414.12 383V377.108H415.26L415.356 378.152H415.404C415.612 377.768 415.864 377.476 416.16 377.276C416.456 377.068 416.76 376.964 417.072 376.964C417.352 376.964 417.576 377.004 417.744 377.084L417.504 378.284C417.4 378.252 417.304 378.228 417.216 378.212C417.128 378.196 417.02 378.188 416.892 378.188C416.66 378.188 416.416 378.28 416.16 378.464C415.904 378.64 415.684 378.952 415.5 379.4V383H414.12ZM419.708 383.144C419.196 383.144 418.776 382.984 418.448 382.664C418.128 382.344 417.968 381.928 417.968 381.416C417.968 380.784 418.244 380.296 418.796 379.952C419.348 379.6 420.228 379.36 421.436 379.232C421.428 378.92 421.344 378.652 421.184 378.428C421.032 378.196 420.756 378.08 420.356 378.08C420.068 378.08 419.784 378.136 419.504 378.248C419.232 378.36 418.964 378.496 418.7 378.656L418.196 377.732C418.524 377.524 418.892 377.344 419.3 377.192C419.716 377.04 420.156 376.964 420.62 376.964C421.356 376.964 421.904 377.184 422.264 377.624C422.632 378.056 422.816 378.684 422.816 379.508V383H421.676L421.58 382.352H421.532C421.268 382.576 420.984 382.764 420.68 382.916C420.384 383.068 420.06 383.144 419.708 383.144ZM420.152 382.064C420.392 382.064 420.608 382.008 420.8 381.896C421 381.776 421.212 381.616 421.436 381.416V380.096C420.636 380.2 420.08 380.356 419.768 380.564C419.456 380.764 419.3 381.012 419.3 381.308C419.3 381.572 419.38 381.764 419.54 381.884C419.7 382.004 419.904 382.064 420.152 382.064ZM426.928 383.144C426.392 383.144 425.908 383.024 425.476 382.784C425.052 382.536 424.712 382.184 424.456 381.728C424.208 381.264 424.084 380.708 424.084 380.06C424.084 379.404 424.22 378.848 424.492 378.392C424.764 377.928 425.124 377.576 425.572 377.336C426.028 377.088 426.516 376.964 427.036 376.964C427.412 376.964 427.74 377.028 428.02 377.156C428.3 377.284 428.548 377.44 428.764 377.624L428.092 378.524C427.94 378.388 427.784 378.284 427.624 378.212C427.464 378.132 427.292 378.092 427.108 378.092C426.636 378.092 426.248 378.272 425.944 378.632C425.648 378.992 425.5 379.468 425.5 380.06C425.5 380.644 425.644 381.116 425.932 381.476C426.228 381.836 426.608 382.016 427.072 382.016C427.304 382.016 427.52 381.968 427.72 381.872C427.928 381.768 428.116 381.648 428.284 381.512L428.848 382.424C428.576 382.664 428.272 382.844 427.936 382.964C427.6 383.084 427.264 383.144 426.928 383.144ZM430.011 383V374.528H431.367V379.82H431.403L433.587 377.108H435.099L433.083 379.508L435.303 383H433.803L432.291 380.444L431.367 381.5V383H430.011ZM438.519 383.144C437.975 383.144 437.483 383.024 437.043 382.784C436.603 382.536 436.255 382.184 435.999 381.728C435.743 381.264 435.615 380.708 435.615 380.06C435.615 379.42 435.743 378.868 435.999 378.404C436.263 377.94 436.603 377.584 437.019 377.336C437.435 377.088 437.871 376.964 438.327 376.964C438.863 376.964 439.311 377.084 439.671 377.324C440.031 377.556 440.303 377.884 440.487 378.308C440.671 378.724 440.763 379.208 440.763 379.76C440.763 380.048 440.743 380.272 440.703 380.432H436.959C437.023 380.952 437.211 381.356 437.523 381.644C437.835 381.932 438.227 382.076 438.699 382.076C438.955 382.076 439.191 382.04 439.407 381.968C439.631 381.888 439.851 381.78 440.067 381.644L440.535 382.508C440.255 382.692 439.943 382.844 439.599 382.964C439.255 383.084 438.895 383.144 438.519 383.144ZM436.947 379.496H439.563C439.563 379.04 439.463 378.684 439.263 378.428C439.063 378.164 438.763 378.032 438.363 378.032C438.019 378.032 437.711 378.16 437.439 378.416C437.175 378.664 437.011 379.024 436.947 379.496ZM442.081 383V377.108H443.221L443.317 378.152H443.365C443.573 377.768 443.825 377.476 444.121 377.276C444.417 377.068 444.721 376.964 445.033 376.964C445.313 376.964 445.537 377.004 445.705 377.084L445.465 378.284C445.361 378.252 445.265 378.228 445.177 378.212C445.089 378.196 444.981 378.188 444.853 378.188C444.621 378.188 444.377 378.28 444.121 378.464C443.865 378.64 443.645 378.952 443.461 379.4V383H442.081ZM448.131 383.144C447.731 383.144 447.331 383.068 446.931 382.916C446.531 382.756 446.187 382.56 445.899 382.328L446.547 381.44C446.811 381.64 447.075 381.8 447.339 381.92C447.603 382.04 447.883 382.1 448.179 382.1C448.499 382.1 448.735 382.032 448.887 381.896C449.039 381.76 449.115 381.592 449.115 381.392C449.115 381.224 449.051 381.088 448.923 380.984C448.803 380.872 448.647 380.776 448.455 380.696C448.263 380.608 448.063 380.524 447.855 380.444C447.599 380.348 447.343 380.232 447.087 380.096C446.839 379.952 446.635 379.772 446.475 379.556C446.315 379.332 446.235 379.056 446.235 378.728C446.235 378.208 446.427 377.784 446.811 377.456C447.195 377.128 447.715 376.964 448.371 376.964C448.787 376.964 449.159 377.036 449.487 377.18C449.815 377.324 450.099 377.488 450.339 377.672L449.703 378.512C449.495 378.36 449.283 378.24 449.067 378.152C448.859 378.056 448.639 378.008 448.407 378.008C448.111 378.008 447.891 378.072 447.747 378.2C447.603 378.32 447.531 378.472 447.531 378.656C447.531 378.888 447.651 379.064 447.891 379.184C448.131 379.304 448.411 379.42 448.731 379.532C449.003 379.628 449.267 379.748 449.523 379.892C449.779 380.028 449.991 380.208 450.159 380.432C450.335 380.656 450.423 380.952 450.423 381.32C450.423 381.824 450.227 382.256 449.835 382.616C449.443 382.968 448.875 383.144 448.131 383.144Z" fill="#181E25"/>
<path d="M700 225H590C587.791 225 586 223.209 586 221V172C586 169.791 587.791 168 590 168H700C702.209 168 704 169.791 704 172V221C704 223.209 702.209 225 700 225Z" fill="#F9FAFB" stroke="#15AABF" stroke-width="2"/>
<g clip-path="url(#clip1_44_12528)">
<path d="M639.5 209H619.5C618.4 209 617.5 208.1 617.5 207V187C617.5 185.9 618.4 185 619.5 185H639.5C640.6 185 641.5 185.9 641.5 187V207C641.5 208.1 640.6 209 639.5 209Z" fill="#F9FAFB"/>
<path d="M623.051 197.976C622.893 197.818 622.803 197.604 622.8 197.38L622.723 191.091C622.717 190.609 623.109 190.217 623.591 190.223L629.88 190.3C630.104 190.303 630.318 190.393 630.476 190.551L637.789 197.864C637.956 198.032 637.956 198.303 637.789 198.47L630.97 205.289C630.803 205.456 630.532 205.456 630.364 205.289L623.051 197.976Z" fill="#0C8599"/>
<path d="M627.796 193.44C628.309 193.952 628.309 194.784 627.796 195.297C627.284 195.809 626.452 195.809 625.94 195.297C625.427 194.784 625.427 193.952 625.94 193.44C626.452 192.927 627.284 192.927 627.796 193.44Z" fill="#F9FAFB"/>
</g>
<path d="M649.841 201.144C649.185 201.144 648.589 200.988 648.053 200.676C647.517 200.364 647.089 199.908 646.769 199.308C646.457 198.7 646.301 197.964 646.301 197.1C646.301 196.244 646.461 195.512 646.781 194.904C647.109 194.288 647.545 193.82 648.089 193.5C648.633 193.172 649.233 193.008 649.889 193.008C650.385 193.008 650.825 193.108 651.209 193.308C651.593 193.508 651.909 193.74 652.157 194.004L651.413 194.904C651.213 194.696 650.989 194.532 650.741 194.412C650.501 194.284 650.229 194.22 649.925 194.22C649.501 194.22 649.121 194.336 648.785 194.568C648.457 194.792 648.197 195.116 648.005 195.54C647.821 195.964 647.729 196.472 647.729 197.064C647.729 197.96 647.925 198.664 648.317 199.176C648.709 199.68 649.233 199.932 649.889 199.932C650.241 199.932 650.553 199.86 650.825 199.716C651.097 199.564 651.345 199.368 651.569 199.128L652.313 200.004C651.993 200.372 651.625 200.656 651.209 200.856C650.801 201.048 650.345 201.144 649.841 201.144ZM655.915 201.144C655.427 201.144 654.971 201.024 654.547 200.784C654.123 200.536 653.779 200.184 653.515 199.728C653.251 199.264 653.119 198.708 653.119 198.06C653.119 197.404 653.251 196.848 653.515 196.392C653.779 195.928 654.123 195.576 654.547 195.336C654.971 195.088 655.427 194.964 655.915 194.964C656.411 194.964 656.871 195.088 657.295 195.336C657.719 195.576 658.063 195.928 658.327 196.392C658.591 196.848 658.723 197.404 658.723 198.06C658.723 198.708 658.591 199.264 658.327 199.728C658.063 200.184 657.719 200.536 657.295 200.784C656.871 201.024 656.411 201.144 655.915 201.144ZM655.915 200.016C656.347 200.016 656.687 199.836 656.935 199.476C657.183 199.116 657.307 198.644 657.307 198.06C657.307 197.468 657.183 196.992 656.935 196.632C656.687 196.272 656.347 196.092 655.915 196.092C655.483 196.092 655.143 196.272 654.895 196.632C654.655 196.992 654.535 197.468 654.535 198.06C654.535 198.644 654.655 199.116 654.895 199.476C655.143 199.836 655.483 200.016 655.915 200.016ZM660.991 201L659.431 195.108H660.823L661.531 198.168C661.595 198.448 661.647 198.728 661.687 199.008C661.735 199.288 661.787 199.572 661.843 199.86H661.891C661.947 199.572 662.003 199.288 662.059 199.008C662.123 198.72 662.191 198.44 662.263 198.168L663.031 195.108H664.291L665.071 198.168C665.143 198.448 665.211 198.728 665.275 199.008C665.339 199.288 665.403 199.572 665.467 199.86H665.515C665.571 199.572 665.623 199.288 665.671 199.008C665.719 198.728 665.771 198.448 665.827 198.168L666.535 195.108H667.831L666.331 201H664.687L664.003 198.252C663.939 197.972 663.879 197.696 663.823 197.424C663.767 197.144 663.707 196.848 663.643 196.536H663.595C663.539 196.848 663.483 197.144 663.427 197.424C663.371 197.704 663.311 197.984 663.247 198.264L662.575 201H660.991ZM670.639 201.144C670.239 201.144 669.839 201.068 669.439 200.916C669.039 200.756 668.695 200.56 668.407 200.328L669.055 199.44C669.319 199.64 669.583 199.8 669.847 199.92C670.111 200.04 670.391 200.1 670.687 200.1C671.007 200.1 671.243 200.032 671.395 199.896C671.547 199.76 671.623 199.592 671.623 199.392C671.623 199.224 671.559 199.088 671.431 198.984C671.311 198.872 671.155 198.776 670.963 198.696C670.771 198.608 670.571 198.524 670.363 198.444C670.107 198.348 669.851 198.232 669.595 198.096C669.347 197.952 669.143 197.772 668.983 197.556C668.823 197.332 668.743 197.056 668.743 196.728C668.743 196.208 668.935 195.784 669.319 195.456C669.703 195.128 670.223 194.964 670.879 194.964C671.295 194.964 671.667 195.036 671.995 195.18C672.323 195.324 672.607 195.488 672.847 195.672L672.211 196.512C672.003 196.36 671.791 196.24 671.575 196.152C671.367 196.056 671.147 196.008 670.915 196.008C670.619 196.008 670.399 196.072 670.255 196.2C670.111 196.32 670.039 196.472 670.039 196.656C670.039 196.888 670.159 197.064 670.399 197.184C670.639 197.304 670.919 197.42 671.239 197.532C671.511 197.628 671.775 197.748 672.031 197.892C672.287 198.028 672.499 198.208 672.667 198.432C672.843 198.656 672.931 198.952 672.931 199.32C672.931 199.824 672.735 200.256 672.343 200.616C671.951 200.968 671.383 201.144 670.639 201.144Z" fill="#181E25"/>
<path d="M700 316H590C587.791 316 586 314.209 586 312V263C586 260.791 587.791 259 590 259H700C702.209 259 704 260.791 704 263V312C704 314.209 702.209 316 700 316Z" fill="#F9FAFB" stroke="#15AABF" stroke-width="2"/>
<path d="M631 300H611C609.9 300 609 299.1 609 298V278C609 276.9 609.9 276 611 276H631C632.1 276 633 276.9 633 278V298C633 299.1 632.1 300 631 300Z" fill="#F9FAFB"/>
<rect x="615" y="289" width="12" height="7" rx="1" fill="#0C8599"/>
<path d="M614.047 285.037C613.75 285.037 613.452 284.927 613.253 284.596C612.856 284.156 612.955 283.385 613.352 283.055C617.822 278.982 624.178 278.982 628.648 283.055C629.045 283.495 629.144 284.156 628.747 284.596C628.35 285.037 627.754 285.147 627.357 284.706C623.682 281.294 618.318 281.294 614.643 284.706C614.544 285.037 614.246 285.037 614.047 285.037Z" fill="#15AABF"/>
<path d="M624.123 287.385C623.944 287.385 623.766 287.275 623.587 287.165C622.069 285.844 619.925 285.844 618.407 287.165C617.96 287.495 617.424 287.385 617.156 286.945C616.888 286.394 616.978 285.734 617.335 285.404C619.479 283.532 622.426 283.532 624.57 285.404C625.016 285.734 625.106 286.394 624.748 286.945C624.57 287.22 624.391 287.385 624.123 287.385Z" fill="#15AABF"/>
<path d="M639.801 292V285.328H637.533V284.152H643.461V285.328H641.193V292H639.801ZM644.12 292V286.108H645.26L645.356 287.152H645.404C645.612 286.768 645.864 286.476 646.16 286.276C646.456 286.068 646.76 285.964 647.072 285.964C647.352 285.964 647.576 286.004 647.744 286.084L647.504 287.284C647.4 287.252 647.304 287.228 647.216 287.212C647.128 287.196 647.02 287.188 646.892 287.188C646.66 287.188 646.416 287.28 646.16 287.464C645.904 287.64 645.684 287.952 645.5 288.4V292H644.12ZM649.708 292.144C649.196 292.144 648.776 291.984 648.448 291.664C648.128 291.344 647.968 290.928 647.968 290.416C647.968 289.784 648.244 289.296 648.796 288.952C649.348 288.6 650.228 288.36 651.436 288.232C651.428 287.92 651.344 287.652 651.184 287.428C651.032 287.196 650.756 287.08 650.356 287.08C650.068 287.08 649.784 287.136 649.504 287.248C649.232 287.36 648.964 287.496 648.7 287.656L648.196 286.732C648.524 286.524 648.892 286.344 649.3 286.192C649.716 286.04 650.156 285.964 650.62 285.964C651.356 285.964 651.904 286.184 652.264 286.624C652.632 287.056 652.816 287.684 652.816 288.508V292H651.676L651.58 291.352H651.532C651.268 291.576 650.984 291.764 650.68 291.916C650.384 292.068 650.06 292.144 649.708 292.144ZM650.152 291.064C650.392 291.064 650.608 291.008 650.8 290.896C651 290.776 651.212 290.616 651.436 290.416V289.096C650.636 289.2 650.08 289.356 649.768 289.564C649.456 289.764 649.3 290.012 649.3 290.308C649.3 290.572 649.38 290.764 649.54 290.884C649.7 291.004 649.904 291.064 650.152 291.064ZM656.928 292.144C656.392 292.144 655.908 292.024 655.476 291.784C655.052 291.536 654.712 291.184 654.456 290.728C654.208 290.264 654.084 289.708 654.084 289.06C654.084 288.404 654.22 287.848 654.492 287.392C654.764 286.928 655.124 286.576 655.572 286.336C656.028 286.088 656.516 285.964 657.036 285.964C657.412 285.964 657.74 286.028 658.02 286.156C658.3 286.284 658.548 286.44 658.764 286.624L658.092 287.524C657.94 287.388 657.784 287.284 657.624 287.212C657.464 287.132 657.292 287.092 657.108 287.092C656.636 287.092 656.248 287.272 655.944 287.632C655.648 287.992 655.5 288.468 655.5 289.06C655.5 289.644 655.644 290.116 655.932 290.476C656.228 290.836 656.608 291.016 657.072 291.016C657.304 291.016 657.52 290.968 657.72 290.872C657.928 290.768 658.116 290.648 658.284 290.512L658.848 291.424C658.576 291.664 658.272 291.844 657.936 291.964C657.6 292.084 657.264 292.144 656.928 292.144ZM660.011 292V283.528H661.367V288.82H661.403L663.587 286.108H665.099L663.083 288.508L665.303 292H663.803L662.291 289.444L661.367 290.5V292H660.011ZM668.519 292.144C667.975 292.144 667.483 292.024 667.043 291.784C666.603 291.536 666.255 291.184 665.999 290.728C665.743 290.264 665.615 289.708 665.615 289.06C665.615 288.42 665.743 287.868 665.999 287.404C666.263 286.94 666.603 286.584 667.019 286.336C667.435 286.088 667.871 285.964 668.327 285.964C668.863 285.964 669.311 286.084 669.671 286.324C670.031 286.556 670.303 286.884 670.487 287.308C670.671 287.724 670.763 288.208 670.763 288.76C670.763 289.048 670.743 289.272 670.703 289.432H666.959C667.023 289.952 667.211 290.356 667.523 290.644C667.835 290.932 668.227 291.076 668.699 291.076C668.955 291.076 669.191 291.04 669.407 290.968C669.631 290.888 669.851 290.78 670.067 290.644L670.535 291.508C670.255 291.692 669.943 291.844 669.599 291.964C669.255 292.084 668.895 292.144 668.519 292.144ZM666.947 288.496H669.563C669.563 288.04 669.463 287.684 669.263 287.428C669.063 287.164 668.763 287.032 668.363 287.032C668.019 287.032 667.711 287.16 667.439 287.416C667.175 287.664 667.011 288.024 666.947 288.496ZM672.081 292V286.108H673.221L673.317 287.152H673.365C673.573 286.768 673.825 286.476 674.121 286.276C674.417 286.068 674.721 285.964 675.033 285.964C675.313 285.964 675.537 286.004 675.705 286.084L675.465 287.284C675.361 287.252 675.265 287.228 675.177 287.212C675.089 287.196 674.981 287.188 674.853 287.188C674.621 287.188 674.377 287.28 674.121 287.464C673.865 287.64 673.645 287.952 673.461 288.4V292H672.081ZM678.131 292.144C677.731 292.144 677.331 292.068 676.931 291.916C676.531 291.756 676.187 291.56 675.899 291.328L676.547 290.44C676.811 290.64 677.075 290.8 677.339 290.92C677.603 291.04 677.883 291.1 678.179 291.1C678.499 291.1 678.735 291.032 678.887 290.896C679.039 290.76 679.115 290.592 679.115 290.392C679.115 290.224 679.051 290.088 678.923 289.984C678.803 289.872 678.647 289.776 678.455 289.696C678.263 289.608 678.063 289.524 677.855 289.444C677.599 289.348 677.343 289.232 677.087 289.096C676.839 288.952 676.635 288.772 676.475 288.556C676.315 288.332 676.235 288.056 676.235 287.728C676.235 287.208 676.427 286.784 676.811 286.456C677.195 286.128 677.715 285.964 678.371 285.964C678.787 285.964 679.159 286.036 679.487 286.18C679.815 286.324 680.099 286.488 680.339 286.672L679.703 287.512C679.495 287.36 679.283 287.24 679.067 287.152C678.859 287.056 678.639 287.008 678.407 287.008C678.111 287.008 677.891 287.072 677.747 287.2C677.603 287.32 677.531 287.472 677.531 287.656C677.531 287.888 677.651 288.064 677.891 288.184C678.131 288.304 678.411 288.42 678.731 288.532C679.003 288.628 679.267 288.748 679.523 288.892C679.779 289.028 679.991 289.208 680.159 289.432C680.335 289.656 680.423 289.952 680.423 290.32C680.423 290.824 680.227 291.256 679.835 291.616C679.443 291.968 678.875 292.144 678.131 292.144Z" fill="#181E25"/>
<path d="M700 407H590C587.791 407 586 405.209 586 403V354C586 351.791 587.791 350 590 350H700C702.209 350 704 351.791 704 354V403C704 405.209 702.209 407 700 407Z" fill="#F9FAFB" stroke="#15AABF" stroke-width="2"/>
<g clip-path="url(#clip2_44_12528)">
<path d="M637.5 391H617.5C616.4 391 615.5 390.1 615.5 389V369C615.5 367.9 616.4 367 617.5 367H637.5C638.6 367 639.5 367.9 639.5 369V389C639.5 390.1 638.6 391 637.5 391Z" fill="#F9FAFB"/>
<path d="M634.25 372.25L620.75 372.25L620.75 385.75L634.25 385.75L634.25 372.25Z" fill="#F9FAFB" stroke="#4DB5A3" stroke-width="0.75"/>
<path d="M634.25 388C635.493 388 636.5 386.993 636.5 385.75C636.5 384.507 635.493 383.5 634.25 383.5C633.007 383.5 632 384.507 632 385.75C632 386.993 633.007 388 634.25 388Z" fill="#0C8599"/>
<path d="M620.75 374.5C621.993 374.5 623 373.493 623 372.25C623 371.007 621.993 370 620.75 370C619.507 370 618.5 371.007 618.5 372.25C618.5 373.493 619.507 374.5 620.75 374.5Z" fill="#0C8599"/>
<path d="M634.25 374.5C635.493 374.5 636.5 373.493 636.5 372.25C636.5 371.007 635.493 370 634.25 370C633.007 370 632 371.007 632 372.25C632 373.493 633.007 374.5 634.25 374.5Z" fill="#0C8599"/>
<path d="M620.75 388C621.993 388 623 386.993 623 385.75C623 384.507 621.993 383.5 620.75 383.5C619.507 383.5 618.5 384.507 618.5 385.75C618.5 386.993 619.507 388 620.75 388Z" fill="#0C8599"/>
</g>
<path d="M644.064 383V382.16L647.856 376.328H644.412V375.152H649.584V375.992L645.78 381.824H649.608V383H644.064ZM653.153 383.144C652.665 383.144 652.209 383.024 651.785 382.784C651.361 382.536 651.017 382.184 650.753 381.728C650.489 381.264 650.357 380.708 650.357 380.06C650.357 379.404 650.489 378.848 650.753 378.392C651.017 377.928 651.361 377.576 651.785 377.336C652.209 377.088 652.665 376.964 653.153 376.964C653.649 376.964 654.109 377.088 654.533 377.336C654.957 377.576 655.301 377.928 655.565 378.392C655.829 378.848 655.961 379.404 655.961 380.06C655.961 380.708 655.829 381.264 655.565 381.728C655.301 382.184 654.957 382.536 654.533 382.784C654.109 383.024 653.649 383.144 653.153 383.144ZM653.153 382.016C653.585 382.016 653.925 381.836 654.173 381.476C654.421 381.116 654.545 380.644 654.545 380.06C654.545 379.468 654.421 378.992 654.173 378.632C653.925 378.272 653.585 378.092 653.153 378.092C652.721 378.092 652.381 378.272 652.133 378.632C651.893 378.992 651.773 379.468 651.773 380.06C651.773 380.644 651.893 381.116 652.133 381.476C652.381 381.836 652.721 382.016 653.153 382.016ZM657.327 383V377.108H658.467L658.563 377.9H658.611C658.875 377.644 659.163 377.424 659.475 377.24C659.787 377.056 660.143 376.964 660.543 376.964C661.175 376.964 661.635 377.168 661.923 377.576C662.211 377.984 662.355 378.56 662.355 379.304V383H660.975V379.484C660.975 378.996 660.903 378.652 660.759 378.452C660.615 378.252 660.379 378.152 660.051 378.152C659.795 378.152 659.567 378.216 659.367 378.344C659.175 378.464 658.955 378.644 658.707 378.884V383H657.327ZM666.562 383.144C666.018 383.144 665.526 383.024 665.086 382.784C664.646 382.536 664.298 382.184 664.042 381.728C663.786 381.264 663.658 380.708 663.658 380.06C663.658 379.42 663.786 378.868 664.042 378.404C664.306 377.94 664.646 377.584 665.062 377.336C665.478 377.088 665.914 376.964 666.37 376.964C666.906 376.964 667.354 377.084 667.714 377.324C668.074 377.556 668.346 377.884 668.53 378.308C668.714 378.724 668.806 379.208 668.806 379.76C668.806 380.048 668.786 380.272 668.746 380.432H665.002C665.066 380.952 665.254 381.356 665.566 381.644C665.878 381.932 666.27 382.076 666.742 382.076C666.998 382.076 667.234 382.04 667.45 381.968C667.674 381.888 667.894 381.78 668.11 381.644L668.578 382.508C668.298 382.692 667.986 382.844 667.642 382.964C667.298 383.084 666.938 383.144 666.562 383.144ZM664.99 379.496H667.606C667.606 379.04 667.506 378.684 667.306 378.428C667.106 378.164 666.806 378.032 666.406 378.032C666.062 378.032 665.754 378.16 665.482 378.416C665.218 378.664 665.054 379.024 664.99 379.496ZM671.768 383.144C671.368 383.144 670.968 383.068 670.568 382.916C670.168 382.756 669.824 382.56 669.536 382.328L670.184 381.44C670.448 381.64 670.712 381.8 670.976 381.92C671.24 382.04 671.52 382.1 671.816 382.1C672.136 382.1 672.372 382.032 672.524 381.896C672.676 381.76 672.752 381.592 672.752 381.392C672.752 381.224 672.688 381.088 672.56 380.984C672.44 380.872 672.284 380.776 672.092 380.696C671.9 380.608 671.7 380.524 671.492 380.444C671.236 380.348 670.98 380.232 670.724 380.096C670.476 379.952 670.272 379.772 670.112 379.556C669.952 379.332 669.872 379.056 669.872 378.728C669.872 378.208 670.064 377.784 670.448 377.456C670.832 377.128 671.352 376.964 672.008 376.964C672.424 376.964 672.796 377.036 673.124 377.18C673.452 377.324 673.736 377.488 673.976 377.672L673.34 378.512C673.132 378.36 672.92 378.24 672.704 378.152C672.496 378.056 672.276 378.008 672.044 378.008C671.748 378.008 671.528 378.072 671.384 378.2C671.24 378.32 671.168 378.472 671.168 378.656C671.168 378.888 671.288 379.064 671.528 379.184C671.768 379.304 672.048 379.42 672.368 379.532C672.64 379.628 672.904 379.748 673.16 379.892C673.416 380.028 673.628 380.208 673.796 380.432C673.972 380.656 674.06 380.952 674.06 381.32C674.06 381.824 673.864 382.256 673.472 382.616C673.08 382.968 672.512 383.144 671.768 383.144Z" fill="#181E25"/>
<path d="M136.597 105.748V104.091H145.3V105.748H141.929V115H139.968V105.748H136.597ZM149.275 115.16C148.476 115.16 147.784 114.984 147.198 114.632C146.612 114.281 146.158 113.789 145.834 113.157C145.515 112.525 145.355 111.786 145.355 110.941C145.355 110.096 145.515 109.355 145.834 108.72C146.158 108.084 146.612 107.591 147.198 107.239C147.784 106.887 148.476 106.712 149.275 106.712C150.074 106.712 150.767 106.887 151.353 107.239C151.939 107.591 152.392 108.084 152.711 108.72C153.034 109.355 153.196 110.096 153.196 110.941C153.196 111.786 153.034 112.525 152.711 113.157C152.392 113.789 151.939 114.281 151.353 114.632C150.767 114.984 150.074 115.16 149.275 115.16ZM149.286 113.615C149.719 113.615 150.082 113.496 150.373 113.258C150.664 113.017 150.881 112.694 151.023 112.289C151.168 111.884 151.241 111.433 151.241 110.936C151.241 110.435 151.168 109.982 151.023 109.577C150.881 109.169 150.664 108.844 150.373 108.603C150.082 108.361 149.719 108.24 149.286 108.24C148.842 108.24 148.473 108.361 148.178 108.603C147.887 108.844 147.669 109.169 147.523 109.577C147.381 109.982 147.31 110.435 147.31 110.936C147.31 111.433 147.381 111.884 147.523 112.289C147.669 112.694 147.887 113.017 148.178 113.258C148.473 113.496 148.842 113.615 149.286 113.615ZM154.833 118.068V106.818H156.729V108.171H156.841C156.94 107.972 157.08 107.761 157.262 107.537C157.443 107.31 157.688 107.116 157.997 106.957C158.306 106.793 158.7 106.712 159.179 106.712C159.811 106.712 160.381 106.873 160.889 107.196C161.4 107.516 161.805 107.99 162.104 108.619C162.405 109.244 162.556 110.011 162.556 110.92C162.556 111.818 162.409 112.582 162.114 113.21C161.819 113.839 161.418 114.318 160.91 114.648C160.403 114.979 159.827 115.144 159.184 115.144C158.716 115.144 158.327 115.066 158.018 114.909C157.709 114.753 157.46 114.565 157.272 114.345C157.088 114.121 156.944 113.91 156.841 113.711H156.761V118.068H154.833ZM156.724 110.909C156.724 111.438 156.798 111.902 156.947 112.299C157.1 112.697 157.318 113.008 157.602 113.232C157.89 113.452 158.238 113.562 158.646 113.562C159.073 113.562 159.43 113.448 159.717 113.221C160.005 112.99 160.221 112.676 160.367 112.278C160.516 111.877 160.591 111.42 160.591 110.909C160.591 110.401 160.518 109.95 160.372 109.556C160.227 109.162 160.01 108.853 159.722 108.629C159.435 108.406 159.076 108.294 158.646 108.294C158.235 108.294 157.885 108.402 157.597 108.619C157.309 108.835 157.091 109.139 156.942 109.529C156.796 109.92 156.724 110.38 156.724 110.909ZM169.167 109.663V111.25H164.256V109.663H169.167ZM171.28 115V104.091H173.256V113.343H178.061V115H171.28ZM183.313 115.16C182.493 115.16 181.784 114.989 181.188 114.648C180.595 114.304 180.138 113.817 179.819 113.189C179.499 112.557 179.339 111.813 179.339 110.957C179.339 110.115 179.499 109.377 179.819 108.741C180.142 108.102 180.593 107.605 181.172 107.25C181.751 106.891 182.431 106.712 183.212 106.712C183.716 106.712 184.192 106.793 184.639 106.957C185.09 107.116 185.488 107.365 185.833 107.702C186.181 108.04 186.454 108.469 186.653 108.991C186.852 109.51 186.951 110.128 186.951 110.845V111.436H180.245V110.137H185.103C185.099 109.767 185.019 109.439 184.863 109.151C184.707 108.86 184.489 108.631 184.208 108.464C183.931 108.297 183.608 108.214 183.239 108.214C182.844 108.214 182.498 108.31 182.2 108.501C181.902 108.69 181.669 108.938 181.502 109.247C181.339 109.553 181.255 109.888 181.252 110.254V111.388C181.252 111.864 181.339 112.273 181.513 112.614C181.687 112.951 181.93 113.21 182.242 113.391C182.555 113.569 182.921 113.658 183.34 113.658C183.62 113.658 183.874 113.619 184.101 113.54C184.329 113.459 184.526 113.34 184.693 113.184C184.86 113.027 184.986 112.834 185.071 112.603L186.871 112.805C186.758 113.281 186.541 113.697 186.222 114.052C185.905 114.403 185.501 114.677 185.007 114.872C184.513 115.064 183.949 115.16 183.313 115.16ZM195.656 106.818L192.743 115H190.612L187.698 106.818H189.754L191.635 112.896H191.72L193.606 106.818H195.656ZM200.335 115.16C199.514 115.16 198.806 114.989 198.209 114.648C197.616 114.304 197.16 113.817 196.84 113.189C196.521 112.557 196.361 111.813 196.361 110.957C196.361 110.115 196.521 109.377 196.84 108.741C197.163 108.102 197.614 107.605 198.193 107.25C198.772 106.891 199.452 106.712 200.233 106.712C200.738 106.712 201.214 106.793 201.661 106.957C202.112 107.116 202.51 107.365 202.854 107.702C203.202 108.04 203.476 108.469 203.674 108.991C203.873 109.51 203.973 110.128 203.973 110.845V111.436H197.266V110.137H202.124C202.121 109.767 202.041 109.439 201.885 109.151C201.728 108.86 201.51 108.631 201.229 108.464C200.953 108.297 200.629 108.214 200.26 108.214C199.866 108.214 199.52 108.31 199.221 108.501C198.923 108.69 198.69 108.938 198.524 109.247C198.36 109.553 198.277 109.888 198.273 110.254V111.388C198.273 111.864 198.36 112.273 198.534 112.614C198.708 112.951 198.951 113.21 199.264 113.391C199.576 113.569 199.942 113.658 200.361 113.658C200.642 113.658 200.896 113.619 201.123 113.54C201.35 113.459 201.547 113.34 201.714 113.184C201.881 113.027 202.007 112.834 202.092 112.603L203.893 112.805C203.779 113.281 203.563 113.697 203.243 114.052C202.927 114.403 202.522 114.677 202.028 114.872C201.535 115.064 200.97 115.16 200.335 115.16ZM207.532 104.091V115H205.604V104.091H207.532ZM213.321 115V104.091H217.412C218.25 104.091 218.953 104.247 219.521 104.56C220.093 104.872 220.525 105.302 220.816 105.849C221.111 106.392 221.258 107.01 221.258 107.702C221.258 108.402 221.111 109.023 220.816 109.567C220.521 110.11 220.086 110.538 219.511 110.85C218.935 111.159 218.227 111.314 217.385 111.314H214.674V109.689H217.119C217.609 109.689 218.01 109.604 218.323 109.434C218.635 109.263 218.866 109.029 219.015 108.73C219.168 108.432 219.244 108.089 219.244 107.702C219.244 107.315 219.168 106.974 219.015 106.68C218.866 106.385 218.634 106.156 218.318 105.993C218.005 105.826 217.602 105.742 217.108 105.742H215.297V115H213.321ZM225.097 115.165C224.579 115.165 224.112 115.073 223.696 114.888C223.284 114.7 222.958 114.423 222.716 114.057C222.478 113.691 222.359 113.24 222.359 112.704C222.359 112.243 222.444 111.861 222.615 111.559C222.785 111.257 223.018 111.016 223.313 110.835C223.607 110.653 223.939 110.517 224.309 110.424C224.682 110.328 225.067 110.259 225.465 110.217C225.944 110.167 226.333 110.123 226.631 110.083C226.93 110.041 227.146 109.977 227.281 109.892C227.42 109.803 227.489 109.666 227.489 109.482V109.45C227.489 109.048 227.37 108.738 227.132 108.517C226.894 108.297 226.551 108.187 226.104 108.187C225.632 108.187 225.257 108.29 224.98 108.496C224.706 108.702 224.522 108.945 224.426 109.226L222.626 108.97C222.768 108.473 223.002 108.058 223.329 107.724C223.655 107.386 224.055 107.134 224.527 106.967C224.999 106.797 225.521 106.712 226.093 106.712C226.487 106.712 226.88 106.758 227.27 106.85C227.661 106.942 228.018 107.095 228.341 107.308C228.664 107.518 228.923 107.804 229.119 108.166C229.318 108.528 229.417 108.981 229.417 109.524V115H227.563V113.876H227.499C227.382 114.103 227.217 114.316 227.004 114.515C226.795 114.711 226.53 114.869 226.21 114.989C225.894 115.107 225.523 115.165 225.097 115.165ZM225.598 113.748C225.985 113.748 226.32 113.672 226.605 113.519C226.889 113.363 227.107 113.157 227.26 112.901C227.416 112.646 227.494 112.367 227.494 112.065V111.101C227.434 111.151 227.331 111.197 227.185 111.239C227.043 111.282 226.883 111.319 226.706 111.351C226.528 111.383 226.352 111.412 226.178 111.436C226.004 111.461 225.854 111.483 225.726 111.5C225.438 111.539 225.181 111.603 224.953 111.692C224.726 111.781 224.547 111.905 224.415 112.065C224.284 112.221 224.218 112.424 224.218 112.672C224.218 113.027 224.348 113.295 224.607 113.477C224.866 113.658 225.197 113.748 225.598 113.748ZM231.356 115V106.818H233.226V108.182H233.311C233.46 107.71 233.716 107.346 234.078 107.09C234.444 106.831 234.861 106.701 235.33 106.701C235.436 106.701 235.555 106.706 235.687 106.717C235.822 106.724 235.933 106.737 236.022 106.754V108.528C235.941 108.5 235.811 108.475 235.633 108.453C235.459 108.429 235.291 108.416 235.127 108.416C234.776 108.416 234.46 108.493 234.179 108.645C233.902 108.794 233.684 109.002 233.524 109.268C233.364 109.535 233.284 109.842 233.284 110.19V115H231.356ZM240.589 115.16C239.768 115.16 239.06 114.989 238.463 114.648C237.87 114.304 237.414 113.817 237.094 113.189C236.775 112.557 236.615 111.813 236.615 110.957C236.615 110.115 236.775 109.377 237.094 108.741C237.417 108.102 237.868 107.605 238.447 107.25C239.026 106.891 239.706 106.712 240.487 106.712C240.992 106.712 241.467 106.793 241.915 106.957C242.366 107.116 242.764 107.365 243.108 107.702C243.456 108.04 243.729 108.469 243.928 108.991C244.127 109.51 244.227 110.128 244.227 110.845V111.436H237.52V110.137H242.378C242.375 109.767 242.295 109.439 242.139 109.151C241.982 108.86 241.764 108.631 241.483 108.464C241.206 108.297 240.883 108.214 240.514 108.214C240.12 108.214 239.774 108.31 239.475 108.501C239.177 108.69 238.944 108.938 238.777 109.247C238.614 109.553 238.531 109.888 238.527 110.254V111.388C238.527 111.864 238.614 112.273 238.788 112.614C238.962 112.951 239.205 113.21 239.518 113.391C239.83 113.569 240.196 113.658 240.615 113.658C240.896 113.658 241.15 113.619 241.377 113.54C241.604 113.459 241.801 113.34 241.968 113.184C242.135 113.027 242.261 112.834 242.346 112.603L244.147 112.805C244.033 113.281 243.816 113.697 243.497 114.052C243.181 114.403 242.776 114.677 242.282 114.872C241.789 115.064 241.224 115.16 240.589 115.16ZM247.786 110.206V115H245.858V106.818H247.701V108.208H247.797C247.985 107.75 248.285 107.386 248.697 107.116C249.113 106.847 249.626 106.712 250.237 106.712C250.801 106.712 251.293 106.832 251.712 107.074C252.135 107.315 252.461 107.665 252.692 108.123C252.926 108.581 253.042 109.137 253.038 109.79V115H251.11V110.089C251.11 109.542 250.968 109.114 250.684 108.805C250.403 108.496 250.015 108.342 249.517 108.342C249.18 108.342 248.88 108.416 248.617 108.565C248.358 108.711 248.154 108.922 248.005 109.199C247.859 109.476 247.786 109.812 247.786 110.206ZM259.084 106.818V108.31H254.381V106.818H259.084ZM255.542 104.858H257.47V112.539C257.47 112.798 257.509 112.997 257.587 113.136C257.669 113.271 257.776 113.363 257.907 113.413C258.038 113.462 258.184 113.487 258.344 113.487C258.464 113.487 258.575 113.478 258.674 113.461C258.777 113.443 258.855 113.427 258.908 113.413L259.233 114.92C259.13 114.956 258.983 114.995 258.791 115.037C258.603 115.08 258.372 115.105 258.099 115.112C257.616 115.126 257.181 115.053 256.794 114.893C256.407 114.73 256.099 114.478 255.872 114.137C255.648 113.796 255.538 113.37 255.542 112.859V104.858Z" fill="black"/>
<path d="M137.076 84V73.0909H141.167C142.005 73.0909 142.708 73.2365 143.276 73.5277C143.848 73.8189 144.279 74.2273 144.571 74.7528C144.865 75.2749 145.013 75.8839 145.013 76.5799C145.013 77.2795 144.864 77.8867 144.565 78.4016C144.271 78.913 143.836 79.3089 143.26 79.5895C142.685 79.8665 141.978 80.005 141.14 80.005H138.227V78.3643H140.874C141.364 78.3643 141.765 78.2969 142.078 78.1619C142.39 78.0234 142.621 77.8228 142.77 77.56C142.923 77.2937 142.999 76.967 142.999 76.5799C142.999 76.1928 142.923 75.8626 142.77 75.5891C142.618 75.3121 142.385 75.1026 142.072 74.9606C141.76 74.815 141.357 74.7422 140.863 74.7422H139.052V84H137.076ZM142.712 79.0568L145.412 84H143.207L140.554 79.0568H142.712ZM150.198 84.1598C149.399 84.1598 148.707 83.984 148.121 83.6325C147.535 83.2809 147.08 82.7891 146.757 82.157C146.438 81.5249 146.278 80.7862 146.278 79.9411C146.278 79.0959 146.438 78.3555 146.757 77.7198C147.08 77.0842 147.535 76.5906 148.121 76.239C148.707 75.8874 149.399 75.7116 150.198 75.7116C150.997 75.7116 151.69 75.8874 152.276 76.239C152.862 76.5906 153.314 77.0842 153.634 77.7198C153.957 78.3555 154.119 79.0959 154.119 79.9411C154.119 80.7862 153.957 81.5249 153.634 82.157C153.314 82.7891 152.862 83.2809 152.276 83.6325C151.69 83.984 150.997 84.1598 150.198 84.1598ZM150.209 82.6151C150.642 82.6151 151.004 82.4961 151.296 82.2582C151.587 82.0167 151.803 81.6935 151.945 81.2887C152.091 80.8839 152.164 80.4329 152.164 79.9357C152.164 79.435 152.091 78.9822 151.945 78.5774C151.803 78.169 151.587 77.8441 151.296 77.6026C151.004 77.3612 150.642 77.2404 150.209 77.2404C149.765 77.2404 149.396 77.3612 149.101 77.6026C148.81 77.8441 148.591 78.169 148.446 78.5774C148.304 78.9822 148.233 79.435 148.233 79.9357C148.233 80.4329 148.304 80.8839 148.446 81.2887C148.591 81.6935 148.81 82.0167 149.101 82.2582C149.396 82.4961 149.765 82.6151 150.209 82.6151ZM159.324 84.1598C158.525 84.1598 157.833 83.984 157.247 83.6325C156.661 83.2809 156.206 82.7891 155.883 82.157C155.564 81.5249 155.404 80.7862 155.404 79.9411C155.404 79.0959 155.564 78.3555 155.883 77.7198C156.206 77.0842 156.661 76.5906 157.247 76.239C157.833 75.8874 158.525 75.7116 159.324 75.7116C160.123 75.7116 160.816 75.8874 161.402 76.239C161.988 76.5906 162.44 77.0842 162.76 77.7198C163.083 78.3555 163.245 79.0959 163.245 79.9411C163.245 80.7862 163.083 81.5249 162.76 82.157C162.44 82.7891 161.988 83.2809 161.402 83.6325C160.816 83.984 160.123 84.1598 159.324 84.1598ZM159.335 82.6151C159.768 82.6151 160.13 82.4961 160.422 82.2582C160.713 82.0167 160.929 81.6935 161.071 81.2887C161.217 80.8839 161.29 80.4329 161.29 79.9357C161.29 79.435 161.217 78.9822 161.071 78.5774C160.929 78.169 160.713 77.8441 160.422 77.6026C160.13 77.3612 159.768 77.2404 159.335 77.2404C158.891 77.2404 158.522 77.3612 158.227 77.6026C157.936 77.8441 157.717 78.169 157.572 78.5774C157.43 78.9822 157.359 79.435 157.359 79.9357C157.359 80.4329 157.43 80.8839 157.572 81.2887C157.717 81.6935 157.936 82.0167 158.227 82.2582C158.522 82.4961 158.891 82.6151 159.335 82.6151ZM168.967 75.8182V77.3097H164.263V75.8182H168.967ZM165.425 73.858H167.353V81.5391C167.353 81.7983 167.392 81.9972 167.47 82.1357C167.552 82.2706 167.658 82.3629 167.79 82.4126C167.921 82.4624 168.067 82.4872 168.227 82.4872C168.347 82.4872 168.457 82.4783 168.557 82.4606C168.66 82.4428 168.738 82.4268 168.791 82.4126L169.116 83.9201C169.013 83.9556 168.866 83.9947 168.674 84.0373C168.486 84.0799 168.255 84.1048 167.982 84.1119C167.499 84.1261 167.064 84.0533 166.676 83.8935C166.289 83.7301 165.982 83.478 165.755 83.1371C165.531 82.7962 165.421 82.37 165.425 81.8587V73.858Z" fill="#0024AC"/>
<path d="M356.076 84V73.0909H358.052V82.3434H362.857V84H356.076ZM368.109 84.1598C367.289 84.1598 366.58 83.9893 365.984 83.6484C365.391 83.304 364.934 82.8175 364.615 82.1889C364.295 81.5568 364.135 80.8129 364.135 79.957C364.135 79.1154 364.295 78.3768 364.615 77.7411C364.938 77.1019 365.389 76.6048 365.968 76.2496C366.547 75.891 367.227 75.7116 368.008 75.7116C368.512 75.7116 368.988 75.7933 369.435 75.9567C369.886 76.1165 370.284 76.3651 370.629 76.7024C370.977 77.0398 371.25 77.4695 371.449 77.9915C371.648 78.5099 371.747 79.1278 371.747 79.8452V80.4364H365.041V79.1367H369.899C369.895 78.7674 369.815 78.4389 369.659 78.1513C369.503 77.8601 369.284 77.631 369.004 77.4641C368.727 77.2972 368.404 77.2138 368.034 77.2138C367.64 77.2138 367.294 77.3097 366.996 77.5014C366.697 77.6896 366.465 77.9382 366.298 78.2472C366.135 78.5526 366.051 78.8881 366.048 79.2539V80.3885C366.048 80.8643 366.135 81.2727 366.309 81.6136C366.483 81.951 366.726 82.2102 367.038 82.3913C367.351 82.5689 367.717 82.6577 368.136 82.6577C368.416 82.6577 368.67 82.6186 368.897 82.5405C369.125 82.4588 369.322 82.3398 369.489 82.1836C369.656 82.0273 369.782 81.8338 369.867 81.603L371.667 81.8054C371.554 82.2812 371.337 82.6967 371.017 83.0518C370.701 83.4034 370.297 83.6768 369.803 83.8722C369.309 84.0639 368.745 84.1598 368.109 84.1598ZM380.452 75.8182L377.539 84H375.408L372.494 75.8182H374.55L376.431 81.896H376.516L378.402 75.8182H380.452ZM385.131 84.1598C384.31 84.1598 383.602 83.9893 383.005 83.6484C382.412 83.304 381.956 82.8175 381.636 82.1889C381.317 81.5568 381.157 80.8129 381.157 79.957C381.157 79.1154 381.317 78.3768 381.636 77.7411C381.959 77.1019 382.41 76.6048 382.989 76.2496C383.568 75.891 384.248 75.7116 385.029 75.7116C385.534 75.7116 386.009 75.7933 386.457 75.9567C386.908 76.1165 387.306 76.3651 387.65 76.7024C387.998 77.0398 388.271 77.4695 388.47 77.9915C388.669 78.5099 388.769 79.1278 388.769 79.8452V80.4364H382.062V79.1367H386.92C386.917 78.7674 386.837 78.4389 386.681 78.1513C386.524 77.8601 386.306 77.631 386.025 77.4641C385.748 77.2972 385.425 77.2138 385.056 77.2138C384.662 77.2138 384.316 77.3097 384.017 77.5014C383.719 77.6896 383.486 77.9382 383.319 78.2472C383.156 78.5526 383.073 78.8881 383.069 79.2539V80.3885C383.069 80.8643 383.156 81.2727 383.33 81.6136C383.504 81.951 383.747 82.2102 384.06 82.3913C384.372 82.5689 384.738 82.6577 385.157 82.6577C385.438 82.6577 385.692 82.6186 385.919 82.5405C386.146 82.4588 386.343 82.3398 386.51 82.1836C386.677 82.0273 386.803 81.8338 386.888 81.603L388.689 81.8054C388.575 82.2812 388.358 82.6967 388.039 83.0518C387.723 83.4034 387.318 83.6768 386.824 83.8722C386.331 84.0639 385.766 84.1598 385.131 84.1598ZM392.328 73.0909V84H390.4V73.0909H392.328ZM402.448 73.0909V84H400.471V75.0138H400.407L397.856 76.6438V74.8327L400.567 73.0909H402.448Z" fill="#0024AC"/>
<path d="M586.076 84V73.0909H588.052V82.3434H592.857V84H586.076ZM598.109 84.1598C597.289 84.1598 596.58 83.9893 595.984 83.6484C595.391 83.304 594.934 82.8175 594.615 82.1889C594.295 81.5568 594.135 80.8129 594.135 79.957C594.135 79.1154 594.295 78.3768 594.615 77.7411C594.938 77.1019 595.389 76.6048 595.968 76.2496C596.547 75.891 597.227 75.7116 598.008 75.7116C598.512 75.7116 598.988 75.7933 599.435 75.9567C599.886 76.1165 600.284 76.3651 600.629 76.7024C600.977 77.0398 601.25 77.4695 601.449 77.9915C601.648 78.5099 601.747 79.1278 601.747 79.8452V80.4364H595.041V79.1367H599.899C599.895 78.7674 599.815 78.4389 599.659 78.1513C599.503 77.8601 599.284 77.631 599.004 77.4641C598.727 77.2972 598.404 77.2138 598.034 77.2138C597.64 77.2138 597.294 77.3097 596.996 77.5014C596.697 77.6896 596.465 77.9382 596.298 78.2472C596.135 78.5526 596.051 78.8881 596.048 79.2539V80.3885C596.048 80.8643 596.135 81.2727 596.309 81.6136C596.483 81.951 596.726 82.2102 597.038 82.3913C597.351 82.5689 597.717 82.6577 598.136 82.6577C598.416 82.6577 598.67 82.6186 598.897 82.5405C599.125 82.4588 599.322 82.3398 599.489 82.1836C599.656 82.0273 599.782 81.8338 599.867 81.603L601.667 81.8054C601.554 82.2812 601.337 82.6967 601.017 83.0518C600.701 83.4034 600.297 83.6768 599.803 83.8722C599.309 84.0639 598.745 84.1598 598.109 84.1598ZM610.452 75.8182L607.539 84H605.408L602.494 75.8182H604.55L606.431 81.896H606.516L608.402 75.8182H610.452ZM615.131 84.1598C614.31 84.1598 613.602 83.9893 613.005 83.6484C612.412 83.304 611.956 82.8175 611.636 82.1889C611.317 81.5568 611.157 80.8129 611.157 79.957C611.157 79.1154 611.317 78.3768 611.636 77.7411C611.959 77.1019 612.41 76.6048 612.989 76.2496C613.568 75.891 614.248 75.7116 615.029 75.7116C615.534 75.7116 616.009 75.7933 616.457 75.9567C616.908 76.1165 617.306 76.3651 617.65 76.7024C617.998 77.0398 618.271 77.4695 618.47 77.9915C618.669 78.5099 618.769 79.1278 618.769 79.8452V80.4364H612.062V79.1367H616.92C616.917 78.7674 616.837 78.4389 616.681 78.1513C616.524 77.8601 616.306 77.631 616.025 77.4641C615.748 77.2972 615.425 77.2138 615.056 77.2138C614.662 77.2138 614.316 77.3097 614.017 77.5014C613.719 77.6896 613.486 77.9382 613.319 78.2472C613.156 78.5526 613.073 78.8881 613.069 79.2539V80.3885C613.069 80.8643 613.156 81.2727 613.33 81.6136C613.504 81.951 613.747 82.2102 614.06 82.3913C614.372 82.5689 614.738 82.6577 615.157 82.6577C615.438 82.6577 615.692 82.6186 615.919 82.5405C616.146 82.4588 616.343 82.3398 616.51 82.1836C616.677 82.0273 616.803 81.8338 616.888 81.603L618.689 81.8054C618.575 82.2812 618.358 82.6967 618.039 83.0518C617.723 83.4034 617.318 83.6768 616.824 83.8722C616.331 84.0639 615.766 84.1598 615.131 84.1598ZM622.328 73.0909V84H620.4V73.0909H622.328ZM628.01 84V82.5724L631.798 78.8597C632.16 78.494 632.462 78.169 632.703 77.8849C632.945 77.6009 633.126 77.3256 633.247 77.0593C633.367 76.793 633.428 76.5089 633.428 76.207C633.428 75.8626 633.35 75.5678 633.193 75.3228C633.037 75.0742 632.822 74.8825 632.549 74.7475C632.275 74.6126 631.965 74.5451 631.617 74.5451C631.258 74.5451 630.944 74.6197 630.674 74.7688C630.404 74.9144 630.194 75.1222 630.045 75.392C629.9 75.6619 629.827 75.9833 629.827 76.3562H627.947C627.947 75.6637 628.105 75.0618 628.421 74.5504C628.737 74.0391 629.172 73.6431 629.726 73.3626C630.283 73.082 630.922 72.9418 631.643 72.9418C632.375 72.9418 633.018 73.0785 633.572 73.3519C634.126 73.6254 634.555 74 634.861 74.4759C635.17 74.9517 635.324 75.495 635.324 76.1058C635.324 76.5142 635.246 76.9155 635.09 77.3097C634.933 77.7038 634.658 78.1406 634.264 78.62C633.873 79.0994 633.325 79.68 632.618 80.3619L630.738 82.2741V82.3487H635.489V84H628.01Z" fill="#0024AC"/>
<path d="M366.414 107.772H364.422C364.365 107.445 364.26 107.156 364.107 106.903C363.955 106.648 363.765 106.431 363.537 106.254C363.31 106.076 363.051 105.943 362.76 105.854C362.472 105.762 362.161 105.716 361.827 105.716C361.234 105.716 360.709 105.865 360.251 106.163C359.793 106.458 359.434 106.891 359.175 107.463C358.915 108.031 358.786 108.725 358.786 109.545C358.786 110.38 358.915 111.083 359.175 111.655C359.438 112.223 359.796 112.653 360.251 112.944C360.709 113.232 361.233 113.375 361.822 113.375C362.149 113.375 362.454 113.333 362.738 113.248C363.026 113.159 363.283 113.029 363.511 112.859C363.741 112.688 363.935 112.479 364.091 112.23C364.251 111.982 364.361 111.697 364.422 111.378L366.414 111.388C366.339 111.907 366.178 112.393 365.929 112.848C365.684 113.303 365.363 113.704 364.965 114.052C364.567 114.396 364.102 114.666 363.569 114.862C363.037 115.053 362.445 115.149 361.795 115.149C360.837 115.149 359.981 114.927 359.228 114.483C358.475 114.039 357.882 113.398 357.449 112.56C357.016 111.722 356.799 110.717 356.799 109.545C356.799 108.37 357.017 107.365 357.454 106.531C357.891 105.692 358.486 105.051 359.239 104.608C359.991 104.164 360.844 103.942 361.795 103.942C362.403 103.942 362.967 104.027 363.489 104.197C364.011 104.368 364.477 104.618 364.885 104.949C365.293 105.275 365.629 105.676 365.892 106.152C366.158 106.625 366.332 107.164 366.414 107.772ZM371.707 115.16C370.908 115.16 370.216 114.984 369.63 114.632C369.044 114.281 368.589 113.789 368.266 113.157C367.946 112.525 367.787 111.786 367.787 110.941C367.787 110.096 367.946 109.355 368.266 108.72C368.589 108.084 369.044 107.591 369.63 107.239C370.216 106.887 370.908 106.712 371.707 106.712C372.506 106.712 373.199 106.887 373.785 107.239C374.37 107.591 374.823 108.084 375.143 108.72C375.466 109.355 375.628 110.096 375.628 110.941C375.628 111.786 375.466 112.525 375.143 113.157C374.823 113.789 374.37 114.281 373.785 114.632C373.199 114.984 372.506 115.16 371.707 115.16ZM371.718 113.615C372.151 113.615 372.513 113.496 372.804 113.258C373.096 113.017 373.312 112.694 373.454 112.289C373.6 111.884 373.673 111.433 373.673 110.936C373.673 110.435 373.6 109.982 373.454 109.577C373.312 109.169 373.096 108.844 372.804 108.603C372.513 108.361 372.151 108.24 371.718 108.24C371.274 108.24 370.905 108.361 370.61 108.603C370.319 108.844 370.1 109.169 369.955 109.577C369.813 109.982 369.742 110.435 369.742 110.936C369.742 111.433 369.813 111.884 369.955 112.289C370.1 112.694 370.319 113.017 370.61 113.258C370.905 113.496 371.274 113.615 371.718 113.615ZM377.264 115V106.818H379.107V108.208H379.203C379.374 107.74 379.656 107.374 380.05 107.111C380.444 106.845 380.915 106.712 381.462 106.712C382.016 106.712 382.483 106.847 382.863 107.116C383.246 107.383 383.516 107.747 383.672 108.208H383.757C383.939 107.754 384.244 107.392 384.674 107.122C385.107 106.848 385.62 106.712 386.213 106.712C386.966 106.712 387.58 106.95 388.056 107.425C388.532 107.901 388.77 108.596 388.77 109.508V115H386.836V109.806C386.836 109.299 386.701 108.928 386.431 108.693C386.162 108.455 385.831 108.336 385.441 108.336C384.975 108.336 384.612 108.482 384.349 108.773C384.089 109.061 383.96 109.435 383.96 109.897V115H382.069V109.727C382.069 109.304 381.941 108.967 381.685 108.714C381.433 108.462 381.103 108.336 380.695 108.336C380.418 108.336 380.165 108.407 379.938 108.549C379.711 108.688 379.53 108.885 379.395 109.141C379.26 109.393 379.192 109.687 379.192 110.025V115H377.264ZM390.726 118.068V106.818H392.622V108.171H392.734C392.834 107.972 392.974 107.761 393.155 107.537C393.336 107.31 393.581 107.116 393.89 106.957C394.199 106.793 394.593 106.712 395.073 106.712C395.705 106.712 396.275 106.873 396.783 107.196C397.294 107.516 397.699 107.99 397.997 108.619C398.299 109.244 398.45 110.011 398.45 110.92C398.45 111.818 398.302 112.582 398.008 113.21C397.713 113.839 397.312 114.318 396.804 114.648C396.296 114.979 395.721 115.144 395.078 115.144C394.609 115.144 394.22 115.066 393.911 114.909C393.603 114.753 393.354 114.565 393.166 114.345C392.981 114.121 392.837 113.91 392.734 113.711H392.654V118.068H390.726ZM392.617 110.909C392.617 111.438 392.692 111.902 392.841 112.299C392.994 112.697 393.212 113.008 393.496 113.232C393.784 113.452 394.132 113.562 394.54 113.562C394.966 113.562 395.323 113.448 395.611 113.221C395.898 112.99 396.115 112.676 396.261 112.278C396.41 111.877 396.484 111.42 396.484 110.909C396.484 110.401 396.411 109.95 396.266 109.556C396.12 109.162 395.904 108.853 395.616 108.629C395.328 108.406 394.97 108.294 394.54 108.294C394.128 108.294 393.778 108.402 393.491 108.619C393.203 108.835 392.985 109.139 392.835 109.529C392.69 109.92 392.617 110.38 392.617 110.909ZM402.456 115.165C401.937 115.165 401.47 115.073 401.055 114.888C400.643 114.7 400.316 114.423 400.074 114.057C399.837 113.691 399.718 113.24 399.718 112.704C399.718 112.243 399.803 111.861 399.973 111.559C400.144 111.257 400.376 111.016 400.671 110.835C400.966 110.653 401.298 110.517 401.667 110.424C402.04 110.328 402.425 110.259 402.823 110.217C403.302 110.167 403.691 110.123 403.99 110.083C404.288 110.041 404.505 109.977 404.639 109.892C404.778 109.803 404.847 109.666 404.847 109.482V109.45C404.847 109.048 404.728 108.738 404.49 108.517C404.252 108.297 403.91 108.187 403.462 108.187C402.99 108.187 402.615 108.29 402.338 108.496C402.065 108.702 401.88 108.945 401.784 109.226L399.984 108.97C400.126 108.473 400.36 108.058 400.687 107.724C401.014 107.386 401.413 107.134 401.886 106.967C402.358 106.797 402.88 106.712 403.452 106.712C403.846 106.712 404.238 106.758 404.629 106.85C405.019 106.942 405.376 107.095 405.699 107.308C406.023 107.518 406.282 107.804 406.477 108.166C406.676 108.528 406.775 108.981 406.775 109.524V115H404.922V113.876H404.858C404.741 114.103 404.576 114.316 404.362 114.515C404.153 114.711 403.888 114.869 403.569 114.989C403.253 115.107 402.882 115.165 402.456 115.165ZM402.956 113.748C403.343 113.748 403.679 113.672 403.963 113.519C404.247 113.363 404.465 113.157 404.618 112.901C404.774 112.646 404.853 112.367 404.853 112.065V111.101C404.792 111.151 404.689 111.197 404.544 111.239C404.402 111.282 404.242 111.319 404.064 111.351C403.887 111.383 403.711 111.412 403.537 111.436C403.363 111.461 403.212 111.483 403.084 111.5C402.796 111.539 402.539 111.603 402.312 111.692C402.084 111.781 401.905 111.905 401.774 112.065C401.642 112.221 401.577 112.424 401.577 112.672C401.577 113.027 401.706 113.295 401.965 113.477C402.225 113.658 402.555 113.748 402.956 113.748ZM410.643 110.206V115H408.714V106.818H410.557V108.208H410.653C410.842 107.75 411.142 107.386 411.554 107.116C411.969 106.847 412.482 106.712 413.093 106.712C413.658 106.712 414.149 106.832 414.568 107.074C414.991 107.315 415.318 107.665 415.549 108.123C415.783 108.581 415.898 109.137 415.895 109.79V115H413.967V110.089C413.967 109.542 413.824 109.114 413.54 108.805C413.26 108.496 412.871 108.342 412.374 108.342C412.036 108.342 411.736 108.416 411.474 108.565C411.214 108.711 411.01 108.922 410.861 109.199C410.715 109.476 410.643 109.812 410.643 110.206ZM418.761 118.068C418.498 118.068 418.255 118.047 418.031 118.004C417.811 117.965 417.635 117.919 417.503 117.866L417.951 116.364C418.231 116.445 418.482 116.484 418.702 116.481C418.922 116.477 419.116 116.408 419.283 116.273C419.453 116.142 419.597 115.922 419.714 115.613L419.879 115.17L416.912 106.818H418.958L420.843 112.997H420.929L422.82 106.818H424.87L421.594 115.991C421.442 116.424 421.239 116.795 420.987 117.104C420.735 117.417 420.426 117.654 420.06 117.818C419.698 117.985 419.265 118.068 418.761 118.068ZM439.348 107.772H437.356C437.299 107.445 437.195 107.156 437.042 106.903C436.889 106.648 436.699 106.431 436.472 106.254C436.245 106.076 435.985 105.943 435.694 105.854C435.407 105.762 435.096 105.716 434.762 105.716C434.169 105.716 433.643 105.865 433.185 106.163C432.727 106.458 432.369 106.891 432.109 107.463C431.85 108.031 431.72 108.725 431.72 109.545C431.72 110.38 431.85 111.083 432.109 111.655C432.372 112.223 432.731 112.653 433.185 112.944C433.643 113.232 434.167 113.375 434.757 113.375C435.083 113.375 435.389 113.333 435.673 113.248C435.96 113.159 436.218 113.029 436.445 112.859C436.676 112.688 436.87 112.479 437.026 112.23C437.186 111.982 437.296 111.697 437.356 111.378L439.348 111.388C439.274 111.907 439.112 112.393 438.864 112.848C438.619 113.303 438.297 113.704 437.899 114.052C437.502 114.396 437.036 114.666 436.504 114.862C435.971 115.053 435.38 115.149 434.73 115.149C433.771 115.149 432.915 114.927 432.163 114.483C431.41 114.039 430.817 113.398 430.383 112.56C429.95 111.722 429.734 110.717 429.734 109.545C429.734 108.37 429.952 107.365 430.389 106.531C430.826 105.692 431.42 105.051 432.173 104.608C432.926 104.164 433.778 103.942 434.73 103.942C435.337 103.942 435.902 104.027 436.424 104.197C436.946 104.368 437.411 104.618 437.82 104.949C438.228 105.275 438.563 105.676 438.826 106.152C439.093 106.625 439.267 107.164 439.348 107.772ZM443.001 110.206V115H441.073V104.091H442.958V108.208H443.054C443.246 107.747 443.543 107.383 443.944 107.116C444.349 106.847 444.864 106.712 445.489 106.712C446.057 106.712 446.552 106.831 446.975 107.069C447.397 107.306 447.724 107.654 447.955 108.113C448.189 108.571 448.306 109.13 448.306 109.79V115H446.378V110.089C446.378 109.538 446.236 109.11 445.952 108.805C445.672 108.496 445.277 108.342 444.77 108.342C444.429 108.342 444.123 108.416 443.853 108.565C443.587 108.711 443.377 108.922 443.225 109.199C443.076 109.476 443.001 109.812 443.001 110.206ZM450.272 115V106.818H452.2V115H450.272ZM451.241 105.657C450.936 105.657 450.673 105.556 450.453 105.353C450.233 105.147 450.123 104.901 450.123 104.613C450.123 104.322 450.233 104.075 450.453 103.873C450.673 103.667 450.936 103.564 451.241 103.564C451.55 103.564 451.813 103.667 452.03 103.873C452.25 104.075 452.36 104.322 452.36 104.613C452.36 104.901 452.25 105.147 452.03 105.353C451.813 105.556 451.55 105.657 451.241 105.657ZM456.111 104.091V115H454.183V104.091H456.111ZM461.131 115.144C460.488 115.144 459.912 114.979 459.405 114.648C458.897 114.318 458.496 113.839 458.201 113.21C457.906 112.582 457.759 111.818 457.759 110.92C457.759 110.011 457.908 109.244 458.206 108.619C458.508 107.99 458.915 107.516 459.426 107.196C459.937 106.873 460.507 106.712 461.136 106.712C461.615 106.712 462.009 106.793 462.318 106.957C462.627 107.116 462.872 107.31 463.053 107.537C463.235 107.761 463.375 107.972 463.474 108.171H463.554V104.091H465.488V115H463.591V113.711H463.474C463.375 113.91 463.231 114.121 463.043 114.345C462.855 114.565 462.606 114.753 462.297 114.909C461.988 115.066 461.599 115.144 461.131 115.144ZM461.669 113.562C462.077 113.562 462.425 113.452 462.713 113.232C463 113.008 463.219 112.697 463.368 112.299C463.517 111.902 463.591 111.438 463.591 110.909C463.591 110.38 463.517 109.92 463.368 109.529C463.222 109.139 463.006 108.835 462.718 108.619C462.434 108.402 462.084 108.294 461.669 108.294C461.239 108.294 460.88 108.406 460.593 108.629C460.305 108.853 460.088 109.162 459.943 109.556C459.797 109.95 459.724 110.401 459.724 110.909C459.724 111.42 459.797 111.877 459.943 112.278C460.092 112.676 460.31 112.99 460.598 113.221C460.889 113.448 461.246 113.562 461.669 113.562ZM467.543 115V106.818H469.412V108.182H469.497C469.647 107.71 469.902 107.346 470.264 107.09C470.63 106.831 471.047 106.701 471.516 106.701C471.623 106.701 471.742 106.706 471.873 106.717C472.008 106.724 472.12 106.737 472.209 106.754V108.528C472.127 108.5 471.997 108.475 471.82 108.453C471.646 108.429 471.477 108.416 471.314 108.416C470.962 108.416 470.646 108.493 470.366 108.645C470.089 108.794 469.87 109.002 469.71 109.268C469.551 109.535 469.471 109.842 469.471 110.19V115H467.543ZM476.775 115.16C475.955 115.16 475.246 114.989 474.65 114.648C474.057 114.304 473.6 113.817 473.281 113.189C472.961 112.557 472.801 111.813 472.801 110.957C472.801 110.115 472.961 109.377 473.281 108.741C473.604 108.102 474.055 107.605 474.634 107.25C475.213 106.891 475.893 106.712 476.674 106.712C477.178 106.712 477.654 106.793 478.101 106.957C478.552 107.116 478.95 107.365 479.295 107.702C479.643 108.04 479.916 108.469 480.115 108.991C480.314 109.51 480.413 110.128 480.413 110.845V111.436H473.707V110.137H478.565C478.561 109.767 478.481 109.439 478.325 109.151C478.169 108.86 477.95 108.631 477.67 108.464C477.393 108.297 477.07 108.214 476.7 108.214C476.306 108.214 475.96 108.31 475.662 108.501C475.363 108.69 475.131 108.938 474.964 109.247C474.801 109.553 474.717 109.888 474.714 110.254V111.388C474.714 111.864 474.801 112.273 474.975 112.614C475.149 112.951 475.392 113.21 475.704 113.391C476.017 113.569 476.383 113.658 476.802 113.658C477.082 113.658 477.336 113.619 477.563 113.54C477.791 113.459 477.988 113.34 478.155 113.184C478.322 113.027 478.448 112.834 478.533 112.603L480.333 112.805C480.22 113.281 480.003 113.697 479.683 114.052C479.367 114.403 478.963 114.677 478.469 114.872C477.975 115.064 477.411 115.16 476.775 115.16ZM483.973 110.206V115H482.044V106.818H483.888V108.208H483.983C484.172 107.75 484.472 107.386 484.884 107.116C485.299 106.847 485.812 106.712 486.423 106.712C486.988 106.712 487.479 106.832 487.899 107.074C488.321 107.315 488.648 107.665 488.879 108.123C489.113 108.581 489.228 109.137 489.225 109.79V115H487.297V110.089C487.297 109.542 487.155 109.114 486.87 108.805C486.59 108.496 486.201 108.342 485.704 108.342C485.367 108.342 485.066 108.416 484.804 108.565C484.544 108.711 484.34 108.922 484.191 109.199C484.046 109.476 483.973 109.812 483.973 110.206Z" fill="black"/>
<path d="M586.076 115V104.091H588.052V113.343H592.857V115H586.076ZM598.056 115.16C597.257 115.16 596.564 114.984 595.978 114.632C595.392 114.281 594.938 113.789 594.615 113.157C594.295 112.525 594.135 111.786 594.135 110.941C594.135 110.096 594.295 109.355 594.615 108.72C594.938 108.084 595.392 107.591 595.978 107.239C596.564 106.887 597.257 106.712 598.056 106.712C598.855 106.712 599.547 106.887 600.133 107.239C600.719 107.591 601.172 108.084 601.491 108.72C601.815 109.355 601.976 110.096 601.976 110.941C601.976 111.786 601.815 112.525 601.491 113.157C601.172 113.789 600.719 114.281 600.133 114.632C599.547 114.984 598.855 115.16 598.056 115.16ZM598.066 113.615C598.5 113.615 598.862 113.496 599.153 113.258C599.444 113.017 599.661 112.694 599.803 112.289C599.949 111.884 600.021 111.433 600.021 110.936C600.021 110.435 599.949 109.982 599.803 109.577C599.661 109.169 599.444 108.844 599.153 108.603C598.862 108.361 598.5 108.24 598.066 108.24C597.623 108.24 597.253 108.361 596.958 108.603C596.667 108.844 596.449 109.169 596.303 109.577C596.161 109.982 596.09 110.435 596.09 110.936C596.09 111.433 596.161 111.884 596.303 112.289C596.449 112.694 596.667 113.017 596.958 113.258C597.253 113.496 597.623 113.615 598.066 113.615ZM607.182 115.16C606.365 115.16 605.664 114.98 605.078 114.622C604.495 114.263 604.046 113.768 603.73 113.136C603.418 112.5 603.261 111.768 603.261 110.941C603.261 110.11 603.421 109.377 603.741 108.741C604.06 108.102 604.511 107.605 605.094 107.25C605.68 106.891 606.372 106.712 607.171 106.712C607.835 106.712 608.423 106.834 608.934 107.079C609.449 107.321 609.859 107.663 610.165 108.107C610.47 108.548 610.644 109.062 610.687 109.652H608.844C608.769 109.258 608.592 108.929 608.311 108.667C608.034 108.4 607.663 108.267 607.198 108.267C606.804 108.267 606.457 108.374 606.159 108.587C605.861 108.796 605.628 109.098 605.461 109.492C605.298 109.886 605.216 110.359 605.216 110.909C605.216 111.467 605.298 111.946 605.461 112.347C605.625 112.745 605.854 113.052 606.148 113.269C606.447 113.482 606.796 113.588 607.198 113.588C607.482 113.588 607.736 113.535 607.959 113.429C608.187 113.319 608.377 113.161 608.529 112.955C608.682 112.749 608.787 112.498 608.844 112.203H610.687C610.641 112.782 610.47 113.295 610.175 113.743C609.881 114.187 609.479 114.535 608.972 114.787C608.464 115.036 607.867 115.16 607.182 115.16ZM614.624 115.165C614.106 115.165 613.639 115.073 613.224 114.888C612.812 114.7 612.485 114.423 612.243 114.057C612.006 113.691 611.887 113.24 611.887 112.704C611.887 112.243 611.972 111.861 612.142 111.559C612.313 111.257 612.545 111.016 612.84 110.835C613.135 110.653 613.467 110.517 613.836 110.424C614.209 110.328 614.594 110.259 614.992 110.217C615.471 110.167 615.86 110.123 616.159 110.083C616.457 110.041 616.673 109.977 616.808 109.892C616.947 109.803 617.016 109.666 617.016 109.482V109.45C617.016 109.048 616.897 108.738 616.659 108.517C616.421 108.297 616.079 108.187 615.631 108.187C615.159 108.187 614.784 108.29 614.507 108.496C614.234 108.702 614.049 108.945 613.953 109.226L612.153 108.97C612.295 108.473 612.529 108.058 612.856 107.724C613.183 107.386 613.582 107.134 614.055 106.967C614.527 106.797 615.049 106.712 615.621 106.712C616.015 106.712 616.407 106.758 616.798 106.85C617.188 106.942 617.545 107.095 617.868 107.308C618.192 107.518 618.451 107.804 618.646 108.166C618.845 108.528 618.944 108.981 618.944 109.524V115H617.091V113.876H617.027C616.91 114.103 616.744 114.316 616.531 114.515C616.322 114.711 616.057 114.869 615.738 114.989C615.422 115.107 615.051 115.165 614.624 115.165ZM615.125 113.748C615.512 113.748 615.848 113.672 616.132 113.519C616.416 113.363 616.634 113.157 616.787 112.901C616.943 112.646 617.021 112.367 617.021 112.065V111.101C616.961 111.151 616.858 111.197 616.713 111.239C616.57 111.282 616.411 111.319 616.233 111.351C616.056 111.383 615.88 111.412 615.706 111.436C615.532 111.461 615.381 111.483 615.253 111.5C614.965 111.539 614.708 111.603 614.481 111.692C614.253 111.781 614.074 111.905 613.943 112.065C613.811 112.221 613.746 112.424 613.746 112.672C613.746 113.027 613.875 113.295 614.134 113.477C614.394 113.658 614.724 113.748 615.125 113.748ZM624.969 106.818V108.31H620.265V106.818H624.969ZM621.427 104.858H623.355V112.539C623.355 112.798 623.394 112.997 623.472 113.136C623.554 113.271 623.66 113.363 623.792 113.413C623.923 113.462 624.069 113.487 624.229 113.487C624.349 113.487 624.459 113.478 624.559 113.461C624.662 113.443 624.74 113.427 624.793 113.413L625.118 114.92C625.015 114.956 624.868 114.995 624.676 115.037C624.488 115.08 624.257 115.105 623.983 115.112C623.501 115.126 623.066 115.053 622.678 114.893C622.291 114.73 621.984 114.478 621.757 114.137C621.533 113.796 621.423 113.37 621.427 112.859V104.858ZM626.582 115V106.818H628.51V115H626.582ZM627.551 105.657C627.246 105.657 626.983 105.556 626.763 105.353C626.543 105.147 626.432 104.901 626.432 104.613C626.432 104.322 626.543 104.075 626.763 103.873C626.983 103.667 627.246 103.564 627.551 103.564C627.86 103.564 628.123 103.667 628.339 103.873C628.56 104.075 628.67 104.322 628.67 104.613C628.67 104.901 628.56 105.147 628.339 105.353C628.123 105.556 627.86 105.657 627.551 105.657ZM634.062 115.16C633.263 115.16 632.57 114.984 631.984 114.632C631.398 114.281 630.944 113.789 630.621 113.157C630.301 112.525 630.141 111.786 630.141 110.941C630.141 110.096 630.301 109.355 630.621 108.72C630.944 108.084 631.398 107.591 631.984 107.239C632.57 106.887 633.263 106.712 634.062 106.712C634.861 106.712 635.553 106.887 636.139 107.239C636.725 107.591 637.178 108.084 637.497 108.72C637.82 109.355 637.982 110.096 637.982 110.941C637.982 111.786 637.82 112.525 637.497 113.157C637.178 113.789 636.725 114.281 636.139 114.632C635.553 114.984 634.861 115.16 634.062 115.16ZM634.072 113.615C634.506 113.615 634.868 113.496 635.159 113.258C635.45 113.017 635.667 112.694 635.809 112.289C635.954 111.884 636.027 111.433 636.027 110.936C636.027 110.435 635.954 109.982 635.809 109.577C635.667 109.169 635.45 108.844 635.159 108.603C634.868 108.361 634.506 108.24 634.072 108.24C633.628 108.24 633.259 108.361 632.964 108.603C632.673 108.844 632.455 109.169 632.309 109.577C632.167 109.982 632.096 110.435 632.096 110.936C632.096 111.433 632.167 111.884 632.309 112.289C632.455 112.694 632.673 113.017 632.964 113.258C633.259 113.496 633.628 113.615 634.072 113.615ZM641.547 110.206V115H639.619V106.818H641.462V108.208H641.558C641.746 107.75 642.046 107.386 642.458 107.116C642.873 106.847 643.386 106.712 643.997 106.712C644.562 106.712 645.054 106.832 645.473 107.074C645.895 107.315 646.222 107.665 646.453 108.123C646.687 108.581 646.803 109.137 646.799 109.79V115H644.871V110.089C644.871 109.542 644.729 109.114 644.445 108.805C644.164 108.496 643.775 108.342 643.278 108.342C642.941 108.342 642.641 108.416 642.378 108.565C642.119 108.711 641.915 108.922 641.765 109.199C641.62 109.476 641.547 109.812 641.547 110.206ZM661.903 107.772H659.911C659.854 107.445 659.749 107.156 659.597 106.903C659.444 106.648 659.254 106.431 659.027 106.254C658.799 106.076 658.54 105.943 658.249 105.854C657.961 105.762 657.65 105.716 657.317 105.716C656.724 105.716 656.198 105.865 655.74 106.163C655.282 106.458 654.923 106.891 654.664 107.463C654.405 108.031 654.275 108.725 654.275 109.545C654.275 110.38 654.405 111.083 654.664 111.655C654.927 112.223 655.285 112.653 655.74 112.944C656.198 113.232 656.722 113.375 657.311 113.375C657.638 113.375 657.943 113.333 658.228 113.248C658.515 113.159 658.773 113.029 659 112.859C659.231 112.688 659.424 112.479 659.581 112.23C659.74 111.982 659.85 111.697 659.911 111.378L661.903 111.388C661.828 111.907 661.667 112.393 661.418 112.848C661.173 113.303 660.852 113.704 660.454 114.052C660.056 114.396 659.591 114.666 659.059 114.862C658.526 115.053 657.935 115.149 657.285 115.149C656.326 115.149 655.47 114.927 654.717 114.483C653.964 114.039 653.371 113.398 652.938 112.56C652.505 111.722 652.288 110.717 652.288 109.545C652.288 108.37 652.507 107.365 652.943 106.531C653.38 105.692 653.975 105.051 654.728 104.608C655.481 104.164 656.333 103.942 657.285 103.942C657.892 103.942 658.457 104.027 658.979 104.197C659.501 104.368 659.966 104.618 660.374 104.949C660.783 105.275 661.118 105.676 661.381 106.152C661.647 106.625 661.821 107.164 661.903 107.772ZM665.556 110.206V115H663.627V104.091H665.513V108.208H665.609C665.801 107.747 666.097 107.383 666.499 107.116C666.903 106.847 667.418 106.712 668.043 106.712C668.612 106.712 669.107 106.831 669.529 107.069C669.952 107.306 670.279 107.654 670.51 108.113C670.744 108.571 670.861 109.13 670.861 109.79V115H668.933V110.089C668.933 109.538 668.791 109.11 668.507 108.805C668.226 108.496 667.832 108.342 667.324 108.342C666.983 108.342 666.678 108.416 666.408 108.565C666.142 108.711 665.932 108.922 665.779 109.199C665.63 109.476 665.556 109.812 665.556 110.206ZM672.827 115V106.818H674.755V115H672.827ZM673.796 105.657C673.491 105.657 673.228 105.556 673.008 105.353C672.788 105.147 672.678 104.901 672.678 104.613C672.678 104.322 672.788 104.075 673.008 103.873C673.228 103.667 673.491 103.564 673.796 103.564C674.105 103.564 674.368 103.667 674.585 103.873C674.805 104.075 674.915 104.322 674.915 104.613C674.915 104.901 674.805 105.147 674.585 105.353C674.368 105.556 674.105 105.657 673.796 105.657ZM678.666 104.091V115H676.738V104.091H678.666ZM683.685 115.144C683.042 115.144 682.467 114.979 681.959 114.648C681.452 114.318 681.05 113.839 680.756 113.21C680.461 112.582 680.313 111.818 680.313 110.92C680.313 110.011 680.463 109.244 680.761 108.619C681.063 107.99 681.469 107.516 681.981 107.196C682.492 106.873 683.062 106.712 683.691 106.712C684.17 106.712 684.564 106.793 684.873 106.957C685.182 107.116 685.427 107.31 685.608 107.537C685.789 107.761 685.93 107.972 686.029 108.171H686.109V104.091H688.042V115H686.146V113.711H686.029C685.93 113.91 685.786 114.121 685.597 114.345C685.409 114.565 685.161 114.753 684.852 114.909C684.543 115.066 684.154 115.144 683.685 115.144ZM684.223 113.562C684.632 113.562 684.98 113.452 685.267 113.232C685.555 113.008 685.773 112.697 685.922 112.299C686.072 111.902 686.146 111.438 686.146 110.909C686.146 110.38 686.072 109.92 685.922 109.529C685.777 109.139 685.56 108.835 685.273 108.619C684.988 108.402 684.639 108.294 684.223 108.294C683.794 108.294 683.435 108.406 683.147 108.629C682.86 108.853 682.643 109.162 682.497 109.556C682.352 109.95 682.279 110.401 682.279 110.909C682.279 111.42 682.352 111.877 682.497 112.278C682.646 112.676 682.865 112.99 683.153 113.221C683.444 113.448 683.801 113.562 684.223 113.562ZM690.097 115V106.818H691.967V108.182H692.052C692.201 107.71 692.457 107.346 692.819 107.09C693.185 106.831 693.602 106.701 694.071 106.701C694.177 106.701 694.296 106.706 694.428 106.717C694.563 106.724 694.675 106.737 694.763 106.754V108.528C694.682 108.5 694.552 108.475 694.375 108.453C694.201 108.429 694.032 108.416 693.869 108.416C693.517 108.416 693.201 108.493 692.92 108.645C692.643 108.794 692.425 109.002 692.265 109.268C692.105 109.535 692.025 109.842 692.025 110.19V115H690.097ZM699.33 115.16C698.509 115.16 697.801 114.989 697.204 114.648C696.611 114.304 696.155 113.817 695.835 113.189C695.516 112.557 695.356 111.813 695.356 110.957C695.356 110.115 695.516 109.377 695.835 108.741C696.159 108.102 696.61 107.605 697.188 107.25C697.767 106.891 698.447 106.712 699.229 106.712C699.733 106.712 700.209 106.793 700.656 106.957C701.107 107.116 701.505 107.365 701.849 107.702C702.197 108.04 702.471 108.469 702.67 108.991C702.868 109.51 702.968 110.128 702.968 110.845V111.436H696.262V110.137H701.119C701.116 109.767 701.036 109.439 700.88 109.151C700.724 108.86 700.505 108.631 700.225 108.464C699.948 108.297 699.624 108.214 699.255 108.214C698.861 108.214 698.515 108.31 698.216 108.501C697.918 108.69 697.686 108.938 697.519 109.247C697.355 109.553 697.272 109.888 697.268 110.254V111.388C697.268 111.864 697.355 112.273 697.529 112.614C697.703 112.951 697.947 113.21 698.259 113.391C698.572 113.569 698.937 113.658 699.356 113.658C699.637 113.658 699.891 113.619 700.118 113.54C700.345 113.459 700.542 113.34 700.709 113.184C700.876 113.027 701.002 112.834 701.088 112.603L702.888 112.805C702.774 113.281 702.558 113.697 702.238 114.052C701.922 114.403 701.517 114.677 701.024 114.872C700.53 115.064 699.965 115.16 699.33 115.16ZM706.527 110.206V115H704.599V106.818H706.442V108.208H706.538C706.726 107.75 707.026 107.386 707.438 107.116C707.854 106.847 708.367 106.712 708.978 106.712C709.542 106.712 710.034 106.832 710.453 107.074C710.876 107.315 711.203 107.665 711.433 108.123C711.668 108.581 711.783 109.137 711.78 109.79V115H709.851V110.089C709.851 109.542 709.709 109.114 709.425 108.805C709.145 108.496 708.756 108.342 708.259 108.342C707.921 108.342 707.621 108.416 707.358 108.565C707.099 108.711 706.895 108.922 706.746 109.199C706.6 109.476 706.527 109.812 706.527 110.206Z" fill="black"/>
<path d="M333.207 198.207C333.598 197.817 333.598 197.183 333.207 196.793L326.843 190.429C326.453 190.038 325.819 190.038 325.429 190.429C325.038 190.819 325.038 191.453 325.429 191.843L331.086 197.5L325.429 203.157C325.038 203.547 325.038 204.181 325.429 204.571C325.819 204.962 326.453 204.962 326.843 204.571L333.207 198.207ZM256.5 198.5H332.5V196.5H256.5V198.5Z" fill="#15AABF"/>
<path d="M551.707 198.207C552.098 197.817 552.098 197.183 551.707 196.793L545.343 190.429C544.953 190.038 544.319 190.038 543.929 190.429C543.538 190.819 543.538 191.453 543.929 191.843L549.586 197.5L543.929 203.157C543.538 203.547 543.538 204.181 543.929 204.571C544.319 204.962 544.953 204.962 545.343 204.571L551.707 198.207ZM475 198.5H551V196.5H475V198.5Z" fill="#15AABF"/>
<path d="M333.707 287.707C334.098 287.317 334.098 286.683 333.707 286.293L327.343 279.929C326.953 279.538 326.319 279.538 325.929 279.929C325.538 280.319 325.538 280.953 325.929 281.343L331.586 287L325.929 292.657C325.538 293.047 325.538 293.681 325.929 294.071C326.319 294.462 326.953 294.462 327.343 294.071L333.707 287.707ZM285 288L333 288L333 286L285 286L285 288Z" fill="#15AABF"/>
<path d="M552.207 287.707C552.598 287.317 552.598 286.683 552.207 286.293L545.843 279.929C545.453 279.538 544.819 279.538 544.429 279.929C544.038 280.319 544.038 280.953 544.429 281.343L550.086 287L544.429 292.657C544.038 293.047 544.038 293.681 544.429 294.071C544.819 294.462 545.453 294.462 545.843 294.071L552.207 287.707ZM503.5 288L551.5 288L551.5 286L503.5 286L503.5 288Z" fill="#15AABF"/>
<path d="M333.707 377.207C334.098 376.817 334.098 376.183 333.707 375.793L327.343 369.429C326.953 369.038 326.319 369.038 325.929 369.429C325.538 369.819 325.538 370.453 325.929 370.843L331.586 376.5L325.929 382.157C325.538 382.547 325.538 383.181 325.929 383.571C326.319 383.962 326.953 383.962 327.343 383.571L333.707 377.207ZM285 377.5L333 377.5L333 375.5L285 375.5L285 377.5Z" fill="#15AABF"/>
<path d="M552.207 377.207C552.598 376.817 552.598 376.183 552.207 375.793L545.843 369.429C545.453 369.038 544.819 369.038 544.429 369.429C544.038 369.819 544.038 370.453 544.429 370.843L550.086 376.5L544.429 382.157C544.038 382.547 544.038 383.181 544.429 383.571C544.819 383.962 545.453 383.962 545.843 383.571L552.207 377.207ZM503.5 377.5L551.5 377.5L551.5 375.5L503.5 375.5L503.5 377.5Z" fill="#15AABF"/>
<path d="M285 198V377" stroke="#15AABF" stroke-width="2"/>
<path d="M504 198L504 377" stroke="#15AABF" stroke-width="2"/>
<defs>
<clipPath id="clip0_44_12528">
<rect width="24" height="24" fill="white" transform="translate(387.5 276)"/>
</clipPath>
<clipPath id="clip1_44_12528">
<rect width="24" height="24" fill="white" transform="translate(617.5 185)"/>
</clipPath>
<clipPath id="clip2_44_12528">
<rect width="24" height="24" fill="white" transform="translate(615.5 367)"/>
</clipPath>
</defs>
</svg>
