<svg width="101" height="101" viewBox="0 0 101 101" fill="none" xmlns="http://www.w3.org/2000/svg">
<g filter="url(#filter0_dd_1_3827)">
<rect x="16" y="16" width="69" height="69" rx="34.5" fill="white"/>
<path d="M59.909 45.3379C59.4624 45.3379 59.1004 45.6999 59.1004 46.1465V58.2529C59.1004 58.6995 58.7383 59.0615 58.2917 59.0615H46.261C45.8144 59.0615 45.4524 59.4235 45.4524 59.8701V64.3018C45.4524 64.7484 45.8144 65.1105 46.261 65.1105H64.3029C64.7495 65.1105 65.1115 64.7484 65.1115 64.3018V46.1465C65.1115 45.6999 64.7495 45.3379 64.3029 45.3379H59.909Z" fill="#30D8D8"/>
<path d="M41.3538 55.7726C41.8004 55.7726 42.1624 55.4105 42.1624 54.9639V42.8576C42.1624 42.411 42.5244 42.049 42.971 42.049H55.0017C55.4483 42.049 55.8104 41.6869 55.8104 41.2403V36.8086C55.8104 36.362 55.4483 36 55.0017 36H36.8086C36.362 36 36 36.362 36 36.8086V54.9639C36 55.4105 36.362 55.7726 36.8086 55.7726H41.3538Z" fill="#30D8D8"/>
<path d="M55.0026 45.3379H46.261C45.8144 45.3379 45.4524 45.6999 45.4524 46.1465V54.9637C45.4524 55.4103 45.8144 55.7724 46.261 55.7724H55.0026C55.4492 55.7724 55.8113 55.4103 55.8113 54.9637V46.1465C55.8113 45.6999 55.4492 45.3379 55.0026 45.3379Z" fill="#48BD69"/>
<g style="mix-blend-mode:multiply">
<path d="M61.0869 55.7727H56.6173C56.1708 55.7727 55.8087 56.1347 55.8087 56.5813V61.0509C55.8087 61.4974 56.1708 61.8595 56.6173 61.8595H61.0869C61.5335 61.8595 61.8955 61.4974 61.8955 61.0509V56.5813C61.8955 56.1347 61.5335 55.7727 61.0869 55.7727Z" fill="#48BD69"/>
</g>
<g style="mix-blend-mode:multiply">
<path d="M44.6051 39.2135H40.0978C39.6512 39.2135 39.2892 39.5755 39.2892 40.0221V44.5295C39.2892 44.976 39.6512 45.3381 40.0978 45.3381H44.6051C45.0517 45.3381 45.4138 44.976 45.4138 44.5295V40.0221C45.4138 39.5755 45.0517 39.2135 44.6051 39.2135Z" fill="#48BD69"/>
</g>
<g style="mix-blend-mode:multiply">
<path d="M44.5511 42.0699C44.9977 42.0699 45.3597 41.7078 45.3597 41.2612V40.043C45.3597 39.5964 44.9977 39.2344 44.5511 39.2344H40.0437C39.5971 39.2344 39.2351 39.5964 39.2351 40.043V44.5503C39.2351 44.9969 39.5971 45.359 40.0437 45.359H41.2998C41.7464 45.359 42.1084 44.9969 42.1084 44.5503V42.8785C42.1084 42.4319 42.4704 42.0699 42.917 42.0699H44.5511Z" fill="#12125A"/>
</g>
<g style="mix-blend-mode:multiply">
<path d="M56.6188 59.1003C56.1722 59.1003 55.8102 59.4623 55.8102 59.9089V61.1271C55.8102 61.5737 56.1722 61.9357 56.6188 61.9357H61.1261C61.5727 61.9357 61.9348 61.5737 61.9348 61.1271V56.6198C61.9348 56.1732 61.5727 55.8112 61.1261 55.8112H59.8701C59.4235 55.8112 59.0615 56.1732 59.0615 56.6198V58.2916C59.0615 58.7382 58.6994 59.1003 58.2529 59.1003H56.6188Z" fill="#12125A"/>
</g>
</g>
<defs>
<filter id="filter0_dd_1_3827" x="0" y="0" width="101" height="101" filterUnits="userSpaceOnUse" color-interpolation-filters="sRGB">
<feFlood flood-opacity="0" result="BackgroundImageFix"/>
<feColorMatrix in="SourceAlpha" type="matrix" values="0 0 0 0 0 0 0 0 0 0 0 0 0 0 0 0 0 0 127 0" result="hardAlpha"/>
<feOffset/>
<feGaussianBlur stdDeviation="8"/>
<feColorMatrix type="matrix" values="0 0 0 0 0.16 0 0 0 0 0.197333 0 0 0 0 0.24 0 0 0 0.12 0"/>
<feBlend mode="normal" in2="BackgroundImageFix" result="effect1_dropShadow_1_3827"/>
<feColorMatrix in="SourceAlpha" type="matrix" values="0 0 0 0 0 0 0 0 0 0 0 0 0 0 0 0 0 0 127 0" result="hardAlpha"/>
<feOffset/>
<feGaussianBlur stdDeviation="0.5"/>
<feColorMatrix type="matrix" values="0 0 0 0 0.16 0 0 0 0 0.197333 0 0 0 0 0.24 0 0 0 0.32 0"/>
<feBlend mode="normal" in2="effect1_dropShadow_1_3827" result="effect2_dropShadow_1_3827"/>
<feBlend mode="normal" in="SourceGraphic" in2="effect2_dropShadow_1_3827" result="shape"/>
</filter>
</defs>
</svg>
