<svg width="1637" height="745" viewBox="0 0 1637 745" fill="none" xmlns="http://www.w3.org/2000/svg">
<rect width="1637" height="745" rx="24" fill="#EBF1FD"/>
<path opacity="0.6" d="M177 348.5L102 440L305.5 602.5L448 544V429.5L370 373L432.5 296.5L305.5 188L214 296.5L252 330L214 373L177 348.5Z" fill="#BAF2F2" stroke="#44B9B9" stroke-width="6"/>
<path opacity="0.6" d="M1179 348.5L1104 440L1307.5 602.5L1450 544V429.5L1372 373L1434.5 296.5L1307.5 188L1216 296.5L1254 330L1216 373L1179 348.5Z" fill="#BAF2F2" stroke="#44B9B9" stroke-width="6"/>
<path opacity="0.6" d="M715.5 348.5L640.5 440L844 602.5L986.5 544V429.5L908.5 373L971 296.5L844 188L752.5 296.5L790.5 330L752.5 373L715.5 348.5Z" fill="#BAF2F2" stroke="#44B9B9" stroke-width="6"/>
<circle cx="305" cy="420.5" r="15.5" fill="#C76848"/>
<circle cx="1307" cy="420.5" r="15.5" fill="#C76848"/>
<circle cx="814" cy="394.5" r="15.5" fill="#382CDD"/>
<circle cx="1276.5" cy="394.5" r="15.5" fill="#382CDD"/>
<path d="M128 437.5L459.5 405" stroke="#C76848" stroke-width="2"/>
<path d="M305 209V641.5" stroke="#C76848" stroke-width="2"/>
<rect x="637.5" y="185" width="353" height="420" stroke="#382CDD" stroke-width="2"/>
<path d="M638.5 395.5H990" stroke="#382CDD" stroke-width="2"/>
<path d="M814 606L814 184" stroke="#382CDD" stroke-width="2"/>
<path d="M198.982 139.318C198.001 139.318 197.161 139.183 196.46 138.913C195.764 138.648 195.21 138.286 194.798 137.827C194.386 137.367 194.119 136.851 193.996 136.278L196.794 135.902C196.879 136.12 197.014 136.323 197.199 136.513C197.384 136.702 197.627 136.854 197.93 136.967C198.238 137.086 198.612 137.145 199.053 137.145C199.711 137.145 200.253 136.984 200.679 136.662C201.11 136.345 201.325 135.812 201.325 135.064V133.068H201.197C201.065 133.371 200.866 133.658 200.601 133.928C200.336 134.197 199.995 134.418 199.578 134.588C199.161 134.759 198.664 134.844 198.087 134.844C197.268 134.844 196.522 134.654 195.849 134.276C195.182 133.892 194.649 133.307 194.251 132.521C193.858 131.731 193.662 130.732 193.662 129.524C193.662 128.288 193.863 127.256 194.266 126.428C194.668 125.599 195.203 124.979 195.871 124.567C196.543 124.155 197.279 123.949 198.08 123.949C198.69 123.949 199.202 124.053 199.614 124.261C200.026 124.465 200.357 124.721 200.608 125.028C200.864 125.331 201.06 125.63 201.197 125.923H201.311V124.091H204.315V135.107C204.315 136.035 204.088 136.811 203.634 137.436C203.179 138.061 202.549 138.53 201.744 138.842C200.944 139.16 200.023 139.318 198.982 139.318ZM199.045 132.571C199.533 132.571 199.945 132.45 200.281 132.209C200.622 131.963 200.883 131.612 201.062 131.158C201.247 130.698 201.339 130.149 201.339 129.51C201.339 128.871 201.25 128.317 201.07 127.848C200.89 127.375 200.629 127.008 200.288 126.747C199.947 126.487 199.533 126.357 199.045 126.357C198.548 126.357 198.129 126.491 197.788 126.761C197.447 127.027 197.189 127.396 197.014 127.869C196.839 128.343 196.751 128.89 196.751 129.51C196.751 130.14 196.839 130.684 197.014 131.143C197.194 131.598 197.452 131.951 197.788 132.202C198.129 132.448 198.548 132.571 199.045 132.571ZM211.695 135.213C210.572 135.213 209.607 134.986 208.797 134.531C207.992 134.072 207.372 133.423 206.936 132.585C206.5 131.742 206.283 130.746 206.283 129.595C206.283 128.473 206.5 127.488 206.936 126.641C207.372 125.793 207.985 125.133 208.776 124.659C209.571 124.186 210.504 123.949 211.574 123.949C212.294 123.949 212.964 124.065 213.584 124.297C214.209 124.524 214.753 124.867 215.217 125.327C215.686 125.786 216.051 126.364 216.311 127.06C216.571 127.751 216.702 128.561 216.702 129.489V130.32H207.49V128.445H213.854C213.854 128.009 213.759 127.623 213.57 127.287C213.38 126.951 213.117 126.688 212.781 126.499C212.45 126.304 212.064 126.207 211.624 126.207C211.164 126.207 210.757 126.314 210.402 126.527C210.052 126.735 209.777 127.017 209.578 127.372C209.379 127.723 209.277 128.113 209.273 128.544V130.327C209.273 130.866 209.372 131.333 209.571 131.726C209.775 132.119 210.061 132.422 210.43 132.635C210.8 132.848 211.238 132.955 211.744 132.955C212.08 132.955 212.388 132.907 212.668 132.812C212.947 132.718 213.186 132.576 213.385 132.386C213.584 132.197 213.735 131.965 213.839 131.69L216.638 131.875C216.496 132.547 216.205 133.134 215.764 133.636C215.329 134.134 214.765 134.522 214.074 134.801C213.387 135.076 212.594 135.213 211.695 135.213ZM223.605 135.213C222.502 135.213 221.548 134.979 220.743 134.51C219.943 134.036 219.325 133.378 218.889 132.536C218.454 131.688 218.236 130.705 218.236 129.588C218.236 128.461 218.454 127.476 218.889 126.634C219.325 125.786 219.943 125.128 220.743 124.659C221.548 124.186 222.502 123.949 223.605 123.949C224.708 123.949 225.66 124.186 226.46 124.659C227.265 125.128 227.885 125.786 228.321 126.634C228.757 127.476 228.974 128.461 228.974 129.588C228.974 130.705 228.757 131.688 228.321 132.536C227.885 133.378 227.265 134.036 226.46 134.51C225.66 134.979 224.708 135.213 223.605 135.213ZM223.619 132.869C224.121 132.869 224.54 132.727 224.876 132.443C225.213 132.154 225.466 131.761 225.636 131.264C225.812 130.767 225.899 130.201 225.899 129.567C225.899 128.932 225.812 128.366 225.636 127.869C225.466 127.372 225.213 126.979 224.876 126.69C224.54 126.402 224.121 126.257 223.619 126.257C223.113 126.257 222.687 126.402 222.341 126.69C222 126.979 221.742 127.372 221.567 127.869C221.396 128.366 221.311 128.932 221.311 129.567C221.311 130.201 221.396 130.767 221.567 131.264C221.742 131.761 222 132.154 222.341 132.443C222.687 132.727 223.113 132.869 223.619 132.869ZM236.822 120.455H239.862V130.597C239.862 131.534 239.652 132.348 239.23 133.04C238.813 133.731 238.233 134.264 237.49 134.638C236.747 135.012 235.883 135.199 234.898 135.199C234.022 135.199 233.226 135.045 232.511 134.737C231.801 134.425 231.238 133.951 230.821 133.317C230.404 132.678 230.198 131.875 230.203 130.909H233.264C233.274 131.293 233.352 131.622 233.499 131.896C233.65 132.166 233.856 132.375 234.116 132.521C234.382 132.663 234.694 132.734 235.054 132.734C235.433 132.734 235.752 132.654 236.013 132.493C236.278 132.327 236.479 132.086 236.616 131.768C236.754 131.451 236.822 131.061 236.822 130.597V120.455ZM251.425 127.202L248.655 127.372C248.607 127.135 248.506 126.922 248.349 126.733C248.193 126.539 247.987 126.385 247.732 126.271C247.481 126.153 247.18 126.094 246.83 126.094C246.361 126.094 245.965 126.193 245.643 126.392C245.321 126.586 245.161 126.847 245.161 127.173C245.161 127.434 245.265 127.654 245.473 127.834C245.681 128.014 246.039 128.158 246.545 128.267L248.52 128.665C249.58 128.883 250.371 129.233 250.892 129.716C251.413 130.199 251.673 130.833 251.673 131.619C251.673 132.334 251.463 132.962 251.041 133.501C250.625 134.041 250.052 134.463 249.322 134.766C248.598 135.064 247.762 135.213 246.815 135.213C245.371 135.213 244.221 134.912 243.364 134.311C242.511 133.705 242.012 132.881 241.865 131.839L244.841 131.683C244.931 132.124 245.149 132.46 245.494 132.692C245.84 132.919 246.283 133.033 246.822 133.033C247.353 133.033 247.779 132.931 248.101 132.727C248.428 132.519 248.593 132.251 248.598 131.925C248.593 131.65 248.477 131.425 248.25 131.25C248.023 131.07 247.672 130.933 247.199 130.838L245.31 130.462C244.244 130.249 243.451 129.879 242.93 129.354C242.414 128.828 242.156 128.158 242.156 127.344C242.156 126.643 242.346 126.039 242.724 125.533C243.108 125.026 243.645 124.635 244.337 124.361C245.033 124.086 245.847 123.949 246.78 123.949C248.158 123.949 249.242 124.24 250.033 124.822C250.828 125.405 251.292 126.198 251.425 127.202ZM258.507 135.213C257.404 135.213 256.45 134.979 255.645 134.51C254.845 134.036 254.227 133.378 253.792 132.536C253.356 131.688 253.138 130.705 253.138 129.588C253.138 128.461 253.356 127.476 253.792 126.634C254.227 125.786 254.845 125.128 255.645 124.659C256.45 124.186 257.404 123.949 258.507 123.949C259.611 123.949 260.562 124.186 261.363 124.659C262.167 125.128 262.788 125.786 263.223 126.634C263.659 127.476 263.877 128.461 263.877 129.588C263.877 130.705 263.659 131.688 263.223 132.536C262.788 133.378 262.167 134.036 261.363 134.51C260.562 134.979 259.611 135.213 258.507 135.213ZM258.522 132.869C259.024 132.869 259.443 132.727 259.779 132.443C260.115 132.154 260.368 131.761 260.539 131.264C260.714 130.767 260.801 130.201 260.801 129.567C260.801 128.932 260.714 128.366 260.539 127.869C260.368 127.372 260.115 126.979 259.779 126.69C259.443 126.402 259.024 126.257 258.522 126.257C258.015 126.257 257.589 126.402 257.243 126.69C256.902 126.979 256.644 127.372 256.469 127.869C256.299 128.366 256.213 128.932 256.213 129.567C256.213 130.201 256.299 130.767 256.469 131.264C256.644 131.761 256.902 132.154 257.243 132.443C257.589 132.727 258.015 132.869 258.522 132.869ZM268.87 128.693V135H265.844V124.091H268.728V126.016H268.855C269.097 125.381 269.502 124.879 270.07 124.51C270.638 124.136 271.327 123.949 272.137 123.949C272.894 123.949 273.555 124.115 274.118 124.446C274.682 124.777 275.12 125.251 275.432 125.866C275.745 126.477 275.901 127.206 275.901 128.054V135H272.875V128.594C272.88 127.926 272.71 127.405 272.364 127.031C272.018 126.652 271.542 126.463 270.936 126.463C270.529 126.463 270.169 126.551 269.857 126.726C269.549 126.901 269.308 127.157 269.132 127.493C268.962 127.824 268.874 128.224 268.87 128.693ZM291.176 125.547H288.065C288.009 125.144 287.893 124.787 287.717 124.474C287.542 124.157 287.317 123.887 287.043 123.665C286.768 123.442 286.451 123.272 286.091 123.153C285.736 123.035 285.35 122.976 284.933 122.976C284.18 122.976 283.525 123.163 282.966 123.537C282.407 123.906 281.974 124.446 281.666 125.156C281.358 125.862 281.205 126.719 281.205 127.727C281.205 128.764 281.358 129.635 281.666 130.341C281.979 131.046 282.414 131.579 282.973 131.939C283.532 132.299 284.178 132.479 284.912 132.479C285.324 132.479 285.705 132.424 286.055 132.315C286.411 132.206 286.725 132.048 287 131.839C287.275 131.626 287.502 131.368 287.682 131.065C287.866 130.762 287.994 130.417 288.065 130.028L291.176 130.043C291.096 130.71 290.894 131.354 290.572 131.974C290.255 132.59 289.827 133.142 289.287 133.629C288.752 134.112 288.113 134.496 287.369 134.78C286.631 135.059 285.795 135.199 284.862 135.199C283.565 135.199 282.405 134.905 281.382 134.318C280.364 133.731 279.559 132.881 278.967 131.768C278.38 130.656 278.087 129.309 278.087 127.727C278.087 126.141 278.385 124.792 278.982 123.679C279.578 122.566 280.388 121.719 281.411 121.136C282.433 120.549 283.584 120.256 284.862 120.256C285.705 120.256 286.486 120.374 287.206 120.611C287.93 120.848 288.572 121.193 289.131 121.648C289.689 122.098 290.144 122.649 290.494 123.303C290.849 123.956 291.077 124.704 291.176 125.547ZM298.296 135.213C297.174 135.213 296.208 134.986 295.398 134.531C294.594 134.072 293.973 133.423 293.538 132.585C293.102 131.742 292.884 130.746 292.884 129.595C292.884 128.473 293.102 127.488 293.538 126.641C293.973 125.793 294.586 125.133 295.377 124.659C296.173 124.186 297.105 123.949 298.175 123.949C298.895 123.949 299.565 124.065 300.185 124.297C300.81 124.524 301.355 124.867 301.819 125.327C302.288 125.786 302.652 126.364 302.913 127.06C303.173 127.751 303.303 128.561 303.303 129.489V130.32H294.092V128.445H300.455C300.455 128.009 300.361 127.623 300.171 127.287C299.982 126.951 299.719 126.688 299.383 126.499C299.051 126.304 298.665 126.207 298.225 126.207C297.766 126.207 297.359 126.314 297.004 126.527C296.653 126.735 296.379 127.017 296.18 127.372C295.981 127.723 295.879 128.113 295.874 128.544V130.327C295.874 130.866 295.974 131.333 296.173 131.726C296.376 132.119 296.663 132.422 297.032 132.635C297.401 132.848 297.839 132.955 298.346 132.955C298.682 132.955 298.99 132.907 299.269 132.812C299.549 132.718 299.788 132.576 299.987 132.386C300.185 132.197 300.337 131.965 300.441 131.69L303.239 131.875C303.097 132.547 302.806 133.134 302.366 133.636C301.93 134.134 301.367 134.522 300.675 134.801C299.989 135.076 299.196 135.213 298.296 135.213ZM308.303 128.693V135H305.278V124.091H308.161V126.016H308.289C308.531 125.381 308.935 124.879 309.504 124.51C310.072 124.136 310.761 123.949 311.57 123.949C312.328 123.949 312.988 124.115 313.552 124.446C314.115 124.777 314.553 125.251 314.866 125.866C315.178 126.477 315.335 127.206 315.335 128.054V135H312.309V128.594C312.314 127.926 312.143 127.405 311.798 127.031C311.452 126.652 310.976 126.463 310.37 126.463C309.963 126.463 309.603 126.551 309.29 126.726C308.983 126.901 308.741 127.157 308.566 127.493C308.396 127.824 308.308 128.224 308.303 128.693ZM323.522 124.091V126.364H316.952V124.091H323.522ZM318.444 121.477H321.469V131.648C321.469 131.927 321.512 132.145 321.597 132.301C321.682 132.453 321.801 132.559 321.952 132.621C322.108 132.682 322.288 132.713 322.492 132.713C322.634 132.713 322.776 132.701 322.918 132.678C323.06 132.649 323.169 132.628 323.245 132.614L323.721 134.865C323.569 134.912 323.356 134.967 323.081 135.028C322.807 135.095 322.473 135.135 322.08 135.149C321.351 135.178 320.712 135.08 320.162 134.858C319.618 134.635 319.194 134.29 318.891 133.821C318.588 133.352 318.439 132.76 318.444 132.045V121.477ZM330.347 135.213C329.225 135.213 328.259 134.986 327.449 134.531C326.644 134.072 326.024 133.423 325.588 132.585C325.153 131.742 324.935 130.746 324.935 129.595C324.935 128.473 325.153 127.488 325.588 126.641C326.024 125.793 326.637 125.133 327.428 124.659C328.223 124.186 329.156 123.949 330.226 123.949C330.946 123.949 331.616 124.065 332.236 124.297C332.861 124.524 333.406 124.867 333.87 125.327C334.338 125.786 334.703 126.364 334.963 127.06C335.224 127.751 335.354 128.561 335.354 129.489V130.32H326.142V128.445H332.506C332.506 128.009 332.411 127.623 332.222 127.287C332.033 126.951 331.77 126.688 331.434 126.499C331.102 126.304 330.716 126.207 330.276 126.207C329.817 126.207 329.409 126.314 329.054 126.527C328.704 126.735 328.429 127.017 328.23 127.372C328.032 127.723 327.93 128.113 327.925 128.544V130.327C327.925 130.866 328.025 131.333 328.223 131.726C328.427 132.119 328.713 132.422 329.083 132.635C329.452 132.848 329.89 132.955 330.397 132.955C330.733 132.955 331.041 132.907 331.32 132.812C331.599 132.718 331.838 132.576 332.037 132.386C332.236 132.197 332.388 131.965 332.492 131.69L335.29 131.875C335.148 132.547 334.857 133.134 334.417 133.636C333.981 134.134 333.417 134.522 332.726 134.801C332.04 135.076 331.247 135.213 330.347 135.213ZM337.328 135V124.091H340.262V125.994H340.375C340.574 125.317 340.908 124.806 341.377 124.46C341.846 124.11 342.385 123.935 342.996 123.935C343.148 123.935 343.311 123.944 343.486 123.963C343.661 123.982 343.815 124.008 343.948 124.041V126.726C343.806 126.683 343.609 126.645 343.358 126.612C343.107 126.579 342.878 126.562 342.669 126.562C342.224 126.562 341.827 126.66 341.476 126.854C341.131 127.043 340.856 127.308 340.652 127.649C340.453 127.99 340.354 128.383 340.354 128.828V135H337.328ZM349.933 135.213C348.83 135.213 347.876 134.979 347.071 134.51C346.271 134.036 345.653 133.378 345.217 132.536C344.782 131.688 344.564 130.705 344.564 129.588C344.564 128.461 344.782 127.476 345.217 126.634C345.653 125.786 346.271 125.128 347.071 124.659C347.876 124.186 348.83 123.949 349.933 123.949C351.036 123.949 351.988 124.186 352.788 124.659C353.593 125.128 354.214 125.786 354.649 126.634C355.085 127.476 355.303 128.461 355.303 129.588C355.303 130.705 355.085 131.688 354.649 132.536C354.214 133.378 353.593 134.036 352.788 134.51C351.988 134.979 351.036 135.213 349.933 135.213ZM349.947 132.869C350.449 132.869 350.868 132.727 351.205 132.443C351.541 132.154 351.794 131.761 351.964 131.264C352.14 130.767 352.227 130.201 352.227 129.567C352.227 128.932 352.14 128.366 351.964 127.869C351.794 127.372 351.541 126.979 351.205 126.69C350.868 126.402 350.449 126.257 349.947 126.257C349.441 126.257 349.015 126.402 348.669 126.69C348.328 126.979 348.07 127.372 347.895 127.869C347.724 128.366 347.639 128.932 347.639 129.567C347.639 130.201 347.724 130.767 347.895 131.264C348.07 131.761 348.328 132.154 348.669 132.443C349.015 132.727 349.441 132.869 349.947 132.869ZM363.136 124.091V126.364H356.403V124.091H363.136ZM357.945 135V123.303C357.945 122.512 358.098 121.856 358.406 121.335C358.719 120.814 359.145 120.424 359.685 120.163C360.224 119.903 360.838 119.773 361.524 119.773C361.988 119.773 362.412 119.808 362.795 119.879C363.184 119.95 363.473 120.014 363.662 120.071L363.122 122.344C363.004 122.306 362.857 122.27 362.682 122.237C362.511 122.204 362.336 122.188 362.156 122.188C361.711 122.188 361.401 122.292 361.226 122.5C361.051 122.704 360.963 122.99 360.963 123.359V135H357.945ZM365.042 120.455H368.834L372.84 130.227H373.01L377.016 120.455H380.809V135H377.826V125.533H377.705L373.941 134.929H371.909L368.145 125.497H368.025V135H365.042V120.455ZM386.396 135.206C385.7 135.206 385.08 135.085 384.536 134.844C383.991 134.598 383.56 134.235 383.243 133.757C382.93 133.274 382.774 132.673 382.774 131.953C382.774 131.347 382.885 130.838 383.108 130.426C383.33 130.014 383.634 129.683 384.017 129.432C384.401 129.181 384.836 128.991 385.324 128.864C385.816 128.736 386.332 128.646 386.872 128.594C387.507 128.527 388.018 128.466 388.406 128.409C388.795 128.348 389.076 128.258 389.251 128.139C389.427 128.021 389.514 127.846 389.514 127.614V127.571C389.514 127.121 389.372 126.773 389.088 126.527C388.809 126.281 388.411 126.158 387.895 126.158C387.35 126.158 386.917 126.278 386.595 126.52C386.273 126.757 386.06 127.055 385.956 127.415L383.158 127.188C383.3 126.525 383.579 125.952 383.996 125.469C384.412 124.981 384.95 124.607 385.608 124.347C386.271 124.081 387.038 123.949 387.909 123.949C388.515 123.949 389.095 124.02 389.649 124.162C390.208 124.304 390.703 124.524 391.134 124.822C391.569 125.121 391.912 125.504 392.163 125.973C392.414 126.437 392.54 126.993 392.54 127.642V135H389.67V133.487H389.585C389.41 133.828 389.176 134.129 388.882 134.389C388.589 134.645 388.236 134.846 387.824 134.993C387.412 135.135 386.936 135.206 386.396 135.206ZM387.263 133.118C387.708 133.118 388.101 133.03 388.442 132.855C388.783 132.675 389.05 132.434 389.244 132.131C389.438 131.828 389.536 131.484 389.536 131.101V129.943C389.441 130.005 389.311 130.062 389.145 130.114C388.984 130.161 388.802 130.206 388.598 130.249C388.394 130.286 388.191 130.322 387.987 130.355C387.784 130.384 387.599 130.41 387.433 130.433C387.078 130.485 386.768 130.568 386.503 130.682C386.238 130.795 386.032 130.949 385.885 131.143C385.738 131.333 385.665 131.57 385.665 131.854C385.665 132.266 385.814 132.58 386.112 132.798C386.415 133.011 386.799 133.118 387.263 133.118ZM403.964 127.202L401.194 127.372C401.147 127.135 401.045 126.922 400.888 126.733C400.732 126.539 400.526 126.385 400.271 126.271C400.02 126.153 399.719 126.094 399.369 126.094C398.9 126.094 398.504 126.193 398.183 126.392C397.861 126.586 397.7 126.847 397.7 127.173C397.7 127.434 397.804 127.654 398.012 127.834C398.22 128.014 398.578 128.158 399.085 128.267L401.059 128.665C402.12 128.883 402.91 129.233 403.431 129.716C403.952 130.199 404.212 130.833 404.212 131.619C404.212 132.334 404.002 132.962 403.58 133.501C403.164 134.041 402.591 134.463 401.862 134.766C401.137 135.064 400.301 135.213 399.354 135.213C397.91 135.213 396.76 134.912 395.903 134.311C395.05 133.705 394.551 132.881 394.404 131.839L397.38 131.683C397.47 132.124 397.688 132.46 398.033 132.692C398.379 132.919 398.822 133.033 399.362 133.033C399.892 133.033 400.318 132.931 400.64 132.727C400.967 132.519 401.132 132.251 401.137 131.925C401.132 131.65 401.016 131.425 400.789 131.25C400.562 131.07 400.211 130.933 399.738 130.838L397.849 130.462C396.783 130.249 395.99 129.879 395.469 129.354C394.953 128.828 394.695 128.158 394.695 127.344C394.695 126.643 394.885 126.039 395.263 125.533C395.647 125.026 396.184 124.635 396.876 124.361C397.572 124.086 398.386 123.949 399.319 123.949C400.697 123.949 401.781 124.24 402.572 124.822C403.367 125.405 403.831 126.198 403.964 127.202ZM415.194 127.202L412.424 127.372C412.377 127.135 412.275 126.922 412.119 126.733C411.963 126.539 411.757 126.385 411.501 126.271C411.25 126.153 410.949 126.094 410.599 126.094C410.13 126.094 409.735 126.193 409.413 126.392C409.091 126.586 408.93 126.847 408.93 127.173C408.93 127.434 409.034 127.654 409.243 127.834C409.451 128.014 409.808 128.158 410.315 128.267L412.289 128.665C413.35 128.883 414.141 129.233 414.662 129.716C415.182 130.199 415.443 130.833 415.443 131.619C415.443 132.334 415.232 132.962 414.811 133.501C414.394 134.041 413.821 134.463 413.092 134.766C412.368 135.064 411.532 135.213 410.585 135.213C409.141 135.213 407.99 134.912 407.133 134.311C406.281 133.705 405.781 132.881 405.635 131.839L408.61 131.683C408.7 132.124 408.918 132.46 409.264 132.692C409.609 132.919 410.052 133.033 410.592 133.033C411.122 133.033 411.548 132.931 411.87 132.727C412.197 132.519 412.363 132.251 412.368 131.925C412.363 131.65 412.247 131.425 412.02 131.25C411.792 131.07 411.442 130.933 410.968 130.838L409.079 130.462C408.014 130.249 407.221 129.879 406.7 129.354C406.184 128.828 405.926 128.158 405.926 127.344C405.926 126.643 406.115 126.039 406.494 125.533C406.877 125.026 407.415 124.635 408.106 124.361C408.802 124.086 409.617 123.949 410.549 123.949C411.927 123.949 413.011 124.24 413.802 124.822C414.598 125.405 415.062 126.198 415.194 127.202Z" fill="black"/>
<path d="M743.9 139.318C742.919 139.318 742.079 139.183 741.378 138.913C740.682 138.648 740.128 138.286 739.716 137.827C739.304 137.367 739.037 136.851 738.914 136.278L741.712 135.902C741.797 136.12 741.932 136.323 742.117 136.513C742.301 136.702 742.545 136.854 742.848 136.967C743.156 137.086 743.53 137.145 743.971 137.145C744.629 137.145 745.171 136.984 745.597 136.662C746.028 136.345 746.243 135.812 746.243 135.064V133.068H746.115C745.983 133.371 745.784 133.658 745.519 133.928C745.254 134.197 744.913 134.418 744.496 134.588C744.079 134.759 743.582 134.844 743.005 134.844C742.185 134.844 741.44 134.654 740.767 134.276C740.1 133.892 739.567 133.307 739.169 132.521C738.776 131.731 738.58 130.732 738.58 129.524C738.58 128.288 738.781 127.256 739.184 126.428C739.586 125.599 740.121 124.979 740.789 124.567C741.461 124.155 742.197 123.949 742.998 123.949C743.608 123.949 744.12 124.053 744.532 124.261C744.944 124.465 745.275 124.721 745.526 125.028C745.782 125.331 745.978 125.63 746.115 125.923H746.229V124.091H749.233V135.107C749.233 136.035 749.006 136.811 748.551 137.436C748.097 138.061 747.467 138.53 746.662 138.842C745.862 139.16 744.941 139.318 743.9 139.318ZM743.963 132.571C744.451 132.571 744.863 132.45 745.199 132.209C745.54 131.963 745.801 131.612 745.98 131.158C746.165 130.698 746.257 130.149 746.257 129.51C746.257 128.871 746.167 128.317 745.988 127.848C745.808 127.375 745.547 127.008 745.206 126.747C744.865 126.487 744.451 126.357 743.963 126.357C743.466 126.357 743.047 126.491 742.706 126.761C742.365 127.027 742.107 127.396 741.932 127.869C741.757 128.343 741.669 128.89 741.669 129.51C741.669 130.14 741.757 130.684 741.932 131.143C742.112 131.598 742.37 131.951 742.706 132.202C743.047 132.448 743.466 132.571 743.963 132.571ZM756.613 135.213C755.49 135.213 754.525 134.986 753.715 134.531C752.91 134.072 752.29 133.423 751.854 132.585C751.418 131.742 751.201 130.746 751.201 129.595C751.201 128.473 751.418 127.488 751.854 126.641C752.29 125.793 752.903 125.133 753.694 124.659C754.489 124.186 755.422 123.949 756.492 123.949C757.212 123.949 757.882 124.065 758.502 124.297C759.127 124.524 759.671 124.867 760.135 125.327C760.604 125.786 760.969 126.364 761.229 127.06C761.489 127.751 761.62 128.561 761.62 129.489V130.32H752.408V128.445H758.772C758.772 128.009 758.677 127.623 758.488 127.287C758.298 126.951 758.035 126.688 757.699 126.499C757.368 126.304 756.982 126.207 756.542 126.207C756.082 126.207 755.675 126.314 755.32 126.527C754.97 126.735 754.695 127.017 754.496 127.372C754.297 127.723 754.195 128.113 754.191 128.544V130.327C754.191 130.866 754.29 131.333 754.489 131.726C754.693 132.119 754.979 132.422 755.348 132.635C755.718 132.848 756.156 132.955 756.662 132.955C756.998 132.955 757.306 132.907 757.586 132.812C757.865 132.718 758.104 132.576 758.303 132.386C758.502 132.197 758.653 131.965 758.757 131.69L761.556 131.875C761.414 132.547 761.123 133.134 760.682 133.636C760.247 134.134 759.683 134.522 758.992 134.801C758.305 135.076 757.512 135.213 756.613 135.213ZM768.523 135.213C767.42 135.213 766.466 134.979 765.661 134.51C764.861 134.036 764.243 133.378 763.807 132.536C763.372 131.688 763.154 130.705 763.154 129.588C763.154 128.461 763.372 127.476 763.807 126.634C764.243 125.786 764.861 125.128 765.661 124.659C766.466 124.186 767.42 123.949 768.523 123.949C769.626 123.949 770.578 124.186 771.378 124.659C772.183 125.128 772.803 125.786 773.239 126.634C773.675 127.476 773.892 128.461 773.892 129.588C773.892 130.705 773.675 131.688 773.239 132.536C772.803 133.378 772.183 134.036 771.378 134.51C770.578 134.979 769.626 135.213 768.523 135.213ZM768.537 132.869C769.039 132.869 769.458 132.727 769.794 132.443C770.131 132.154 770.384 131.761 770.554 131.264C770.73 130.767 770.817 130.201 770.817 129.567C770.817 128.932 770.73 128.366 770.554 127.869C770.384 127.372 770.131 126.979 769.794 126.69C769.458 126.402 769.039 126.257 768.537 126.257C768.031 126.257 767.605 126.402 767.259 126.69C766.918 126.979 766.66 127.372 766.485 127.869C766.314 128.366 766.229 128.932 766.229 129.567C766.229 130.201 766.314 130.767 766.485 131.264C766.66 131.761 766.918 132.154 767.259 132.443C767.605 132.727 768.031 132.869 768.537 132.869ZM781.74 120.455H784.78V130.597C784.78 131.534 784.569 132.348 784.148 133.04C783.731 133.731 783.151 134.264 782.408 134.638C781.665 135.012 780.801 135.199 779.816 135.199C778.94 135.199 778.144 135.045 777.429 134.737C776.719 134.425 776.156 133.951 775.739 133.317C775.322 132.678 775.116 131.875 775.121 130.909H778.182C778.192 131.293 778.27 131.622 778.417 131.896C778.568 132.166 778.774 132.375 779.034 132.521C779.3 132.663 779.612 132.734 779.972 132.734C780.351 132.734 780.67 132.654 780.931 132.493C781.196 132.327 781.397 132.086 781.534 131.768C781.672 131.451 781.74 131.061 781.74 130.597V120.455ZM796.343 127.202L793.573 127.372C793.525 127.135 793.424 126.922 793.267 126.733C793.111 126.539 792.905 126.385 792.65 126.271C792.399 126.153 792.098 126.094 791.748 126.094C791.279 126.094 790.883 126.193 790.561 126.392C790.239 126.586 790.078 126.847 790.078 127.173C790.078 127.434 790.183 127.654 790.391 127.834C790.599 128.014 790.957 128.158 791.463 128.267L793.438 128.665C794.498 128.883 795.289 129.233 795.81 129.716C796.331 130.199 796.591 130.833 796.591 131.619C796.591 132.334 796.381 132.962 795.959 133.501C795.542 134.041 794.97 134.463 794.24 134.766C793.516 135.064 792.68 135.213 791.733 135.213C790.289 135.213 789.139 134.912 788.282 134.311C787.429 133.705 786.93 132.881 786.783 131.839L789.759 131.683C789.849 132.124 790.067 132.46 790.412 132.692C790.758 132.919 791.201 133.033 791.74 133.033C792.271 133.033 792.697 132.931 793.019 132.727C793.346 132.519 793.511 132.251 793.516 131.925C793.511 131.65 793.395 131.425 793.168 131.25C792.941 131.07 792.59 130.933 792.117 130.838L790.228 130.462C789.162 130.249 788.369 129.879 787.848 129.354C787.332 128.828 787.074 128.158 787.074 127.344C787.074 126.643 787.264 126.039 787.642 125.533C788.026 125.026 788.563 124.635 789.255 124.361C789.951 124.086 790.765 123.949 791.698 123.949C793.076 123.949 794.16 124.24 794.951 124.822C795.746 125.405 796.21 126.198 796.343 127.202ZM803.425 135.213C802.322 135.213 801.368 134.979 800.563 134.51C799.763 134.036 799.145 133.378 798.71 132.536C798.274 131.688 798.056 130.705 798.056 129.588C798.056 128.461 798.274 127.476 798.71 126.634C799.145 125.786 799.763 125.128 800.563 124.659C801.368 124.186 802.322 123.949 803.425 123.949C804.529 123.949 805.48 124.186 806.281 124.659C807.085 125.128 807.706 125.786 808.141 126.634C808.577 127.476 808.795 128.461 808.795 129.588C808.795 130.705 808.577 131.688 808.141 132.536C807.706 133.378 807.085 134.036 806.281 134.51C805.48 134.979 804.529 135.213 803.425 135.213ZM803.44 132.869C803.942 132.869 804.361 132.727 804.697 132.443C805.033 132.154 805.286 131.761 805.457 131.264C805.632 130.767 805.719 130.201 805.719 129.567C805.719 128.932 805.632 128.366 805.457 127.869C805.286 127.372 805.033 126.979 804.697 126.69C804.361 126.402 803.942 126.257 803.44 126.257C802.933 126.257 802.507 126.402 802.161 126.69C801.82 126.979 801.562 127.372 801.387 127.869C801.217 128.366 801.131 128.932 801.131 129.567C801.131 130.201 801.217 130.767 801.387 131.264C801.562 131.761 801.82 132.154 802.161 132.443C802.507 132.727 802.933 132.869 803.44 132.869ZM813.788 128.693V135H810.762V124.091H813.646V126.016H813.773C814.015 125.381 814.42 124.879 814.988 124.51C815.556 124.136 816.245 123.949 817.055 123.949C817.812 123.949 818.473 124.115 819.036 124.446C819.6 124.777 820.038 125.251 820.35 125.866C820.663 126.477 820.819 127.206 820.819 128.054V135H817.793V128.594C817.798 127.926 817.628 127.405 817.282 127.031C816.936 126.652 816.46 126.463 815.854 126.463C815.447 126.463 815.087 126.551 814.775 126.726C814.467 126.901 814.226 127.157 814.05 127.493C813.88 127.824 813.792 128.224 813.788 128.693ZM836.094 125.547H832.983C832.926 125.144 832.81 124.787 832.635 124.474C832.46 124.157 832.235 123.887 831.961 123.665C831.686 123.442 831.369 123.272 831.009 123.153C830.654 123.035 830.268 122.976 829.851 122.976C829.098 122.976 828.443 123.163 827.884 123.537C827.325 123.906 826.892 124.446 826.584 125.156C826.276 125.862 826.123 126.719 826.123 127.727C826.123 128.764 826.276 129.635 826.584 130.341C826.897 131.046 827.332 131.579 827.891 131.939C828.45 132.299 829.096 132.479 829.83 132.479C830.242 132.479 830.623 132.424 830.973 132.315C831.328 132.206 831.643 132.048 831.918 131.839C832.193 131.626 832.42 131.368 832.6 131.065C832.784 130.762 832.912 130.417 832.983 130.028L836.094 130.043C836.014 130.71 835.812 131.354 835.49 131.974C835.173 132.59 834.745 133.142 834.205 133.629C833.67 134.112 833.031 134.496 832.287 134.78C831.549 135.059 830.713 135.199 829.78 135.199C828.483 135.199 827.323 134.905 826.3 134.318C825.282 133.731 824.477 132.881 823.885 131.768C823.298 130.656 823.005 129.309 823.005 127.727C823.005 126.141 823.303 124.792 823.9 123.679C824.496 122.566 825.306 121.719 826.328 121.136C827.351 120.549 828.502 120.256 829.78 120.256C830.623 120.256 831.404 120.374 832.124 120.611C832.848 120.848 833.49 121.193 834.049 121.648C834.607 122.098 835.062 122.649 835.412 123.303C835.767 123.956 835.995 124.704 836.094 125.547ZM843.214 135.213C842.092 135.213 841.126 134.986 840.316 134.531C839.511 134.072 838.891 133.423 838.456 132.585C838.02 131.742 837.802 130.746 837.802 129.595C837.802 128.473 838.02 127.488 838.456 126.641C838.891 125.793 839.504 125.133 840.295 124.659C841.091 124.186 842.023 123.949 843.093 123.949C843.813 123.949 844.483 124.065 845.103 124.297C845.728 124.524 846.273 124.867 846.737 125.327C847.206 125.786 847.57 126.364 847.831 127.06C848.091 127.751 848.221 128.561 848.221 129.489V130.32H839.01V128.445H845.373C845.373 128.009 845.279 127.623 845.089 127.287C844.9 126.951 844.637 126.688 844.301 126.499C843.969 126.304 843.583 126.207 843.143 126.207C842.684 126.207 842.277 126.314 841.922 126.527C841.571 126.735 841.297 127.017 841.098 127.372C840.899 127.723 840.797 128.113 840.792 128.544V130.327C840.792 130.866 840.892 131.333 841.091 131.726C841.294 132.119 841.581 132.422 841.95 132.635C842.319 132.848 842.757 132.955 843.264 132.955C843.6 132.955 843.908 132.907 844.187 132.812C844.467 132.718 844.706 132.576 844.904 132.386C845.103 132.197 845.255 131.965 845.359 131.69L848.157 131.875C848.015 132.547 847.724 133.134 847.284 133.636C846.848 134.134 846.285 134.522 845.593 134.801C844.907 135.076 844.114 135.213 843.214 135.213ZM853.221 128.693V135H850.196V124.091H853.079V126.016H853.207C853.449 125.381 853.853 124.879 854.422 124.51C854.99 124.136 855.679 123.949 856.488 123.949C857.246 123.949 857.906 124.115 858.47 124.446C859.033 124.777 859.471 125.251 859.784 125.866C860.096 126.477 860.252 127.206 860.252 128.054V135H857.227V128.594C857.232 127.926 857.061 127.405 856.716 127.031C856.37 126.652 855.894 126.463 855.288 126.463C854.881 126.463 854.521 126.551 854.208 126.726C853.901 126.901 853.659 127.157 853.484 127.493C853.314 127.824 853.226 128.224 853.221 128.693ZM868.44 124.091V126.364H861.87V124.091H868.44ZM863.362 121.477H866.387V131.648C866.387 131.927 866.43 132.145 866.515 132.301C866.6 132.453 866.719 132.559 866.87 132.621C867.026 132.682 867.206 132.713 867.41 132.713C867.552 132.713 867.694 132.701 867.836 132.678C867.978 132.649 868.087 132.628 868.163 132.614L868.638 134.865C868.487 134.912 868.274 134.967 867.999 135.028C867.725 135.095 867.391 135.135 866.998 135.149C866.269 135.178 865.629 135.08 865.08 134.858C864.536 134.635 864.112 134.29 863.809 133.821C863.506 133.352 863.357 132.76 863.362 132.045V121.477ZM875.265 135.213C874.143 135.213 873.177 134.986 872.367 134.531C871.562 134.072 870.942 133.423 870.506 132.585C870.071 131.742 869.853 130.746 869.853 129.595C869.853 128.473 870.071 127.488 870.506 126.641C870.942 125.793 871.555 125.133 872.346 124.659C873.141 124.186 874.074 123.949 875.144 123.949C875.864 123.949 876.534 124.065 877.154 124.297C877.779 124.524 878.324 124.867 878.788 125.327C879.256 125.786 879.621 126.364 879.881 127.06C880.142 127.751 880.272 128.561 880.272 129.489V130.32H871.06V128.445H877.424C877.424 128.009 877.329 127.623 877.14 127.287C876.951 126.951 876.688 126.688 876.352 126.499C876.02 126.304 875.634 126.207 875.194 126.207C874.735 126.207 874.327 126.314 873.972 126.527C873.622 126.735 873.347 127.017 873.148 127.372C872.95 127.723 872.848 128.113 872.843 128.544V130.327C872.843 130.866 872.942 131.333 873.141 131.726C873.345 132.119 873.631 132.422 874.001 132.635C874.37 132.848 874.808 132.955 875.315 132.955C875.651 132.955 875.959 132.907 876.238 132.812C876.517 132.718 876.756 132.576 876.955 132.386C877.154 132.197 877.306 131.965 877.41 131.69L880.208 131.875C880.066 132.547 879.775 133.134 879.335 133.636C878.899 134.134 878.335 134.522 877.644 134.801C876.958 135.076 876.165 135.213 875.265 135.213ZM882.246 135V124.091H885.18V125.994H885.293C885.492 125.317 885.826 124.806 886.295 124.46C886.763 124.11 887.303 123.935 887.914 123.935C888.066 123.935 888.229 123.944 888.404 123.963C888.579 123.982 888.733 124.008 888.866 124.041V126.726C888.724 126.683 888.527 126.645 888.276 126.612C888.025 126.579 887.796 126.562 887.587 126.562C887.142 126.562 886.745 126.66 886.394 126.854C886.049 127.043 885.774 127.308 885.57 127.649C885.371 127.99 885.272 128.383 885.272 128.828V135H882.246Z" fill="black"/>
<path d="M1227.98 125.547H1224.87C1224.81 125.144 1224.7 124.787 1224.52 124.474C1224.35 124.157 1224.12 123.887 1223.85 123.665C1223.57 123.442 1223.26 123.272 1222.9 123.153C1222.54 123.035 1222.15 122.976 1221.74 122.976C1220.99 122.976 1220.33 123.163 1219.77 123.537C1219.21 123.906 1218.78 124.446 1218.47 125.156C1218.16 125.862 1218.01 126.719 1218.01 127.727C1218.01 128.764 1218.16 129.635 1218.47 130.341C1218.78 131.046 1219.22 131.579 1219.78 131.939C1220.34 132.299 1220.98 132.479 1221.72 132.479C1222.13 132.479 1222.51 132.424 1222.86 132.315C1223.22 132.206 1223.53 132.048 1223.8 131.839C1224.08 131.626 1224.31 131.368 1224.49 131.065C1224.67 130.762 1224.8 130.417 1224.87 130.028L1227.98 130.043C1227.9 130.71 1227.7 131.354 1227.38 131.974C1227.06 132.59 1226.63 133.142 1226.09 133.629C1225.56 134.112 1224.92 134.496 1224.17 134.78C1223.44 135.059 1222.6 135.199 1221.67 135.199C1220.37 135.199 1219.21 134.905 1218.19 134.318C1217.17 133.731 1216.36 132.881 1215.77 131.768C1215.18 130.656 1214.89 129.309 1214.89 127.727C1214.89 126.141 1215.19 124.792 1215.79 123.679C1216.38 122.566 1217.19 121.719 1218.22 121.136C1219.24 120.549 1220.39 120.256 1221.67 120.256C1222.51 120.256 1223.29 120.374 1224.01 120.611C1224.74 120.848 1225.38 121.193 1225.94 121.648C1226.49 122.098 1226.95 122.649 1227.3 123.303C1227.65 123.956 1227.88 124.704 1227.98 125.547ZM1235.1 135.213C1233.98 135.213 1233.01 134.986 1232.2 134.531C1231.4 134.072 1230.78 133.423 1230.34 132.585C1229.91 131.742 1229.69 130.746 1229.69 129.595C1229.69 128.473 1229.91 127.488 1230.34 126.641C1230.78 125.793 1231.39 125.133 1232.18 124.659C1232.98 124.186 1233.91 123.949 1234.98 123.949C1235.7 123.949 1236.37 124.065 1236.99 124.297C1237.62 124.524 1238.16 124.867 1238.62 125.327C1239.09 125.786 1239.46 126.364 1239.72 127.06C1239.98 127.751 1240.11 128.561 1240.11 129.489V130.32H1230.9V128.445H1237.26C1237.26 128.009 1237.17 127.623 1236.98 127.287C1236.79 126.951 1236.52 126.688 1236.19 126.499C1235.86 126.304 1235.47 126.207 1235.03 126.207C1234.57 126.207 1234.16 126.314 1233.81 126.527C1233.46 126.735 1233.18 127.017 1232.98 127.372C1232.79 127.723 1232.68 128.113 1232.68 128.544V130.327C1232.68 130.866 1232.78 131.333 1232.98 131.726C1233.18 132.119 1233.47 132.422 1233.84 132.635C1234.21 132.848 1234.64 132.955 1235.15 132.955C1235.49 132.955 1235.79 132.907 1236.07 132.812C1236.35 132.718 1236.59 132.576 1236.79 132.386C1236.99 132.197 1237.14 131.965 1237.25 131.69L1240.04 131.875C1239.9 132.547 1239.61 133.134 1239.17 133.636C1238.73 134.134 1238.17 134.522 1237.48 134.801C1236.79 135.076 1236 135.213 1235.1 135.213ZM1245.11 128.693V135H1242.08V124.091H1244.97V126.016H1245.09C1245.34 125.381 1245.74 124.879 1246.31 124.51C1246.88 124.136 1247.57 123.949 1248.38 123.949C1249.13 123.949 1249.79 124.115 1250.36 124.446C1250.92 124.777 1251.36 125.251 1251.67 125.866C1251.98 126.477 1252.14 127.206 1252.14 128.054V135H1249.11V128.594C1249.12 127.926 1248.95 127.405 1248.6 127.031C1248.26 126.652 1247.78 126.463 1247.17 126.463C1246.77 126.463 1246.41 126.551 1246.1 126.726C1245.79 126.901 1245.55 127.157 1245.37 127.493C1245.2 127.824 1245.11 128.224 1245.11 128.693ZM1260.33 124.091V126.364H1253.76V124.091H1260.33ZM1255.25 121.477H1258.27V131.648C1258.27 131.927 1258.32 132.145 1258.4 132.301C1258.49 132.453 1258.61 132.559 1258.76 132.621C1258.91 132.682 1259.09 132.713 1259.3 132.713C1259.44 132.713 1259.58 132.701 1259.72 132.678C1259.86 132.649 1259.97 132.628 1260.05 132.614L1260.53 134.865C1260.37 134.912 1260.16 134.967 1259.89 135.028C1259.61 135.095 1259.28 135.135 1258.88 135.149C1258.16 135.178 1257.52 135.08 1256.97 134.858C1256.42 134.635 1256 134.29 1255.7 133.821C1255.39 133.352 1255.24 132.76 1255.25 132.045V121.477ZM1267.15 135.213C1266.03 135.213 1265.06 134.986 1264.25 134.531C1263.45 134.072 1262.83 133.423 1262.39 132.585C1261.96 131.742 1261.74 130.746 1261.74 129.595C1261.74 128.473 1261.96 127.488 1262.39 126.641C1262.83 125.793 1263.44 125.133 1264.23 124.659C1265.03 124.186 1265.96 123.949 1267.03 123.949C1267.75 123.949 1268.42 124.065 1269.04 124.297C1269.67 124.524 1270.21 124.867 1270.67 125.327C1271.14 125.786 1271.51 126.364 1271.77 127.06C1272.03 127.751 1272.16 128.561 1272.16 129.489V130.32H1262.95V128.445H1269.31C1269.31 128.009 1269.22 127.623 1269.03 127.287C1268.84 126.951 1268.57 126.688 1268.24 126.499C1267.91 126.304 1267.52 126.207 1267.08 126.207C1266.62 126.207 1266.21 126.314 1265.86 126.527C1265.51 126.735 1265.23 127.017 1265.04 127.372C1264.84 127.723 1264.73 128.113 1264.73 128.544V130.327C1264.73 130.866 1264.83 131.333 1265.03 131.726C1265.23 132.119 1265.52 132.422 1265.89 132.635C1266.26 132.848 1266.69 132.955 1267.2 132.955C1267.54 132.955 1267.85 132.907 1268.12 132.812C1268.4 132.718 1268.64 132.576 1268.84 132.386C1269.04 132.197 1269.19 131.965 1269.3 131.69L1272.09 131.875C1271.95 132.547 1271.66 133.134 1271.22 133.636C1270.79 134.134 1270.22 134.522 1269.53 134.801C1268.84 135.076 1268.05 135.213 1267.15 135.213ZM1274.13 135V124.091H1277.07V125.994H1277.18C1277.38 125.317 1277.71 124.806 1278.18 124.46C1278.65 124.11 1279.19 123.935 1279.8 123.935C1279.95 123.935 1280.12 123.944 1280.29 123.963C1280.47 123.982 1280.62 124.008 1280.75 124.041V126.726C1280.61 126.683 1280.41 126.645 1280.16 126.612C1279.91 126.579 1279.68 126.562 1279.47 126.562C1279.03 126.562 1278.63 126.66 1278.28 126.854C1277.94 127.043 1277.66 127.308 1277.46 127.649C1277.26 127.99 1277.16 128.383 1277.16 128.828V135H1274.13ZM1291.39 127.202L1288.62 127.372C1288.58 127.135 1288.47 126.922 1288.32 126.733C1288.16 126.539 1287.96 126.385 1287.7 126.271C1287.45 126.153 1287.15 126.094 1286.8 126.094C1286.33 126.094 1285.93 126.193 1285.61 126.392C1285.29 126.586 1285.13 126.847 1285.13 127.173C1285.13 127.434 1285.23 127.654 1285.44 127.834C1285.65 128.014 1286.01 128.158 1286.51 128.267L1288.49 128.665C1289.55 128.883 1290.34 129.233 1290.86 129.716C1291.38 130.199 1291.64 130.833 1291.64 131.619C1291.64 132.334 1291.43 132.962 1291.01 133.501C1290.59 134.041 1290.02 134.463 1289.29 134.766C1288.57 135.064 1287.73 135.213 1286.78 135.213C1285.34 135.213 1284.19 134.912 1283.33 134.311C1282.48 133.705 1281.98 132.881 1281.83 131.839L1284.81 131.683C1284.9 132.124 1285.12 132.46 1285.46 132.692C1285.81 132.919 1286.25 133.033 1286.79 133.033C1287.32 133.033 1287.75 132.931 1288.07 132.727C1288.4 132.519 1288.56 132.251 1288.57 131.925C1288.56 131.65 1288.45 131.425 1288.22 131.25C1287.99 131.07 1287.64 130.933 1287.17 130.838L1285.28 130.462C1284.21 130.249 1283.42 129.879 1282.9 129.354C1282.38 128.828 1282.12 128.158 1282.12 127.344C1282.12 126.643 1282.31 126.039 1282.69 125.533C1283.08 125.026 1283.61 124.635 1284.31 124.361C1285 124.086 1285.82 123.949 1286.75 123.949C1288.13 123.949 1289.21 124.24 1290 124.822C1290.8 125.405 1291.26 126.198 1291.39 127.202ZM1311.07 125.547H1307.96C1307.9 125.144 1307.78 124.787 1307.61 124.474C1307.43 124.157 1307.21 123.887 1306.93 123.665C1306.66 123.442 1306.34 123.272 1305.98 123.153C1305.63 123.035 1305.24 122.976 1304.82 122.976C1304.07 122.976 1303.42 123.163 1302.86 123.537C1302.3 123.906 1301.86 124.446 1301.56 125.156C1301.25 125.862 1301.1 126.719 1301.1 127.727C1301.1 128.764 1301.25 129.635 1301.56 130.341C1301.87 131.046 1302.3 131.579 1302.86 131.939C1303.42 132.299 1304.07 132.479 1304.8 132.479C1305.21 132.479 1305.6 132.424 1305.95 132.315C1306.3 132.206 1306.62 132.048 1306.89 131.839C1307.17 131.626 1307.39 131.368 1307.57 131.065C1307.76 130.762 1307.88 130.417 1307.96 130.028L1311.07 130.043C1310.99 130.71 1310.79 131.354 1310.46 131.974C1310.15 132.59 1309.72 133.142 1309.18 133.629C1308.64 134.112 1308 134.496 1307.26 134.78C1306.52 135.059 1305.69 135.199 1304.75 135.199C1303.46 135.199 1302.3 134.905 1301.27 134.318C1300.25 133.731 1299.45 132.881 1298.86 131.768C1298.27 130.656 1297.98 129.309 1297.98 127.727C1297.98 126.141 1298.28 124.792 1298.87 123.679C1299.47 122.566 1300.28 121.719 1301.3 121.136C1302.32 120.549 1303.47 120.256 1304.75 120.256C1305.6 120.256 1306.38 120.374 1307.1 120.611C1307.82 120.848 1308.46 121.193 1309.02 121.648C1309.58 122.098 1310.03 122.649 1310.38 123.303C1310.74 123.956 1310.97 124.704 1311.07 125.547ZM1318.14 135.213C1317.04 135.213 1316.09 134.979 1315.28 134.51C1314.48 134.036 1313.86 133.378 1313.43 132.536C1312.99 131.688 1312.77 130.705 1312.77 129.588C1312.77 128.461 1312.99 127.476 1313.43 126.634C1313.86 125.786 1314.48 125.128 1315.28 124.659C1316.09 124.186 1317.04 123.949 1318.14 123.949C1319.25 123.949 1320.2 124.186 1321 124.659C1321.8 125.128 1322.42 125.786 1322.86 126.634C1323.3 127.476 1323.51 128.461 1323.51 129.588C1323.51 130.705 1323.3 131.688 1322.86 132.536C1322.42 133.378 1321.8 134.036 1321 134.51C1320.2 134.979 1319.25 135.213 1318.14 135.213ZM1318.16 132.869C1318.66 132.869 1319.08 132.727 1319.42 132.443C1319.75 132.154 1320 131.761 1320.18 131.264C1320.35 130.767 1320.44 130.201 1320.44 129.567C1320.44 128.932 1320.35 128.366 1320.18 127.869C1320 127.372 1319.75 126.979 1319.42 126.69C1319.08 126.402 1318.66 126.257 1318.16 126.257C1317.65 126.257 1317.23 126.402 1316.88 126.69C1316.54 126.979 1316.28 127.372 1316.11 127.869C1315.94 128.366 1315.85 128.932 1315.85 129.567C1315.85 130.201 1315.94 130.767 1316.11 131.264C1316.28 131.761 1316.54 132.154 1316.88 132.443C1317.23 132.727 1317.65 132.869 1318.16 132.869ZM1325.48 135V124.091H1328.36V126.016H1328.49C1328.72 125.376 1329.1 124.872 1329.63 124.503C1330.16 124.134 1330.79 123.949 1331.53 123.949C1332.28 123.949 1332.92 124.136 1333.44 124.51C1333.97 124.879 1334.32 125.381 1334.49 126.016H1334.61C1334.83 125.391 1335.23 124.891 1335.81 124.517C1336.4 124.138 1337.1 123.949 1337.9 123.949C1338.91 123.949 1339.74 124.273 1340.37 124.922C1341.01 125.566 1341.33 126.48 1341.33 127.663V135H1338.31V128.26C1338.31 127.654 1338.15 127.199 1337.83 126.896C1337.51 126.593 1337.11 126.442 1336.62 126.442C1336.08 126.442 1335.65 126.617 1335.34 126.967C1335.03 127.313 1334.88 127.77 1334.88 128.338V135H1331.94V128.196C1331.94 127.661 1331.79 127.235 1331.48 126.918C1331.18 126.6 1330.78 126.442 1330.28 126.442C1329.95 126.442 1329.64 126.527 1329.37 126.697C1329.11 126.863 1328.9 127.098 1328.74 127.401C1328.58 127.699 1328.51 128.049 1328.51 128.452V135H1325.48ZM1343.72 139.091V124.091H1346.71V125.923H1346.84C1346.97 125.63 1347.17 125.331 1347.42 125.028C1347.67 124.721 1348 124.465 1348.41 124.261C1348.82 124.053 1349.33 123.949 1349.94 123.949C1350.74 123.949 1351.47 124.157 1352.15 124.574C1352.82 124.986 1353.36 125.608 1353.76 126.442C1354.16 127.27 1354.36 128.31 1354.36 129.56C1354.36 130.777 1354.17 131.804 1353.77 132.642C1353.38 133.475 1352.85 134.107 1352.18 134.538C1351.51 134.964 1350.77 135.178 1349.94 135.178C1349.35 135.178 1348.85 135.08 1348.44 134.886C1348.03 134.692 1347.7 134.448 1347.44 134.155C1347.18 133.857 1346.98 133.556 1346.84 133.253H1346.75V139.091H1343.72ZM1346.68 129.545C1346.68 130.194 1346.77 130.76 1346.95 131.243C1347.13 131.726 1347.39 132.102 1347.74 132.372C1348.08 132.637 1348.49 132.77 1348.98 132.77C1349.47 132.77 1349.89 132.635 1350.23 132.365C1350.57 132.09 1350.83 131.712 1351 131.229C1351.18 130.741 1351.27 130.18 1351.27 129.545C1351.27 128.916 1351.19 128.362 1351.01 127.884C1350.83 127.405 1350.58 127.031 1350.24 126.761C1349.89 126.491 1349.48 126.357 1348.98 126.357C1348.49 126.357 1348.07 126.487 1347.73 126.747C1347.39 127.008 1347.13 127.377 1346.95 127.855C1346.77 128.333 1346.68 128.897 1346.68 129.545ZM1359.49 135.206C1358.79 135.206 1358.17 135.085 1357.63 134.844C1357.08 134.598 1356.65 134.235 1356.34 133.757C1356.02 133.274 1355.87 132.673 1355.87 131.953C1355.87 131.347 1355.98 130.838 1356.2 130.426C1356.42 130.014 1356.73 129.683 1357.11 129.432C1357.49 129.181 1357.93 128.991 1358.42 128.864C1358.91 128.736 1359.43 128.646 1359.97 128.594C1360.6 128.527 1361.11 128.466 1361.5 128.409C1361.89 128.348 1362.17 128.258 1362.35 128.139C1362.52 128.021 1362.61 127.846 1362.61 127.614V127.571C1362.61 127.121 1362.47 126.773 1362.18 126.527C1361.9 126.281 1361.5 126.158 1360.99 126.158C1360.44 126.158 1360.01 126.278 1359.69 126.52C1359.37 126.757 1359.15 127.055 1359.05 127.415L1356.25 127.188C1356.39 126.525 1356.67 125.952 1357.09 125.469C1357.51 124.981 1358.04 124.607 1358.7 124.347C1359.36 124.081 1360.13 123.949 1361 123.949C1361.61 123.949 1362.19 124.02 1362.74 124.162C1363.3 124.304 1363.8 124.524 1364.23 124.822C1364.66 125.121 1365.01 125.504 1365.26 125.973C1365.51 126.437 1365.63 126.993 1365.63 127.642V135H1362.76V133.487H1362.68C1362.5 133.828 1362.27 134.129 1361.98 134.389C1361.68 134.645 1361.33 134.846 1360.92 134.993C1360.51 135.135 1360.03 135.206 1359.49 135.206ZM1360.36 133.118C1360.8 133.118 1361.19 133.03 1361.54 132.855C1361.88 132.675 1362.14 132.434 1362.34 132.131C1362.53 131.828 1362.63 131.484 1362.63 131.101V129.943C1362.53 130.005 1362.4 130.062 1362.24 130.114C1362.08 130.161 1361.9 130.206 1361.69 130.249C1361.49 130.286 1361.28 130.322 1361.08 130.355C1360.88 130.384 1360.69 130.41 1360.53 130.433C1360.17 130.485 1359.86 130.568 1359.6 130.682C1359.33 130.795 1359.13 130.949 1358.98 131.143C1358.83 131.333 1358.76 131.57 1358.76 131.854C1358.76 132.266 1358.91 132.58 1359.21 132.798C1359.51 133.011 1359.89 133.118 1360.36 133.118ZM1367.98 135V124.091H1370.91V125.994H1371.03C1371.23 125.317 1371.56 124.806 1372.03 124.46C1372.5 124.11 1373.04 123.935 1373.65 123.935C1373.8 123.935 1373.96 123.944 1374.14 123.963C1374.31 123.982 1374.47 124.008 1374.6 124.041V126.726C1374.46 126.683 1374.26 126.645 1374.01 126.612C1373.76 126.579 1373.53 126.562 1373.32 126.562C1372.88 126.562 1372.48 126.66 1372.13 126.854C1371.78 127.043 1371.51 127.308 1371.3 127.649C1371.11 127.99 1371.01 128.383 1371.01 128.828V135H1367.98ZM1380.63 135.213C1379.51 135.213 1378.54 134.986 1377.73 134.531C1376.93 134.072 1376.31 133.423 1375.87 132.585C1375.43 131.742 1375.22 130.746 1375.22 129.595C1375.22 128.473 1375.43 127.488 1375.87 126.641C1376.31 125.793 1376.92 125.133 1377.71 124.659C1378.5 124.186 1379.44 123.949 1380.51 123.949C1381.23 123.949 1381.9 124.065 1382.52 124.297C1383.14 124.524 1383.69 124.867 1384.15 125.327C1384.62 125.786 1384.98 126.364 1385.24 127.06C1385.51 127.751 1385.64 128.561 1385.64 129.489V130.32H1376.42V128.445H1382.79C1382.79 128.009 1382.69 127.623 1382.5 127.287C1382.31 126.951 1382.05 126.688 1381.71 126.499C1381.38 126.304 1381 126.207 1380.56 126.207C1380.1 126.207 1379.69 126.314 1379.34 126.527C1378.99 126.735 1378.71 127.017 1378.51 127.372C1378.31 127.723 1378.21 128.113 1378.21 128.544V130.327C1378.21 130.866 1378.31 131.333 1378.5 131.726C1378.71 132.119 1378.99 132.422 1379.36 132.635C1379.73 132.848 1380.17 132.955 1380.68 132.955C1381.01 132.955 1381.32 132.907 1381.6 132.812C1381.88 132.718 1382.12 132.576 1382.32 132.386C1382.52 132.197 1382.67 131.965 1382.77 131.69L1385.57 131.875C1385.43 132.547 1385.14 133.134 1384.7 133.636C1384.26 134.134 1383.7 134.522 1383.01 134.801C1382.32 135.076 1381.53 135.213 1380.63 135.213ZM1391.63 135.178C1390.8 135.178 1390.05 134.964 1389.38 134.538C1388.71 134.107 1388.18 133.475 1387.79 132.642C1387.4 131.804 1387.2 130.777 1387.2 129.56C1387.2 128.31 1387.41 127.27 1387.81 126.442C1388.21 125.608 1388.75 124.986 1389.41 124.574C1390.09 124.157 1390.82 123.949 1391.62 123.949C1392.23 123.949 1392.74 124.053 1393.15 124.261C1393.56 124.465 1393.89 124.721 1394.14 125.028C1394.4 125.331 1394.59 125.63 1394.73 125.923H1394.82V120.455H1397.84V135H1394.85V133.253H1394.73C1394.58 133.556 1394.38 133.857 1394.12 134.155C1393.87 134.448 1393.53 134.692 1393.12 134.886C1392.71 135.08 1392.22 135.178 1391.63 135.178ZM1392.59 132.77C1393.08 132.77 1393.49 132.637 1393.82 132.372C1394.17 132.102 1394.43 131.726 1394.61 131.243C1394.79 130.76 1394.88 130.194 1394.88 129.545C1394.88 128.897 1394.79 128.333 1394.61 127.855C1394.43 127.377 1394.17 127.008 1393.83 126.747C1393.49 126.487 1393.08 126.357 1392.59 126.357C1392.09 126.357 1391.67 126.491 1391.33 126.761C1390.99 127.031 1390.73 127.405 1390.56 127.884C1390.38 128.362 1390.29 128.916 1390.29 129.545C1390.29 130.18 1390.38 130.741 1390.56 131.229C1390.74 131.712 1391 132.09 1391.33 132.365C1391.67 132.635 1392.09 132.77 1392.59 132.77Z" fill="black"/>
</svg>
