<svg width="340" height="360" viewBox="0 0 340 360" fill="none" xmlns="http://www.w3.org/2000/svg">
<path d="M329.134 256.134C333.708 258.766 333.718 265.362 329.151 268.007L177.398 355.893C173.16 358.347 167.935 358.355 163.69 355.912L10.8638 267.978C6.28977 265.346 6.28058 258.75 10.8472 256.105L162.6 168.224C166.838 165.77 172.063 165.763 176.307 168.205L329.134 256.134Z" fill="#382CDD"/>
<path d="M329.58 259.37C334.718 256.394 334.707 248.973 329.561 246.012L176.735 158.083C172.225 155.489 166.673 155.496 162.171 158.104L10.4179 245.985C5.28036 248.96 5.2907 256.381 10.4365 259.342L163.263 347.276C167.773 349.871 173.325 349.863 177.827 347.255L329.58 259.37Z" fill="#27272E" stroke="#382CDD" stroke-width="1.71364"/>
<g style="mix-blend-mode:multiply">
<path d="M307.423 234.032L180.045 307.628C174.088 311.07 166.748 311.08 160.781 307.655L32.5254 234.032L167.249 156.196C168.659 155.381 170.397 155.379 171.81 156.19L307.423 234.032Z" fill="#16161C"/>
</g>
<path opacity="0.32" d="M303.973 213.794C307.027 215.547 307.033 219.951 303.984 221.713L172.711 297.584C171.301 298.399 169.562 298.401 168.149 297.59L35.9756 221.694C32.9216 219.94 32.9154 215.537 35.9645 213.775L167.237 137.909C168.648 137.093 170.386 137.091 171.799 137.902L303.973 213.794Z" fill="url(#paint0_linear_491_116494)"/>
<path d="M59.0788 267.752C59.1516 267.794 59.2148 267.836 59.2722 267.878C59.3278 267.922 59.3757 267.961 59.4063 267.999L58.2551 268.668C58.2264 268.622 58.1747 268.572 58.1038 268.516C58.0329 268.461 57.9505 268.403 57.8548 268.35C57.6383 268.225 57.4123 268.143 57.1748 268.104C56.9372 268.066 56.6997 268.068 56.4622 268.114C56.2228 268.16 55.9929 268.246 55.7707 268.376L53.0775 269.941L51.7673 269.185L56.5484 266.405L57.8356 267.149L57.0196 267.624L57.0464 267.639C57.4085 267.513 57.7647 267.459 58.121 267.478C58.4754 267.495 58.7953 267.587 59.0788 267.752Z" fill="white"/>
<path d="M67.7434 270.951L65.2628 272.391L65.2896 272.407C65.7129 272.307 66.1267 272.282 66.5366 272.334C66.9465 272.386 67.3315 272.516 67.6916 272.723C68.0422 272.924 68.2663 273.142 68.364 273.376C68.4636 273.61 68.4406 273.849 68.2969 274.089C68.1514 274.33 67.887 274.564 67.502 274.788L64.5004 276.533L63.1845 275.772L65.9179 274.184C66.2512 273.991 66.4332 273.794 66.4638 273.592C66.4945 273.391 66.3585 273.204 66.0596 273.031C65.8681 272.92 65.6555 272.851 65.4237 272.822C65.19 272.792 64.9563 272.801 64.7169 272.847C64.4774 272.893 64.2552 272.978 64.0484 273.098L61.3092 274.69L59.999 273.933L66.4351 270.192L67.7434 270.951Z" fill="white"/>
<path d="M62.0204 269.449C62.4571 269.702 62.754 269.969 62.913 270.246C63.0701 270.526 63.1026 270.798 63.0069 271.062C62.9111 271.327 62.7004 271.564 62.3728 271.777L62.3422 271.796L61.1201 271.091L61.1565 271.066C61.3442 270.913 61.4342 270.744 61.4304 270.562C61.4266 270.38 61.2887 270.212 61.0167 270.055C60.804 269.932 60.5608 269.859 60.2849 269.836C60.011 269.815 59.7218 269.842 59.4172 269.921C59.1127 269.999 58.81 270.126 58.5055 270.302C58.1875 270.486 57.9672 270.664 57.8331 270.842C57.7009 271.018 57.655 271.185 57.6971 271.342C57.7412 271.499 57.8695 271.641 58.084 271.763C58.3484 271.917 58.6319 271.995 58.9403 272.003C59.2468 272.01 59.5417 271.955 59.8252 271.84L59.8731 271.821L61.0933 272.526L61.0665 272.541C60.6987 272.731 60.2849 272.853 59.8252 272.909C59.3655 272.962 58.8962 272.947 58.4154 272.857C57.9327 272.767 57.4807 272.598 57.0516 272.351C56.5631 272.07 56.2433 271.767 56.0881 271.445C55.9349 271.122 55.9483 270.796 56.1283 270.467C56.3084 270.139 56.6532 269.825 57.1646 269.528C57.6818 269.227 58.2181 269.028 58.7832 268.926C59.3483 268.825 59.9076 268.815 60.4631 268.904C61.0243 268.992 61.5396 269.174 62.0204 269.449Z" fill="white"/>
<path d="M55.3911 263.819L51.2134 268.863L49.7863 268.039L50.8609 266.852L48.57 265.53L46.5223 266.154L45.0991 265.333L53.7935 262.896L54.9926 263.589L55.3911 263.819ZM49.8936 265.126L51.5543 266.085L53.3568 264.093L53.33 264.078L49.8936 265.126Z" fill="white"/>
<path d="M71.4121 274.278C71.2148 274.165 71.1171 274.029 71.1152 273.872C71.1152 273.715 71.2072 273.583 71.3911 273.475C71.5788 273.366 71.8067 273.315 72.0749 273.315C72.345 273.316 72.5768 273.374 72.774 273.487C72.9713 273.602 73.0709 273.736 73.0729 273.891C73.0748 274.046 72.9828 274.177 72.7951 274.286C72.6112 274.393 72.3833 274.447 72.1132 274.449C71.845 274.449 71.6113 274.393 71.4121 274.278Z" fill="white"/>
<path d="M75.1662 275.801L73.9978 276.481L74.8789 276.988L73.8963 277.559L73.0151 277.051L70.6955 278.4C70.4733 278.528 70.3679 278.649 70.3813 278.758C70.3947 278.867 70.4982 278.978 70.6974 279.093C70.7568 279.128 70.8104 279.157 70.8621 279.18C70.9119 279.203 70.9579 279.224 71.0039 279.243L70.048 279.798C69.9638 279.764 69.8641 279.718 69.7473 279.662C69.6305 279.609 69.504 279.54 69.3661 279.461C68.8336 279.155 68.5501 278.862 68.5156 278.582C68.4831 278.304 68.7206 278.015 69.232 277.718L71.6934 276.287L71.0249 275.9L72.0076 275.329L72.6761 275.716L73.8445 275.036L75.1662 275.801Z" fill="white"/>
<path d="M82.9242 281.519C83.361 281.772 83.6579 282.038 83.8169 282.316C83.9739 282.595 84.0046 282.867 83.9107 283.132C83.8168 283.396 83.6042 283.634 83.2767 283.846L83.246 283.865L82.024 283.16L82.0584 283.134C82.2461 282.98 82.3381 282.812 82.3343 282.632C82.3304 282.45 82.1925 282.281 81.9186 282.124C81.7079 282.002 81.4646 281.929 81.1888 281.906C80.9149 281.885 80.6256 281.911 80.3211 281.988C80.0165 282.067 79.7139 282.193 79.4093 282.369C79.0913 282.553 78.871 282.731 78.737 282.909C78.6048 283.086 78.5588 283.252 78.601 283.409C78.645 283.566 78.7734 283.708 78.9879 283.831C79.2522 283.984 79.5357 284.063 79.8441 284.07C80.1506 284.078 80.4456 284.022 80.7291 283.906L80.7789 283.888L81.999 284.593L81.9722 284.609C81.6045 284.798 81.1907 284.921 80.731 284.976C80.2713 285.03 79.802 285.015 79.3212 284.925C78.8385 284.835 78.3864 284.666 77.9574 284.419C77.4689 284.137 77.149 283.835 76.9939 283.513C76.8406 283.189 76.854 282.863 77.0341 282.534C77.2141 282.206 77.5589 281.892 78.0704 281.595C78.5876 281.295 79.1239 281.095 79.689 280.994C80.254 280.891 80.8134 280.883 81.3689 280.971C81.9263 281.059 82.4454 281.241 82.9242 281.519Z" fill="white"/>
<path d="M77.6683 281.26L77.2622 281.496L73.9503 279.584C73.7147 279.728 73.5519 279.873 73.458 280.023C73.3584 280.182 73.3431 280.339 73.4082 280.492C73.4733 280.645 73.6189 280.787 73.8449 280.917C74.025 281.021 74.2089 281.095 74.3966 281.138C74.5843 281.182 74.7644 281.203 74.9349 281.201C75.1034 281.199 75.249 281.182 75.3678 281.145L75.4022 281.134L76.6052 281.829L76.542 281.85C76.3313 281.931 76.0822 281.994 75.8007 282.038C75.5172 282.08 75.2126 282.093 74.887 282.078C74.5594 282.063 74.2242 282.005 73.8775 281.91C73.5327 281.814 73.1879 281.666 72.8431 281.467C72.3528 281.184 72.031 280.883 71.8777 280.561C71.7245 280.241 71.7398 279.917 71.918 279.592C72.098 279.264 72.4428 278.954 72.9504 278.659C73.4638 278.36 74.0001 278.159 74.5652 278.054C75.1302 277.948 75.6876 277.935 76.2355 278.015C76.7852 278.096 77.2947 278.272 77.764 278.544C78.2353 278.816 78.5417 279.109 78.6873 279.419C78.831 279.732 78.8176 280.048 78.6452 280.366C78.4785 280.682 78.151 280.979 77.6683 281.26ZM74.7912 279.111L76.8293 280.287C76.9749 280.18 77.0821 280.074 77.1492 279.969C77.2526 279.808 77.2737 279.657 77.2143 279.513C77.1549 279.37 77.0247 279.239 76.8216 279.121C76.6167 279.002 76.3887 278.927 76.132 278.893C75.8792 278.858 75.611 278.872 75.3333 278.931C75.1513 278.969 74.9713 279.031 74.7912 279.111Z" fill="white"/>
<path d="M65.3613 277.031L70.1424 274.253L71.4583 275.012L66.6754 277.791L65.3613 277.031Z" fill="white"/>
<path d="M88.4851 283.488L87.3167 284.168L88.1978 284.676L87.2151 285.246L86.334 284.739L84.0143 286.087C83.7921 286.216 83.6868 286.336 83.7002 286.446C83.7136 286.555 83.8171 286.666 84.0143 286.781C84.0737 286.815 84.1293 286.844 84.1791 286.867C84.2289 286.89 84.2749 286.911 84.3208 286.93L83.365 287.486C83.2807 287.451 83.1811 287.405 83.0643 287.35C82.9474 287.294 82.8191 287.227 82.6831 287.149C82.1506 286.84 81.8671 286.547 81.8326 286.269C81.7981 285.99 82.0376 285.702 82.549 285.405L85.0104 283.975L84.3419 283.588L85.3245 283.017L85.9931 283.404L87.1615 282.724L88.4851 283.488Z" fill="white"/>
<path d="M46.0532 250.003C48.5786 251.442 48.5919 253.774 46.0825 255.213L34.5643 261.816C32.055 263.255 27.9721 263.255 25.4466 261.816L13.8535 255.213C11.328 253.774 11.3148 251.442 13.8241 250.003L25.3423 243.401C27.8517 241.961 31.9345 241.961 34.46 243.401L46.0532 250.003Z" fill="#F3F5F6"/>
<path d="M29.5608 259.961L27.7632 254.67C27.7337 254.619 27.4979 254.176 27.0117 253.896C26.5254 253.615 25.9213 253.487 25.8476 253.479C26.8791 253.598 27.94 253.547 28.9272 253.334L34.7475 252.033L30.7249 259.986C30.5481 260.327 29.6934 260.31 29.5608 259.961Z" fill="#30D8D8"/>
<path d="M34.7918 248.009L17.9497 251.216C16.7709 251.437 16.8593 252.424 18.0823 252.569L33.5835 254.372L36.339 248.868C36.6042 248.324 35.7201 247.831 34.7918 248.009Z" fill="#382CDD"/>
<g style="mix-blend-mode:multiply">
<path d="M33.5631 254.377L26.3657 253.525C27.2312 253.577 28.1053 253.512 28.9282 253.335L34.7485 252.033L33.5631 254.377Z" fill="#526868"/>
</g>
<path d="M329.134 178.405C333.708 181.037 333.718 187.633 329.151 190.278L177.398 278.164C173.16 280.618 167.935 280.625 163.69 278.183L10.8638 190.249C6.28977 187.617 6.28058 181.021 10.8472 178.376L162.6 90.4951C166.838 88.0411 172.063 88.0338 176.307 90.4758L329.134 178.405Z" fill="#32CECE"/>
<path d="M329.58 181.644C334.718 178.669 334.707 171.248 329.561 168.287L176.735 80.3578C172.225 77.7631 166.673 77.7709 162.171 80.3783L10.4179 168.259C5.28036 171.234 5.2907 178.655 10.4365 181.616L163.263 269.55C167.773 272.145 173.325 272.138 177.827 269.53L329.58 181.644Z" fill="#27272E" stroke="#32CECE" stroke-width="1.71364"/>
<g style="mix-blend-mode:multiply">
<path d="M308.566 156.592L180.315 230.499C174.367 233.927 167.046 233.937 161.089 230.526L31.9543 156.592L166.399 79.1198C168.512 77.9026 171.112 77.8989 173.227 79.1102L308.566 156.592Z" fill="#16161C"/>
</g>
<path opacity="0.32" d="M303.973 137.783C307.027 139.536 307.033 143.94 303.984 145.702L172.712 221.573C171.301 222.388 169.563 222.39 168.15 221.579L35.976 145.683C32.922 143.929 32.9159 139.526 35.965 137.764L167.238 61.8976C168.648 61.0823 170.386 61.0799 171.8 61.8912L303.973 137.783Z" fill="url(#paint1_linear_491_116494)"/>
<path d="M52.0497 187.939C51.9578 188.147 51.7701 188.333 51.4866 188.498C51.0996 188.722 50.6821 188.86 50.2281 188.915C49.7722 188.971 49.301 188.946 48.8183 188.841C48.3337 188.735 47.8605 188.548 47.397 188.279L45.2057 187.015L44.5276 186.624L50.9636 182.884L52.3179 183.665L53.7813 184.51C54.1893 184.745 54.4747 184.987 54.6414 185.232C54.8061 185.479 54.8483 185.718 54.7697 185.95C54.6912 186.182 54.4862 186.393 54.1549 186.584C53.9116 186.726 53.6415 186.82 53.3331 186.875C53.0266 186.929 52.7125 186.941 52.3926 186.906C52.0727 186.874 51.7796 186.799 51.5096 186.68L51.4827 186.695C51.7643 186.881 51.9501 187.084 52.044 187.301C52.1417 187.519 52.1436 187.732 52.0497 187.939ZM50.1802 187.651L50.1898 187.645C50.3909 187.529 50.5135 187.402 50.5537 187.27C50.5959 187.136 50.5595 186.998 50.4465 186.852C50.3334 186.705 50.1457 186.556 49.8776 186.402L48.7417 185.745L46.8856 186.824L48.054 187.498C48.4409 187.72 48.8145 187.847 49.1803 187.873C49.5481 187.898 49.8795 187.826 50.1802 187.651ZM51.3142 184.249L49.6554 185.215L50.6303 185.778C50.9924 185.987 51.3487 186.105 51.6954 186.13C52.0421 186.157 52.3505 186.094 52.6186 185.937L52.6263 185.931C52.881 185.784 52.9921 185.617 52.9538 185.437C52.9174 185.255 52.7412 185.075 52.4271 184.893L51.3142 184.249Z" fill="white"/>
<path d="M59.5229 189.743L54.7419 192.52L53.4317 191.764L54.2208 191.306L54.1883 191.287C53.7899 191.375 53.3876 191.396 52.9834 191.346C52.5812 191.296 52.1981 191.166 51.8322 190.953C51.4817 190.752 51.2537 190.538 51.1503 190.31C51.045 190.084 51.0641 189.854 51.202 189.624C51.3419 189.392 51.5966 189.17 51.9682 188.955L55.0541 187.163L56.3643 187.919L53.5504 189.555C53.2382 189.737 53.0677 189.921 53.0447 190.107C53.0217 190.292 53.1558 190.471 53.4489 190.639C53.6462 190.752 53.8607 190.825 54.0925 190.856C54.3243 190.884 54.558 190.877 54.7974 190.831C55.0368 190.785 55.259 190.702 55.464 190.582L58.2108 188.986L59.5229 189.743Z" fill="white"/>
<path d="M65.5856 191.327L59.1496 195.066L57.8394 194.309L64.2754 190.568L65.5856 191.327Z" fill="white"/>
<path d="M61.6685 190.273C61.4712 190.16 61.3716 190.024 61.3716 189.867C61.3697 189.71 61.4636 189.578 61.6474 189.47C61.8352 189.361 62.0612 189.308 62.3313 189.31C62.5994 189.312 62.8331 189.369 63.0304 189.482C63.2277 189.597 63.3273 189.731 63.3292 189.886C63.3312 190.041 63.2392 190.172 63.0515 190.281C62.8676 190.388 62.6397 190.442 62.3696 190.444C62.0995 190.444 61.8658 190.388 61.6685 190.273Z" fill="white"/>
<path d="M69.7618 193.737L71.072 194.493L64.636 198.234L63.3258 197.478L64.1418 197.004L64.1149 196.989C63.7012 197.081 63.2836 197.1 62.868 197.045C62.4504 196.991 62.0673 196.865 61.7206 196.663C61.3164 196.43 61.0674 196.171 60.9735 195.886C60.8797 195.6 60.9391 195.303 61.1517 194.997C61.3643 194.689 61.7282 194.386 62.2454 194.085C62.7703 193.781 63.2951 193.566 63.8257 193.443C64.3525 193.319 64.8639 193.284 65.3543 193.34C65.8446 193.396 66.2909 193.537 66.6932 193.769C67.0361 193.968 67.2544 194.189 67.3483 194.434C67.4402 194.679 67.4077 194.922 67.2506 195.166L67.2774 195.181L69.7618 193.737ZM65.7163 196.089C66.0075 195.92 66.2086 195.75 66.3312 195.575C66.4518 195.401 66.4902 195.234 66.4442 195.075C66.3982 194.916 66.2699 194.777 66.0573 194.654C65.8389 194.528 65.5937 194.451 65.3236 194.426C65.0516 194.399 64.7662 194.422 64.4712 194.493C64.1743 194.566 63.8813 194.687 63.5901 194.855C63.297 195.026 63.0902 195.196 62.9656 195.367C62.8392 195.539 62.799 195.704 62.845 195.863C62.889 196.022 63.0212 196.163 63.2396 196.29C63.4522 196.412 63.6974 196.487 63.9732 196.514C64.249 196.541 64.5364 196.518 64.8352 196.447C65.134 196.376 65.4271 196.255 65.7163 196.089Z" fill="white"/>
<path d="M55.6157 193.026L60.3968 190.246L61.7127 191.007L56.9317 193.786L55.6157 193.026Z" fill="white"/>
<path d="M46.0532 172.278C48.5786 173.717 48.5919 176.049 46.0825 177.488L34.5643 184.091C32.055 185.53 27.9721 185.53 25.4466 184.091L13.8535 177.488C11.328 176.049 11.3148 173.717 13.8241 172.278L25.3423 165.675C27.8517 164.236 31.9345 164.236 34.46 165.675L46.0532 172.278Z" fill="#F3F5F6"/>
<g clip-path="url(#clip0_491_116494)">
<g clip-path="url(#clip1_491_116494)">
<path d="M26.0451 178.915C26.7707 177.391 28.4692 172.863 25.0878 169.716C24.9334 169.556 24.5473 169.529 24.3157 169.663L21.8453 171.089C21.5365 171.267 21.413 171.517 21.4902 171.757C21.7681 172.595 22.2467 174.672 21.3049 176.571C21.2277 176.704 21.2894 176.847 21.4593 176.945L25.1186 179.058C25.412 179.227 25.937 179.156 26.0451 178.915Z" fill="#30D8D8"/>
<path d="M21.6904 176.401C24.3307 175.982 32.1744 175.002 37.6248 176.954C37.8873 177.052 37.9336 177.275 37.7174 177.4L35.247 178.826C34.9382 179.004 34.5059 179.075 34.089 179.031C32.653 178.879 29.0863 178.603 25.8438 179.12C25.5505 179.165 25.2262 179.12 25.01 178.995L21.4433 176.936C21.1345 176.758 21.2735 176.464 21.6904 176.401Z" fill="#30D8D8"/>
<path d="M27.008 175.845C26.7992 177.17 26.3409 178.293 26.0447 178.915C25.9934 179.03 25.848 179.106 25.6781 179.136C25.4338 179.145 25.1862 179.097 25.0103 178.995L21.4522 176.941C21.3599 176.886 21.3007 176.818 21.28 176.746C21.249 176.597 21.4042 176.444 21.6906 176.402C22.7683 176.231 24.713 175.966 27.008 175.845Z" fill="#12125A"/>
<ellipse rx="3.55743" ry="3.55743" transform="matrix(0.866044 0.499967 -0.866044 0.499967 33.7312 172.14)" fill="#F8CD61"/>
</g>
</g>
<path d="M239.985 51.6839C244.557 54.316 244.567 60.9108 240.001 63.5557L90.6343 150.092C86.3955 152.548 81.1684 152.555 76.9228 150.111L10.2872 111.754C5.71458 109.122 5.70535 102.528 10.2706 99.8826L159.638 13.3465C163.876 10.8908 169.103 10.8835 173.349 13.3273L239.985 51.6839Z" fill="#F8CD61"/>
<path d="M240.431 54.9192C245.567 51.9437 245.556 44.5246 240.412 41.5635L173.777 3.20689C169.266 0.610279 163.712 0.618054 159.208 3.22729L9.84105 89.7634C4.70518 92.7389 4.71556 100.158 9.85975 103.119L76.4953 141.476C81.0063 144.072 86.5601 144.065 91.0638 141.455L240.431 54.9192Z" fill="#27272E" stroke="#F8CD61" stroke-width="1.71364"/>
<path d="M53.142 105.882C53.64 106.169 53.9944 106.464 54.2032 106.767C54.4101 107.068 54.4752 107.359 54.3967 107.639C54.32 107.92 54.1036 108.177 53.7473 108.407L53.6707 108.455L52.3911 107.715L52.4352 107.679C52.5846 107.568 52.6651 107.447 52.6765 107.317C52.69 107.187 52.644 107.052 52.5386 106.916C52.4352 106.78 52.2685 106.646 52.0444 106.518C51.8127 106.384 51.5809 106.288 51.3472 106.231C51.1135 106.171 50.8951 106.152 50.6902 106.169C50.4833 106.187 50.3052 106.238 50.1538 106.326C49.9431 106.449 49.8665 106.595 49.9182 106.765C49.968 106.938 50.1423 107.152 50.4373 107.411L50.9871 107.888C51.5311 108.357 51.8165 108.769 51.8452 109.119C51.8701 109.47 51.6307 109.792 51.125 110.087C50.7074 110.33 50.2439 110.477 49.7363 110.533C49.2267 110.588 48.6923 110.552 48.1387 110.422C47.5813 110.292 47.0316 110.069 46.4876 109.755C45.9762 109.46 45.6045 109.159 45.3728 108.851C45.141 108.543 45.0567 108.244 45.1199 107.955C45.1812 107.663 45.3958 107.397 45.7674 107.154L45.8344 107.112L47.114 107.851L47.0699 107.88C46.9339 107.995 46.8669 108.121 46.8669 108.261C46.8669 108.401 46.932 108.547 47.0584 108.698C47.1867 108.849 47.3725 108.995 47.6196 109.136C47.8706 109.282 48.1196 109.387 48.3667 109.453C48.6157 109.518 48.8513 109.544 49.0716 109.529C49.2938 109.514 49.4872 109.46 49.652 109.364C49.8723 109.236 49.9565 109.087 49.9087 108.916C49.8608 108.746 49.675 108.522 49.3532 108.242L48.8092 107.767C48.2977 107.326 48.0315 106.924 48.0104 106.558C47.9893 106.194 48.223 105.871 48.7076 105.589C49.108 105.359 49.5562 105.223 50.06 105.177C50.5638 105.131 51.0848 105.168 51.6192 105.286C52.1555 105.409 52.6631 105.604 53.142 105.882Z" fill="white"/>
<path d="M59.1505 111.398L54.3694 114.176L53.0593 113.419L53.8484 112.961L53.8159 112.942C53.4174 113.032 53.0171 113.053 52.6129 113.002C52.2107 112.95 51.8257 112.82 51.4617 112.609C51.1112 112.408 50.8833 112.193 50.7798 111.965C50.6745 111.739 50.6917 111.51 50.8315 111.28C50.9714 111.05 51.2261 110.826 51.5977 110.611L54.6836 108.818L55.9938 109.575L53.1799 111.211C52.8677 111.393 52.6991 111.577 52.6742 111.762C52.6493 111.948 52.7853 112.126 53.0765 112.295C53.2738 112.41 53.4902 112.481 53.7201 112.511C53.9519 112.54 54.1875 112.532 54.425 112.486C54.6644 112.44 54.8847 112.356 55.0897 112.237L57.8365 110.642L59.1505 111.398Z" fill="white"/>
<path d="M74.0083 125.514L78.7894 122.737L80.1034 123.495L75.3223 126.275L74.0083 125.514Z" fill="white"/>
<path d="M87.8462 130.626L87.4401 130.862L84.1282 128.95C83.8926 129.094 83.7298 129.24 83.6359 129.389C83.5363 129.548 83.521 129.705 83.5842 129.858C83.6493 130.012 83.7949 130.153 84.0228 130.285C84.2029 130.389 84.3868 130.464 84.5745 130.506C84.7622 130.55 84.9423 130.571 85.1108 130.567C85.2813 130.565 85.425 130.548 85.5457 130.513L85.5801 130.502L86.7831 131.197L86.7199 131.218C86.5092 131.299 86.2601 131.362 85.9786 131.406C85.6951 131.448 85.3905 131.462 85.0649 131.446C84.7373 131.431 84.4021 131.373 84.0554 131.278C83.7106 131.182 83.3658 131.034 83.021 130.835C82.5307 130.552 82.2089 130.251 82.0556 129.929C81.9024 129.609 81.9158 129.286 82.0959 128.96C82.2759 128.632 82.6207 128.322 83.1283 128.027C83.6417 127.728 84.178 127.527 84.7431 127.422C85.3062 127.315 85.8655 127.303 86.4134 127.383C86.9631 127.464 87.4726 127.64 87.9419 127.912C88.4112 128.184 88.7196 128.477 88.8652 128.788C89.0089 129.1 88.9955 129.416 88.8231 129.734C88.6545 130.048 88.3289 130.347 87.8462 130.626ZM84.9691 128.479L87.0072 129.655C87.1528 129.548 87.26 129.443 87.3271 129.337C87.4305 129.176 87.4516 129.025 87.3922 128.881C87.3328 128.738 87.2026 128.607 86.9976 128.489C86.7946 128.372 86.5666 128.295 86.3099 128.263C86.0571 128.228 85.7889 128.242 85.5112 128.301C85.3292 128.337 85.1492 128.397 84.9691 128.479Z" fill="white"/>
<path d="M83.0143 125.062C83.4395 125.307 83.7326 125.556 83.8954 125.805C84.0583 126.056 84.1042 126.294 84.0353 126.52C83.9663 126.746 83.7958 126.941 83.5257 127.11L83.4817 127.135L82.2749 126.437L82.3056 126.414C82.4531 126.303 82.5144 126.175 82.4933 126.027C82.4684 125.88 82.3343 125.736 82.093 125.598C81.9416 125.512 81.7922 125.449 81.639 125.409C81.4857 125.37 81.3421 125.355 81.208 125.363C81.0739 125.37 80.9552 125.405 80.8517 125.466C80.7253 125.539 80.6717 125.627 80.6832 125.73C80.6966 125.834 80.7981 125.972 80.9896 126.14L81.6332 126.713C82.0355 127.066 82.2424 127.366 82.2519 127.613C82.2634 127.861 82.0949 128.087 81.7443 128.291C81.4264 128.475 81.0663 128.583 80.6544 128.613C80.2426 128.644 79.8135 128.606 79.3672 128.5C78.9228 128.393 78.4937 128.221 78.08 127.981C77.6375 127.726 77.3234 127.47 77.1376 127.215C76.9537 126.96 76.8866 126.717 76.9403 126.485C76.9958 126.251 77.1529 126.039 77.4172 125.843L77.4517 125.817L78.7313 126.556L78.7006 126.585C78.555 126.717 78.5033 126.857 78.5455 127.002C78.5895 127.148 78.7389 127.295 78.9994 127.445C79.1661 127.543 79.3289 127.613 79.486 127.657C79.643 127.702 79.7905 127.721 79.9304 127.713C80.0702 127.707 80.189 127.675 80.2943 127.613C80.4265 127.537 80.482 127.451 80.4667 127.351C80.4495 127.253 80.3518 127.121 80.1641 126.954L79.5205 126.382C79.1488 126.056 78.9611 125.759 78.9573 125.487C78.9516 125.215 79.1297 124.976 79.486 124.769C79.7963 124.589 80.143 124.482 80.5318 124.449C80.9207 124.416 81.3287 124.451 81.7558 124.554C82.1887 124.658 82.6082 124.826 83.0143 125.062Z" fill="white"/>
<path d="M78.3093 122.458L71.8752 124.284L70.3926 123.428L73.5091 119.687L74.9151 120.499L72.2889 123.19L72.3176 123.205L76.9397 121.667L78.3093 122.458Z" fill="white"/>
<path d="M73.0946 119.334C73.1674 119.376 73.2306 119.419 73.2881 119.461C73.3436 119.505 73.3896 119.543 73.4222 119.58L72.2709 120.248C72.2422 120.202 72.1905 120.152 72.1196 120.097C72.0507 120.041 71.9664 119.984 71.8706 119.93C71.6561 119.806 71.4281 119.723 71.1906 119.685C70.9531 119.647 70.7156 119.648 70.4761 119.693C70.2367 119.738 70.0068 119.825 69.7846 119.955L67.0914 121.52L65.7812 120.763L70.5623 117.984L71.8514 118.729L71.0354 119.204L71.0623 119.219C71.4243 119.093 71.7787 119.039 72.1369 119.058C72.4912 119.08 72.8092 119.17 73.0946 119.334Z" fill="white"/>
<path d="M67.5947 118.934L67.1886 119.17L63.8748 117.256C63.6392 117.4 63.4764 117.546 63.3825 117.695C63.2829 117.854 63.2657 118.011 63.3308 118.164C63.3959 118.318 63.5415 118.459 63.7694 118.592C63.9476 118.695 64.1334 118.77 64.3211 118.812C64.5088 118.854 64.6869 118.875 64.8574 118.873C65.0279 118.871 65.1716 118.854 65.2903 118.818L65.3267 118.808L66.5297 119.501L66.4684 119.522C66.2557 119.603 66.0086 119.666 65.7251 119.708C65.4417 119.75 65.1371 119.766 64.8115 119.749C64.4839 119.733 64.1487 119.676 63.8039 119.58C63.4572 119.484 63.1143 119.337 62.7695 119.137C62.2773 118.854 61.9555 118.551 61.8041 118.231C61.6528 117.912 61.6643 117.588 61.8444 117.262C62.0263 116.937 62.3692 116.624 62.8768 116.329C63.3902 116.031 63.9265 115.831 64.4916 115.724C65.0566 115.619 65.614 115.605 66.1619 115.686C66.7116 115.766 67.2211 115.942 67.6924 116.214C68.1617 116.486 68.4681 116.778 68.6137 117.09C68.7593 117.404 68.744 117.718 68.5716 118.036C68.403 118.356 68.0774 118.655 67.5947 118.934ZM64.7157 116.785L66.7557 117.963C66.9013 117.856 67.0066 117.751 67.0737 117.645C67.1771 117.484 67.1982 117.333 67.1388 117.189C67.0794 117.046 66.9472 116.914 66.7442 116.797C66.5392 116.678 66.3113 116.603 66.0565 116.571C65.8018 116.536 65.5355 116.55 65.2578 116.609C65.0777 116.644 64.8957 116.705 64.7157 116.785Z" fill="white"/>
<path d="M63.4907 115.122C63.2781 115.431 62.9122 115.735 62.395 116.036C61.8721 116.341 61.3492 116.551 60.8205 116.678C60.2918 116.802 59.7823 116.839 59.2919 116.787C58.8035 116.735 58.3553 116.594 57.9511 116.36C57.7232 116.228 57.5488 116.086 57.4301 115.931C57.3094 115.776 57.2443 115.617 57.2366 115.456C57.229 115.293 57.2749 115.132 57.3745 114.969L57.3477 114.954L54.9706 116.335L53.6604 115.578L60.0026 111.893L61.3128 112.65L60.4796 113.134L60.5102 113.151C60.7899 113.09 61.0714 113.06 61.353 113.06C61.6346 113.06 61.9085 113.094 62.1728 113.161C62.4372 113.228 62.6843 113.326 62.9103 113.458C63.3183 113.694 63.5673 113.952 63.665 114.238C63.7627 114.519 63.7033 114.814 63.4907 115.122ZM61.0523 115.266C61.3492 115.094 61.5541 114.923 61.6786 114.751C61.8012 114.578 61.8396 114.416 61.7936 114.257C61.7476 114.1 61.6174 113.96 61.4009 113.835C61.1902 113.713 60.945 113.638 60.6692 113.611C60.3934 113.584 60.1041 113.605 59.8034 113.678C59.5027 113.749 59.2077 113.868 58.9184 114.036C58.6292 114.205 58.4261 114.375 58.3074 114.55C58.1886 114.726 58.1503 114.893 58.1963 115.052C58.2403 115.211 58.3706 115.352 58.5832 115.475C58.8016 115.601 59.0468 115.676 59.3226 115.701C59.5965 115.726 59.88 115.701 60.1769 115.628C60.47 115.553 60.763 115.433 61.0523 115.266Z" fill="white"/>
<path d="M80.0601 122.762C79.8628 122.649 79.7632 122.513 79.7632 122.355C79.7632 122.198 79.8551 122.066 80.039 121.959C80.2267 121.85 80.4547 121.798 80.7228 121.798C80.991 121.8 81.2247 121.857 81.422 121.97C81.6193 122.085 81.7189 122.219 81.7208 122.375C81.7227 122.53 81.6308 122.66 81.4431 122.769C81.2592 122.876 81.0312 122.93 80.7612 122.932C80.493 122.932 80.2574 122.876 80.0601 122.762Z" fill="white"/>
<path d="M46.0536 93.9807C48.5791 95.4198 48.5924 97.7517 46.083 99.1908L34.5648 105.794C32.0554 107.233 27.9726 107.233 25.4471 105.794L13.854 99.1908C11.3285 97.7517 11.3152 95.4198 13.8246 93.9807L25.3428 87.3779C27.8522 85.9388 31.935 85.9388 34.4605 87.3779L46.0536 93.9807Z" fill="#F3F5F6"/>
<path d="M32.5977 95.8424L28.6378 98.1285C28.4391 98.2432 28.0772 98.1982 27.8673 98.0442C26.608 97.1206 26.4734 95.9285 27.6231 95.2648C28.7869 94.5929 30.8376 94.6788 32.4376 95.4058C32.7184 95.5188 32.7822 95.7359 32.5977 95.8424Z" fill="#12125A"/>
<path d="M25.7675 91.2771C26.547 90.8271 27.6832 90.6515 28.7479 90.8164L31.1102 91.1823L23.6413 95.4941L19.5583 94.8617L25.7675 91.2771Z" fill="#EA7B59"/>
<path d="M33.4657 101.551C32.6862 102.001 31.55 102.176 30.4853 102.011L28.1229 101.646L35.5919 97.3338L39.6749 97.9662L33.4657 101.551Z" fill="#EA7B59"/>
<path d="M19.6716 95.4859L23.7653 96.1409L26.415 101.941L24.0283 101.559C22.9712 101.39 22.1493 100.91 21.8696 100.298L19.6716 95.4859Z" fill="#F8CD61"/>
<path d="M39.5609 97.342L35.4672 96.687L32.8175 90.8866L35.2041 91.2684C36.2612 91.4375 37.0832 91.918 37.3629 92.5304L39.5609 97.342Z" fill="#F8CD61"/>
<path d="M329.712 107.121C334.285 109.753 334.294 116.348 329.729 118.992L180.362 205.529C176.123 207.984 170.896 207.992 166.65 205.548L100.014 167.191C95.4419 164.559 95.4326 157.964 99.9979 155.319L249.365 68.7833C253.604 66.3276 258.831 66.3203 263.076 68.7641L329.712 107.121Z" fill="#48BD69"/>
<path d="M330.159 110.356C335.295 107.38 335.285 99.9612 330.14 97.0001L263.505 58.6435C258.994 56.0469 253.44 56.0547 248.936 58.6639L99.5693 145.2C94.4334 148.176 94.4438 155.595 99.588 158.556L166.224 196.912C170.735 199.509 176.288 199.501 180.792 196.892L330.159 110.356Z" fill="#27272E" stroke="#48BD69" stroke-width="1.71364"/>
<path d="M150.189 167.238C150.503 167.42 150.712 167.617 150.815 167.832C150.917 168.046 150.915 168.261 150.804 168.477C150.695 168.694 150.478 168.897 150.155 169.085L146.885 170.985L145.575 170.228L148.513 168.519C148.789 168.359 148.934 168.198 148.95 168.033C148.963 167.868 148.842 167.713 148.59 167.567C148.425 167.472 148.243 167.41 148.042 167.382C147.843 167.355 147.641 167.361 147.438 167.397C147.235 167.435 147.044 167.506 146.868 167.61L143.964 169.297L142.703 168.569L145.682 166.838C145.94 166.686 146.073 166.529 146.078 166.366C146.084 166.202 145.967 166.052 145.724 165.911C145.559 165.817 145.375 165.755 145.17 165.729C144.965 165.702 144.761 165.708 144.554 165.748C144.345 165.786 144.155 165.859 143.975 165.962L141.089 167.638L139.778 166.882L144.559 164.102L145.87 164.859L145.067 165.326L145.094 165.342C145.465 165.24 145.852 165.209 146.255 165.252C146.655 165.294 147.019 165.409 147.341 165.595C147.565 165.723 147.73 165.863 147.831 166.012C147.933 166.16 147.975 166.313 147.952 166.468C147.931 166.625 147.839 166.778 147.68 166.93L147.707 166.945C147.98 166.87 148.262 166.83 148.555 166.828C148.848 166.826 149.134 166.859 149.413 166.928C149.697 167 149.953 167.102 150.189 167.238Z" fill="white"/>
<path d="M143.404 161.518L139.226 166.562L137.799 165.738L138.874 164.55L136.583 163.229L134.535 163.853L133.112 163.031L141.806 160.595L143.005 161.288L143.404 161.518ZM137.906 162.825L139.567 163.784L141.37 161.792L141.343 161.777L137.906 162.825Z" fill="white"/>
<path d="M161.475 173.161C161.277 173.046 161.178 172.912 161.176 172.753C161.176 172.596 161.268 172.464 161.452 172.357C161.639 172.247 161.867 172.196 162.135 172.196C162.406 172.198 162.637 172.255 162.837 172.37C163.034 172.483 163.133 172.619 163.135 172.774C163.137 172.929 163.045 173.06 162.858 173.169C162.674 173.276 162.446 173.33 162.176 173.332C161.906 173.33 161.672 173.274 161.475 173.161Z" fill="white"/>
<path d="M168.778 178.085L170.165 178.886L163.646 180.76C163.144 180.905 162.69 180.986 162.282 181.005C161.874 181.022 161.491 180.98 161.135 180.878C160.777 180.777 160.422 180.624 160.064 180.419C159.936 180.344 159.819 180.269 159.71 180.194C159.603 180.118 159.516 180.053 159.453 179.999L160.422 179.436C160.459 179.467 160.51 179.509 160.576 179.559C160.641 179.608 160.723 179.662 160.817 179.717C161.014 179.832 161.204 179.903 161.382 179.93C161.562 179.957 161.759 179.942 161.976 179.88L162.187 179.821L165.272 176.063L166.713 176.894L163.991 179.652L164.029 179.673L168.778 178.085Z" fill="white"/>
<path d="M166.081 174.498C166.2 174.567 166.317 174.64 166.428 174.716C166.539 174.793 166.627 174.858 166.687 174.91L165.825 175.41C165.786 175.381 165.739 175.348 165.685 175.31C165.629 175.272 165.572 175.237 165.513 175.203C165.298 175.078 165.093 175.013 164.901 175.007C164.708 175.002 164.528 175.048 164.357 175.147L164.024 175.341L164.98 175.892L163.997 176.463L163.072 175.929L159.272 178.137L157.962 177.381L161.762 175.172L161.107 174.793L162.09 174.222L162.745 174.601L163.124 174.381C163.593 174.107 164.061 173.977 164.528 173.988C164.995 174 165.514 174.168 166.081 174.498Z" fill="white"/>
<path d="M155.422 175.911L160.203 173.134L161.519 173.894L156.738 176.672L155.422 175.911Z" fill="white"/>
<path d="M160.95 171.648L154.514 175.388L153.204 174.632L159.64 170.891L160.95 171.648Z" fill="white"/>
<path d="M155.985 171.917C155.77 172.224 155.406 172.529 154.887 172.829C154.364 173.134 153.843 173.345 153.314 173.471C152.786 173.595 152.276 173.632 151.786 173.582C151.295 173.53 150.849 173.387 150.445 173.155C150.217 173.023 150.043 172.881 149.924 172.724C149.803 172.569 149.74 172.41 149.731 172.249C149.723 172.086 149.769 171.925 149.868 171.762L149.842 171.747L147.464 173.128L146.154 172.371L152.496 168.686L153.807 169.443L152.973 169.927L153.006 169.946C153.286 169.885 153.565 169.853 153.849 169.855C154.13 169.855 154.404 169.889 154.667 169.956C154.931 170.023 155.178 170.121 155.404 170.253C155.812 170.489 156.063 170.749 156.159 171.033C156.257 171.314 156.197 171.609 155.985 171.917ZM153.546 172.061C153.843 171.889 154.05 171.718 154.173 171.546C154.295 171.373 154.333 171.209 154.287 171.052C154.242 170.895 154.109 170.753 153.895 170.63C153.682 170.508 153.437 170.433 153.161 170.406C152.885 170.379 152.596 170.4 152.295 170.473C151.993 170.544 151.7 170.663 151.41 170.829C151.121 170.998 150.918 171.169 150.799 171.343C150.681 171.519 150.642 171.686 150.688 171.845C150.732 172.004 150.863 172.145 151.075 172.268C151.294 172.394 151.539 172.469 151.813 172.494C152.087 172.519 152.37 172.496 152.669 172.421C152.964 172.348 153.257 172.228 153.546 172.061Z" fill="white"/>
<path d="M136.352 149.418C138.878 150.857 138.891 153.189 136.382 154.628L124.864 161.23C122.354 162.67 118.271 162.67 115.746 161.23L104.153 154.628C101.627 153.189 101.614 150.857 104.123 149.418L115.642 142.815C118.151 141.376 122.234 141.376 124.759 142.815L136.352 149.418Z" fill="#F3F5F6"/>
<g clip-path="url(#clip2_491_116494)">
<path d="M122.581 155.092C122.654 155.138 122.699 155.191 122.707 155.249C122.724 155.323 122.679 155.402 122.581 155.464L120.837 156.486C120.665 156.589 120.384 156.589 120.208 156.486L118.452 155.464C118.285 155.365 118.28 155.208 118.44 155.105C118.444 155.101 118.448 155.101 118.452 155.096L118.922 154.82C119.093 154.717 119.375 154.717 119.546 154.82L120.184 155.191C120.359 155.294 120.641 155.294 120.808 155.191L121.458 154.812C121.629 154.709 121.911 154.709 122.087 154.812L122.581 155.092Z" fill="#10104E"/>
<path d="M122.581 155.076C122.662 155.125 122.707 155.187 122.711 155.249C122.699 155.191 122.658 155.138 122.585 155.092L122.099 154.808C121.923 154.705 121.641 154.705 121.47 154.808L120.821 155.187C120.649 155.286 120.367 155.286 120.196 155.187L119.559 154.816C119.387 154.717 119.105 154.717 118.934 154.816L118.464 155.092C118.46 155.096 118.456 155.096 118.452 155.101C118.464 155.092 118.476 155.084 118.493 155.076L119.261 154.626L120.22 154.061C120.392 153.962 120.674 153.962 120.845 154.061L121.813 154.626L122.581 155.076Z" fill="#3EA35A"/>
<path d="M124.247 151.327C124.422 151.43 124.422 151.595 124.251 151.694L120.841 153.694C120.669 153.793 120.388 153.797 120.212 153.694L116.81 151.71C116.635 151.607 116.639 151.442 116.806 151.343L120.216 149.343C120.388 149.24 120.669 149.24 120.845 149.343L124.247 151.327Z" fill="#3EA35A"/>
<path d="M122.569 147.578C122.744 147.681 122.744 147.846 122.573 147.945L121.789 148.407L120.829 148.968C120.657 149.071 120.376 149.071 120.2 148.968L119.248 148.411L118.983 148.258C119.154 148.32 119.383 148.308 119.534 148.217L120.179 147.838C120.351 147.734 120.633 147.734 120.808 147.838L121.445 148.209C121.621 148.312 121.903 148.312 122.074 148.209L122.544 147.932C122.716 147.833 122.716 147.668 122.54 147.565L120.784 146.543C120.747 146.522 120.706 146.505 120.665 146.493C120.719 146.505 120.768 146.526 120.812 146.551L122.569 147.578Z" fill="#3EA35A"/>
<path d="M122.54 147.569C122.715 147.673 122.715 147.838 122.544 147.937L122.074 148.213C121.903 148.316 121.621 148.316 121.445 148.213L120.808 147.842C120.633 147.739 120.351 147.739 120.179 147.842L119.534 148.217C119.383 148.304 119.154 148.316 118.983 148.254C118.954 148.246 118.93 148.233 118.905 148.217L118.415 147.932C118.24 147.829 118.24 147.664 118.411 147.565L120.155 146.543C120.29 146.464 120.498 146.448 120.661 146.493C120.706 146.505 120.743 146.522 120.78 146.543L122.54 147.569Z" fill="#10104E"/>
<path d="M127.861 149.207C128.037 149.31 128.037 149.475 127.865 149.574L126.154 150.58C125.983 150.683 125.701 150.683 125.525 150.58L121.793 148.407L122.577 147.945C122.748 147.846 122.748 147.681 122.573 147.578L120.817 146.555C120.772 146.53 120.723 146.51 120.67 146.497C120.502 146.448 120.298 146.464 120.163 146.547L118.419 147.57C118.248 147.673 118.248 147.838 118.423 147.937L118.913 148.221C118.938 148.234 118.962 148.246 118.991 148.258L119.257 148.411L115.532 150.597C115.361 150.696 115.079 150.7 114.907 150.597L113.135 149.566C112.959 149.463 112.963 149.298 113.131 149.199L120.147 145.078C120.318 144.975 120.6 144.975 120.776 145.078L127.861 149.207Z" fill="#32CECE"/>
<path d="M127.869 153.434C128.045 153.537 128.045 153.702 127.873 153.801L120.853 157.922C120.682 158.021 120.4 158.025 120.224 157.922L113.2 153.83C113.024 153.727 113.028 153.562 113.196 153.463L114.911 152.457C115.083 152.358 115.364 152.358 115.536 152.457L119.252 154.622L118.485 155.072C118.472 155.08 118.456 155.088 118.444 155.096C118.284 155.2 118.289 155.356 118.456 155.455L120.212 156.478C120.388 156.581 120.669 156.581 120.841 156.478L122.585 155.455C122.683 155.398 122.728 155.319 122.711 155.241C122.707 155.179 122.662 155.117 122.581 155.068L121.809 154.618L125.533 152.432C125.705 152.329 125.987 152.329 126.158 152.432L127.869 153.434Z" fill="#29BABA"/>
</g>
<defs>
<linearGradient id="paint0_linear_491_116494" x1="169.633" y1="233.736" x2="169.974" y2="298.901" gradientUnits="userSpaceOnUse">
<stop stop-color="#847CF4"/>
<stop offset="1" stop-color="#847CF4" stop-opacity="0"/>
</linearGradient>
<linearGradient id="paint1_linear_491_116494" x1="169.634" y1="157.725" x2="169.975" y2="222.89" gradientUnits="userSpaceOnUse">
<stop stop-color="#847CF4"/>
<stop offset="1" stop-color="#847CF4" stop-opacity="0"/>
</linearGradient>
<clipPath id="clip0_491_116494">
<rect width="19.1085" height="19.1085" rx="7.55543" transform="matrix(0.866044 0.499967 -0.866044 0.499967 30.0339 164.416)" fill="white"/>
</clipPath>
<clipPath id="clip1_491_116494">
<rect width="15.4574" height="15.5109" fill="white" transform="matrix(0.866044 0.499967 -0.866044 0.499967 30.0129 166.373)"/>
</clipPath>
<clipPath id="clip2_491_116494">
<rect width="15" height="13" fill="white" transform="translate(113 145)"/>
</clipPath>
</defs>
</svg>
