<svg width="40" height="40" viewBox="0 0 40 40" fill="none" xmlns="http://www.w3.org/2000/svg">
<path d="M32.1222 12.5457C31.5222 12.5457 31.0358 13.0321 31.0358 13.6321V29.8972C31.0358 30.4972 30.5494 30.9836 29.9494 30.9836H13.7859C13.1859 30.9836 12.6995 31.47 12.6995 32.07V38.0241C12.6995 38.6241 13.1859 39.1105 13.7859 39.1105H38.0255C38.6255 39.1105 39.1119 38.6241 39.1119 38.0241V13.6321C39.1119 13.0321 38.6255 12.5457 38.0255 12.5457H32.1222Z" fill="#30D8D8"/>
<path d="M7.19287 26.5648C7.79288 26.5648 8.27928 26.0784 8.27928 25.4784V9.21331C8.27928 8.6133 8.76568 8.1269 9.36569 8.1269H25.5292C26.1292 8.1269 26.6156 7.6405 26.6156 7.04049V1.08641C26.6156 0.486403 26.1292 0 25.5292 0H1.08641C0.486401 0 0 0.486402 0 1.08641V25.4784C0 26.0784 0.486402 26.5648 1.08641 26.5648H7.19287Z" fill="#30D8D8"/>
<path d="M25.5304 12.5457H13.7859C13.1859 12.5457 12.6995 13.0321 12.6995 13.6321V25.4782C12.6995 26.0782 13.1859 26.5646 13.7859 26.5646H25.5304C26.1304 26.5646 26.6168 26.0782 26.6168 25.4782V13.6321C26.6168 13.0321 26.1304 12.5457 25.5304 12.5457Z" fill="#48BD69"/>
<g style="mix-blend-mode:multiply">
<path d="M33.7047 26.5649H27.6998C27.0998 26.5649 26.6134 27.0513 26.6134 27.6514V33.6562C26.6134 34.2562 27.0998 34.7426 27.6998 34.7426H33.7047C34.3047 34.7426 34.7911 34.2562 34.7911 33.6562V27.6514C34.7911 27.0513 34.3047 26.5649 33.7047 26.5649Z" fill="#48BD69"/>
</g>
<g style="mix-blend-mode:multiply">
<path d="M11.5611 4.31738H5.50548C4.90547 4.31738 4.41907 4.80379 4.41907 5.40379V11.4595C4.41907 12.0595 4.90547 12.5459 5.50548 12.5459H11.5611C12.1612 12.5459 12.6476 12.0595 12.6476 11.4595V5.40379C12.6476 4.80378 12.1612 4.31738 11.5611 4.31738Z" fill="#48BD69"/>
</g>
<g style="mix-blend-mode:multiply">
<path d="M11.4885 8.15497C12.0885 8.15497 12.5749 7.66857 12.5749 7.06857V5.43187C12.5749 4.83186 12.0885 4.34546 11.4885 4.34546H5.43285C4.83284 4.34546 4.34644 4.83186 4.34644 5.43187V11.4875C4.34644 12.0875 4.83284 12.5739 5.43284 12.5739H7.12034C7.72034 12.5739 8.20674 12.0875 8.20674 11.4875V9.24138C8.20674 8.64138 8.69315 8.15497 9.29315 8.15497H11.4885Z" fill="#12125A"/>
</g>
<g style="mix-blend-mode:multiply">
<path d="M27.7018 31.0357C27.1018 31.0357 26.6154 31.5221 26.6154 32.1221V33.7588C26.6154 34.3588 27.1018 34.8452 27.7018 34.8452H33.7574C34.3574 34.8452 34.8438 34.3588 34.8438 33.7588V27.7031C34.8438 27.1031 34.3574 26.6167 33.7574 26.6167H32.0699C31.4699 26.6167 30.9835 27.1031 30.9835 27.7031V29.9493C30.9835 30.5493 30.4971 31.0357 29.8971 31.0357H27.7018Z" fill="#12125A"/>
</g>
</svg>
